<svg xmlns="http://www.w3.org/2000/svg" width="182" height="182" viewBox="0 0 182 182">
  <g id="Orchids_secondary" transform="translate(-2381 698)">
    <g id="Orchids_secondary-2" data-name="Orchids_secondary" transform="translate(2408 -697.75)">
      <g id="Group_4540" data-name="Group 4540" transform="translate(0 41.75)">
        <path id="Path_7145" data-name="Path 7145" d="M124.51,68.489,73.172,43.41C68.746,41.2,61.222,41.2,56.8,43.41L4.278,68.489C.59,70.259,0,72.767,0,74.094S.59,77.783,4.278,79.7l4.278,2.065v23.6a7.228,7.228,0,0,0-4.573,6.639,7.324,7.324,0,0,0,4.426,6.639l-6.639,21.1H20.358l-6.639-21.1a7.148,7.148,0,0,0-.148-13.277v-21.1l7.819,3.836v30.685a2.38,2.38,0,0,0,.443,1.328c.738.885,14.457,19.621,42.487,19.621s41.749-18.883,42.339-19.621a2.38,2.38,0,0,0,.443-1.328V88.257L124.51,79.7c3.688-1.77,4.278-4.278,4.278-5.606C128.64,72.767,128.2,70.259,124.51,68.489Zm-22.129,49.568c-2.36,2.95-15.047,17.113-38.061,17.113s-35.7-14.162-38.061-17.113V90.175l30.537,14.6A19.9,19.9,0,0,0,64.91,106.4a17.963,17.963,0,0,0,8.261-1.77l29.21-14.31ZM122.444,75.57l-17.7,8.7a1.7,1.7,0,0,0-1.623.885l-32.013,15.49c-3.1,1.623-9.146,1.623-12.392,0L19.326,81.766l45.29-5.311a2.3,2.3,0,1,0-.443-4.573l-52.518,6.2L6.344,75.57a2.976,2.976,0,0,1-1.623-1.328c0-.148.3-.738,1.623-1.328L58.862,47.688a15.239,15.239,0,0,1,6.048-1.18,14.953,14.953,0,0,1,6.2,1.18l51.338,25.079c1.328.59,1.623,1.18,1.623,1.475A4.057,4.057,0,0,1,122.444,75.57Z" transform="translate(0 -41.75)" fill="#222439"/>
      </g>
    </g>
    <rect id="Rectangle_1771" data-name="Rectangle 1771" width="182" height="182" transform="translate(2381 -698)" fill="#fff" opacity="0"/>
  </g>
</svg>
