<?xml version="1.0" encoding="utf-8"?>
<!-- Generator: Adobe Illustrator 26.5.0, SVG Export Plug-In . SVG Version: 6.00 Build 0)  -->
<svg version="1.1" id="Layer_1" xmlns="http://www.w3.org/2000/svg" xmlns:xlink="http://www.w3.org/1999/xlink" x="0px" y="0px"
	 viewBox="0 0 500 346.57" style="enable-background:new 0 0 500 346.57;" xml:space="preserve">
<style type="text/css">
	.st0{fill:none;stroke:#ECA60C;stroke-width:6;stroke-miterlimit:10;}
</style>
<g>
	<path class="st0" d="M4.8,325.15c0.21-29.17,0.42-58.34,0.63-87.5c15.58-0.31,31.22-0.59,46.91-0.84
		c9.69-0.15,19.37-0.29,29.03-0.42c39.4,0.07,78.81,0.14,118.21,0.21c0.09,30.73,0.18,61.46,0.26,92.18
		c-54.92-0.16-109.83-0.32-164.75-0.47C25,327.25,14.9,326.2,4.8,325.15z"/>
	<path class="st0" d="M199.58,242.7c0-6.66,0-13.32,0-19.98"/>
	<path class="st0" d="M210.94,222.29c0.21,35.9,0.42,71.8,0.63,107.7"/>
	<path class="st0" d="M201.26,328.62c86.35,0,172.69,0,259.04,0c10.1-1.79,20.19-3.58,30.29-5.36c-0.42-27.55-0.84-55.11-1.26-82.66
		c-9.57-1.37-19.14-2.73-28.71-4.1c-56.16-0.04-112.32-0.07-168.48-0.11c0.07,30.75,0.14,61.49,0.21,92.24"/>
	<path class="st0" d="M291.71,222.82c0.14,5.5,0.28,11.01,0.43,16.51"/>
	<path class="st0" d="M279.93,222.71c0,35.3,0,70.61,0,105.91"/>
	<path class="st0" d="M80.38,236.06c-0.07-5.59-0.13-11.17-0.2-16.76c109.81,0.02,219.62,0.04,329.42,0.05
		c0.03,5.64,0.07,11.29,0.11,16.93"/>
	<path class="st0" d="M80.21,219.82c0.1-7.46,0.19-14.92,0.29-22.38c109.53,0.01,219.05,0.02,328.58,0.03
		c0.18,8.41,0.36,16.83,0.55,25.24"/>
	<path class="st0" d="M92.31,197.45c1.76-14.66,7.55-46.08,30.71-77.38c25.15-34,56.68-48.78,70.36-54.27
		c12.14-0.38,30.02-0.89,51.74-1.26c29.13-0.5,43.82-0.73,50.07,0.53c35.24,7.09,57.28,35.81,69.83,52.16
		c23.24,30.28,31.04,61.61,33.97,80.25"/>
	<path class="st0" d="M291.89,64.61c0.01-8.93,0.02-17.86,0.03-26.78c-31.05-0.07-62.1-0.14-93.15-0.21
		c0.13,9.18,0.26,18.37,0.39,27.55"/>
	<path class="st0" d="M194.95,197.46c-0.11,7.29-0.21,14.57-0.32,21.86"/>
	<path class="st0" d="M215.93,197.46c-0.05,7.29-0.11,14.57-0.16,21.86"/>
	<path class="st0" d="M279.93,242.7c4.07,0,8.14,0,12.21,0"/>
	<path class="st0" d="M279.93,261.21c4.09,0.07,8.17,0.14,12.26,0.21"/>
	<path class="st0" d="M279.93,281.82c4.1,0,8.2,0,12.3,0"/>
	<path class="st0" d="M279.77,304.85c4.1,0,8.2,0,12.3,0"/>
	<path class="st0" d="M199.63,304.06c4.1,0,8.2,0,12.3,0"/>
	<path class="st0" d="M199.42,268.73c4.1,0,8.2,0,12.3,0"/>
	<path class="st0" d="M198.79,242.64c4.1,0,8.2,0,12.3,0"/>
	<path class="st0" d="M199.53,281.66c4.1,0,8.2,0,12.3,0"/>
	<path class="st0" d="M4.7,264.89c4.76,0.37,9.52,0.75,14.28,1.12c60.15,0.91,120.29,1.81,180.44,2.72"/>
	<path class="st0" d="M5.01,295.18c4.21,0.42,8.41,0.84,12.62,1.26c60.37,0.63,120.74,1.26,181.11,1.89"/>
	<path class="st0" d="M292.2,266.15c56.66,0.21,113.33,0.42,169.99,0.63c9.17-0.32,18.35-0.63,27.52-0.95"/>
	<path class="st0" d="M292.27,297.07c56.85,0.32,113.7,0.63,170.55,0.95c9.11-1.05,18.22-2.1,27.33-3.15"/>
	<path class="st0" d="M309.8,235.55c0.21,31.03,0.42,62.05,0.63,93.08"/>
	<path class="st0" d="M328.42,236.49c0,30.71,0,61.42,0,92.13"/>
	<path class="st0" d="M346.4,237.12c-0.11,30.5-0.21,61-0.32,91.5"/>
	<path class="st0" d="M368.8,236.49c-0.11,30.71-0.21,61.42-0.32,92.13"/>
	<path class="st0" d="M387.73,236.49c0.11,30.71,0.21,61.42,0.32,92.13"/>
	<path class="st0" d="M406.03,239.96c0-2.74,0-4.1,0-4.1c0.02,0,0.12,30.92,0.32,92.76"/>
	<path class="st0" d="M424.33,236.18c0.21,30.82,0.42,61.63,0.63,92.45"/>
	<path class="st0" d="M441.37,236.18c-0.21,30.82-0.42,61.63-0.63,92.45"/>
	<path class="st0" d="M460.62,236.49c-0.11,30.71-0.21,61.42-0.32,92.13"/>
	<path class="st0" d="M476.08,238.7c0.04,29.04,0.08,58.07,0.12,87.11"/>
	<path class="st0" d="M49.19,236.26c0.21,31.03,0.42,62.05,0.63,93.08"/>
	<path class="st0" d="M67.8,237.21c0,30.71,0,61.42,0,92.13"/>
	<path class="st0" d="M85.78,237.84c-0.11,30.5-0.21,61-0.32,91.5"/>
	<path class="st0" d="M108.19,237.21c-0.11,30.71-0.21,61.42-0.32,92.13"/>
	<path class="st0" d="M127.12,237.21c0.11,30.71,0.21,61.42,0.32,92.13"/>
	<path class="st0" d="M145.42,240.68c0.01-0.4,0.01-0.8,0.02-1.19c0.1,29.95,0.2,59.9,0.3,89.85"/>
	<path class="st0" d="M163.72,236.89c0.21,30.82,0.42,61.63,0.63,92.45"/>
	<path class="st0" d="M180.75,236.89c-0.21,30.82-0.42,61.63-0.63,92.45"/>
	<path class="st0" d="M33.25,237.13c0.05,30.33,0.1,60.67,0.14,91"/>
	<path class="st0" d="M19.37,237.38c0.05,29.52,0.11,59.04,0.16,88.56"/>
	<path class="st0" d="M211.03,237.13c22.97,0.05,45.94,0.1,68.91,0.15"/>
	<path class="st0" d="M215.15,37.61c0.03,9.19,0.07,18.37,0.1,27.56"/>
	<path class="st0" d="M230.4,37.3c0.03,9.17,0.07,18.35,0.1,27.52"/>
	<path class="st0" d="M246.32,37.72c0.03,9.17,0.07,18.35,0.1,27.52"/>
	<path class="st0" d="M260.55,37.3c0.03,9.17,0.07,18.35,0.1,27.52"/>
	<path class="st0" d="M276.71,37.3c0.03,9.17,0.07,18.35,0.1,27.52"/>
	<path class="st0" d="M229.87,38.24c-0.03-4.21-0.07-8.41-0.11-12.62c10.52,0.07,21.03,0.14,31.55,0.21
		c-0.03,4.03-0.07,8.06-0.11,12.09"/>
	<path class="st0" d="M234.5,25.65c0-2.96,0-5.91,0-8.87c2.73-5.23,8.28-8.04,13.46-7.05c5.71,1.1,8.33,6.32,8.62,6.94
		c0.11,3.04,0.21,6.08,0.32,9.12"/>
	<path class="st0" d="M199.11,197.34c0.21-38.84,0.42-77.68,0.63-116.51c0.75-2.78,3.32-4.61,5.99-4.42c2.29,0.17,4.31,1.8,5.05,4.1
		c-0.32,38.94-0.63,77.89-0.95,116.83"/>
	<path class="st0" d="M281.85,197.34c0.21-38.84,0.42-77.68,0.63-116.51c0.75-2.78,3.32-4.61,5.99-4.42c2.29,0.17,4.31,1.8,5.05,4.1
		c-0.32,38.94-0.63,77.89-0.95,116.83"/>
	<path class="st0" d="M210.63,99.24c6.57-2.93,19.26-7.56,35.75-7.1c16.92,0.48,29.59,6.09,35.99,9.47"/>
	<path class="st0" d="M210.54,110.13c7.05-3.04,19.43-7.32,35.37-7.42c16.5-0.1,29.29,4.34,36.41,7.42"/>
	<path class="st0" d="M210.19,135.69c6.57-2.93,19.26-7.56,35.75-7.1c16.92,0.48,29.59,6.09,35.99,9.47"/>
	<path class="st0" d="M210.1,146.58c7.05-3.04,19.43-7.32,35.37-7.42c16.49-0.1,29.29,4.34,36.41,7.42"/>
	<path class="st0" d="M210.38,175.43c6.57-2.93,19.26-7.56,35.75-7.1c16.92,0.48,29.59,6.09,35.99,9.47"/>
	<path class="st0" d="M210.29,186.32c7.05-3.04,19.43-7.32,35.37-7.42c16.49-0.1,29.29,4.34,36.41,7.42"/>
	<path class="st0" d="M234.66,103.48c0.02,8.52,0.04,17.04,0.06,25.57"/>
	<path class="st0" d="M245.12,102.72c0.05,8.62,0.1,17.24,0.15,25.86"/>
	<path class="st0" d="M256.36,103.26c-0.01,8.77-0.02,17.53-0.02,26.3"/>
	<path class="st0" d="M234.06,139.96c0.12,9.63,0.25,19.26,0.37,28.89"/>
	<path class="st0" d="M245.47,139.16c-0.07,9.72-0.13,19.43-0.2,29.15"/>
	<path class="st0" d="M245.59,139.94"/>
	<path class="st0" d="M256.34,139.76c-0.01,9.83-0.03,19.67-0.04,29.5"/>
	<path class="st0" d="M199.23,131.99c-9,0-18,0-26.99,0c-2.79,1.96-4.1,5.21-3.31,8.05c0.69,2.49,2.75,3.77,3.31,4.1
		c8.98,0,17.95,0,26.93,0"/>
	<path class="st0" d="M199.23,174.17c-9,0-18,0-26.99,0c-2.79,1.96-4.1,5.21-3.31,8.05c0.69,2.49,2.75,3.77,3.31,4.1
		c8.98,0,17.95,0,26.93,0"/>
	<path class="st0" d="M199.23,97.98c-9,0-18,0-26.99,0c-2.79,1.96-4.1,5.21-3.31,8.05c0.69,2.49,2.75,3.77,3.31,4.1
		c8.98,0,17.95,0,26.93,0"/>
	<path class="st0" d="M293.66,133.33c9-0.04,17.99-0.07,26.99-0.11c2.8,1.94,4.12,5.19,3.34,8.03c-0.68,2.5-2.73,3.78-3.3,4.11
		c-8.98,0.04-17.95,0.07-26.93,0.11"/>
	<path class="st0" d="M293.82,175.51c9-0.04,17.99-0.07,26.99-0.11c2.8,1.94,4.12,5.19,3.34,8.03c-0.68,2.5-2.73,3.78-3.3,4.11
		c-8.98,0.04-17.95,0.07-26.93,0.11"/>
	<path class="st0" d="M293.52,99.33c9-0.04,17.99-0.07,26.99-0.11c2.8,1.94,4.12,5.19,3.34,8.03c-0.68,2.5-2.73,3.78-3.3,4.11
		c-8.98,0.04-17.95,0.07-26.93,0.11"/>
</g>
</svg>
