<svg id="Layer_1" data-name="Layer 1" xmlns="http://www.w3.org/2000/svg" viewBox="0 0 120 70"><defs><style>.cls-1{fill:#f5aa08;}</style></defs><path class="cls-1" d="M104.89,70H15.11a.82.82,0,1,1,0-1.63h89.78a.82.82,0,1,1,0,1.63Z"/><path class="cls-1" d="M60,39.43a2.34,2.34,0,1,0-2.33-2.34A2.33,2.33,0,0,0,60,39.43Zm.7-2.34a.7.7,0,1,1-.7-.7A.7.7,0,0,1,60.7,37.09Z"/><path class="cls-1" d="M21.06,55.59a.82.82,0,0,0,.82-.82V53.41a.82.82,0,1,0-1.64,0v1.36A.82.82,0,0,0,21.06,55.59Z"/><path class="cls-1" d="M25.43,55.59a.82.82,0,0,0,.81-.82V53.41a.82.82,0,1,0-1.63,0v1.36A.82.82,0,0,0,25.43,55.59Z"/><path class="cls-1" d="M29.79,55.59a.82.82,0,0,0,.82-.82V53.41a.82.82,0,1,0-1.64,0v1.36A.82.82,0,0,0,29.79,55.59Z"/><path class="cls-1" d="M34.15,55.59a.82.82,0,0,0,.82-.82V53.41a.82.82,0,1,0-1.64,0v1.36A.82.82,0,0,0,34.15,55.59Z"/><path class="cls-1" d="M38.52,55.59a.82.82,0,0,0,.81-.82V53.41a.82.82,0,1,0-1.63,0v1.36A.82.82,0,0,0,38.52,55.59Z"/><path class="cls-1" d="M42.88,55.59a.82.82,0,0,0,.82-.82V53.41a.82.82,0,1,0-1.64,0v1.36A.82.82,0,0,0,42.88,55.59Z"/><path class="cls-1" d="M47.24,55.59a.82.82,0,0,0,.82-.82V53.41a.82.82,0,1,0-1.64,0v1.36A.82.82,0,0,0,47.24,55.59Z"/><path class="cls-1" d="M21.06,64.86a.82.82,0,0,0-.82.82v1.37a.82.82,0,0,0,1.64,0V65.68A.82.82,0,0,0,21.06,64.86Z"/><path class="cls-1" d="M25.43,64.86a.82.82,0,0,0-.82.82v1.37a.82.82,0,0,0,1.63,0V65.68A.82.82,0,0,0,25.43,64.86Z"/><path class="cls-1" d="M29.79,64.86a.82.82,0,0,0-.82.82v1.37a.82.82,0,0,0,1.64,0V65.68A.82.82,0,0,0,29.79,64.86Z"/><path class="cls-1" d="M34.15,64.86a.82.82,0,0,0-.82.82v1.37a.82.82,0,0,0,1.64,0V65.68A.82.82,0,0,0,34.15,64.86Z"/><path class="cls-1" d="M38.52,64.86a.82.82,0,0,0-.82.82v1.37a.82.82,0,0,0,1.63,0V65.68A.82.82,0,0,0,38.52,64.86Z"/><path class="cls-1" d="M42.88,64.86a.82.82,0,0,0-.82.82v1.37a.82.82,0,0,0,1.64,0V65.68A.82.82,0,0,0,42.88,64.86Z"/><path class="cls-1" d="M47.24,64.86a.82.82,0,0,0-.82.82v1.37a.82.82,0,0,0,1.64,0V65.68A.82.82,0,0,0,47.24,64.86Z"/><path class="cls-1" d="M58.25,6.36h3.5a.82.82,0,1,0,0-1.63h-3.5a.82.82,0,1,0,0,1.63Z"/><path class="cls-1" d="M58.94,2.36a.82.82,0,0,0,0,1.64h2.12a.82.82,0,1,0,0-1.64Z"/><path class="cls-1" d="M59.57,1.64h.85a.82.82,0,1,0,0-1.64h-.85a.82.82,0,0,0-.81.82A.82.82,0,0,0,59.57,1.64Z"/><path class="cls-1" d="M102.76,50.1H97.21A37.15,37.15,0,0,0,84.78,23.16a.88.88,0,0,0-.27-.24,37.83,37.83,0,0,0-5.85-4.2.8.8,0,0,0-.32-.19A36.9,36.9,0,0,0,69.87,15V12.18h1.61a.81.81,0,0,0,.82-.82V8.46a.81.81,0,0,0-.82-.82h-23a.81.81,0,0,0-.82.82v2.9a.81.81,0,0,0,.82.82h1.61V15a36.9,36.9,0,0,0-8.47,3.51.8.8,0,0,0-.32.19,37.83,37.83,0,0,0-5.85,4.2.88.88,0,0,0-.27.24A37.13,37.13,0,0,0,22.79,50.1H17.24a.81.81,0,0,0-.81.81V69.18a.82.82,0,0,0,.81.82h85.52a.82.82,0,0,0,.81-.82V50.91A.81.81,0,0,0,102.76,50.1ZM60,59.7a3.45,3.45,0,0,0-3.45,3.45v5.21H51.88V58H68.12V68.36H63.45V63.15A3.46,3.46,0,0,0,60,59.7ZM18.06,58H50.24v4.55H18.06ZM60,42.57a17.66,17.66,0,0,1,8.12,1.93v1.6a19.82,19.82,0,0,0-16.24,0V44.5A17.66,17.66,0,0,1,60,42.57Zm-8.12,5.36a18,18,0,0,1,16.24,0V50.1H51.88ZM60,51.73h8.12v4.61H51.88V51.73ZM69.76,58h32.18v4.55H69.76Zm32.18-1.63H69.76V51.73h32.18ZM60,22.82H38.18a37.14,37.14,0,0,1,4-2.69H77.83a37.14,37.14,0,0,1,4,2.69Zm0-7.5a35.36,35.36,0,0,1,14.66,3.17H45.34A35.36,35.36,0,0,1,60,15.32ZM49.33,9.27H70.67v1.28H49.33Zm2.44,2.91H68.23v2.43a36.88,36.88,0,0,0-16.46,0ZM36.22,24.46H83.78A35.48,35.48,0,0,1,95.57,50.1H69.76V48.27h1.72a.82.82,0,1,0,0-1.63H69.76V44.85h1.72a.82.82,0,1,0,0-1.64H69.76V39.55a.82.82,0,1,0-1.64,0v3.12a19.92,19.92,0,0,0-16.24,0V39.55a.82.82,0,0,0-1.64,0v3.66H48.52a.82.82,0,1,0,0,1.64h1.72v1.79H48.52a.82.82,0,1,0,0,1.63h1.72V50.1H24.43A35.48,35.48,0,0,1,36.22,24.46Zm14,27.27v4.61H18.06V51.73ZM18.06,64.15H50.24v4.21H18.06ZM60,68.36H58.18V63.15a1.82,1.82,0,0,1,3.64,0v5.21Zm9.76,0V64.15h32.18v4.21Z"/><path class="cls-1" d="M98.94,55.59a.82.82,0,0,0,.82-.82V53.41a.82.82,0,1,0-1.64,0v1.36A.82.82,0,0,0,98.94,55.59Z"/><path class="cls-1" d="M94.57,52.59a.82.82,0,0,0-.81.82v1.36a.82.82,0,1,0,1.63,0V53.41A.82.82,0,0,0,94.57,52.59Z"/><path class="cls-1" d="M90.21,52.59a.82.82,0,0,0-.82.82v1.36a.82.82,0,0,0,1.64,0V53.41A.82.82,0,0,0,90.21,52.59Z"/><path class="cls-1" d="M85.85,52.59a.82.82,0,0,0-.82.82v1.36a.82.82,0,0,0,1.64,0V53.41A.82.82,0,0,0,85.85,52.59Z"/><path class="cls-1" d="M81.48,52.59a.82.82,0,0,0-.81.82v1.36a.82.82,0,1,0,1.63,0V53.41A.82.82,0,0,0,81.48,52.59Z"/><path class="cls-1" d="M77.12,52.59a.82.82,0,0,0-.82.82v1.36a.82.82,0,1,0,1.64,0V53.41A.82.82,0,0,0,77.12,52.59Z"/><path class="cls-1" d="M72.76,52.59a.82.82,0,0,0-.82.82v1.36a.82.82,0,0,0,1.64,0V53.41A.82.82,0,0,0,72.76,52.59Z"/><path class="cls-1" d="M98.94,64.86a.82.82,0,0,0-.82.82v1.37a.82.82,0,0,0,1.64,0V65.68A.82.82,0,0,0,98.94,64.86Z"/><path class="cls-1" d="M94.57,64.86a.82.82,0,0,0-.81.82v1.37a.82.82,0,0,0,1.63,0V65.68A.82.82,0,0,0,94.57,64.86Z"/><path class="cls-1" d="M90.21,64.86a.82.82,0,0,0-.82.82v1.37a.82.82,0,0,0,1.64,0V65.68A.82.82,0,0,0,90.21,64.86Z"/><path class="cls-1" d="M85.85,64.86a.82.82,0,0,0-.82.82v1.37a.82.82,0,0,0,1.64,0V65.68A.82.82,0,0,0,85.85,64.86Z"/><path class="cls-1" d="M81.48,64.86a.82.82,0,0,0-.81.82v1.37a.82.82,0,0,0,1.63,0V65.68A.82.82,0,0,0,81.48,64.86Z"/><path class="cls-1" d="M77.12,64.86a.82.82,0,0,0-.82.82v1.37a.82.82,0,0,0,1.64,0V65.68A.82.82,0,0,0,77.12,64.86Z"/><path class="cls-1" d="M72.76,64.86a.82.82,0,0,0-.82.82v1.37a.82.82,0,0,0,1.64,0V65.68A.82.82,0,0,0,72.76,64.86Z"/></svg>