<svg id="Layer_1" data-name="Layer 1" xmlns="http://www.w3.org/2000/svg" viewBox="0 0 120 70"><defs><style>.cls-1{fill:#f5aa08;fill-rule:evenodd;}</style></defs><path class="cls-1" d="M29.65,62.24h1.1V55.72A2.49,2.49,0,0,1,31.41,54a2.16,2.16,0,0,1,3.22,0,2.54,2.54,0,0,1,.66,1.71v6.52H36.8V41.13H29.65v10h1.1V44.61a2.56,2.56,0,0,1,.66-1.73,2.16,2.16,0,0,1,3.22,0,2.61,2.61,0,0,1,.66,1.73v6.53h.27a.51.51,0,0,1,.38.16.54.54,0,0,1,.15.39.54.54,0,0,1-.15.38.52.52,0,0,1-.38.17H29.65v10ZM31,62.7H29.19V51.78h6.37l0,0a.09.09,0,0,0,0-.07.08.08,0,0,0,0-.07.05.05,0,0,0,0,0h-.73v-7a2.07,2.07,0,0,0-.54-1.42A1.74,1.74,0,0,0,33,42.61a1.77,1.77,0,0,0-1.28.58,2.11,2.11,0,0,0-.54,1.42v7h-2V40.67h8.07v22H34.83v-7a2,2,0,0,0-.54-1.4A1.73,1.73,0,0,0,33,53.75a1.76,1.76,0,0,0-1.28.57,2.06,2.06,0,0,0-.54,1.4v7ZM80.48,30.89a.5.5,0,0,1-.35-.14.61.61,0,0,1-.17-.34,3.35,3.35,0,0,0-.51-1.21,11,11,0,0,0-1.26-1.6.64.64,0,0,1-.16-.38.58.58,0,0,1,.15-.39l0,0a.49.49,0,0,1,.35-.15.5.5,0,0,1,.36.14l0,0a11.87,11.87,0,0,1,1,1.19A5.19,5.19,0,0,1,81,30.28a.59.59,0,0,1-.1.39.49.49,0,0,1-.36.21Zm0-.47,0,0h0l0,0a.24.24,0,0,0,0-.08,5,5,0,0,0-1-2.06,12,12,0,0,0-1-1.13h0l0,0,0,0h0a.08.08,0,0,0,0,.07.14.14,0,0,0,0,.07A10.91,10.91,0,0,1,79.83,29a3.64,3.64,0,0,1,.58,1.4.09.09,0,0,0,0,.06ZM35.29,32.23H35.2a.53.53,0,0,1-.41-.64,11.09,11.09,0,0,1,.88-2.85,5,5,0,0,1,1.42-1.94l0,0a.52.52,0,0,1,.38-.07.57.57,0,0,1,.32.21l0,0a.57.57,0,0,1,.07.4.59.59,0,0,1-.21.35,4.34,4.34,0,0,0-1.12,1.62,10.24,10.24,0,0,0-.75,2.48.59.59,0,0,1-.17.31.56.56,0,0,1-.35.13Zm0-.45.05,0,0-.05a11,11,0,0,1,.78-2.59,4.79,4.79,0,0,1,1.26-1.8h0l0-.06a.15.15,0,0,0,0-.07l0,0,0,0h-.06a4.74,4.74,0,0,0-1.26,1.76,11,11,0,0,0-.85,2.74.11.11,0,0,0,0,.08l0,0ZM6.25,68.9h107.5V67.79H6.25V68.9ZM114,69.36H5.79v-2H114.21v2Zm.3.64H5.72a.5.5,0,0,1-.38-.17.56.56,0,0,1-.15-.38V67.24a.56.56,0,0,1,.15-.38.54.54,0,0,1,.38-.17h2v-3.9a.58.58,0,0,1,.15-.38.54.54,0,0,1,.38-.17H9l.75-13.59h0a1.19,1.19,0,0,1-.89-.39,1.43,1.43,0,0,1-.35-.94,1.33,1.33,0,0,1,.36-.91A1.19,1.19,0,0,1,9.73,46h.11l.58-13.68h0A1.19,1.19,0,0,1,9.5,32a1.39,1.39,0,0,1,0-1.87,1.26,1.26,0,0,1,.7-.39L10.71,16a1.19,1.19,0,0,1-.82-.38,1.35,1.35,0,0,1-.36-.92,1.38,1.38,0,0,1,.36-.93,1.15,1.15,0,0,1,.87-.4h.1V9.94h-.25a.54.54,0,0,1-.38-.17.56.56,0,0,1-.15-.38A.55.55,0,0,1,10.23,9a.47.47,0,0,1,.27-.16,2.06,2.06,0,0,1-.12-.35,2.82,2.82,0,0,1-.09-.71,3.44,3.44,0,0,1,.83-1.91A17.51,17.51,0,0,1,12.86,4V1.11A.55.55,0,0,1,13,.73a.51.51,0,0,1,.76,0,.55.55,0,0,1,.15.38V4a13.59,13.59,0,0,1,1.92,2.11,3.06,3.06,0,0,1,.68,1.7,2.44,2.44,0,0,1-.1.71,3.58,3.58,0,0,1-.11.35.54.54,0,0,1,.27.16.56.56,0,0,1,0,.76.54.54,0,0,1-.38.17H16V13.4H16a1.2,1.2,0,0,1,.89.4,1.38,1.38,0,0,1,.36.93,1.34,1.34,0,0,1-.36.92,1.21,1.21,0,0,1-.81.38l.5,13.66a1.28,1.28,0,0,1,.71.39,1.42,1.42,0,0,1,0,1.87,1.2,1.2,0,0,1-.88.39h-.07L17,46h.1a1.26,1.26,0,0,1,.89.38,1.35,1.35,0,0,1,.36.92,1.39,1.39,0,0,1-.35,1,1.22,1.22,0,0,1-.89.38l.74,13.59h2.65l.48-9.07a1,1,0,0,1-.55-.31,1.13,1.13,0,0,1,0-1.52,1,1,0,0,1,.67-.34l.37-9.13a1,1,0,0,1-.59-.31,1.14,1.14,0,0,1-.3-.75,1.09,1.09,0,0,1,.27-.73,1,1,0,0,1,.48-.31l.35-9.18a1.05,1.05,0,0,1-.52-.3,1.14,1.14,0,0,1-.29-.76,1.1,1.1,0,0,1,.29-.76,1,1,0,0,1,.62-.31V26.39h0a.54.54,0,0,1-.38-.17.56.56,0,0,1-.15-.38.55.55,0,0,1,.15-.38.31.31,0,0,1,.11-.09,1.46,1.46,0,0,1-.05-.2,1.73,1.73,0,0,1-.05-.45,2.34,2.34,0,0,1,.53-1.32A11.47,11.47,0,0,1,23.13,22V20.1a.58.58,0,0,1,.15-.38.53.53,0,0,1,.76,0,.58.58,0,0,1,.15.38V22a9.08,9.08,0,0,1,1.28,1.44A2.32,2.32,0,0,1,26,24.72a2.28,2.28,0,0,1,0,.45c0,.07,0,.14-.05.2a.41.41,0,0,1,.1.09.56.56,0,0,1,0,.76.54.54,0,0,1-.38.17h0v2.07a1,1,0,0,1,.65.31,1.14,1.14,0,0,1,.29.76,1.1,1.1,0,0,1-.3.75,1.09,1.09,0,0,1-.51.31L26,39.76a1,1,0,0,1,.48.31,1.13,1.13,0,0,1,0,1.49,1.07,1.07,0,0,1-.6.32l.4,9.12a1.1,1.1,0,0,1,.66.33,1.18,1.18,0,0,1,.3.78,1.07,1.07,0,0,1-.31.75,1,1,0,0,1-.57.31l.51,9.07h1.73V52.12a.43.43,0,0,1-.11-.12.57.57,0,0,1-.1-.31.58.58,0,0,1,.1-.32l.11-.12V33.89a.58.58,0,0,1,.15-.38.51.51,0,0,1,.38-.16.53.53,0,0,1,.38.16.58.58,0,0,1,.15.38v4h2.81V35.57a.58.58,0,0,1,.15-.38.51.51,0,0,1,.76,0,.58.58,0,0,1,.15.38v0h.28A6.54,6.54,0,0,1,33,34a7,7,0,0,1-.36-2.2,7.71,7.71,0,0,1,1.58-4.09,35,35,0,0,1,4.59-5.31V21a.55.55,0,0,1,.52-.55h.33V18a.56.56,0,0,1,.15-.38.51.51,0,0,1,.76,0,.56.56,0,0,1,.15.38v2.47h.33a.54.54,0,0,1,.38.17.56.56,0,0,1,.15.38v1.36a31.79,31.79,0,0,1,4.55,5.2,8.22,8.22,0,0,1,1.61,4.24,6.77,6.77,0,0,1-.36,2.2,6.54,6.54,0,0,1-.8,1.61h.29a.54.54,0,0,1,.38.17.57.57,0,0,1,0,.77.53.53,0,0,1-.38.16H46v1.25h3.21v-6a10.63,10.63,0,0,1-2-3.25,10.44,10.44,0,0,1-.72-3.81h0c0-.1,0-.22,0-.34a7.56,7.56,0,0,1,.42-2,20.23,20.23,0,0,1,3.24-5.6,66.72,66.72,0,0,1,6.45-7l0,0V7.43a.56.56,0,0,1,.15-.38.54.54,0,0,1,.26-.16V6.12a.59.59,0,0,1,.15-.39.56.56,0,0,1,.27-.15v-5a.56.56,0,0,1,.15-.38.51.51,0,0,1,.76,0,.56.56,0,0,1,.15.38v5a.58.58,0,0,1,.31.16.54.54,0,0,1,.15.39v.77a.53.53,0,0,1,.27.16.56.56,0,0,1,.15.38v2.3a52.24,52.24,0,0,1,7.53,8.42c1.55,2.29,2.63,4.62,2.63,6.68a10.54,10.54,0,0,1-.72,3.82,10.75,10.75,0,0,1-2,3.25v6h3V36.68h-.85a.49.49,0,0,1-.38-.17.55.55,0,0,1-.15-.38.58.58,0,0,1,.15-.38.52.52,0,0,1,.38-.17h.29a6.54,6.54,0,0,1-.8-1.61,6.77,6.77,0,0,1-.36-2.2,7.77,7.77,0,0,1,1.57-4.09,34.62,34.62,0,0,1,4.6-5.31V21a.56.56,0,0,1,.15-.38.54.54,0,0,1,.38-.17h.33V18a.56.56,0,0,1,.15-.38.5.5,0,0,1,.38-.17.52.52,0,0,1,.38.17.56.56,0,0,1,.15.38v2.47h.32A.55.55,0,0,1,77,21v1.36a31.32,31.32,0,0,1,4.55,5.2,8.22,8.22,0,0,1,1.61,4.24,6.77,6.77,0,0,1-.36,2.2A6.51,6.51,0,0,1,82,35.58h.28v-.3a.58.58,0,0,1,.15-.38.53.53,0,0,1,.76,0,.58.58,0,0,1,.15.38v2.64H86.4v-4a.58.58,0,0,1,.15-.38.51.51,0,0,1,.76,0,.58.58,0,0,1,.15.38V62.24h5.86l.49-9.07a1,1,0,0,1-.56-.31,1.1,1.1,0,0,1-.3-.75,1.15,1.15,0,0,1,.29-.78,1,1,0,0,1,.65-.33l.39-9.13a1,1,0,0,1-.58-.31,1.1,1.1,0,0,1,0-1.48.93.93,0,0,1,.47-.31l.35-9.18a1,1,0,0,1-.51-.3,1.13,1.13,0,0,1,0-1.52,1,1,0,0,1,.62-.31V26.39h0a.55.55,0,0,1-.52-.55.5.5,0,0,1,.15-.38.28.28,0,0,1,.1-.09,1.17,1.17,0,0,1,0-.2,2.3,2.3,0,0,1,0-.45,2.4,2.4,0,0,1,.49-1.27A8.58,8.58,0,0,1,96,22V20.1a.54.54,0,0,1,.15-.38.51.51,0,0,1,.37-.16.51.51,0,0,1,.38.16.58.58,0,0,1,.15.38V22a9.55,9.55,0,0,1,1.3,1.47,2.24,2.24,0,0,1,.47,1.23,2.3,2.3,0,0,1,0,.45,1.17,1.17,0,0,1,0,.2.44.44,0,0,1,.11.09.55.55,0,0,1,.15.38.56.56,0,0,1-.15.38.54.54,0,0,1-.38.17h0v2.07a1,1,0,0,1,.64.31,1.15,1.15,0,0,1,.3.76,1.1,1.1,0,0,1-.3.75,1.07,1.07,0,0,1-.52.31l.33,9.17a1,1,0,0,1,.48.31,1.15,1.15,0,0,1,0,1.49,1,1,0,0,1-.59.32L99.13,51a1,1,0,0,1,.65.33,1.15,1.15,0,0,1,.29.78,1.1,1.1,0,0,1-.3.75,1,1,0,0,1-.56.31l.51,9.07h2.65l.74-13.59h0a1.22,1.22,0,0,1-.89-.39,1.35,1.35,0,0,1-.37-.94,1.29,1.29,0,0,1,.37-.91,1.22,1.22,0,0,1,.89-.39h.12l.58-13.68h0a1.21,1.21,0,0,1-.89-.4,1.39,1.39,0,0,1-.37-.93,1.41,1.41,0,0,1,.37-.93,1.28,1.28,0,0,1,.69-.38L104.08,16a1.22,1.22,0,0,1-.83-.38,1.32,1.32,0,0,1-.37-.92,1.39,1.39,0,0,1,.37-.93,1.25,1.25,0,0,1,.89-.4h.1V9.91H104a.54.54,0,0,1-.38-.17.56.56,0,0,1,0-.76.5.5,0,0,1,.28-.16c0-.11-.08-.23-.11-.34a3.06,3.06,0,0,1-.09-.74A3.11,3.11,0,0,1,104.33,6a13.45,13.45,0,0,1,1.91-2.13V1.11a.5.5,0,0,1,.15-.38.49.49,0,0,1,.38-.17.48.48,0,0,1,.37.17.5.5,0,0,1,.15.38v2.8a17.29,17.29,0,0,1,1.83,2,3.23,3.23,0,0,1,.75,1.81,3.06,3.06,0,0,1-.09.74c0,.11-.07.23-.11.34A.5.5,0,0,1,110,9a.56.56,0,0,1,0,.76.5.5,0,0,1-.38.17h-.27V13.4h.09a1.23,1.23,0,0,1,.89.4,1.34,1.34,0,0,1,.37.93,1.32,1.32,0,0,1-.37.92,1.22,1.22,0,0,1-.83.38L110,29.7a1.25,1.25,0,0,1,.69.38A1.36,1.36,0,0,1,111,31a1.34,1.34,0,0,1-.37.93,1.21,1.21,0,0,1-.89.4h0L110.31,46h.12a1.22,1.22,0,0,1,.89.39,1.29,1.29,0,0,1,.37.91,1.35,1.35,0,0,1-.37.94,1.21,1.21,0,0,1-.89.39h0l.74,13.59h.57a.54.54,0,0,1,.38.17.58.58,0,0,1,.15.38v3.9h2a.54.54,0,0,1,.38.17.56.56,0,0,1,.15.38v2.21a.55.55,0,0,1-.15.38.5.5,0,0,1-.38.17ZM5.72,69.54a.06.06,0,0,1,0,0,.12.12,0,0,1,0-.07V67.24a.14.14,0,0,1,0-.07l0,0H8.2V62.79a.14.14,0,0,1,0-.07l0,0H9.42q.39-7.25.8-14.5H9.73A.71.71,0,0,1,9.18,48,.93.93,0,0,1,9,47.32a.89.89,0,0,1,.23-.6.75.75,0,0,1,.55-.25h.55l.61-14.58h-.51a.77.77,0,0,1-.55-.25,1,1,0,0,1,0-1.25.73.73,0,0,1,.55-.25h.26l.54-14.56h-.42a.73.73,0,0,1-.54-.24.92.92,0,0,1-.23-.61,1,1,0,0,1,.23-.63.73.73,0,0,1,.54-.24h.56V9.48h-.71l0,0a.14.14,0,0,1,0-.07.12.12,0,0,1,0-.07.05.05,0,0,1,0,0h.63L11.05,9a2.72,2.72,0,0,1-.23-.57,2.35,2.35,0,0,1-.08-.6,3,3,0,0,1,.74-1.64,17.77,17.77,0,0,1,1.76-1.9l.08-.07V1.11a.12.12,0,0,1,0-.07s0,0,.05,0,0,0,0,0a.12.12,0,0,1,0,.07v3.2h.14a12.88,12.88,0,0,1,1.87,2,2.64,2.64,0,0,1,.59,1.44,2.35,2.35,0,0,1-.07.6,2.77,2.77,0,0,1-.24.57l-.19.33h.64s0,0,.05,0a.12.12,0,0,1,0,.07.09.09,0,0,1,0,.07l0,0h-.71v4.38H16a.77.77,0,0,1,.56.25.89.89,0,0,1,.24.62.86.86,0,0,1-.24.61.76.76,0,0,1-.56.24h-.39q.26,7.28.54,14.56h.26a.71.71,0,0,1,.54.25.93.93,0,0,1,0,1.25.74.74,0,0,1-.54.25h-.54q.32,7.29.64,14.58h.53a.77.77,0,0,1,.56.25.84.84,0,0,1,.24.6.92.92,0,0,1-.24.64.76.76,0,0,1-.56.24h-.47q.39,7.24.79,14.5h3.51l.53-10h-.31a.53.53,0,0,1-.39-.18.67.67,0,0,1-.18-.44.7.7,0,0,1,.18-.47.54.54,0,0,1,.39-.19h.37l.41-10h-.34a.57.57,0,0,1-.39-.18.71.71,0,0,1-.17-.44.73.73,0,0,1,.15-.44.56.56,0,0,1,.37-.19h.21l.38-10h-.26a.55.55,0,0,1-.4-.18.67.67,0,0,1-.17-.45.63.63,0,0,1,.17-.45.53.53,0,0,1,.4-.17h.34v-3h-.47l-.05,0a.09.09,0,0,1,0-.07.08.08,0,0,1,0-.07.05.05,0,0,1,.05,0h.39L22,25.42a2.06,2.06,0,0,1-.12-.35,2,2,0,0,1,0-.35,1.87,1.87,0,0,1,.45-1,11.65,11.65,0,0,1,1.28-1.41l.06-.07V20.1a.09.09,0,0,1,0-.07l.05,0,.05,0a.14.14,0,0,1,0,.07v2.12l.08.06a9.61,9.61,0,0,1,1.29,1.43,2,2,0,0,1,.4,1,1.42,1.42,0,0,1,0,.36,1.57,1.57,0,0,1-.11.35l-.14.31h.37a.05.05,0,0,1,.05,0,.12.12,0,0,1,0,.07.14.14,0,0,1,0,.07l-.05,0h-.47v3h.37a.52.52,0,0,1,.39.17.67.67,0,0,1,.18.45.63.63,0,0,1-.18.44.58.58,0,0,1-.39.19h-.26l.35,10h.21a.52.52,0,0,1,.37.19.64.64,0,0,1,.16.44.63.63,0,0,1-.18.44.53.53,0,0,1-.39.18H25.4c.14,3.34.29,6.68.43,10h.35a.57.57,0,0,1,.41.19.68.68,0,0,1,.18.47.65.65,0,0,1-.18.44.56.56,0,0,1-.41.18h-.31l.56,10H29V51.83l-.15,0,0,0a.13.13,0,0,1,0-.06s0,0,0-.06a.05.05,0,0,1,0,0l.15-.06V33.89a.11.11,0,0,1,0-.07l.05,0a.05.05,0,0,1,0,0,.11.11,0,0,1,0,.07v4.5h3.73V35.57a.14.14,0,0,1,0-.07l.05,0,0,0a.14.14,0,0,1,0,.07v2.82h1.76V36.23H33.51l0,0,0-.06,0-.06,0,0H34.7l-.28-.37a6.84,6.84,0,0,1-1-1.84,6.44,6.44,0,0,1-.33-2.06,7.29,7.29,0,0,1,1.5-3.84,33.89,33.89,0,0,1,4.63-5.33l.12-.12-.08-.14V21a.09.09,0,0,1,0-.07l0,0h.79V18a.12.12,0,0,1,0-.07.06.06,0,0,1,0,0s0,0,.05,0a.11.11,0,0,1,0,.07v2.93h.78l.05,0a.14.14,0,0,1,0,.07,4.67,4.67,0,0,1-.06,1.5l.11.1a31.58,31.58,0,0,1,4.58,5.21,7.75,7.75,0,0,1,1.53,4A6.44,6.44,0,0,1,47,33.83a6.32,6.32,0,0,1-1,1.84l-.28.37h1.19l.05,0a.09.09,0,0,1,0,.07.08.08,0,0,1,0,.07.05.05,0,0,1-.05,0h-1.3v2.16h4.11V31.73l-.06-.07a10.26,10.26,0,0,1-2-3.17,9.87,9.87,0,0,1-.7-3.65h0a3,3,0,0,1,0-.31,7.89,7.89,0,0,1,.4-1.93,19.68,19.68,0,0,1,3.17-5.46,65.89,65.89,0,0,1,6.41-7l.06,0,.11-.11V7.43a.09.09,0,0,1,0-.07l.05,0h.34V6.12a.19.19,0,0,1,0-.08l0,0h.34V.55a.11.11,0,0,1,0-.07s0,0,0,0,0,0,0,0a.08.08,0,0,1,0,.07V6h.4l0,0a.11.11,0,0,1,0,.08V7.34h.34l0,0a.09.09,0,0,1,0,.07v2.5L59,10a51.79,51.79,0,0,1,7.54,8.41c1.5,2.21,2.55,4.46,2.55,6.42a9.83,9.83,0,0,1-.7,3.65,10,10,0,0,1-2,3.18l-.06.07v6.66h3.86V36.23h-1.3a.05.05,0,0,1,0,0,.08.08,0,0,1,0-.07.09.09,0,0,1,0-.07l0,0h1.19l-.28-.37a6.32,6.32,0,0,1-1-1.84,6.44,6.44,0,0,1-.33-2.06A7.35,7.35,0,0,1,70,27.93a34.43,34.43,0,0,1,4.63-5.33l.12-.12-.07-.14V21a.14.14,0,0,1,0-.07l0,0h.78V18a.08.08,0,0,1,0-.07s0,0,0,0,0,0,0,0a.08.08,0,0,1,0,.07v2.93h.78l0,0a.09.09,0,0,1,0,.07,5,5,0,0,1-.06,1.5l.11.1a32,32,0,0,1,4.57,5.21,7.77,7.77,0,0,1,1.54,4,6.18,6.18,0,0,1-.34,2.06,6.54,6.54,0,0,1-1,1.84l-.28.37h1.19l0,0,0,.06,0,.06,0,0H81v2.16h1.75v-3.1a.09.09,0,0,1,0-.07l0,0,0,0a.14.14,0,0,1,0,.07v3.1h4V33.92a.14.14,0,0,1,0-.07l.05,0,0,0a.14.14,0,0,1,0,.07V62.7h6.75l.54-10H94a.54.54,0,0,1-.4-.18.62.62,0,0,1-.17-.44.7.7,0,0,1,.17-.48.54.54,0,0,1,.4-.18h.34q.21-5,.44-10h-.34a.53.53,0,0,1-.39-.18.67.67,0,0,1-.18-.44.66.66,0,0,1,.16-.44.54.54,0,0,1,.37-.19h.2l.38-10H94.7a.53.53,0,0,1-.39-.18.63.63,0,0,1-.17-.45.67.67,0,0,1,.16-.45.53.53,0,0,1,.4-.17h.35v-3h-.48l0,0a.09.09,0,0,1,0-.07.08.08,0,0,1,0-.07.05.05,0,0,1,0,0H95l-.14-.31a2.42,2.42,0,0,1-.12-.35,2.1,2.1,0,0,1,0-.36,1.87,1.87,0,0,1,.41-1,8.86,8.86,0,0,1,1.31-1.44l.07-.07V20.1a.09.09,0,0,1,0-.07l0,0,0,0a.09.09,0,0,1,0,.07v2.12l.07.06A10.13,10.13,0,0,1,98,23.75a1.79,1.79,0,0,1,.38,1,2.1,2.1,0,0,1,0,.36c0,.12-.07.23-.11.35l-.15.31h.38s0,0,0,0a.08.08,0,0,1,0,.07.09.09,0,0,1,0,.07l0,0H98v3h.37a.53.53,0,0,1,.4.17.71.71,0,0,1,.17.45.63.63,0,0,1-.18.44.54.54,0,0,1-.39.19h-.26l.36,10h.2a.56.56,0,0,1,.38.19.69.69,0,0,1,.15.44.67.67,0,0,1-.17.44.54.54,0,0,1-.4.18h-.33q.21,5,.43,10H99a.54.54,0,0,1,.4.18.7.7,0,0,1,.17.48.62.62,0,0,1-.17.44.54.54,0,0,1-.4.18h-.3l.56,10h3.5q.39-7.25.79-14.5h-.49a.77.77,0,0,1-.56-.25.91.91,0,0,1-.24-.63.86.86,0,0,1,.24-.6.77.77,0,0,1,.56-.25h.55l.62-14.58h-.52a.78.78,0,0,1-.56-.26.92.92,0,0,1,0-1.24.81.81,0,0,1,.56-.25H104c.18-4.86.38-9.71.57-14.56h-.42a.76.76,0,0,1-.56-.24.88.88,0,0,1-.24-.61.9.9,0,0,1,.24-.62.77.77,0,0,1,.56-.25h.55V9.45H104s0,0,0,0a.08.08,0,0,1,0-.07.09.09,0,0,1,0-.07l0,0h.64l-.18-.34a2.28,2.28,0,0,1-.23-.56,2.59,2.59,0,0,1-.07-.63,2.72,2.72,0,0,1,.59-1.46,13.33,13.33,0,0,1,1.91-2.11l.07-.08v-3a.08.08,0,0,1,0-.07.05.05,0,0,1,0,0,.05.05,0,0,1,0,0,.08.08,0,0,1,0,.07v3l.07.07a16.52,16.52,0,0,1,1.84,2,2.81,2.81,0,0,1,.66,1.54,2.59,2.59,0,0,1-.07.63,3,3,0,0,1-.22.56l-.19.34h.64l.05,0a.09.09,0,0,1,0,.07.08.08,0,0,1,0,.07l-.05,0h-.73v4.41h.55a.77.77,0,0,1,.56.25.9.9,0,0,1,.24.62.88.88,0,0,1-.24.61.76.76,0,0,1-.56.24H109q.27,7.28.56,14.56h.24a.81.81,0,0,1,.56.25.92.92,0,0,1,0,1.24.78.78,0,0,1-.56.26h-.52q.3,7.29.62,14.58h.55a.77.77,0,0,1,.56.25.86.86,0,0,1,.24.6A.91.91,0,0,1,111,48a.77.77,0,0,1-.56.25h-.49q.39,7.24.79,14.5h1l0,0a.14.14,0,0,1,0,.07v4.36h2.48l0,0a.14.14,0,0,1,0,.07v2.21a.12.12,0,0,1,0,.07.06.06,0,0,1,0,0ZM97.82,61h0a.55.55,0,0,0,.37-.18.56.56,0,0,0,.13-.39L98,54.23a.54.54,0,0,0-.17-.37.56.56,0,0,0-.38-.15h0a.52.52,0,0,0-.37.19.63.63,0,0,0-.13.39l.32,6.18a.54.54,0,0,0,.15.37.56.56,0,0,0,.37.15Zm0-.47,0,0h0a.05.05,0,0,0,0,0,.09.09,0,0,0,0-.07l-.31-6.19,0-.06,0,0-.05,0a.19.19,0,0,0,0,.08l.31,6.18a.09.09,0,0,0,0,.07ZM95.42,25.29H97.6a2.26,2.26,0,0,0,.11-.22,1.34,1.34,0,0,0,.05-.35,1.36,1.36,0,0,0-.33-.69,8.71,8.71,0,0,0-.92-1,8.5,8.5,0,0,0-.91,1,1.5,1.5,0,0,0-.34.71,1.34,1.34,0,0,0,0,.35,2.26,2.26,0,0,0,.11.22Zm2.3.45h.11l.07-.08a2,2,0,0,0,.24-.45,1.57,1.57,0,0,0,.08-.49,1.75,1.75,0,0,0-.43-.95,9.41,9.41,0,0,0-1.12-1.25l-.16-.15-.16.14a9.5,9.5,0,0,0-1.11,1.23,1.93,1.93,0,0,0-.44,1,1.33,1.33,0,0,0,.09.49,1.4,1.4,0,0,0,.24.45l.06.08Zm-.35,2.71V26.39H95.65v2.06Zm.46-2.29v-.23H95.19v3h2.64V26.16Zm-2.71,2.93H94.7a.44.44,0,0,0-.31.13.47.47,0,0,0-.11.31.52.52,0,0,0,.12.31.42.42,0,0,0,.3.13h3.64a.41.41,0,0,0,.3-.14.47.47,0,0,0,.12-.3.43.43,0,0,0-.42-.44Zm2.7,10.64-.32-9.12h-2l-.35,9.12Zm.12-9.36v-.21H95.11l-.38,10h3.56l-.35-9.81ZM94.11,40.5a.45.45,0,0,0-.11.31.47.47,0,0,0,.12.29.37.37,0,0,0,.3.14H98.6a.42.42,0,0,0,.31-.13.48.48,0,0,0,.11-.3.45.45,0,0,0-.11-.31.39.39,0,0,0-.31-.13H94.42a.46.46,0,0,0-.31.13Zm4,10.5-.4-9.12H95.34L94.94,51Zm0-9.35v-.22H94.9c-.14,3.34-.29,6.68-.43,10h4.08l-.42-9.8Zm-3.74,10H94a.41.41,0,0,0-.32.15.54.54,0,0,0-.11.32.47.47,0,0,0,.12.3.43.43,0,0,0,.31.14H99a.43.43,0,0,0,.31-.14.47.47,0,0,0,.12-.3.54.54,0,0,0-.11-.32.41.41,0,0,0-.32-.15Zm4.28,10.6-.51-9.05h-3.3l-.48,9.05ZM98.6,53v-.22H94.43c-.18,3.32-.35,6.65-.53,10h5.25L98.6,53Zm10.06,7h0a.52.52,0,0,0,.37-.19.53.53,0,0,0,.13-.39l-.44-8.89a.54.54,0,0,0-.17-.37.5.5,0,0,0-.38-.15h0a.55.55,0,0,0-.37.18.65.65,0,0,0-.13.39l.45,8.9a.51.51,0,0,0,.15.36.52.52,0,0,0,.37.16Zm0-.48a0,0,0,0,0,0,0h0l0,0a.11.11,0,0,0,0-.08l-.44-8.89,0-.07,0,0a.05.05,0,0,0,0,0,.14.14,0,0,0,0,.07l.44,8.9a.07.07,0,0,0,0,.06ZM105.07,8.81h3.39a1.63,1.63,0,0,0,.25-.45,2.06,2.06,0,0,0,.1-.62A3,3,0,0,0,108,6.26c-.4-.49-.88-1-1.26-1.37a13.51,13.51,0,0,0-1.51,1.69,2.27,2.27,0,0,0-.53,1.16,1.9,1.9,0,0,0,.11.63,1.45,1.45,0,0,0,.24.44Zm3.49.46h.11l.06-.08a2.09,2.09,0,0,0,.4-.67,2.29,2.29,0,0,0,.14-.78A3.41,3.41,0,0,0,108.38,6a19.54,19.54,0,0,0-1.46-1.57l-.15-.15-.16.15a14.22,14.22,0,0,0-1.73,1.9,2.65,2.65,0,0,0-.61,1.43,2.24,2.24,0,0,0,.13.78,2.09,2.09,0,0,0,.4.67l.07.08Zm-3.27,4.13h2.95V9.91h-2.95V13.4Zm3.18.46h.22V9.45h-3.85v4.41Zm-4.33.64a.18.18,0,0,0-.13.06.28.28,0,0,0-.07.17.2.2,0,0,0,.06.15.2.2,0,0,0,.14.06h5.25a.2.2,0,0,0,.14-.06.2.2,0,0,0,.06-.15.28.28,0,0,0-.07-.17.18.18,0,0,0-.13-.06Zm-.46-.24a.68.68,0,0,0,0,.94.64.64,0,0,0,.46.19h5.25a.64.64,0,0,0,.46-.19.67.67,0,0,0,.2-.47.71.71,0,0,0-.19-.47.65.65,0,0,0-.47-.22h-5.25a.63.63,0,0,0-.46.22Zm5.24,15.42L108.39,16h-3.25l-.53,13.65Zm-.09-13.88v-.22h-4.12c-.19,4.85-.39,9.7-.57,14.56h5.25l-.56-14.34Zm.64,15h-5.72a.16.16,0,0,0-.13.07.24.24,0,0,0-.07.16.24.24,0,0,0,.07.17.19.19,0,0,0,.13.07h6a.19.19,0,0,0,.13-.07A.24.24,0,0,0,110,31a.24.24,0,0,0-.07-.16.16.16,0,0,0-.13-.07Zm-5.41-.46h-.31a.63.63,0,0,0-.46.22.67.67,0,0,0-.19.47.71.71,0,0,0,.19.48.62.62,0,0,0,.46.21h6a.66.66,0,0,0,.47-.21.76.76,0,0,0,.19-.48.71.71,0,0,0-.19-.47.67.67,0,0,0-.47-.22Zm4.62,2h-3.83L104.28,46h5l-.58-13.68Zm-4-.45h-.22q-.32,7.29-.62,14.58h5.93l-.62-14.58Zm5.17,15.23H103.1a.2.2,0,0,0-.14.06.22.22,0,0,0-.06.14.29.29,0,0,0,.07.18.2.2,0,0,0,.13.06h7.33a.2.2,0,0,0,.14-.06.28.28,0,0,0,.06-.18.18.18,0,0,0-.06-.14.2.2,0,0,0-.14-.06Zm-6.09-.46h-.62a.65.65,0,0,0-.46.2.64.64,0,0,0-.19.46.71.71,0,0,0,.18.48.64.64,0,0,0,.47.21h7.33a.64.64,0,0,0,.47-.21.72.72,0,0,0,.19-.48.68.68,0,0,0-.66-.66Zm6.39,15.58-.75-13.59h-5.19l-.75,13.59Zm-.31-13.83V48.2h-6.05q-.39,7.24-.79,14.5h7.64l-.79-14.29ZM22.33,61h0a.56.56,0,0,0,.37-.15.6.6,0,0,0,.16-.37l.31-6.18A.53.53,0,0,0,23,53.9a.52.52,0,0,0-.37-.19h0a.52.52,0,0,0-.38.15.5.5,0,0,0-.17.37l-.31,6.19a.56.56,0,0,0,.13.39.52.52,0,0,0,.36.18Zm0-.45h0l.05,0a.15.15,0,0,0,0-.07l.31-6.18a.19.19,0,0,0,0-.08l-.05,0s0,0,0,0a.07.07,0,0,0,0,.06l-.31,6.19a.14.14,0,0,0,0,.07.05.05,0,0,0,0,0Zm.24-35.25h2.16a1.13,1.13,0,0,0,.11-.22,1,1,0,0,0,.06-.35,1.45,1.45,0,0,0-.35-.71,7.54,7.54,0,0,0-.9-1c-.23.23-.51.53-.76.83a2,2,0,0,0-.5.89,1,1,0,0,0,.06.33,1.34,1.34,0,0,0,.12.24Zm2.28.45H25l.07-.08a1.4,1.4,0,0,0,.24-.45,1.57,1.57,0,0,0,.08-.49,1.89,1.89,0,0,0-.43-1,8.41,8.41,0,0,0-1.12-1.22l-.15-.15-.16.15a11.2,11.2,0,0,0-.95,1,2.18,2.18,0,0,0-.6,1.17,1.61,1.61,0,0,0,.08.48,2.17,2.17,0,0,0,.24.45l.07.09Zm-.34,2.71V26.39H22.78v2.06ZM25,26.16v-.23H22.33v3H25V26.16Zm-2.71,2.93h-.41a.42.42,0,0,0-.31.13.48.48,0,0,0,0,.62.38.38,0,0,0,.3.13h3.64a.44.44,0,0,0,.3-.14.47.47,0,0,0,.12-.3.43.43,0,0,0-.12-.3.41.41,0,0,0-.3-.14ZM25,39.73l-.33-9.12H22.68l-.34,9.12Zm.12-9.36v-.21H22.25l-.38,10h3.56l-.35-9.81ZM21.25,40.5a.46.46,0,0,0-.12.31.47.47,0,0,0,.12.29.41.41,0,0,0,.3.14h4.19a.4.4,0,0,0,.3-.13.44.44,0,0,0,.12-.3.45.45,0,0,0-.11-.31.4.4,0,0,0-.31-.13H21.55a.43.43,0,0,0-.3.13Zm4,10.5-.39-9.12H22.47L22.1,51Zm.05-9.35v-.22H22q-.21,5-.41,10h4.06l-.43-9.8Zm.51,10H21.11a.41.41,0,0,0-.31.16.47.47,0,0,0-.11.31.43.43,0,0,0,.12.29.42.42,0,0,0,.3.15h5.07a.49.49,0,0,0,.31-.13.47.47,0,0,0,.14-.31.49.49,0,0,0-.13-.33.45.45,0,0,0-.32-.14Zm-4.62.46h0ZM25.8,62.24l-.51-9.05H22l-.49,9.05ZM25.73,53v-.22H21.57L21,62.7h5.25L25.73,53Zm-14.22,7h0a.52.52,0,0,0,.37-.16.57.57,0,0,0,.16-.36l.41-8.9a.53.53,0,0,0-.5-.57.51.51,0,0,0-.38.14.54.54,0,0,0-.17.38L11,59.35a.58.58,0,0,0,.13.39.52.52,0,0,0,.38.19Zm0-.46h0s0,0,0,0a.07.07,0,0,0,0-.06l.42-8.9a.09.09,0,0,0,0-.07.05.05,0,0,0,0,0l0,0a.09.09,0,0,0,0,.07l-.42,8.89a.11.11,0,0,0,0,.08l0,0Zm.2-50.63H15.1a1.8,1.8,0,0,0,.36-1,2.18,2.18,0,0,0-.54-1.15A12,12,0,0,0,13.39,5,16.72,16.72,0,0,0,12.15,6.3a3,3,0,0,0-.81,1.49,1.71,1.71,0,0,0,.11.59,1.75,1.75,0,0,0,.26.46Zm3.5.45h.1l.07-.08a2.09,2.09,0,0,0,.4-.67,2.12,2.12,0,0,0,.14-.75,2.57,2.57,0,0,0-.64-1.42,13,13,0,0,0-1.73-1.88l-.16-.15-.15.15A18.38,18.38,0,0,0,11.8,6a3.32,3.32,0,0,0-.91,1.78,2.12,2.12,0,0,0,.14.75,2.26,2.26,0,0,0,.39.67l.07.08ZM11.92,13.4h3V9.94h-3V13.4Zm3.2.46h.22V9.48H11.46v4.38Zm-4.36.64a.16.16,0,0,0-.11.05.35.35,0,0,0-.06.18.21.21,0,0,0,.06.16.16.16,0,0,0,.11,0H16a.2.2,0,0,0,.14-.06.23.23,0,0,0,.05-.15.24.24,0,0,0-.06-.17A.16.16,0,0,0,16,14.5Zm-.45-.24a.7.7,0,0,0-.17.47.67.67,0,0,0,.17.46.61.61,0,0,0,.45.2H16a.65.65,0,0,0,.65-.66.69.69,0,0,0-.19-.48A.61.61,0,0,0,16,14H10.76a.59.59,0,0,0-.45.22Zm5.24,15.42L15,16H11.77l-.51,13.65ZM15.49,15.8v-.22H11.33l-.54,14.56H16L15.49,15.8Zm.61,15H10.38a.17.17,0,0,0-.12.06.29.29,0,0,0-.06.17.32.32,0,0,0,.06.18.17.17,0,0,0,.12.06h6a.14.14,0,0,0,.11-.06.27.27,0,0,0,.07-.18.24.24,0,0,0-.07-.17.14.14,0,0,0-.11-.06Zm0-.46H10.38a.63.63,0,0,0-.46.22.7.7,0,0,0-.17.47.74.74,0,0,0,.17.48.62.62,0,0,0,.46.21h6a.59.59,0,0,0,.45-.21.75.75,0,0,0,.18-.48.7.7,0,0,0-.18-.47.59.59,0,0,0-.45-.22Zm-.8,2H11.48L10.9,46h5L15.3,32.34Zm-4-.45H11q-.31,7.29-.61,14.58h5.95q-.33-7.29-.64-14.58Zm5.2,15.23H9.73a.17.17,0,0,0-.12.05.19.19,0,0,0-.06.15.29.29,0,0,0,.06.19.17.17,0,0,0,.12.05h7.33a.18.18,0,0,0,.14-.06.3.3,0,0,0,.05-.18.25.25,0,0,0-.05-.15.24.24,0,0,0-.14-.05Zm0-.46H9.73a.65.65,0,0,0-.46.2.67.67,0,0,0-.17.46.7.7,0,0,0,.17.48.59.59,0,0,0,.46.21h7.33a.62.62,0,0,0,.47-.2.72.72,0,0,0,.18-.49.67.67,0,0,0-.19-.47.64.64,0,0,0-.46-.19Zm.3,15.58L16,48.65H10.8l-.75,13.59Zm-.31-13.83V48.2H10.37q-.4,7.24-.8,14.5h7.67l-.79-14.29ZM31.8,62.24V55.72a1.41,1.41,0,0,1,.36-.95,1.2,1.2,0,0,1,.86-.38,1.18,1.18,0,0,1,.85.38,1.41,1.41,0,0,1,.36.95v6.52Zm2.66.46H31.35v-7a1.86,1.86,0,0,1,.48-1.26,1.59,1.59,0,0,1,2.37,0,1.87,1.87,0,0,1,.49,1.26v7ZM31.8,51.14V44.61a1.42,1.42,0,0,1,.37-1,1.14,1.14,0,0,1,.85-.39,1.15,1.15,0,0,1,.85.39,1.46,1.46,0,0,1,.36,1v6.53Zm2.66.45H31.35v-7a1.88,1.88,0,0,1,.48-1.27,1.57,1.57,0,0,1,2.37,0,1.89,1.89,0,0,1,.49,1.27v7ZM46,62.24V57.17a2.87,2.87,0,0,0-.76-2,2.47,2.47,0,0,0-3.66,0,2.87,2.87,0,0,0-.76,2v5.07Zm.45-5.07a3.35,3.35,0,0,0-.88-2.28,2.91,2.91,0,0,0-4.32,0,3.31,3.31,0,0,0-.89,2.28V62.7h6.09V57.17Zm-6.69,5.07V57.17a4,4,0,0,1,1.07-2.73,3.47,3.47,0,0,1,5.16,0A4,4,0,0,1,47,57.17v5.07h2.19v-10H39.39a.52.52,0,0,1-.38-.17.54.54,0,0,1-.15-.38.5.5,0,0,1,.15-.38.49.49,0,0,1,.38-.17h.35V46.06a4,4,0,0,1,1.07-2.75,3.47,3.47,0,0,1,5.16,0A4,4,0,0,1,47,46.06v5.08h2.19v-10H37.86V62.24Zm.46-5.07a3.52,3.52,0,0,1,.94-2.42,3,3,0,0,1,4.5,0,3.52,3.52,0,0,1,.94,2.42V62.7h3.1V51.78H39.39l0,0a.09.09,0,0,1,0-.07.11.11,0,0,1,0-.08l0,0h.81V46.06a3.57,3.57,0,0,1,.94-2.44,3,3,0,0,1,4.5,0,3.57,3.57,0,0,1,.94,2.44v5.53h3.1V40.67H37.41v22H40.2V57.17Zm5.78-6V46.06a2.94,2.94,0,0,0-.76-2,2.45,2.45,0,0,0-3.66,0,2.94,2.94,0,0,0-.76,2v5.08Zm.45-5.08a3.42,3.42,0,0,0-.88-2.3,2.91,2.91,0,0,0-4.32,0,3.38,3.38,0,0,0-.89,2.3v5.53h6.09V46.06ZM84.06,62.24V55.72a1.41,1.41,0,0,0-.36-.95,1.25,1.25,0,0,0-.88-.38,1.18,1.18,0,0,0-.85.38,1.41,1.41,0,0,0-.36.95v6.52Zm.46-6.52A1.85,1.85,0,0,0,84,54.46a1.69,1.69,0,0,0-1.21-.53,1.63,1.63,0,0,0-1.18.53,1.86,1.86,0,0,0-.48,1.26v7h3.36v-7Zm-4,6.52V55.72A2.54,2.54,0,0,1,81.21,54a2.18,2.18,0,0,1,3.24,0,2.5,2.5,0,0,1,.67,1.71v6.52H86.4v-10H80.28a.52.52,0,0,1-.38-.17.57.57,0,0,1,0-.77.51.51,0,0,1,.38-.16h.27V44.61a2.61,2.61,0,0,1,.66-1.73,2.16,2.16,0,0,1,3.23,0,2.52,2.52,0,0,1,.68,1.72v6.53H86.4v-10H79.24V62.24ZM81,55.72a2,2,0,0,1,.54-1.4,1.73,1.73,0,0,1,1.27-.57,1.78,1.78,0,0,1,1.3.57,2,2,0,0,1,.54,1.4v7h2.2V51.78H80.28l0,0a.09.09,0,0,1,0-.07.08.08,0,0,1,0-.07.05.05,0,0,1,0,0H81v-7a2.11,2.11,0,0,1,.54-1.42,1.69,1.69,0,0,1,2.56,0,2.07,2.07,0,0,1,.55,1.41v7h2.2V40.67H78.79v22H81v-7Zm.6-4.58h2.45V44.61a1.42,1.42,0,0,0-.37-1,1.21,1.21,0,0,0-.87-.4,1.15,1.15,0,0,0-.85.39,1.46,1.46,0,0,0-.36,1v6.53Zm2.68.45h.23v-7a1.85,1.85,0,0,0-.5-1.27,1.64,1.64,0,0,0-1.2-.54,1.6,1.6,0,0,0-1.18.54,1.88,1.88,0,0,0-.48,1.27v7ZM75,62.24V57.17a2.87,2.87,0,0,0-.76-2,2.51,2.51,0,0,0-1.83-.81,2.48,2.48,0,0,0-1.81.81,2.91,2.91,0,0,0-.75,2v5.07Zm.46-5.07a3.31,3.31,0,0,0-.89-2.28,2.89,2.89,0,0,0-4.3,0,3.35,3.35,0,0,0-.88,2.28V62.7H75.5V57.17Zm-6.67,5.07V57.17a4,4,0,0,1,1.06-2.73,3.47,3.47,0,0,1,2.56-1.15A3.51,3.51,0,0,1,75,54.44a4,4,0,0,1,1.07,2.73v5.07h2.09V41.13H66.82v10h2V46.06a4,4,0,0,1,1.06-2.75,3.47,3.47,0,0,1,2.56-1.15A3.55,3.55,0,0,1,75,43.31a4.07,4.07,0,0,1,1.06,2.75v5.08h.35a.51.51,0,0,1,.38.16.54.54,0,0,1,.15.39.54.54,0,0,1-.15.38.52.52,0,0,1-.38.17H66.82v10Zm.46-5.07a3.5,3.5,0,0,1,.93-2.42,3,3,0,0,1,4.48,0,3.52,3.52,0,0,1,.94,2.42V62.7h3v-22H66.36V51.59h2.93V46.06a3.57,3.57,0,0,1,.93-2.44,3,3,0,0,1,4.48,0,3.57,3.57,0,0,1,.94,2.44v5.53h.81a.05.05,0,0,1,0,0,.08.08,0,0,1,0,.07.09.09,0,0,1,0,.07l0,0H66.36V62.7h2.93V57.17Zm5.75-6V46.06a2.94,2.94,0,0,0-.76-2,2.52,2.52,0,0,0-1.83-.82,2.46,2.46,0,0,0-1.8.82,2.94,2.94,0,0,0-.76,2v5.08Zm.46-5.08a3.38,3.38,0,0,0-.89-2.3,2.89,2.89,0,0,0-4.3,0,3.42,3.42,0,0,0-.88,2.3v5.53H75.5V46.06ZM65.76,52a.36.36,0,0,1,0-.09.65.65,0,0,1,0-.19.71.71,0,0,1,0-.2.36.36,0,0,1,0-.09V38.14H50.29v24.1h1V40.58a.56.56,0,0,1,.15-.38.54.54,0,0,1,.38-.17H64.21a.54.54,0,0,1,.38.17.56.56,0,0,1,.15.38V62.24h1V52Zm.38-.24v-.08l0,0,.06-.07V37.68H49.83v25h1.93V40.58a.09.09,0,0,1,0-.07l.05,0H64.21l.05,0a.14.14,0,0,1,0,.07V62.7h1.94V51.82l-.06-.06,0,0ZM59.55,62.24V53.9a1.71,1.71,0,0,0-.45-1.18,1.44,1.44,0,0,0-2.15,0,1.73,1.73,0,0,0-.45,1.18v8.34ZM60,53.9a2.2,2.2,0,0,0-.57-1.49,1.88,1.88,0,0,0-2.81,0A2.16,2.16,0,0,0,56,53.9v8.8h4V53.9Zm-4.56,8.34V53.9A2.88,2.88,0,0,1,56.19,52,2.51,2.51,0,0,1,58,51.14a2.48,2.48,0,0,1,1.83.81,2.84,2.84,0,0,1,.76,1.95v8.34h1V50H54.42V62.24Zm.46-8.34a2.4,2.4,0,0,1,.63-1.64,2,2,0,0,1,3,0,2.4,2.4,0,0,1,.63,1.64v8.8h1.93V49.54H54V62.7H55.9V53.9Zm-3.53-5h1V47.24a5.2,5.2,0,0,1,1.36-3.53,4.44,4.44,0,0,1,6.6,0,5.21,5.21,0,0,1,1.37,3.53V48.9h1V41.13H52.37V48.9Zm1.22.46h.23V47.24A4.71,4.71,0,0,1,55.06,44,4,4,0,0,1,61,44a4.71,4.71,0,0,1,1.24,3.22v2.12h1.91V40.67H51.91v8.69Zm.83-.46h7.21V47.24a4.06,4.06,0,0,0-1.08-2.75,3.35,3.35,0,0,0-5,0,4.06,4.06,0,0,0-1.08,2.75V48.9Zm7.44.46h.22V47.24a4.52,4.52,0,0,0-1.19-3.06,3.81,3.81,0,0,0-5.73,0A4.53,4.53,0,0,0,54,47.24v2.12Zm1.82.64h-1V62.24h1V50Zm-1.22-.46h-.23V62.7h1.91V49.54Zm-9.1.46h-1V62.24h1V50Zm-1.22-.46h-.23V62.7h1.91V49.54ZM33.52,36.68v1.25h.84V36.68Zm48.75,1.25V36.68h-.84v1.25Zm-32-.89H65.76v-.41H50.29V37Zm15.7.45h.23V36.17H49.83v1.32Zm-2.31-2V33.27h-1v2.26ZM64.14,33v-.23H62.23V36h1.91V33Zm-2.51,2.49V33.27h-1v2.26ZM62.08,33v-.23H60.15V36h1.93V33Zm2.66.23v2.26h1V33.27Zm-.46,2.49V36h1.94V32.81H64.28v2.95Zm-4.73-.23V33.27h-1v2.26ZM60,33v-.23H58.1V36H60V33Zm-2.5,2.49V33.27h-1v2.26ZM58,33v-.23H56V36H58V33Zm-2.51,2.49V33.27h-1v2.26ZM55.9,33v-.23H54V36H55.9V33Zm-2.54,2.49V33.27h-1v2.26ZM53.82,33v-.23H51.91V36h1.91V33Zm-2.51,2.49V33.27h-1v2.26ZM51.76,33v-.23H49.83V36h1.93V33ZM8.8,66.69H111.2V63.34H8.8v3.35Zm102.63.46h.23V62.89H8.34v4.26ZM54.07,29.58a.52.52,0,0,0,.38-.17.57.57,0,0,0,0-.77.51.51,0,0,0-.38-.16H50a.51.51,0,0,0-.38.16.54.54,0,0,0-.15.39.54.54,0,0,0,.15.38.52.52,0,0,0,.38.17ZM50,29.12h4.1l0,0a.09.09,0,0,0,0-.07.08.08,0,0,0,0-.07.05.05,0,0,0,0,0H50a.05.05,0,0,0,0,0,.08.08,0,0,0,0,.07.09.09,0,0,0,0,.07l0,0Zm1.56-1.2H48.08a9.26,9.26,0,0,0,.72,1.57,9.65,9.65,0,0,0,1.14,1.59H62.63a10.39,10.39,0,0,0,1.42-2.87,11.16,11.16,0,0,0,.52-3.38,13.33,13.33,0,0,0-2-6A48.34,48.34,0,0,0,56.94,11q-2,1.93-3.57,3.69c-1,1.08-1.82,2.11-2.55,3.07h3a.55.55,0,0,1,.37.93.48.48,0,0,1-.37.17H50c-.45.66-.85,1.3-1.18,1.9a13.26,13.26,0,0,0-.72,1.48h1.64a.5.5,0,0,1,.38.17.55.55,0,0,1,.15.38.56.56,0,0,1-.15.38.54.54,0,0,1-.38.17h-2a5.84,5.84,0,0,0-.22,1.44,1.08,1.08,0,0,1,0,.19,7.09,7.09,0,0,0,.07,1,8.17,8.17,0,0,0,.14.84h3.76a.48.48,0,0,1,.37.17.5.5,0,0,1,.15.38.54.54,0,0,1-.15.38.51.51,0,0,1-.37.16Zm-3.76-.45h-.31l.09.3a9.57,9.57,0,0,0,.86,1.94,10.15,10.15,0,0,0,1.25,1.75l.07.08H62.85l.07-.1a10.45,10.45,0,0,0,1.56-3.09A11.51,11.51,0,0,0,65,24.83a13.7,13.7,0,0,0-2-6.24,49.56,49.56,0,0,0-5.86-8.07L57,10.34l-.17.16Q54.69,12.56,53,14.39a44.79,44.79,0,0,0-2.86,3.47l-.26.36h3.95l0,0a.09.09,0,0,1,0,.07.08.08,0,0,1,0,.07.05.05,0,0,1,0,0H49.79l-.07.09a22.84,22.84,0,0,0-1.28,2,12.53,12.53,0,0,0-.86,1.85l-.12.31h2.3a.06.06,0,0,1,.05,0,.12.12,0,0,1,0,.07.14.14,0,0,1,0,.07l-.05,0H47.4a6,6,0,0,0-.3,2.1c0,.36,0,.72.07,1.06a10.05,10.05,0,0,0,.2,1.07l0,.17h4.12a.05.05,0,0,1,0,0,.08.08,0,0,1,0,.07.09.09,0,0,1,0,.07l0,0Zm14.34.31a.51.51,0,0,0,.37-.16.54.54,0,0,0,.15-.38.54.54,0,0,0-.15-.39.51.51,0,0,0-.37-.16H58a.5.5,0,0,0-.38.17.55.55,0,0,0-.15.38.58.58,0,0,0,.15.38.53.53,0,0,0,.38.16ZM58,27.33h4.11l0,0a.09.09,0,0,0,0-.07.08.08,0,0,0,0-.07.05.05,0,0,0,0,0H58l0,0a.19.19,0,0,0,0,.08.15.15,0,0,0,0,.07l0,0ZM39.86,21.74h.66v-.22h-.66v.22Zm.87.45a2.08,2.08,0,0,1,.25,0V21.06H39.41v1.13Zm4.51,13.39a5.94,5.94,0,0,0,1.06-1.74,5.76,5.76,0,0,0,.38-2.07,7.56,7.56,0,0,0-1.6-3.88,31.29,31.29,0,0,0-4.54-5.05h-.68a36.51,36.51,0,0,0-4.62,5.22,7.17,7.17,0,0,0-1.54,3.7,5.76,5.76,0,0,0,.38,2.07,6,6,0,0,0,1.06,1.74ZM46.72,34a6,6,0,0,0,.42-2.23,7.9,7.9,0,0,0-1.69-4.13,31.68,31.68,0,0,0-4.67-5.2l-.06-.06-1,0-.06.06a36.65,36.65,0,0,0-4.74,5.35,7.46,7.46,0,0,0-1.62,3.95A6.19,6.19,0,0,0,34.87,36l.07.08h10.5l.07-.08a6.27,6.27,0,0,0,1.21-2ZM45,36.68H35.42v1.25H45V36.68Zm-9.78-.45H35v2.16H45.42V36.23ZM75.27,21.74h.66v-.22h-.66v.22Zm.87.45a1.92,1.92,0,0,1,.24,0V21.06H74.81v1.13Zm4.51,13.39a5.78,5.78,0,0,0,1-1.74,5.56,5.56,0,0,0,.39-2.07,7.56,7.56,0,0,0-1.6-3.88A31.29,31.29,0,0,0,76,22.84h-.69a37,37,0,0,0-4.61,5.22,7.08,7.08,0,0,0-1.54,3.7,5.7,5.7,0,0,0,1.44,3.81ZM82.13,34a6.27,6.27,0,0,0,.41-2.24,7.91,7.91,0,0,0-1.68-4.13,31.68,31.68,0,0,0-4.67-5.2l-.07-.06-1,0-.07.06a36.65,36.65,0,0,0-4.74,5.35,7.46,7.46,0,0,0-1.62,3.95A6,6,0,0,0,69.07,34a6.27,6.27,0,0,0,1.21,2l.07.08h10.5l.07-.08a6.54,6.54,0,0,0,1.21-2Zm-1.76,2.67H70.82v1.25h9.55V36.68Zm-9.77-.45h-.23v2.16H80.83V36.23ZM86.4,40V39H66.82v1Zm.46-1.23v-.22H66.36v1.91h20.5V38.8ZM49.23,39H29.65v1H49.23V39Zm-3.74-.45H29.19v1.91H49.68V38.58ZM58.39,6.44V6.21h-.73V7.34h.73v-.9Zm0,3.07V8h-.66V9.51Zm.46-1.76V7.52H57.24V10h1.57V7.75ZM58,10.61a48.21,48.21,0,0,1,5.57,7.81,14.21,14.21,0,0,1,2,6.41,12.25,12.25,0,0,1-.5,3.48,10.76,10.76,0,0,1-1.22,2.77h2.22a9.42,9.42,0,0,0,1.76-2.88,9.17,9.17,0,0,0,.64-3.37c0-1.64-.89-3.76-2.55-6.18a49.17,49.17,0,0,0-7.2-8Zm5.17,8a13.73,13.73,0,0,1,2,6.19,12.13,12.13,0,0,1-.48,3.36,11,11,0,0,1-1.39,3l-.23.36h3.24l.07-.08a9.81,9.81,0,0,0,1.92-3.09A9.68,9.68,0,0,0,69,24.83c0-1.74-.91-3.94-2.62-6.44A50.06,50.06,0,0,0,59,10.21L59,10.15H57l.33.38a48.9,48.9,0,0,1,5.83,8.11Zm-.3,13.08H49.83v.91H66.22v-.91Z"/><path class="cls-1" d="M29.42,62.47H31V55.72a2.05,2.05,0,1,1,4.09,0v6.75h2V40.9H29.42V51.37H31V44.61a2.05,2.05,0,1,1,4.09,0v6.76h.5a.31.31,0,0,1,.31.32.32.32,0,0,1-.31.32H29.42V62.47ZM80.48,30.66a.29.29,0,0,1-.29-.28,7.22,7.22,0,0,0-1.84-2.94.34.34,0,0,1,0-.45.29.29,0,0,1,.43,0c.07.07,1.85,1.91,2,3.32a.31.31,0,0,1-.26.36ZM35.3,32h0a.32.32,0,0,1-.24-.38c.64-3.5,2.14-4.6,2.21-4.65a.28.28,0,0,1,.41.09.32.32,0,0,1-.08.44s-1.36,1-1.95,4.25a.3.3,0,0,1-.3.25ZM6,69.13H114V67.56H6v1.57Zm108.26.64H5.72a.31.31,0,0,1-.3-.32V67.24a.31.31,0,0,1,.3-.32H8V62.79a.31.31,0,0,1,.3-.32h.94l.77-14H9.73a1.05,1.05,0,0,1-1-1.11,1,1,0,0,1,1-1.07h.33l.6-14.13h-.28a1.11,1.11,0,0,1,0-2.21h0L11,15.81h-.19a1.09,1.09,0,0,1,0-2.18h.33V9.71h-.48a.31.31,0,0,1-.3-.32.31.31,0,0,1,.3-.32h.24a2.62,2.62,0,0,1-.33-1.28c0-1.08,1.23-2.42,2.56-3.7h0v-3a.3.3,0,1,1,.6,0v3h0c1.77,1.64,2.6,2.82,2.6,3.71A2.64,2.64,0,0,1,16,9.07h.25a.31.31,0,0,1,.3.32.32.32,0,0,1-.3.32h-.48v3.92H16a1.06,1.06,0,0,1,1,1.1,1,1,0,0,1-1,1.08h-.16l.52,14.1h.05a1.11,1.11,0,0,1,0,2.21h-.31l.62,14.13h.32a1,1,0,0,1,1,1.07,1,1,0,0,1-1,1.11h-.23l.77,14h3.07L21.18,53h-.07a.87.87,0,0,1,0-1.73h.15l.39-9.57h-.1a.85.85,0,0,1-.79-.85A.83.83,0,0,1,21.5,40l.36-9.58h0a.83.83,0,0,1-.8-.85.81.81,0,0,1,.8-.85H22V26.16h-.24a.32.32,0,0,1,0-.64h0a2.07,2.07,0,0,1-.18-.8c0-.72.72-1.57,1.8-2.62v-2a.31.31,0,0,1,.3-.32.32.32,0,0,1,.3.32v2c1.17,1.08,1.77,2,1.77,2.6a2,2,0,0,1-.17.8h0a.32.32,0,0,1,0,.64h-.24v2.52h.14a.82.82,0,0,1,.79.85.85.85,0,0,1-.79.85h0L25.79,40a.8.8,0,0,1,.74.85.83.83,0,0,1-.79.85h-.1l.41,9.57h.13a.87.87,0,0,1,0,1.73h-.07l.53,9.51h2.18V52a.32.32,0,0,1-.21-.3.32.32,0,0,1,.21-.31v-9.5h0v-8a.31.31,0,0,1,.3-.32.32.32,0,0,1,.3.32v4.27h3.27V35.57a.3.3,0,1,1,.6,0V36a.32.32,0,0,1,.25-.14h.7a6.57,6.57,0,0,1-1.37-4c0-2.21,2-5.26,6.2-9.33a.42.42,0,0,1,0-.15V21a.31.31,0,0,1,.3-.32h.56V18a.31.31,0,0,1,.3-.32.31.31,0,0,1,.3.32v2.7h.56a.31.31,0,0,1,.3.32v1.32a.5.5,0,0,1,0,.12c2.48,2.32,6.18,6.31,6.18,9.36a6.57,6.57,0,0,1-1.37,4h.73a.31.31,0,0,1,.3.32.31.31,0,0,1-.3.32H45.8v1.71h3.66V31.82a10.27,10.27,0,0,1-2.76-7h0c0-.11,0-.22,0-.33v0a.57.57,0,0,0,0-.13v0c0-.05,0-.09,0-.14s0,0,0-.06,0-.07,0-.11v0c0-.05,0-.09,0-.13v-.06s0-.08,0-.12,0-.05,0-.07a.43.43,0,0,1,0-.11V23.4l0-.12v-.05l0-.13s0,0,0-.06l0-.13v0c0-.05,0-.1.05-.15v0a1,1,0,0,1,0-.16h0c1.08-3.21,4.26-7.35,9.64-12.56a.21.21,0,0,1,.1-.06h0V7.43a.31.31,0,0,1,.3-.32h.11v-1a.32.32,0,0,1,.3-.33h.12V.55A.31.31,0,0,1,58,.23a.31.31,0,0,1,.3.32V5.79h.17a.32.32,0,0,1,.3.33v1h.11a.31.31,0,0,1,.3.32v2.4C63,13.38,69.35,20,69.35,24.83a10.29,10.29,0,0,1-2.76,7v6.34H70V36.45H68.92a.31.31,0,0,1-.3-.32.31.31,0,0,1,.3-.32h.73a6.57,6.57,0,0,1-1.37-4c0-2.21,2-5.26,6.19-9.33a.4.4,0,0,1,0-.15V21a.31.31,0,0,1,.3-.32h.56V18a.31.31,0,0,1,.3-.32.31.31,0,0,1,.3.32v2.7h.55a.31.31,0,0,1,.31.32v1.32a.27.27,0,0,1,0,.12c2.48,2.32,6.19,6.31,6.19,9.36a6.57,6.57,0,0,1-1.37,4h.7a.32.32,0,0,1,.25.14v-.66a.31.31,0,0,1,.3-.32.32.32,0,0,1,.3.32v2.87h3.53V33.92a.32.32,0,0,1,.3-.32.31.31,0,0,1,.3.32v8h0v9.78h0V62.47h6.31L94.05,53H94a.87.87,0,0,1,0-1.73h.12l.42-9.57h-.1a.85.85,0,0,1-.8-.85.83.83,0,0,1,.74-.85l.37-9.58h0a.83.83,0,0,1-.79-.85.8.8,0,0,1,.79-.85h.12V26.16h-.25a.32.32,0,0,1,0-.64h0a2,2,0,0,1-.17-.8c0-.65.6-1.53,1.79-2.63v-2a.32.32,0,0,1,.3-.32.31.31,0,0,1,.3.32v2c1.23,1.17,1.77,2,1.77,2.6a2,2,0,0,1-.17.8h0a.32.32,0,0,1,0,.64H98.2v2.52h.14a.83.83,0,0,1,.8.85.85.85,0,0,1-.8.85h0L98.66,40a.81.81,0,0,1,.74.85.83.83,0,0,1-.8.85h-.1l.42,9.57H99A.87.87,0,0,1,99,53H99l.54,9.51h3.07l.77-14h-.25a1.07,1.07,0,0,1-1-1.11,1.05,1.05,0,0,1,1-1.07h.34L104,32.12h-.28a1.11,1.11,0,0,1,0-2.21h0l.55-14.1h-.18a1.06,1.06,0,0,1-1-1.08,1.08,1.08,0,0,1,1-1.1h.32v-4H104A.32.32,0,0,1,104,9h.26a2.62,2.62,0,0,1-.33-1.3c0-.9.82-2.08,2.57-3.74h0V1.11a.31.31,0,1,1,.61,0V4h0c1.54,1.52,2.57,2.73,2.57,3.73a2.62,2.62,0,0,1-.33,1.3h.26a.32.32,0,0,1,0,.64h-.5v4h.32a1.08,1.08,0,0,1,1,1.1,1.06,1.06,0,0,1-1,1.08h-.18l.55,14.1h0a1.11,1.11,0,0,1,0,2.21h-.28l.59,14.13h.34a1.05,1.05,0,0,1,1,1.07,1.07,1.07,0,0,1-1,1.11h-.25l.77,14h.78a.31.31,0,0,1,.3.32v4.13h2.25a.31.31,0,0,1,.3.32v2.21a.31.31,0,0,1-.3.32Zm-16.46-9h0a.3.3,0,0,0,.28-.33l-.31-6.19a.31.31,0,0,0-.31-.3.32.32,0,0,0-.29.34l.31,6.18a.31.31,0,0,0,.3.3ZM95.3,25.52h2.42a1.29,1.29,0,0,0,.27-.8c0-.28-.26-.86-1.48-2-.93.87-1.48,1.63-1.48,2a1.35,1.35,0,0,0,.27.8Zm2.3,3.16V26.16H95.42v2.52Zm.3.64H94.7a.18.18,0,0,0-.19.21.2.2,0,0,0,.19.21h3.64a.22.22,0,0,0,.2-.21.2.2,0,0,0-.2-.21ZM98.06,40l-.34-9.57H95.33L95,40Zm-3.64.64a.2.2,0,0,0-.19.22.22.22,0,0,0,.19.21H98.6a.21.21,0,0,0,.2-.21.2.2,0,0,0-.2-.22H94.42Zm3.89,10.64-.41-9.57H95.12l-.41,9.57Zm.32.64H94a.22.22,0,0,0-.2.24.21.21,0,0,0,.2.21H99a.21.21,0,0,0,.2-.21.22.22,0,0,0-.2-.24Zm.28,10.6L98.37,53H94.65l-.51,9.51Zm9.75-2.77h0a.31.31,0,0,0,.28-.34l-.44-8.89a.3.3,0,1,0-.6,0l.44,8.9a.31.31,0,0,0,.3.3ZM105,9h3.59a2,2,0,0,0,.48-1.3c0-.88-1.48-2.37-2.28-3.17-1.5,1.44-2.27,2.5-2.27,3.17A2,2,0,0,0,105,9Zm.09,4.59h3.41v-4h-3.41v4Zm-.92.64a.47.47,0,0,0-.43.46.44.44,0,0,0,.43.44h5.25a.44.44,0,0,0,.43-.44.47.47,0,0,0-.43-.46Zm5,15.64-.55-14.1h-3.69l-.54,14.1Zm.31.64h-5.72a.47.47,0,0,0,0,.93h6a.47.47,0,0,0,0-.93Zm-.57,1.57h-4.26L104,46.25h5.45l-.59-14.13Zm.91,14.77H103.1a.44.44,0,0,0-.43.43.45.45,0,0,0,.43.47h7.33a.45.45,0,0,0,.43-.47.44.44,0,0,0-.43-.43Zm.54,15.58-.78-14H104l-.78,14Zm-88-1.71a.31.31,0,0,0,.3-.3l.31-6.18a.31.31,0,0,0-.28-.34.32.32,0,0,0-.32.3L22,60.43a.31.31,0,0,0,.29.33Zm.12-35.24h2.4a1.29,1.29,0,0,0,.27-.8c0-.41-.54-1.17-1.47-2-.51.5-1.48,1.5-1.48,2a1.34,1.34,0,0,0,.28.8Zm2.29,3.16V26.16H22.56v2.52Zm.3.64h-3.2a.18.18,0,0,0-.19.21.2.2,0,0,0,.19.21h3.64a.22.22,0,0,0,.19-.21.2.2,0,0,0-.19-.21ZM25.19,40l-.34-9.57H22.47L22.1,40Zm-3.64.64a.2.2,0,0,0-.19.22.22.22,0,0,0,.19.21h4.19a.2.2,0,0,0,.19-.21c0-.14-.07-.22-.19-.22H21.55Zm3.9,10.64L25,41.66H22.26l-.39,9.57Zm.32.64H21.11a.23.23,0,0,0,0,.45h5.07a.23.23,0,0,0,0-.45ZM26,62.47,25.51,53H21.78l-.51,9.51ZM11.52,59.7a.31.31,0,0,0,.3-.3l.41-8.9a.31.31,0,0,0-.28-.34.33.33,0,0,0-.32.31l-.41,8.89a.31.31,0,0,0,.28.34ZM11.6,9.07h3.61a2,2,0,0,0,.48-1.28c0-.45-.4-1.37-2.3-3.13-.75.72-2.27,2.23-2.27,3.13a2,2,0,0,0,.48,1.28Zm.09,4.56h3.43V9.71H11.69v3.92Zm-.93.64a.44.44,0,0,0-.4.46.42.42,0,0,0,.4.44H16a.42.42,0,0,0,.42-.44.45.45,0,0,0-.42-.46Zm5,15.64-.52-14.1H11.55L11,29.91Zm.32.64H10.38A.44.44,0,0,0,10,31a.45.45,0,0,0,.41.47h6a.45.45,0,0,0,.4-.47.44.44,0,0,0-.4-.46Zm-.58,1.57H11.26l-.6,14.13h5.48l-.62-14.13Zm.94,14.77H9.73a.42.42,0,0,0-.41.43.43.43,0,0,0,.41.47h7.33a.42.42,0,0,0,.42-.47.42.42,0,0,0-.42-.43h-.6ZM17,62.47l-.77-14H10.58l-.77,14Zm14.58,0V55.72a1.44,1.44,0,1,1,2.88,0v6.75Zm0-11.1V44.61a1.45,1.45,0,1,1,2.88,0v6.76Zm14.63,11.1v-5.3a2.83,2.83,0,1,0-5.64,0v5.3Zm-6.24,0v-5.3a3.43,3.43,0,1,1,6.84,0v5.3h2.65V52H39.39a.31.31,0,0,1-.3-.32.31.31,0,0,1,.3-.32H40V46.06a3.43,3.43,0,1,1,6.84,0v5.31h2.65V40.9H37.63V62.47Zm6.24-11.1V46.06a2.83,2.83,0,1,0-5.64,0v5.31Zm38.08,11.1V55.72a1.46,1.46,0,1,0-2.91,0v6.75Zm-3.51,0V55.72a2.06,2.06,0,1,1,4.11,0v6.75h1.74V52H80.28a.31.31,0,0,1-.3-.32.31.31,0,0,1,.3-.32h.5V44.61a2.14,2.14,0,0,1,2-2.22,2.17,2.17,0,0,1,2.07,2.22v6.76h1.74V40.9H79V62.47Zm.6-11.1h2.91V44.61A1.54,1.54,0,0,0,82.82,43a1.52,1.52,0,0,0-1.44,1.58v6.76Zm-6.11,11.1v-5.3a2.81,2.81,0,1,0-5.61,0v5.3Zm-6.21,0v-5.3a3.41,3.41,0,1,1,6.81,0v5.3h2.55V40.9H66.59V51.37h2.47V46.06a3.41,3.41,0,1,1,6.81,0v5.31h.58a.31.31,0,0,1,.31.32.32.32,0,0,1-.31.32H66.59V62.47Zm6.21-11.1V46.06a2.81,2.81,0,1,0-5.61,0v5.31ZM66,51.9a.3.3,0,0,1-.08-.21.33.33,0,0,1,.08-.22V37.91H50.06V62.47h1.48V40.58a.31.31,0,0,1,.3-.32H64.21a.31.31,0,0,1,.3.32V62.47H66V51.9ZM59.78,62.47V53.9a1.76,1.76,0,1,0-3.51,0v8.57Zm-4.11,0V53.9a2.36,2.36,0,1,1,4.71,0v8.57h1.48V49.77H54.19v12.7ZM52.14,49.13h1.45V47.24a4.45,4.45,0,1,1,8.87,0v1.89h1.45V40.9H52.14v8.23Zm2,0h7.67V47.24a3.85,3.85,0,1,0-7.67,0v1.89Zm9.72.64H62.46v12.7h1.45V49.77Zm-10.32,0H52.14v12.7h1.45V49.77ZM33.29,36.32v1.84h1.3V36.45H33.54a.31.31,0,0,1-.25-.13ZM82.5,38.16V36.32a.31.31,0,0,1-.25.13h-1v1.71Zm-32.44-.89H66V36.4H50.06v.87Zm13.85-1.51V33H62.46v2.72Zm-2,0V33H60.38v2.72ZM64.51,33v2.72H66V33Zm-4.73,2.72V33H58.33v2.72Zm-2.06,0V33H56.27v2.72Zm-2,0V33H54.19v2.72Zm-2.08,0V33H52.14v2.72Zm-2.05,0V33H50.06v2.72Zm-43,31.16H111.43V63.11H8.57v3.81Zm45.5-37.57a.31.31,0,0,0,.3-.32.31.31,0,0,0-.3-.32H50a.31.31,0,0,0-.31.32.32.32,0,0,0,.31.32ZM51.53,27.7H47.77a9.9,9.9,0,0,0,2.06,3.61H62.74a11,11,0,0,0,2.05-6.48c0-4.49-4.81-10.7-7.83-14.16A60.25,60.25,0,0,0,50.37,18h3.5a.32.32,0,0,1,.3.32.31.31,0,0,1-.3.32h-4a17.12,17.12,0,0,0-2.12,3.84h2a.32.32,0,0,1,0,.64H47.57c0,.09,0,.18-.07.26v0c0,.05,0,.1,0,.15s0,0,0,.06a.43.43,0,0,0,0,.11l0,.07s0,.06,0,.09,0,.06,0,.08V24l0,.09a.17.17,0,0,1,0,.07v.08a.25.25,0,0,0,0,.08v.08a.22.22,0,0,1,0,.08v.29l0,.11a.13.13,0,0,1,0,.06,9.88,9.88,0,0,0,.26,2.09h3.94a.31.31,0,0,1,.3.32.32.32,0,0,1-.3.32Zm10.58-.14a.32.32,0,0,0,.3-.32.31.31,0,0,0-.3-.32H58a.31.31,0,0,0-.3.32.31.31,0,0,0,.3.32ZM39.63,22h1.12v-.67H39.63V22Zm5.71,13.85a6,6,0,0,0,1.57-4c0-2.15-2.29-5.48-6.28-9.16l-.87,0c-4.17,4-6.29,7.1-6.29,9.14a6,6,0,0,0,1.57,4Zm-.15.64h-10v1.71h10V36.45ZM75,22h1.11v-.67H75V22Zm5.71,13.85a6,6,0,0,0,1.56-4c0-2.15-2.28-5.48-6.28-9.16l-.86,0c-4.17,4-6.29,7.1-6.29,9.14a6,6,0,0,0,1.57,4Zm-.15.64h-10v1.71h10V36.45Zm6,3.81V38.8h-20v1.46h20ZM49.46,38.8h-20v1.46h20V38.8Zm8.7-31.69V6.44h-.28v.67Zm.42,2.63v-2H57.47v2Zm-1,.64c3.09,3.56,7.87,9.81,7.87,14.45a11.76,11.76,0,0,1-1.91,6.48h2.73a9.63,9.63,0,0,0,2.53-6.48c0-3.38-3.6-8.64-9.89-14.45ZM66,32H50.06v.45H66Z"/></svg>