<svg id="Layer_1" data-name="Layer 1" xmlns="http://www.w3.org/2000/svg" viewBox="0 0 120 70"><defs><style>.cls-1{fill:#f5aa08;fill-rule:evenodd;}</style></defs><path class="cls-1" d="M8.8,66.38l26.25,0c.29.31.22-.58.28.61L35.24,68l-26.59,0-.12-1.11c.06-1,0-.25.27-.56ZM6.56,35.29c-.44.28-.28,1.09-.2,1.63L6,37.34c-1.71.9.72,1.88.76,2V68C5.17,68,3.59,68,2,68s-2.77.59-1.49,1.8c.62.37,96.21.12,104.81.12,2.68,0,13,.41,14.56-.3.45-1.72-.68-1.63-2.25-1.62-1.4,0-2.91.05-4.29,0l0-28.77c.62-.29,1-.2,1.1-1s-.26-.89-.85-1c.22-2.17-.2-3.19-1.51-4.27a29.07,29.07,0,0,0-3.26-2.32c-.07-1.14.09-1.24-.32-2.08-1.79-.46-1.34.45-1.66,1.79-.35,1.51-4.94,2.2-4.49,6.61l-.91.64c-.87,1.17,1.16,1.51,1.23,1.78l-.09,4.57H89.15V39.34c.06-.24,2.42-.9.36-2.24-.09-2.15-.26-3.07-1.59-4.2a36.73,36.73,0,0,0-3.26-2.32c-.06-1.1.08-1.26-.33-2.08-2-.44-1.34.68-1.65,1.82-.15.56-1.4,1.36-1.92,1.77-1.5,1.17-2.84,2.1-2.58,4.83l-.12.08c-.49.32-1.13.58-1,1.32.26,1.11,1,.32,1.42,1v1.13c-.82-.16-3.71-2.29-4.44-2.86,0-2.86.12-5-2.55-5.49v-5c1-.31,1.86-1.95,2.22-3.16,1.1-3.63-.65-5.26-.73-6.82,0-1,.51-4.35-1.31-3.63-.73.29-.59,1.15-.61,2-1.95-.93-6.51-4.22-7.92-4.79,0-3.21.62-7-3.15-6.95s-3.12,3.83-3.12,7c-1.79.73-6.17,4-7.94,4.79,0-1,.09-1.83-.76-2-1.76-.38-.94,2.7-1.17,4.15-.09.52-.5,1.17-.7,1.85-.81,2.66-.08,6.23,2.21,7.79l0,4.75C45.71,33.23,46,34.24,46,37.66c-1,.54-3.48,2.67-4.42,2.79V39.34c.06-.21,2.46-.92.37-2.24,0-2.36-.21-3-1.61-4.19a32.4,32.4,0,0,0-3.21-2.35l-.19-1.92c-.6-.28-.83-.47-1.53.07-.68,1.25.42,1.37-.95,2.41C32,33,30.35,33.86,30.64,36.92l-.13.08c-.94.61-1.18.63-.79,1.86,1.58.48,1.23-.73,1.23,4.94-.19.11-.05.11-.4.17l-.35,0-2.62,0c-2.46,0-8.49.14-10.19,0a19,19,0,0,1,0-4.94l.64-.08c.69-.23.7-.34.6-1.3L17.79,37c0-.06-.07-.06-.1-.09.33-3.18-1.61-4.1-4.16-5.91-1.29-.92-.24-1.06-.88-2.3-.69-.52-1-.34-1.54-.08-.24,1.12.11,1.62-.56,2.27-1.21,1.16-4,2.3-4,4.39Zm54.6,8.46L59,43.81l.13-1.29a2.7,2.7,0,0,1,.9-1.34,2.74,2.74,0,0,1,1.14,2.57Zm0-18.71L59,25.16l.09-2.44c.24-.76.3-.82.91-1.14a1.54,1.54,0,0,1,.75.61,3.52,3.52,0,0,1,.32.78,11,11,0,0,1,0,2.07Zm3.53,4.52a5.11,5.11,0,0,0-.19,2.36A11.56,11.56,0,0,1,61,31.74a5.27,5.27,0,0,0-.22-2.47c-.7-.55-.93-.35-1.61-.08l0,2.65-3.52.09V30l-.27-.54c-.45-.79-1.18-.79-1.6,0l-.28.52v1.9h-3l0-4.75,19,0V32H66.58V30c-.08-.79-.08-.38-.24-.56-.47-.81-1.17-.68-1.67.1ZM61.13,6.31l.07,3.87H58.86c-.1-1-.26-3.3.19-4a1.19,1.19,0,0,1,2.08.16Zm26.1,41.8c-1.34.54-5,.14-6.68.22V45.82c1.27-.08,1.29-.57,1.28-1.81a15.31,15.31,0,0,0-.16-3.22l-1.25-.41v-1.2l6.82-.08v9ZM71,25.11l-7.91.06A4.9,4.9,0,0,0,63,23c-.1-1.75-2.18-4.26-3.86-3.19-2.64,1.69-1.93,4.06-2.18,5.48l-7.83,0A5.8,5.8,0,0,1,48.17,20c.93-2.92,3.95-4.18,7-6.08,1.92-1.2,2.06-1.75,4.87-1.74,1.47,0,1.83-.21,2.94.52l6,3.71c4.09,2.47,3.73,7,2.08,8.67ZM68.63,46,75,45.88l-.13,2.59-6.21,0,0-2.47Zm18.59,10.2c-1.31.35-5.1.1-6.72.14l0-6,6.69,0v5.81Zm24.22,0c-1.25.36-5.14.1-6.73.14l0-6,6.71,0v5.78Zm-98.93-1.7c-2.08.14-1.87-2.19.24-1.72.37.84.39.93-.24,1.72Zm23.22-1.75a.94.94,0,0,1,.87,1.67.94.94,0,1,1-.87-1.67Zm60.94,1.65c-2.33.55-2.26-2.11,0-1.62a1.51,1.51,0,0,1,0,1.62ZM23.32,53c1-.73,2.14-.16,1.68,1-.36.9-2.11.92-1.68-1Zm60.06-.19c1.19-.75,1.76.93,1.07,1.5a1,1,0,0,1-1.39-.11.89.89,0,0,1,.32-1.39Zm24.23,0c1.25-.77,1.93,1.22.83,1.65a.93.93,0,0,1-1.3-1.14c.19-.55.08-.28.47-.51Zm3.71-13.65v9.18l-6.57,0V39.09ZM65.28,61l0-15.07,1.46.08,0,14.94-1.44,0ZM63,42.54l16.85,0v1.33H63.1c0-.59.12-.63-.12-1.05l0-.22Zm-51.91.72c0-2.26,1.92-2.1,1.92,0a4.71,4.71,0,0,1-.31,2.44c-1.83.42-1.61-.8-1.61-2.44Zm96,0c0-.91,0-1.5.88-1.55,1.28-.07,1,1.13,1,2.67s-1.91,3.06-1.91-1.12Zm-24.21-.19c0-1.4.46-1.54,1.68-1.2a6.36,6.36,0,0,1,.22,2.51c0,2.1-1.9,1.87-1.9.18V43.07Zm-45.8,2.44c-2.37,1.3-2-2.73-1.62-3.34a.94.94,0,0,1,1.75.38,11.53,11.53,0,0,1-.13,3Zm47.7,20.87h26.67l0,1.52L84.75,68l0-1.59Zm-47.68.14H82.86V68H37.07l0-1.44Zm43.53-8.21,6.48,0c.27.54.19.62.18,1.38v1.68c0,1,0,2.1,0,3.14l-6.83,0c-.08-1.09,0-2.14,0-3.17l0-2.61c.11-.45,0-.14.23-.43Zm-39,4.62,36.83,0,.06,1.57H41.63V62.93Zm-8.56-4.62,6.48,0c0,.05.07.06.08.14l.11,2.92c0,1,.05,2.1,0,3.14l-6.84,0c-.07-1.09,0-2.14,0-3.17,0-.73-.23-2.46.24-3Zm74,6.17-2.36,0,0-6.1,6.82,0v6.1H109a8.67,8.67,0,0,0-.28-3.09c-2.2-.72-1.52,1.36-1.68,3.13Zm-12-.06-5.81,0,0-6.14,13.58,0v6.16l-5.76,0c-.12-1.33.13-2.11-.31-3.17-2.19-.55-1.57,1.31-1.66,3.11Zm-71.85.07-5.73,0,0-6.09c2.32-.22,10.48-.06,13.58-.07v6.18H25.12c-.12-1.3.36-3.22-.92-3.3-1.47-.09-.95,2.07-1.07,3.31Zm-14.34,0c-.3-.25-.22.47-.29-.54,0-1.34-.25-4.61.16-5.68a28.06,28.06,0,0,1,3.44-.05c.77,0,2.8-.28,3.33.21l0,6h-2.4c-.11-1.32.14-2.13-.32-3.18-2.2-.5-1.56,1.37-1.66,3.12l-2.28.08ZM76.93,46.06v-.25h1.59V61L77,61l0-14.94ZM68.61,55.3c.27-.34-.46-.25.55-.32l5.89,0,.06,4.48c0,.18,0,.61,0,.76-.05.73-.08.56-.25.75H68.64l0-5.69Zm-11.77-.22h6.33L63.26,61H56.85V55.08Zm-3.47-9.2,1.57-.05V60.94l-1.55,0V45.88Zm-8.29,9.2H51.4L51.47,61l-6.38,0V55.08ZM41.6,45.82l1.57.08V61L41.6,61V45.82Zm47.53,4.54,13.57,0V56.4H89.21l-.08-6ZM33,50.32l6.7,0v5.81c-.26.36.41.27-.53.32H32.87c-.1-.5-.31-5.48.1-6.15Zm-15.51,0,13.49,0v6c-.32.19.35.1-.57.19-.21,0-.7,0-.94,0-2.91,0-10.22.15-12.06,0a13.91,13.91,0,0,1-.1-3.1V50.72c.14-.76,0-.09.17-.41Zm-8.71,0h6.69v5.91c-.28.27.43.22-.56.24H8.64a34.78,34.78,0,0,1-.1-4.64l0-1.11c.08-.39,0-.19.19-.4Zm59.88.05.91-.05H74.2l.83.06v2.66l-6.42.1V50.38Zm-11.79,0,6.4,0,0,2.82H56.83v-2.8Zm-11.77,0h6.39v2.79l-6.41,0V50.35Zm44.06-4.51,13.58,0,0,2.61-13.51,0-.05-2.6Zm-32.31,0,6.44,0,0,2.63H56.89l-.07-2.61Zm-11.77,0h6.42l0,2.61-6.32,0-.08-2.62Zm-27.68.06L31,45.81l0,2.63H17.41l0-2.55ZM8.76,39.1h6.69v9.17c-.28.27.48.22-.57.24H8.62V39.38l.06-.14.08-.14ZM57.1,42.48,57,43.74c-.29.3.09.1-.38.23l-16.5-.09,0-1.44,16.79,0s.08.05.13.07ZM39.69,48.13c-.28.42.45.32-.55.37H32.85l-.05-7.11V40.27c0-.65-.07-.7.19-1.17l6.69,0v1.12c-1.23.86-1.41-.6-1.42,3,0,1.8-.24,2,.79,2.48.68.34.62-.62.64,2.39Zm8-9.36c.74-.47,2.26-.28,3.36-.28H68.23c4.33,0,3-.63,6.45,1.92l-12,.07c-1.37,0-1.53-1.64-2.62-1.64s-1.27,1.64-2.61,1.64h-12l2.29-1.7Zm56.67-1.63c-.33-1.85.08-2.24,1.13-3A20.62,20.62,0,0,1,108,32.27a29.63,29.63,0,0,1,2.6,1.86c1.1.77,1.47,1.24,1.13,3Zm-24.21,0c-.35-1.75.06-2.22,1.09-3a23,23,0,0,1,2.45-1.84,28.78,28.78,0,0,1,2.62,1.85c1.06.75,1.45,1.24,1.13,3l-7.29,0Zm-47.54,0a2.46,2.46,0,0,1,1.09-3,26.34,26.34,0,0,1,2.43-1.84c.79.4,3.37,2.11,3.71,3a2,2,0,0,1,.06,1.61c-.39.55-6.76.28-7.29.24Zm-24.22,0c-.39-1.76.26-2.28,1.19-3a22.93,22.93,0,0,1,2.31-1.78,16.08,16.08,0,0,1,2.62,1.84c1.17.83,1.5,1.28,1.18,3l-7.3-.06Zm39.49-.53c0-1.73-.21-2.65,1.68-2.65H70.47c1.85,0,1.71,1.07,1.72,2.67C65.93,36.63,53.62,36.8,47.9,36.56Z"/></svg>