<svg id="Layer_1" data-name="Layer 1" xmlns="http://www.w3.org/2000/svg" viewBox="0 0 120 70"><defs><style>.cls-1{fill:#f5aa08;fill-rule:evenodd;}</style></defs><path class="cls-1" d="M83.2,67.87c-5.52,0-4.44.91-4.44-5.87,0-1,2.8-.71,4.08-.71,1.82,0,1.25,1.86,1.25,5.69a1,1,0,0,1-.89.89ZM71.11,66.8c0-1.87.23-1.42,4.8-1.42,1.11,0,1,2.49-.18,2.49l-4.44-.18a2.65,2.65,0,0,1-.18-.89Zm21.69,0V59.87c0-.55.16-1.07.71-1.07h8.18c.62,0,.71.79.71,1.42V66.8a.68.68,0,0,1-.71.71H93.87c-.55,0-1.07-.16-1.07-.71ZM44.09,67c0-2.12.4-1.6,5.15-1.6.52,0,.4.12.56.51,1,2.64-2.14,2-4.82,2-.46,0-.89-.64-.89-.89Zm-3.2.89c-5.12,0-4.27.91-4.27-5.69,0-1.23,2.55-.89,3.91-.89,2.16,0,1.6,1,1.6,5.33a1.1,1.1,0,0,1-1.24,1.25Zm-14.58-.36c-2,0-7,.22-8.71-.18V60.57c0-2.41-1-1.77,8.71-1.77.55,0,.71.52.71,1.07V66.8a.68.68,0,0,1-.71.71Zm25.6-3.38c0-3.87-.43-9.76.68-12.83.91-2.48,4.89-4.82,7.35-5.81a1.81,1.81,0,0,1,1.53.19,5.59,5.59,0,0,0,.73.34l1.08.53.11.06.11.06.13.06C66,47.9,69,50.46,69,53.47V67.16a.69.69,0,0,1-.71.71H53.16c-1.81,0-1.16-2.1-1.16-3,0-.31-.09-.16-.09-.71Zm32-5c-.79.18-5.15.63-5.15-.54V45.11c0-1.07,2.6-.71,4.26-.71.55,0,1.07.16,1.07.71,0,1.83.2,13.2-.18,14Zm-42.13,0a13.89,13.89,0,0,1-5,0c-.42-1.82-.18-11.45-.18-14,0-1.25,4.64-.69,5.34-.53.41,1.79.17,10.65.17,13.15a3,3,0,0,1-.35,1.43Zm59.73-2.49H93.87c-1.73,0,.37-2.91.73-3.36.53-.66,2.07-2.47,3-2.43,1.82.09,6.19,5.79,4,5.79Zm-75.38,0H18.49c-1.85,0,.57-3.25.94-3.68,2.74-3.23,3.59-2.16,5.95.34.4.41.25.2.5.74.13.27.1.25.23.49s1.34,2.11,0,2.11Zm64.54,4.44a10.74,10.74,0,0,1,.13-1.48,5,5,0,0,0-.08-1.18,10.46,10.46,0,0,1,2.34-6.68l.16-.19.08-.1c.74-.84,3.4-3.34,4.5-3,2.28.63,6.2,4.59,6.58,8,.32,3-.27,8.64.33,11.22.87.07,4.8.73,4.8-.53V44.93c0-.41-.12-.53-.53-.53H87.29c-1.27,0-1.09.73-1.07,2V67.51c.76.2.31.36.89.36,2.73,0,3.86.4,3.75-1.77l-.19-5Zm-56.18-11c0-2,.18-3.22.18-5.16-1.07-.71-1-.54-2.67-.53H10.67c-.45,1.93-.18,19.33-.18,22.76,0,.62.79.71,1.42.71,2.21,0,2.39.25,3.56-.54,0-6.78-1.25-12.21,2.88-16.31,3.46-3.44,4.6-3.12,7.83.09,4.09,4.07,3,9.07,3,16.4.75.2.31.36.88.36H33.6c1.33,0,.89-1.6.89-1.6V50.09ZM50,62.71V55.07c0-3.82.87-6,3.43-8.13a16.54,16.54,0,0,1,3.38-2.3c3.74-1.87,3.79-1.86,6.89-.25a10.53,10.53,0,0,1,1.29.66,2.7,2.7,0,0,0,.33.21A12.4,12.4,0,0,1,70,49.76a9,9,0,0,1,1.07,2.84l0,7.8c0,1.52-.44,2.84,1.07,2.84,4.9,0,4.47.36,4.44-2.13V39.6a2.65,2.65,0,0,0-.89-.18H44.8c-1,0-.71,2-.71,3V62.71c.36.25.46.53.89.53h4.09c.42,0,.52-.28.89-.53ZM78.76,39.6a11.1,11.1,0,0,1,2.84-.18c.5,0,1.06-.05,1.51-.05s.33.08,1,.23c0,1.48.42,2.67-1.07,2.67-5,0-4.26.35-4.26-2.67Zm-42.14.53c0-1.21,1.66-.7,2.85-.71,3.55,0,2.54.11,2.49,2.67a16.23,16.23,0,0,1-5.16,0l-.18-2Zm49.6-.53c1.07-.42,21.78-.18,24.71-.18,1.54,0-1.53,2.85-2,2.85H87.29c-1.49,0-1.07-1.19-1.07-2.67ZM34.31,42.09c-1.94.45-20,.18-23.47.18-.55,0-1.15-1-1.48-1.37S8,39.42,9.07,39.42H34c.7,0,1,1.36.35,2.67ZM86.22,33.2c0-.62.79-.71,1.42-.71h20.8c.55,0,1.07.16,1.07.71,0,2.4.36,3.91-.53,3.91H86.76c-.89,0-.54-1.51-.54-3.91Zm-7.46-5.51a15.15,15.15,0,0,1,5.33,0v9.24c-.49.12-.72.36-1.07.36-.85,0,.21-.17-.82-.1a6.43,6.43,0,0,1-3.44-.26V27.69ZM10.49,33.2c0-.62.79-.71,1.42-.71H33.07a2.94,2.94,0,0,1,1.42.35v4.09c-.61.15-.46.27-1,.26a11.09,11.09,0,0,0-1.29-.07c-5.25.38-13.94.17-19.57.17-2.65,0-2.13-.14-2.13-4.09Zm26.13,3.73V31.78c0-1.83-.37-4.27.71-4.27a21,21,0,0,1,4.63.18,10.93,10.93,0,0,1,.17,1.24V36.4c0,.7-.77.79-1.23.8a6.78,6.78,0,0,0-.82,0,5.38,5.38,0,0,1-1.84,0c-1.59,0-.05.12-1.62-.25Zm7.47-.17c0-.95-.31-4.27.89-4.27,2.27,0-.06,3.2,2.31,3.2.78,0,.89-.23.9-1.23a5.45,5.45,0,0,1,.17-1.79c1.55-.13,2.68-.59,4.08.35,0,1-.32,2.67.72,2.67,2,0,1.28-2.22,1.24-2.67a1.83,1.83,0,0,1,1.24-.53c4.66,0,1.87.25,3.2,3,.86.2,1.78.59,1.8-1a5.5,5.5,0,0,1,.16-1.79,8.59,8.59,0,0,1,2.84-.18c2.12,0,.26,3.2,2,3.2,1.39,0,1.24-.39,1.24-2.85a5.66,5.66,0,0,1,4.09,0c0,1.07-.1,2.85.89,2.85,1.38,0,1.25-.74,1.25-2.67.36-.24.46-.53.89-.53,2.59,0,1.67-.13,2.66.53v3.91c-1.7.4-.24.18-1.6.18-.88,0-.81.2-1.55.13h-7c-.6,0-.59-.14-1.4-.14l-4.32.13c-.89.07-.39-.11-1.19-.11s-.39.17-1.24.15-.43-.17-1.25-.17a8.58,8.58,0,0,1-2.45.1,10.93,10.93,0,0,0-2,.08L48,37.11c-2.13,0-2.7.46-3.91-.35Zm42.13-9.07c1.07-.41,20-.18,22.76-.18.41,0,.53.12.53.53,0,1.63.23,2.32-.53,2.32-3.43,0-20.83.27-22.76-.18V27.69Zm-42.13.89c0-.55.16-1.07.71-1.07H75.91c1,0,1,2.85,0,2.85H44.8c-.76,0-.71-1.14-.71-1.78Zm-33.6-.36c0-.54.52-.71,1.07-.71H33.42c1.63,0,1.09,1.56,1.07,2.67-1.94.45-20,.18-23.47.18-.74,0-.53-.62-.53-2.14Zm68.27-8.71a15.15,15.15,0,0,1,5.33,0c0,1.19,0,2.37,0,3.56s.34,2.31-1.07,2.31c-1.59,0-3.11.19-4.26-.36V19.51ZM44.09,25c0-1,0-2.49.89-2.49H75.73c.94,0,1.63,2.85-.17,2.85H45c-.58,0-.14-.16-.89-.36Zm-7.47-5c0-.54.52-.71,1.07-.71,1.72,0,4.44-.37,4.44.71,0,4.81.52,5.34-1.42,5.34-5,0-4.09.88-4.09-5.34ZM59,19.69c0-.69.55-1.62,1.28-1.67,1.48-.1,1.89,2.56.68,2.56-1,0-2,.22-2-.89Zm-5-.18c0-.64.75-1.12,1.07-1.6a2.06,2.06,0,0,1,1.78,2c0,.67-2.85,1.5-2.85-.36Zm-5,.18c0-1.49,1.57-1.68,1.77-1.78.44.65,1.07.85,1.07,2,0,1-2.84,1.16-2.84-.18Zm25.06.89c-.21-.93-.8-1.68,1.07-2.67A2,2,0,0,1,76.58,20l-.49.57Zm-4.62,0c-.74,0-.7-1-.55-1.43.22-.68.52-.67.91-1.24.71.17,1.77.58,1.77,1.42,0,1.43-.18,1.25-2.13,1.25Zm-4.8,0c-.77,0-1-.84-.64-1.52a2.86,2.86,0,0,1,.62-.82c.35-.22.5-.13.91-.33.5.75,1.07.61,1.07,1.6,0,1.25-.41,1.07-2,1.07Zm-20.09,0A1.54,1.54,0,0,1,45.54,18c.47,0,1,.56,1.19,1,.32.79,0,.85-.15,1.56Zm34.14-7.29c0-.55.52-.71,1.06-.71,1.66,0,4.27-.36,4.27.71,0,3.51.39,4.16-1.42,3.73-.37-.75-.13-2.13-1.25-2.13s-.88,1.38-1.24,2.13c-1.82.43-1.42-.22-1.42-3.73Zm-42.14,0c0-.55.52-.71,1.07-.71,1.72,0,4.44-.38,4.44.71A14.5,14.5,0,0,1,42,17c-.84.07-1.34.47-1.59-.54-.17-.66,0-1.59-.9-1.59-1.94,0-.19,2.31-2,2.31-1.28,0-.89-1.48-.89-3.91Zm42.49-3c.13-1.54,1.18-2.44,2-3.91,1.45.12,2.64,3,2.66,3.91a12,12,0,0,1-4.62,0Zm-41.42.17c-.7,0-.7-.47-.52-1,.37-1.12,1.43-3,2.65-3.06a15.21,15.21,0,0,0,1,1.82c.47.88.76.66.76,2.09a15.93,15.93,0,0,1-3.91.17Zm-31.11,21c0,1.5,1.78.52,1.78,2.14a13.07,13.07,0,0,1-.18,3.55c-1.07.25-1.49-.29-2.85.36-.42,1.79,0,1.5,1.1,3C7.4,41.8,8.36,42.8,8.36,44V67c0,.43-.29.52-.54.89H3.38c-1.18,0-3.38-.19-3.38.89S.39,70,2,70H118c.82,0,2-.11,2-.89,0-1.54-1.36-1.24-3.56-1.24h-4.26c-.25-.37-.54-.46-.54-.89V44c0-1.61.68-2.07,2.36-3.87.45-.49,1.21-1.25,1.15-2-.13-1.6-2.77-.93-3-.91-.83-1.24-.54-.58-.54-3.91,0-1.19,2.14-.62,2.14-2,0-1.74-1.84-.16-2.11-2-.17-1.14.3-2.84-.29-3.62s-2.33-.44-3.47-.44H88.35c-2.09,0-2.16.15-2.13-1.95V11.69a8.83,8.83,0,0,0-1-3.94c-.25-.52,0-.07-.33-.56S84.41,6.4,84.12,6c-.45-.65-1.45-1.61-1.59-2.32C82.19,2,82.78,1.87,82,.31H80.89c-.28,1-.55.38-.54,2.13,0,1.94-.71,2.4-2,4.37a8.8,8.8,0,0,0-1.7,4.69c-.18,7.12.4,3.15-2.87,4.79-1.11.55-.41.61-1.19.37-1.71-.52-1.79-1.42-4.83.18-2.86-1.91-3.75-.17-5-.17-.53,0-1.76-.87-2.47-.84s-1.72.84-2.51.84c-.24,0-1.41-.59-1.8-.71-1.06-.34-1.53.19-2.56.64-.78.34-.24.29-.89,0-1.78-.78-2-.94-3.72-.18-1,.45-1,.34-1.21.25-1.09-.42-.59-.75-2.49-.73s-.44-2.69-1.19-5.86a11.32,11.32,0,0,0-.36-1.42c-1-2.28-3.1-4.13-3.2-5.69,0-.42.19-2.66-.89-2.66-1.57,0-.85,1.76-1.14,3.14-.22,1-1.93,2.67-3,5a5.77,5.77,0,0,0-.65,3.26c0,2.66,0,5.33,0,8,0,6.32.47,5.71-2.31,5.69H10.3c-2.63,0-1.84,1.94-1.93,3.93S6.58,29.88,6.58,31.42Z"/><path class="cls-1" d="M69.69,44.22a.8.8,0,0,0,.16.55,2.05,2.05,0,0,0,1.49,1.15c1,.1,1.73-1.28,1.73-1.52A1.69,1.69,0,1,0,69.69,44.22Z"/><path class="cls-1" d="M28.27,48.84a1.64,1.64,0,0,0,2.86,1.09C33.07,47.46,28.27,46,28.27,48.84Z"/><path class="cls-1" d="M88.36,49c0,.94,1.83,2.31,2.93.81C93.12,47.34,88.36,46,88.36,49Z"/><path class="cls-1" d="M103.64,49.2c0,1,1.91,1.8,2.79.83C108.44,47.81,103.64,45.38,103.64,49.2Z"/><path class="cls-1" d="M47.64,44.22a1.57,1.57,0,0,0,2.82,1c1.23-1.34,0-2.14-1-2.82C48.56,42.64,47.64,43.17,47.64,44.22Z"/><path class="cls-1" d="M14.58,50.44A1.57,1.57,0,0,0,16,47.83a2.27,2.27,0,0,0-1-.59C12.22,47.24,12.71,50.44,14.58,50.44Z"/></svg>