<svg id="Layer_1" data-name="Layer 1" xmlns="http://www.w3.org/2000/svg" viewBox="0 0 120 70"><defs><style>.cls-1{fill:#f5aa08;fill-rule:evenodd;}</style></defs><path class="cls-1" d="M73.37,62.73a1.24,1.24,0,0,1-.47.28.5.5,0,0,1-.21,0,1,1,0,0,1-.47-.17h0a1,1,0,0,1-.33-.33.6.6,0,0,1-.1-.3V61.8a5.71,5.71,0,0,1,0-1.17,1.17,1.17,0,0,1,.16-.5.78.78,0,0,1,.73-.38.92.92,0,0,1,.66.23,1,1,0,0,1,.28.57,5.15,5.15,0,0,1,0,1.18c0,.12,0,.24,0,.41a.82.82,0,0,1-.24.55Z"/><path class="cls-1" d="M72.74,62.46c.11,0,.34-.2.34-.32a8.11,8.11,0,0,0,0-1.48c0-.26-.11-.33-.37-.33s-.29.15-.32.39a9.26,9.26,0,0,0,0,1.49A.59.59,0,0,0,72.74,62.46Z"/><path class="cls-1" d="M71.78,55.49c0-.16,0-.31,0-.52v0a.82.82,0,0,1,.32-.61,1.07,1.07,0,0,1,.58-.2,1,1,0,0,1,.61.17.85.85,0,0,1,.33.59,5.92,5.92,0,0,1,0,1.2c0,.13,0,.26,0,.43v.07a.86.86,0,0,1-.2.43,1.28,1.28,0,0,1-.32.27.76.76,0,0,1-.65.07.87.87,0,0,1-.35-.2l0,0a1,1,0,0,1-.28-.52,2.14,2.14,0,0,1,0-.34C71.76,56,71.77,55.75,71.78,55.49Z"/><path class="cls-1" d="M72.37,55c0,.42-.05.87,0,1.29a.65.65,0,0,0,.13.45c.12.11.23.17.38.09a.51.51,0,0,0,.23-.27,9.63,9.63,0,0,0,0-1.52c0-.25-.12-.29-.38-.29S72.37,54.82,72.37,55Z"/><path class="cls-1" d="M46.22,55.65v-.19a3.12,3.12,0,0,1,0-.54c.09-.41.29-.78.78-.78a1.48,1.48,0,0,1,.46,0l0,0a.82.82,0,0,1,.54.57v0A4.61,4.61,0,0,1,48.16,56v.47a1.23,1.23,0,0,1-.25.56.91.91,0,0,1-.7.37h-.13a.88.88,0,0,1-.56-.31,1,1,0,0,1-.22-.46A4,4,0,0,1,46.22,55.65Z"/><path class="cls-1" d="M46.79,55.46a4.42,4.42,0,0,0,.05,1c0,.19.11.3.31.33s.43-.3.43-.5a6.14,6.14,0,0,0,0-1.36c-.06-.24-.27-.24-.5-.24S46.79,55.31,46.79,55.46Z"/><path class="cls-1" d="M46.26,61.8a5.43,5.43,0,0,0,0-.7.53.53,0,0,1,0-.17v-.07a1.26,1.26,0,0,1,.15-.66,1,1,0,0,1,1.54-.12,1.21,1.21,0,0,1,.22.55,5.39,5.39,0,0,1,0,1.06c0,.11,0,.22,0,.38a1,1,0,0,1-.54.84l0,0a1.12,1.12,0,0,1-.36.09h0a1,1,0,0,1-.44-.1,1,1,0,0,1-.5-1v0a.41.41,0,0,1,0-.11Z"/><path class="cls-1" d="M46.83,61.66a1.34,1.34,0,0,1,0,.28h0c0,.78.76.52.76.13a7.5,7.5,0,0,0,0-1.34c0-.25-.1-.4-.38-.4s-.39.24-.39.53v0a1.19,1.19,0,0,1,.05.26v.51Z"/><path class="cls-1" d="M72.14,48.6a1.3,1.3,0,0,1,.48-.19.63.63,0,0,1,.4.07,2,2,0,0,1,.42.36,1,1,0,0,1,.21.59c0,.16,0,.28,0,.4a5.7,5.7,0,0,1,0,1h0a1.25,1.25,0,0,1-.14.49.79.79,0,0,1-.74.41.89.89,0,0,1-.7-.26,1,1,0,0,1-.25-.58,5.49,5.49,0,0,1,0-1.22c0-.14,0-.28,0-.47a.7.7,0,0,1,.3-.57Z"/><path class="cls-1" d="M72.73,49c-.16,0-.36.12-.36.24a10.55,10.55,0,0,0,0,1.59c0,.27.1.37.39.37s.29-.2.32-.42a8.31,8.31,0,0,0,0-1.32C73.08,49.25,72.89,49.07,72.73,49Z"/><path class="cls-1" d="M46.81,51.66l-.14-.07a.38.38,0,0,1-.13-.09c-.35-.3-.33-1.21-.32-1.62v-.1a2.53,2.53,0,0,1,0-.27,1.27,1.27,0,0,1,0-.26v-.07a.53.53,0,0,1,.15-.31l0,0a1,1,0,0,1,.21-.17l0,0,.24-.15a.59.59,0,0,1,.37-.07.77.77,0,0,1,.62.42,1.21,1.21,0,0,1,.15.44,5.19,5.19,0,0,1,0,1.11,3.23,3.23,0,0,1,0,.44,1.25,1.25,0,0,1-.2.52l0,0a.88.88,0,0,1-.7.41h-.06a.46.46,0,0,1-.2-.05Z"/><path class="cls-1" d="M46.92,51.07a2.44,2.44,0,0,0,.28.14c.18,0,.38-.33.38-.51a7.4,7.4,0,0,0,0-1.33c0-.21-.09-.37-.29-.4a2.5,2.5,0,0,0-.38.26l0,0a.36.36,0,0,0,0,.11,1.9,1.9,0,0,0,0,.41C46.79,50,46.75,50.93,46.92,51.07Z"/><path class="cls-1" d="M94.1,68.07a2.42,2.42,0,0,1,.46,0l.08,0a1,1,0,0,1,.56.46l0,0a.93.93,0,0,1,.09.46.86.86,0,0,1-.14.47h0a.77.77,0,0,1-.53.36A3.83,3.83,0,0,1,94,70H92.46l-1,0h-1.3a5.16,5.16,0,0,0-.66,0c-.24,0-.47,0-.76,0l-16.9-.07c-1.93,0-3.87,0-5.8,0-1.75,0-3.5,0-4.93,0H37c-.24,0-.48,0-.71,0l-.63,0H26.54C26,70,25.31,70,25,69.67a.8.8,0,0,1-.25-.5v0a.9.9,0,0,1,0-.43,1.13,1.13,0,0,1,.21-.35h0a.88.88,0,0,1,.52-.27h0l.48,0c.84,0,1.68,0,2.52,0h3.41l3,0h.35a2.84,2.84,0,0,0,.41,0A.62.62,0,0,0,36,68a.17.17,0,0,0,.05-.14V49.71A9.58,9.58,0,0,0,36,48.59a2.38,2.38,0,0,0-.1-.53,5.57,5.57,0,0,0-.37-.58c-.09-.15-.18-.31-.26-.47a4,4,0,0,0-.37-.63l-.43-.59a1.63,1.63,0,0,1-.4-1.27V37.77a.93.93,0,0,1,.41-.88,1.27,1.27,0,0,1,.77-.15h.47c.2,0,.4,0,.59,0a1.25,1.25,0,0,0,.61-.14A.15.15,0,0,0,37,36.5V31.81a6.27,6.27,0,0,0-1.1-2.1l-.24-.36-.06-.08a1.6,1.6,0,0,1-.37-.8c0-.18,0-.32,0-.48a9.88,9.88,0,0,1,.15-2.81.48.48,0,0,1,.1-.17c.22-.26.81-.31,1-.33h0a2.6,2.6,0,0,0,.44-.06h0a.32.32,0,0,0,.15-.09.25.25,0,0,0,0-.1V15.75c0-.09-.1-.17-.22-.26l-.15-.12a1,1,0,0,1-.31-.36,1,1,0,0,1-.1-.47V11.21a.81.81,0,0,1,.12-.4,1.09,1.09,0,0,1,.19-.26h0a.93.93,0,0,1,.28-.18l0,0a.29.29,0,0,0,.08-.07.34.34,0,0,0,.06-.15,3.55,3.55,0,0,0,0-.75l0-1.08V7.6a5.21,5.21,0,0,1,1-3.81l.22-.3a3.86,3.86,0,0,0,.53-.82A4.92,4.92,0,0,0,39,1.35V1a1.07,1.07,0,0,1,.22-.66,1,1,0,0,1,.4-.31.83.83,0,0,1,.54,0h0a.93.93,0,0,1,.49.36,1.1,1.1,0,0,1,.18.73v.62c0,.69,0,.72.58,1.6a2.22,2.22,0,0,0,.19.27l.2.26a5.09,5.09,0,0,1,1,3.9h0c0,.18,0,.38,0,.72V9.75a2.64,2.64,0,0,0,0,.29.4.4,0,0,0,0,.13s.07.07.13.1a1.49,1.49,0,0,1,.46.31.85.85,0,0,1,.23.35,1.06,1.06,0,0,1,0,.35v3.43a.64.64,0,0,1-.12.34l-.05.07a1.1,1.1,0,0,1-.44.38l-.08,0a.57.57,0,0,0-.18.15v0a.55.55,0,0,0,0,.25v8.46a.25.25,0,0,0,0,.13.32.32,0,0,0,.13.08,1.85,1.85,0,0,0,.43,0h.07a1.39,1.39,0,0,1,1,.35,3.74,3.74,0,0,1,.22,1.89v.26l.07,0a.54.54,0,0,0,.38.15H74.82l.1,0v0a.35.35,0,0,0,.1-.17,2,2,0,0,0,0-.26v-.47a5.11,5.11,0,0,1,0-1,.6.6,0,0,1,.06-.19,1,1,0,0,1,.31-.37,1,1,0,0,1,.47-.18l.5-.06A3.31,3.31,0,0,0,77,24.6a9,9,0,0,0,.08-1.21v-.23c0-.43,0-.85,0-1.27V20.61c0-.68,0-1.37,0-2.05,0-.9,0-1.79,0-2.38a1.75,1.75,0,0,0,0-.4.52.52,0,0,0-.06-.15v0l-.13-.1a1.46,1.46,0,0,1-.22-.17h0a.87.87,0,0,1-.38-.9v0c0-.18,0-.33,0-.5a11.69,11.69,0,0,1,.15-3,.89.89,0,0,1,.08-.17s.06-.09.12-.15a.73.73,0,0,1,.27-.22l.11-.06,0,0h0a.36.36,0,0,0,0-.11,2.64,2.64,0,0,0,0-.28c0-.32,0-.65,0-1V8.58c0-.25,0-.44,0-.65A7.12,7.12,0,0,1,77.3,5c.11-.25.25-.49.39-.74s.28-.43.44-.64a2.27,2.27,0,0,1,.18-.25,4.68,4.68,0,0,0,.45-.68,2.32,2.32,0,0,0,.07-1c0-.07,0-.14,0-.21A1.76,1.76,0,0,1,79.05.33l.07-.07,0-.05A1,1,0,0,1,79.81,0a.9.9,0,0,1,.56.23l0,.05.07.07a1.86,1.86,0,0,1,.26,1.36,2,2,0,0,0,.13,1.08c.29.43.64.86,1,1.28l.26.38a2.86,2.86,0,0,1,.16.31l.14.3A8.57,8.57,0,0,1,82.72,8v.47c0,.36,0,.71,0,1.06v0c0,.26,0,.63.14.73a.32.32,0,0,0,.09.08l.08,0a.51.51,0,0,1,.29.17l.12.15a.8.8,0,0,1,.22.66v3.12a1,1,0,0,1-.12.53,1,1,0,0,1-.36.36,2.27,2.27,0,0,0-.37.29.34.34,0,0,0-.07.24v8.53a.25.25,0,0,0,0,.1v0a.38.38,0,0,0,.18.09l.38,0,.21,0a1,1,0,0,1,1,.52.59.59,0,0,1,0,.23l0,1.08v.1a5.72,5.72,0,0,0,0,1.08c.09.69.11.92-.82,2.23-.17.25-.52.78-.78,1.26a1.8,1.8,0,0,0-.22.55V36.5a.12.12,0,0,0,0,.1.42.42,0,0,0,.26.11,3.2,3.2,0,0,0,.54,0H84a2.51,2.51,0,0,1,1.64.23l0,0a1.38,1.38,0,0,1,.26,1v.09c0,.17,0,.33,0,.45s0,.28,0,.42,0,.11,0,.17l0,0a.65.65,0,0,1,0,.2v1.45a.53.53,0,0,1-.13.35l0,0v0a.37.37,0,0,0,0,.12,1.3,1.3,0,0,0,0,.27,2.82,2.82,0,0,1,0,.31l0,.53a12.08,12.08,0,0,1-.12,2.86l0,.11a9.24,9.24,0,0,1-.79,1.1l-.13.17A11.85,11.85,0,0,0,84,47.91l0,0a.85.85,0,0,1-.1.14l0,.06,0,.06s0,0,0,.09V67.83a.16.16,0,0,0,.06.14.71.71,0,0,0,.41.12,3.38,3.38,0,0,0,.45,0h.39l2.83,0H93l1.13,0ZM83,68.83a1.37,1.37,0,0,1-.23-.25,1,1,0,0,1-.19.23v0Zm-.44-3v-.43a1.61,1.61,0,0,1-.3.21,1.54,1.54,0,0,1,.3.22Zm1.48-20a7.35,7.35,0,0,0,.64-.89.3.3,0,0,0,0-.16.34.34,0,0,1-.12,0l-.4.1a5.4,5.4,0,0,1-.6.09,1.11,1.11,0,0,1,.45.82Zm.67-7.92,0-.08h-.09l.07.07Zm-2.66-.43,0-.05a1.15,1.15,0,0,1-.14-.17,2,2,0,0,1-.19.22Zm-.27-6.34,0-.08-.07,0,0,.06Zm1.63-5.27h0Zm-1.37-.39c-.06-.06-.12-.11-.17-.17l0-.05a.57.57,0,0,1-.08-.13,1.58,1.58,0,0,1-.29.34ZM81.8,15.11l.13-.18a1.9,1.9,0,0,1,.29-.28l-.56.14a.58.58,0,0,1,.13.26v.06Zm.72-3.6V11.4l-.13-.07a1.67,1.67,0,0,1-.32-.24,1.25,1.25,0,0,1-.28-.41,1.87,1.87,0,0,1-.28.35,1.82,1.82,0,0,1,.51.13,1.44,1.44,0,0,1,.5.35ZM80,3.58l-.13-.18-.11-.19h0c-.06.13-.14.25-.21.37a1.23,1.23,0,0,1,.27,0Zm-2,7.16-.08.13,0,0a1.09,1.09,0,0,1-.46.37h0l0,.05a1.39,1.39,0,0,0,0,.17.8.8,0,0,1,.17-.15,1.7,1.7,0,0,1,.75-.3l-.14-.15L78,10.74Zm-.66,3.63v.07s0,0,0,0l.11.08a1.45,1.45,0,0,1,.4.36l0,.05.09.15a1.07,1.07,0,0,1,.15-.22l.09-.1-.2,0a1.32,1.32,0,0,1-.68-.39ZM78,25.22a.66.66,0,0,1-.12.22h.32a.8.8,0,0,1-.2-.21Zm-2.21,2.84a1,1,0,0,1-.15.14h0l.22.08-.06-.23Zm-31.59.14L44,28.06a1,1,0,0,1,0,.24l.24-.1ZM43.65,26v-.21c0-.06-.09,0-.15.06l.12.12,0,0Zm-1.51-.51-.2-.21v0a.72.72,0,0,1-.12.23ZM42,15a1.78,1.78,0,0,1,.5-.44l.13-.07v-.06a1.27,1.27,0,0,1-.76.35A.5.5,0,0,1,42,15Zm.3-3.84a1.1,1.1,0,0,1-.35-.36.61.61,0,0,1-.21.26c.14,0,.27,0,.4.06l.16,0ZM40,3.31l-.09-.16c0,.09-.08.18-.13.27l.05,0A.38.38,0,0,1,40,3.31Zm-2,7.53-.06.08a1.25,1.25,0,0,1-.46.42l0,0v.12l.06-.05a1.6,1.6,0,0,1,.71-.36.58.58,0,0,1-.21-.23Zm-.56,3.6v.06l.09.07a2,2,0,0,1,.52.49l.07-.11.14-.16a1.65,1.65,0,0,1-.32-.06,1.2,1.2,0,0,1-.5-.29Zm.57,10.7-.06.08a1.67,1.67,0,0,1-.23.23h.55l-.14-.14-.12-.17Zm-1.63.68-.09,0v.11l.1-.09ZM38,31a2.53,2.53,0,0,1,.12.36l.14-.16.12-.1-.22-.05L38,31Zm0,6.14a1.23,1.23,0,0,1-.23.28h.42a1.45,1.45,0,0,1-.19-.29Zm-2.75,7.37h0a.77.77,0,0,0,.19.61c.09.14.17.25.27.38a.69.69,0,0,1,.19-.19l.1,0,.57-.28h-.1a1.85,1.85,0,0,1-.83-.17,1.14,1.14,0,0,1-.39-.3Zm1.88,3.66v0l0,0,0,0Zm.11,17.13v.53l.23-.33-.19-.15,0,0Zm-.28,3.34a.73.73,0,0,1-.17.18h0l.3,0a.72.72,0,0,1-.12-.21Zm6,.21h.25l0,0a.52.52,0,0,1-.1-.11.57.57,0,0,1-.11.16Zm8.46,0h.19a1.47,1.47,0,0,1-.1-.13l-.09.13Zm17-.07h.34a1.73,1.73,0,0,1-.17-.21.87.87,0,0,1-.17.21Zm8.3,0h.33l0,0c-.06-.07-.1-.14-.15-.21a.89.89,0,0,1-.16.22ZM40.2,4.9,40,4.66a1.93,1.93,0,0,0-.4.35,2.71,2.71,0,0,0-.31.49,3.92,3.92,0,0,0-.24.67,3.51,3.51,0,0,0-.06.7c0,.19,0,.55,0,.9s0,.55,0,.82v.08a8.23,8.23,0,0,0,.09,1.51,2.39,2.39,0,0,0,.92.15,2.35,2.35,0,0,0,.92-.15A8,8,0,0,0,41,8.61V8.49c0-.28,0-.58,0-.87s0-.75,0-1a2.49,2.49,0,0,0-.09-.56,3.17,3.17,0,0,0-.22-.6,3.73,3.73,0,0,0-.24-.34l-.08-.11a.87.87,0,0,0-.13-.15ZM80,10.32h.39a.54.54,0,0,0,.36-.12.23.23,0,0,0,.09-.19c0-.16,0-.47,0-.82,0-1.25.08-3-.32-3.68a3.73,3.73,0,0,0-.41-.59c-.1-.11-.19-.2-.24-.2s-.34.19-.5.44a3.06,3.06,0,0,0-.45,1.44V9.86a.6.6,0,0,0,.07.3l0,0a.38.38,0,0,0,.27.13,4,4,0,0,0,.7,0ZM38.34,13.64a1.49,1.49,0,0,0,.44,0c.82,0,1.65,0,2.47,0,.24,0,.51,0,.58-.08a1.88,1.88,0,0,0,.06-.77v-.25a.5.5,0,0,0,0-.19l0-.12a7.09,7.09,0,0,0-1.47-.09H38.66a.57.57,0,0,0-.37.12.26.26,0,0,0-.09.19v.27a3.07,3.07,0,0,0,0,.78.2.2,0,0,0,.11.11ZM80,12.15l-1.31,0a.85.85,0,0,0-.48.11.14.14,0,0,0-.05.13v.4a5,5,0,0,0,0,.55.32.32,0,0,0,.06.22.18.18,0,0,0,.12.07,2.37,2.37,0,0,0,.66,0h.15c.3,0,.6,0,.91,0s.61,0,.91,0h0l.33,0h.09l.38-.1v-.44a5.14,5.14,0,0,0,0-.55.58.58,0,0,0-.06-.28.25.25,0,0,0-.13-.11,2.44,2.44,0,0,0-.84-.07ZM39.09,15.63a.86.86,0,0,0-.1.48v8.17a.46.46,0,0,0,.07.29.33.33,0,0,0,.23.1,4.47,4.47,0,0,0,.82,0h.47a.5.5,0,0,0,.19,0l.13,0c0-.14,0-.31,0-.47l0-.5v-.47c0-.43,0-.86,0-1.29V20.58c0-.69,0-1.39,0-2.08,0-.92,0-1.83,0-2.39a.78.78,0,0,0,0-.22c0-.08,0-.16,0-.25a6.32,6.32,0,0,0-1.24-.07h-.42a.17.17,0,0,0-.14.05Zm41.71.49a3.39,3.39,0,0,0,0-.47,5.22,5.22,0,0,0-1.19-.08h-.41a.18.18,0,0,0-.14.05h0a.51.51,0,0,0-.09.32v8.46a.21.21,0,0,0,0,.15.7.7,0,0,0,.39.11c.19,0,.41,0,.62,0h.46a.52.52,0,0,0,.33-.09.21.21,0,0,0,0-.15c0-.6,0-1.53,0-2.47,0-.72,0-1.44,0-2.15V18.46c0-.44,0-.89,0-1.34s0-.67,0-1ZM37.17,26.7a.3.3,0,0,0-.1.21v.21a3.54,3.54,0,0,0,.1,1.07,5.88,5.88,0,0,0,.62,1l.21.3.11.17a1.15,1.15,0,0,0,.14.2.56.56,0,0,0,.17.09,1.58,1.58,0,0,0,.32,0h2.79l.18-.12a5.09,5.09,0,0,0,.63-.93l.16-.26a1.65,1.65,0,0,0,.39-1.26v-.38a.57.57,0,0,0-.12-.37.26.26,0,0,0-.19-.09H37.38a.29.29,0,0,0-.21.11Zm5.75,3.48a3.07,3.07,0,0,1-.48.57,1.39,1.39,0,0,1-.27.18,1.34,1.34,0,0,1-.29.15l-.08,0-.12,0,.06,0a1.27,1.27,0,0,1,.26.36,1.34,1.34,0,0,1,.31-.36,1.72,1.72,0,0,1,1-.4,1.11,1.11,0,0,1-.36-.6Zm34.87-3.59a3.78,3.78,0,0,0-.8.06,3,3,0,0,0-.1.81,1.8,1.8,0,0,0,.16.74,6.36,6.36,0,0,0,.41.7l0,0c.11.17.23.34.34.54a1.28,1.28,0,0,0,.35.44.79.79,0,0,0,.46.13c.2,0,.44,0,.66,0h.19l.72,0h.73a1.35,1.35,0,0,0,.55,0c.09,0,.17-.12.29-.29l.1-.15A6.17,6.17,0,0,0,82.73,28c0-.1,0-.25,0-.41s0-.39,0-.58a.62.62,0,0,0-.11-.34s-.07-.05-.15-.05H78.72l-.84,0Zm.38,4.55a1.86,1.86,0,0,1-.67-.3,2.25,2.25,0,0,1-.58-.64l0,.14-.09.35,0,.09a1.27,1.27,0,0,1,.86.47,2.14,2.14,0,0,1,.13.19.55.55,0,0,1,.17-.13l.25-.17ZM45.76,30h30v0a.22.22,0,0,0,0-.19,1.16,1.16,0,0,0-.26-.33c-.25-.24-.8-.2-1.28-.17-9.39.51-20.21,0-29.76,0a.69.69,0,0,0-.32.23l0,0a.49.49,0,0,0-.14.25c0,.17.41.2.8.2l.54,0ZM68.41,36.1c0,.15,0,.31,0,.51l.15,0,.07,0,.1,0h.13l1.11,0h.72a1.74,1.74,0,0,0,.72-.08.19.19,0,0,0,.08-.1v0a1.13,1.13,0,0,0,0-.34v-.45c0-.23,0-.46,0-.71a1.27,1.27,0,0,1,.11-.56.84.84,0,0,1,.67-.54,1.18,1.18,0,0,1,.52.05.78.78,0,0,1,.49.4,1.53,1.53,0,0,1,.1.5v0a3.81,3.81,0,0,1,0,.68,4.26,4.26,0,0,0,0,.48.7.7,0,0,0,.17.47.62.62,0,0,0,.45.14h.58a12.67,12.67,0,0,0,1.85-.06h.12a.58.58,0,0,0,.21,0,.32.32,0,0,0,0-.13l0-.19A6.52,6.52,0,0,0,76.87,35l0-.86c0-.31,0-.62,0-.93,0-.1,0-.24,0-.37s0-.31,0-.46h0a.87.87,0,0,0-.13-.43.16.16,0,0,0-.13,0H43.42a.57.57,0,0,0-.37.12.26.26,0,0,0-.09.19V36.5a.2.2,0,0,0,.12.16,1.85,1.85,0,0,0,.63.11c.25,0,.52,0,.78,0l.63,0a5.57,5.57,0,0,0,.84-.08l.54-.06c0-.1,0-.19,0-.28v0a2.86,2.86,0,0,1,0-.32,2.37,2.37,0,0,0,0-.54c0-.21,0-.43,0-.65a.94.94,0,0,1,.19-.52v0a.79.79,0,0,1,.68-.28h0a.8.8,0,0,1,.73.29,1.21,1.21,0,0,1,.21.85v0c0,.17,0,.33,0,.48s0,.43,0,.62a.72.72,0,0,0,.05.31.24.24,0,0,0,.09.11h0a1.59,1.59,0,0,0,.69.09h.06l.69,0h1a1.06,1.06,0,0,0,.27,0,1.39,1.39,0,0,0,.26-.1v-.25a5.08,5.08,0,0,1,.15-1.92.44.44,0,0,1,.13-.2.82.82,0,0,1,.41-.24l.07,0a1,1,0,0,1,.54,0,.93.93,0,0,1,.51.46,1.51,1.51,0,0,1,.13.6c0,.25,0,.48,0,.71v.45a.9.9,0,0,0,0,.34.28.28,0,0,0,.08.11h0a1.72,1.72,0,0,0,.72.08H55l1.12,0c.17,0,.27,0,.31-.08a.77.77,0,0,0,.08-.44v-.34a4.74,4.74,0,0,1,0-1.13,1,1,0,0,1,.27-.55.88.88,0,0,1,.65-.23,1.09,1.09,0,0,1,.29,0,.78.78,0,0,1,.45.26l0,0a1,1,0,0,1,.18.43,2.18,2.18,0,0,1,0,.42c0,.19,0,.35,0,.51h0c0,.21,0,.42,0,.61a.84.84,0,0,0,.06.3.23.23,0,0,0,.1.12h0a2.06,2.06,0,0,0,.78.08h.74l1.13,0a.29.29,0,0,0,.21-.07.56.56,0,0,0,.12-.33,4.5,4.5,0,0,0,0-.63l0-.31a2.94,2.94,0,0,1,0-.42,1.36,1.36,0,0,1,.14-.56.82.82,0,0,1,.54-.41,1.26,1.26,0,0,1,.37,0h0a.6.6,0,0,1,.59.27l0,.06a1.32,1.32,0,0,1,.14.45,2,2,0,0,1,0,.31c0,.15,0,.33,0,.5a3.14,3.14,0,0,0,.13,1.11,7.79,7.79,0,0,0,1.47.1,7.69,7.69,0,0,0,1.45-.1,3.93,3.93,0,0,0,.06-1,5.08,5.08,0,0,1,0-.78.94.94,0,0,1,.29-.72,1,1,0,0,1,.74-.23.94.94,0,0,1,.22,0,.59.59,0,0,1,.34.21l0,0a1.06,1.06,0,0,1,.18.39,1.86,1.86,0,0,1,.05.28,6.74,6.74,0,0,1,0,1.19ZM67.61,35s0,0,0,0,0,0,0,0Zm-5,2.41-.15-.3a1.29,1.29,0,0,1-.22.3Zm-4.94,0a1.33,1.33,0,0,1-.23-.3l-.14.22-.07.08Zm-5,0a1.07,1.07,0,0,1-.14-.16.41.41,0,0,1-.16.16Zm-5,0-.1-.12a.62.62,0,0,1-.11.17l.21,0Zm-2.64.42h-.18a1.07,1.07,0,0,1,.14.16,1,1,0,0,1,0-.17Zm-2.86-.44a1.31,1.31,0,0,1-.25-.32,1.07,1.07,0,0,1-.25.35l.27,0Zm35.57-.33a1.24,1.24,0,0,1-.23.33l-.1.08h.44l.23,0-.12-.1a1.91,1.91,0,0,1-.22-.3Zm-5,.33,0,0a1.63,1.63,0,0,1-.23-.29,1,1,0,0,1-.21.3ZM39,32a.34.34,0,0,0-.1.21c0,.46,0,1.19,0,1.92l0,1.29A4.38,4.38,0,0,0,39,36.57a.27.27,0,0,0,.11.15.66.66,0,0,0,.3,0l.29,0a5.81,5.81,0,0,1,.76,0h.17a.89.89,0,0,0,.31,0,.05.05,0,0,0,0,0,1.39,1.39,0,0,0,0-.32,2.51,2.51,0,0,1,.07-.51,1.32,1.32,0,0,0,.05-.33l0-.55c0-.46,0-.92,0-1.32V33c0-.19,0-.38,0-.55a1.12,1.12,0,0,0,0-.33A.27.27,0,0,0,41,32l-.14-.07h0a1.23,1.23,0,0,0-.34,0c-.22,0-.45,0-.68,0h-.54A.25.25,0,0,0,39,32Zm39.81,0-.06,0c0,.35,0,.6,0,.84,0,.61,0,1.23,0,1.83l0,.26c0,.34-.06.7-.06,1a1.42,1.42,0,0,0,0,.36.35.35,0,0,0,.1.18.31.31,0,0,0,.15.1h0a1.74,1.74,0,0,0,.34,0h1.1a.8.8,0,0,0,.47-.11s.06-.06.06-.13c0-.27,0-.76,0-1.25s0-.75,0-1.11v-.66c0-.23,0-.45,0-.67a5.3,5.3,0,0,0-.08-.82c-.54,0-1.13-.07-1.67-.07a.63.63,0,0,0-.39.15ZM36.91,43.83H37a.55.55,0,0,1,.18,0l.25.1,0,0a1.25,1.25,0,0,0,.59,0h.36l.31,0L39,44a.45.45,0,0,1,.2,0l.12,0h.39a.39.39,0,0,0,.14,0,.58.58,0,0,1,.3-.08h1.47A.59.59,0,0,1,42,44h.11l.57,0c.25,0,.51,0,.76,0a1.67,1.67,0,0,0,.62-.13.24.24,0,0,0,.14-.21V41.26c0-.08,0-.13,0-.18h0a1.8,1.8,0,0,0,0-.19c0-.08,0-.13-.06-.19a1.38,1.38,0,0,1,0-.22c0-.34,0-.69,0-1a.68.68,0,0,1,0-.23,1.22,1.22,0,0,0,.08-.17s0-.06,0-.13a.26.26,0,0,0-.08-.21.94.94,0,0,0-.51-.13,4.73,4.73,0,0,0-.53,0h0c-.24,0-.49,0-.74,0h-.24l-.19,0a2.72,2.72,0,0,1-.62.05h0c-.54,0-1.06,0-1.59-.05l-1.07,0-.77,0H37l-.56,0a3.2,3.2,0,0,0-.46.06,1,1,0,0,1,0,.16v.07a.41.41,0,0,0,0,.2v0a3.16,3.16,0,0,1,.06.69l0,.69v.6l0,2c0,.1,0,.18,0,.25a1.34,1.34,0,0,0,0,.35.16.16,0,0,0,.06.09.79.79,0,0,0,.33.05h.22l.24,0Zm8.39-2.22v.69a1.35,1.35,0,0,1,.48-.32h0a1.2,1.2,0,0,1-.5-.36Zm-.12,2.67a1.46,1.46,0,0,1-.62.61,2.14,2.14,0,0,1-.72.22,1.37,1.37,0,0,1,.28.44,1.05,1.05,0,0,1,.06.24c.16-.2.32-.4.45-.6l.21-.31a.55.55,0,0,1,.6-.23h0l-.09-.1,0,0a1.14,1.14,0,0,1-.15-.23Zm31.36-.44H78a.68.68,0,0,1,.28.07l.07,0a4.14,4.14,0,0,0,1.52,0,7.14,7.14,0,0,1,1.19,0,3.79,3.79,0,0,1,.38.06.61.61,0,0,0,.26,0l.06,0a.9.9,0,0,1,.24-.11h0a3.19,3.19,0,0,1,.76,0h.68a3.55,3.55,0,0,0,.47-.06l.1-4.86a.41.41,0,0,0-.11-.24.23.23,0,0,0-.16-.08H82.64c-1.56,0-3.12,0-4.69.08a7.53,7.53,0,0,1-1,0,4.77,4.77,0,0,0-1.14,0,3.31,3.31,0,0,0,.06.53c0,.15,0,.3.06.44a3.78,3.78,0,0,1,0,.75,4,4,0,0,1-.14.75,5,5,0,0,0,0,1.12l0,.72c0,.26,0,.52,0,.81l.24.2.1,0a.61.61,0,0,1,.33-.1Zm-.33,1.3-.09,0a.55.55,0,0,1-.54-.13l-.64-.53-.08-.07-.17.25a.59.59,0,0,1,.47.28l.15.23.31.45a.68.68,0,0,1,.22-.26l.37-.24Zm-1.54-3V42l-.06.07.07.07Zm-26.74-3.6-.14,0-.13,0h-1.5v.12a8.16,8.16,0,0,0-.07,1.56,2.53,2.53,0,0,0,0,.28v0a.38.38,0,0,0,0,.16c.08.13.41.12.7.11H73.3l.19.05.18.06.12,0a.89.89,0,0,1,.13-.24v0a.31.31,0,0,0,0-.1.76.76,0,0,0,0-.16V39.09a1.31,1.31,0,0,0,0-.15l0-.15v-.13a7.56,7.56,0,0,0-1-.07h-.15l-1,0H69.19l-1.83,0H47.93ZM73.8,44c.1-.14.19-.28.16-.36a.77.77,0,0,1,0-.15,1.32,1.32,0,0,1,0-.32l-.17-.2H66.32c-6.15,0-12.29,0-18.44,0A4,4,0,0,1,46.8,43h-.43l-.15,0a.22.22,0,0,0-.09.07h0a.32.32,0,0,0,0,.14v.14a.75.75,0,0,0,.12.39v0a.41.41,0,0,0,.31.1h.08l.2,0a1.89,1.89,0,0,1,1,.06l25.9.14.07-.1Zm-5,1.21h-.32l.11.15.12-.09.09-.06Zm-17.28-.09H51.3a.44.44,0,0,1,.07.19v0a.55.55,0,0,1,.1-.22Zm-9,.74-.39,0h-.07L40.24,46a.52.52,0,0,1-.24-.05l-.34-.14a.78.78,0,0,1-.22,0H38a.9.9,0,0,1-.27-.07l-.47.19L37,46l.59.92a1.84,1.84,0,0,1,.6-.1h.71a5.17,5.17,0,0,0,.88,0h.06L42,46.76l.25,0h.11a.13.13,0,0,0,.09,0l.16-.08,0,0,.39-.46a.51.51,0,0,0,.07-.15.17.17,0,0,0,0-.1l0-.05h0l-.13,0a1.79,1.79,0,0,0-.34,0Zm.42,2-.14.06a1.09,1.09,0,0,1-.31.08c.13.09.21.17.36.27l0-.16.06-.25ZM77,46l0,0,.39.61a.57.57,0,0,0,.43.11h.37l.42.05,1,.1.72.05a4.5,4.5,0,0,0,.65,0,3.54,3.54,0,0,1,.78,0h0a.81.81,0,0,0,.81-.32.27.27,0,0,0,.07-.08,2,2,0,0,0,.26-.36.41.41,0,0,0,.06-.2.13.13,0,0,0,0-.06h0a.28.28,0,0,0-.14,0h-4a1.93,1.93,0,0,0-.49.06l-.07,0a2.47,2.47,0,0,1-.54,0,3.33,3.33,0,0,1-.46,0h-.19L77,46Zm.35,1.89a1.15,1.15,0,0,1-.35-.1,2,2,0,0,1,.07.31,1.14,1.14,0,0,1,.28-.21Zm-9.66,5.31V49.77c0-.31,0-.63,0-1h0c0-.29,0-.59,0-.88s0-.51,0-.76,0-.43,0-.59A1.53,1.53,0,0,0,67.6,46a.17.17,0,0,0-.17-.11H63.67a8.11,8.11,0,0,0-.83.06,5,5,0,0,1-1.68,0l-.22-.05a1,1,0,0,0-.25-.06L52.4,46a5.2,5.2,0,0,0,0,.59l0,.78,0,1.8c0,.3,0,.66,0,1.13l0,2.35a4.15,4.15,0,0,0,0,.89l0,.08,0,0h.06l.09,0a3.94,3.94,0,0,0,.46-.36l.2-.17c.19-.15.38-.3.58-.43l.58-.38.6-.37c.22-.12.44-.24.65-.33l2-.88.41-.14A6.49,6.49,0,0,1,60.18,50h0a3.66,3.66,0,0,1,.65.17l.62.2.54.19.54.21.62.24a6.65,6.65,0,0,1,.61.27l3.76,2.4a.6.6,0,0,0,.12-.46v-.05Zm.71,1.33-.19.28a.56.56,0,0,1-.47.26,4.84,4.84,0,0,1,.66,1.07V54.52Zm-16,.26A1.42,1.42,0,0,1,52,54.7a1.24,1.24,0,0,1-.39-.25v1.69a5,5,0,0,1,.57-1,4,4,0,0,1,.27-.34ZM72.86,46h-.19a.48.48,0,0,1-.17,0,3.53,3.53,0,0,1-.4-.08l-.16,0a3,3,0,0,0-.8,0h-.79a1.12,1.12,0,0,0-.82.2c0,.47,0,.87,0,1.28s0,.82,0,1.25a5.09,5.09,0,0,1,0,.7,5.65,5.65,0,0,0,0,.58V64.34a.18.18,0,0,0,.06.14.83.83,0,0,0,.45.13,3.89,3.89,0,0,0,.48,0h5.33l0-.12a.56.56,0,0,0,0-.2V48.15a4.76,4.76,0,0,0-.6-1l-.43-.61c-.18-.24-.35-.48-.51-.71a2,2,0,0,0-.38.06,3.83,3.83,0,0,1-.87.07Zm4,19.39a.47.47,0,0,1-.12.19.57.57,0,0,1,.15.3l0,.11a1.21,1.21,0,0,1,.39-.39l-.15,0a.65.65,0,0,1-.3-.18Zm-7.72.18a2,2,0,0,1-.24-.16l-.06,0v.35l.3-.14ZM44,48.45s0,0,0,.06a1.09,1.09,0,0,1,0,.18c0,.16-.07.34-.1.49l0,.09,0,14.36c0,.07,0,.18,0,.28a2.16,2.16,0,0,0,0,.36.42.42,0,0,0,.1.27.21.21,0,0,0,.15,0h6a.24.24,0,0,0,.17-.07.25.25,0,0,0,.07-.18V46.23a.47.47,0,0,0,0-.19l0-.13-.21,0h0l-.22,0h-1.7a2.74,2.74,0,0,0-.43.06l-.43.07a5.54,5.54,0,0,1-.91,0,8.17,8.17,0,0,1-.84-.14c-.19.27-.39.52-.59.77a4.36,4.36,0,0,0-1,1.66l0,.17Zm7.14,16.91-.08.07.08,0v-.12Zm-7.71.18a1.16,1.16,0,0,1-.24-.2,1,1,0,0,1-.26-.36,1.58,1.58,0,0,1-.15.24,1.8,1.8,0,0,1-.19.21.58.58,0,0,1,.34.39l0,.2a1.56,1.56,0,0,1,.46-.48Zm37.35-16.8a.09.09,0,0,0-.07,0,.56.56,0,0,1-.35.13h-.22a5.2,5.2,0,0,1-.88,0h-.07c-.42-.06-1.12-.15-1.32,0s0,.19,0,.33a1.44,1.44,0,0,1,0,.24h0c0,.26,0,.53,0,.79V64.52a7.89,7.89,0,0,0,1.64.09h2.15a.24.24,0,0,0,.17-.07.21.21,0,0,0,.07-.18V49.08l0-.1v0a.93.93,0,0,1-.08-.2h-.39l-.4,0a.43.43,0,0,0-.2,0ZM37.93,63.55l0,.12a.54.54,0,0,1,0,.22,1.8,1.8,0,0,0,0,.22.48.48,0,0,0,0,.17.37.37,0,0,0,.09.23h0a.28.28,0,0,0,.2.07h3.48a.17.17,0,0,0,.14-.06A1,1,0,0,0,42,64c0-.21,0-.44,0-.66s0-.38,0-.51c0-2,0-3.18,0-4.38,0-2.85,0-5.7,0-8.55,0-.2,0-.35,0-.5s0-.27,0-.4a.65.65,0,0,1-.15-.12l0,0a.68.68,0,0,0-.21-.06h-.06a8.21,8.21,0,0,0-1.34-.06H38.37a.41.41,0,0,0-.19,0,.36.36,0,0,0-.16.12.73.73,0,0,0-.09.13v0a.81.81,0,0,0,0,.16.64.64,0,0,1,0,.2c-.08,3.36-.07,6.73-.05,10.09v4Zm0,3.45v0a.48.48,0,0,1,0,.29,1.84,1.84,0,0,0,0,.55A.61.61,0,0,0,38,68a4,4,0,0,0,.71.07h0l.62,0h1.23l.61,0h0A4.07,4.07,0,0,0,42,68v-.3a5.07,5.07,0,0,0-.07-1.18c-1,0-2.09-.08-3.08,0l-.27,0-.12,0-.24,0a.76.76,0,0,1-.11.14l0,.06a.7.7,0,0,0-.08.14.36.36,0,0,0,0,.11V67Zm14.35-8.55v9.09a.8.8,0,0,0,.11.47s.06.06.13.06H67.43a.21.21,0,0,0,.16-.06h0a.21.21,0,0,0,.07-.17V58.09a3.47,3.47,0,0,0-.06-.69v0a4.33,4.33,0,0,0-.24-.72,4.68,4.68,0,0,0-.89-1.29A8.85,8.85,0,0,0,64.89,54c-.31-.2-.65-.4-1-.57s-.71-.36-1-.52l-1-.46a8.49,8.49,0,0,0-1-.35l-.23-.06a2.46,2.46,0,0,0-.62-.14l-.23.06-.28.09-.28.08-1.92.71a16.12,16.12,0,0,0-2.31,1.23,6.92,6.92,0,0,0-1.84,1.68A4,4,0,0,0,52.45,57a4.82,4.82,0,0,0-.18,1.41Zm-5.86,8-.09,0-.16,0c-.43,0-.9,0-1.33,0l-.33,0c-.22,0-.45,0-.52,0a.23.23,0,0,0,0,.1,1.64,1.64,0,0,0,0,.25c0,.23,0,.46,0,.68v.25A.21.21,0,0,0,44,68a.24.24,0,0,0,.17.07h1.76l1.54,0h.94l.94,0h.13a6,6,0,0,0,1-.08v-.3a5.08,5.08,0,0,0-.06-1.18l-.85,0h0a9.92,9.92,0,0,0-2,0,2,2,0,0,1-.66,0l-.25,0Zm23.12,1.06v.32a.24.24,0,0,0,.07.17.25.25,0,0,0,.18.07h6c.07,0,.12,0,.14,0a.19.19,0,0,0,0-.13v-.36a3.93,3.93,0,0,0-.07-1,3,3,0,0,1-.43,0,2,2,0,0,0-.32,0c-1.58,0-3.21,0-4.79,0a1.86,1.86,0,0,0-.71.12,3.4,3.4,0,0,0-.07.94Zm11-1.06-2,0h-.3a.76.76,0,0,0-.32.06h0a.16.16,0,0,0-.07.09v.07c0,.11,0,.29,0,.47a5.71,5.71,0,0,0,0,.58.56.56,0,0,0,.08.29.17.17,0,0,0,.12,0h3.62a.24.24,0,0,0,.24-.24v-.35a2.05,2.05,0,0,0,0-.82h0c-.15-.21-.7-.21-1.11-.21Z"/><path class="cls-1" d="M94.46,68.66a3.62,3.62,0,0,0-.47,0c-.34,0-.68,0-1,0-1,0-1.95,0-2.93,0-1.66,0-3.32,0-5,0-.29,0-.57,0-.87,0-.5,0-1-.25-1-.83V48.29a.79.79,0,0,1,.17-.51,1.47,1.47,0,0,1,.1-.13,13.8,13.8,0,0,1,1-1.32,9.4,9.4,0,0,0,.84-1.15A16.91,16.91,0,0,0,85.3,42c0-.2,0-.43,0-.62a.84.84,0,0,1,.16-.48V39.42a2.66,2.66,0,0,1-.08-.33,6.19,6.19,0,0,1-.06-1c0-.17,0-.6-.08-.73s-1.22-.09-1.52-.09a3.83,3.83,0,0,1-.68,0,.82.82,0,0,1-.77-.78V31.74a6.45,6.45,0,0,1,1.11-2.14c1.2-1.69.55-1.25.69-3l0-1.11c-.09-.19-.35-.19-.54-.21a3.47,3.47,0,0,1-.64-.06.78.78,0,0,1-.66-.77V15.89c0-.53.31-.74.7-1a.4.4,0,0,0,.23-.42V11.35c0-.2,0-.2-.14-.36l-.06-.07a.88.88,0,0,1-.43-.24,1.75,1.75,0,0,1-.31-1.14c0-.49,0-1,0-1.48a8.8,8.8,0,0,0-.27-2.78,3.89,3.89,0,0,0-.27-.54l-.23-.36a.08.08,0,0,1,0,0,.71.71,0,0,1-.07-.09h0l-.84-1.12h0c-.52-.8,0-1.94-.36-2.41a.37.37,0,0,0-.55,0c-.15.16-.12.61-.11.81A3.26,3.26,0,0,1,79.28,3a6.53,6.53,0,0,1-.67,1,7.32,7.32,0,0,0-.79,1.32,10,10,0,0,0-.2,3.3c0,.42,0,.85,0,1.27a1.31,1.31,0,0,1-.16.7c-.12.17-.21.18-.37.27a.61.61,0,0,0-.19.2,14.91,14.91,0,0,0-.12,3.38c0,.28,0,.34.19.51a2.89,2.89,0,0,1,.44.36,1.58,1.58,0,0,1,.22.91c0,1.47,0,2.95,0,4.43,0,.85,0,1.71,0,2.56a9.13,9.13,0,0,1-.1,1.58l-.08.32-.32.08c-.39.09-.74.07-1.11.13a.4.4,0,0,0-.36.26,4.89,4.89,0,0,0,0,1,2.55,2.55,0,0,1-.06.73.78.78,0,0,1-.76.64H45.19a1.17,1.17,0,0,1-.79-.3l-.23-.16v-.28a6.32,6.32,0,0,0-.08-1.81c-.11-.13-.49-.13-.65-.14a2.14,2.14,0,0,1-.62-.06.77.77,0,0,1-.57-.76V16a1,1,0,0,1,.52-.91.86.86,0,0,0,.34-.26l.06-.08V11.28c0-.16,0-.19-.1-.29-.25-.25-.52-.22-.69-.54a1.45,1.45,0,0,1-.13-.68c0-.42,0-.85,0-1.26,0-1.66.24-2.9-.89-4.27-.15-.18-.29-.37-.43-.57-.82-1.22-.67-1-.67-2.49,0-.13,0-.33,0-.44-.27-.35-.67-.08-.67.3a6.82,6.82,0,0,1-.12,1.81,5.66,5.66,0,0,1-.83,1.27C37.5,5.66,37.7,6.5,37.7,8.29c0,.32,0,.64,0,1a4.85,4.85,0,0,1,0,1,.86.86,0,0,1-.42.59,1.32,1.32,0,0,0-.2.12.47.47,0,0,0-.13.25v3.33a.4.4,0,0,0,.18.38c.3.23.6.39.6.83v8.67a.77.77,0,0,1-.57.73,2.43,2.43,0,0,1-.6.1,1.88,1.88,0,0,0-.65.13,14.18,14.18,0,0,0-.1,3.09c0,.13.26.45.34.57.42.65,1.44,2,1.44,2.77V36.5c0,.66-.7.82-1.23.84-.37,0-.72,0-1.09,0s-.6,0-.6.46v6.75a1.28,1.28,0,0,0,.36,1l.07.11.28.36A12.54,12.54,0,0,1,36,47.19l.38.59,0,0a6.6,6.6,0,0,1,.21,1.9V67.83c0,.55-.45.79-.94.83-.27,0-.53,0-.8,0l-5,0c-.94,0-1.88,0-2.83,0h-1a4.52,4.52,0,0,0-.52,0,.38.38,0,0,0-.23.62c.23.22,1.12.1,1.44.1h8.89c.45,0,.89.08,1.34.08H61.11c3.57,0,7.15-.09,10.73-.07l16.91.07c.47,0,.94-.08,1.41-.08l2.3,0h1.36c.2,0,.53,0,.72,0s.3-.57-.08-.7ZM40.45,4.3c.09.14.24.27.35.41a6.06,6.06,0,0,1,.35.53,3.49,3.49,0,0,1,.38,1.42c0,.61,0,1.22,0,1.83a9.43,9.43,0,0,1-.11,1.84l-.06.25-.23.11a3.48,3.48,0,0,1-2.38,0l-.22-.11-.06-.25a8.44,8.44,0,0,1-.11-1.74c0-.57,0-1.15,0-1.72a3.42,3.42,0,0,1,.36-1.61,2.58,2.58,0,0,1,.94-1.1l.44-.3.3.44Zm39.91,6.58a9.45,9.45,0,0,1-1.19,0,.94.94,0,0,1-.83-1V6.59c0-.78.58-2.45,1.52-2.45.49,0,.91.68,1.14,1.06.6,1,.39,3.59.39,4.8a1,1,0,0,1-1,.88ZM38.82,14.23c-.46,0-.93,0-1.12-.49a4.37,4.37,0,0,1-.07-1.26,1,1,0,0,1,1-.88l1.64,0a7.87,7.87,0,0,1,1.68.1l.32.08.07.32a1.4,1.4,0,0,1,.09.47,2.66,2.66,0,0,1-.16,1.35c-.28.4-.8.33-1.23.32ZM78.66,11.6l2,0a3,3,0,0,1,1.12.11.93.93,0,0,1,.55.9c0,.34,0,.7,0,1V14l-.41.1a3.61,3.61,0,0,1-.55.12l-.15,0-.29,0c-.59,0-1.18,0-1.77,0a4,4,0,0,1-1,0,.82.82,0,0,1-.62-.81c0-.32,0-.67,0-1,0-.62.58-.81,1.1-.81ZM38.41,16.11c0-.52.19-1.1.82-1.1a7.91,7.91,0,0,1,1.82.08l.38.09,0,.39a4,4,0,0,1,.07.54c0,1.49,0,3,0,4.47,0,.86,0,1.73,0,2.59l0,1a6.18,6.18,0,0,1-.07.62l-.08.32-.32.08a1.65,1.65,0,0,1-.47.08,12.38,12.38,0,0,1-1.36,0,.87.87,0,0,1-.81-1V16.11Zm42.89-.62a3.29,3.29,0,0,1,.07.63q0,.49,0,1c0,.9,0,1.79,0,2.69,0,1.54,0,3.08,0,4.62,0,.55-.46.81-1,.81s-.75,0-1.12,0-1-.26-1-.83V16a.84.84,0,0,1,.81-1,7.4,7.4,0,0,1,1.76.08l.32.08.07.32ZM36.49,26.91a.93.93,0,0,1,.89-.89h5.19a1,1,0,0,1,.88,1A2.4,2.4,0,0,1,43,29a6.7,6.7,0,0,1-.91,1.32,2.06,2.06,0,0,1-.37.23l-.08,0h-2.9a1.26,1.26,0,0,1-.86-.28,1.94,1.94,0,0,1-.34-.47,7.92,7.92,0,0,1-.89-1.43,4.34,4.34,0,0,1-.14-1.48Zm40.27-.78a4.42,4.42,0,0,1,1.1-.12h1.72l2.91,0c.55,0,.8.43.83.93,0,.33,0,.68,0,1a6,6,0,0,1-1,2c-.39.58-.66.63-1.34.62l-1.42,0a8.92,8.92,0,0,1-.9,0,1.42,1.42,0,0,1-1.28-.87,14.84,14.84,0,0,1-.79-1.32,3,3,0,0,1-.1-1.93l.07-.27.26-.1Zm-.44,4.05-.09.38H45.76c-.64,0-2.3.28-2.3-.74a1.35,1.35,0,0,1,.9-1.06l.07,0,29.46,0c.65,0,1.54-.19,2.06.31.34.34.57.67.37,1.15Zm-8.5,6.46a13.15,13.15,0,0,0,0-1.66,1,1,0,0,0-.11-.39.17.17,0,0,0-.15-.05c-.37,0-.43.07-.46.42A11.77,11.77,0,0,1,67,36.83l-.07.32-.32.08a11.65,11.65,0,0,1-3.23,0l-.24-.06-.11-.23a5.22,5.22,0,0,1-.21-1.85,1.2,1.2,0,0,0-.09-.5.17.17,0,0,0-.15-.05c-.14,0-.33,0-.4.15a1.56,1.56,0,0,0-.08.68,8.86,8.86,0,0,1,0,1,.89.89,0,0,1-.9.91c-.62,0-1.23,0-1.84,0a2.47,2.47,0,0,1-1.08-.15,1,1,0,0,1-.48-.92c0-.37,0-.76,0-1.13a1,1,0,0,0-.1-.51c-.06-.08-.2-.09-.3-.09s-.31.09-.36.33a7.47,7.47,0,0,0,0,1.34c0,.68-.22,1.1-1,1.1s-1.2,0-1.8,0a1.87,1.87,0,0,1-1.05-.17,1,1,0,0,1-.41-.94c0-.39,0-.76,0-1.15,0-.2-.06-.45-.27-.53a.43.43,0,0,0-.42.09c-.22.23-.1,1.67-.1,2V37l-.3.15a1.71,1.71,0,0,1-.8.19c-.57,0-1.13,0-1.7,0a2.11,2.11,0,0,1-1-.16,1,1,0,0,1-.45-.91c0-.37,0-.76,0-1.13a.81.81,0,0,0-.1-.53c-.06-.08-.2-.07-.29-.07-.25,0-.28.08-.31.32,0,.4.05.84,0,1.24a2.36,2.36,0,0,0-.05.54v.49l-.49,0c-.51,0-1,.14-1.47.14s-.94,0-1.42,0-1.31-.14-1.31-.84V32.23a1,1,0,0,1,1-.88H76.6c.58,0,.8.51.83,1,0,.3,0,.58,0,.87,0,.54,0,1.08,0,1.61a7.71,7.71,0,0,1-.07,1.6,1,1,0,0,1-.22.59,1,1,0,0,1-.67.22,20.87,20.87,0,0,1-2.5.06,1.11,1.11,0,0,1-1.19-1.16c0-.37.08-.78,0-1.13a1.12,1.12,0,0,0,0-.36c0-.1-.28-.14-.39-.12-.26,0-.31.32-.31.54,0,.39,0,.76,0,1.15a1,1,0,0,1-.4.94,1.87,1.87,0,0,1-1,.17l-1.8,0a1.07,1.07,0,0,1-.47-.1l-.15-.06-.41-.09v-.42ZM38.34,32.23a.92.92,0,0,1,.89-.88l1.22,0a1.28,1.28,0,0,1,.89.27,1.14,1.14,0,0,1,.29.87c0,.37,0,.74,0,1.11,0,.62,0,1.23.06,1.84,0,.32-.11.58-.12.89a.88.88,0,0,1-.35.84,1.33,1.33,0,0,1-.76.09,8.42,8.42,0,0,0-1,.08.86.86,0,0,1-1-.55,5.43,5.43,0,0,1-.11-1.45c0-1,0-2.06,0-3.09Zm40.09-.58a1.17,1.17,0,0,1,.79-.3h0l2.12.09.1.39a6.36,6.36,0,0,1,.09,1c0,.45,0,.89,0,1.34,0,.78,0,1.57,0,2.36,0,.62-.58.81-1.1.81s-.75,0-1.12,0a1.27,1.27,0,0,1-.9-.31,1.31,1.31,0,0,1-.3-.95c0-.43,0-.89.08-1.32.08-.86,0-1.78,0-2.65v-.28l.23-.16ZM37.07,44.4h-.62c-.42,0-.82-.11-.94-.56a2.76,2.76,0,0,1,0-.76c0-.67,0-1.34,0-2,0-.4,0-.79,0-1.18a3.71,3.71,0,0,0,0-.67,1,1,0,0,1,0-.49.53.53,0,0,0,0-.12v-.42l.41-.1A6.52,6.52,0,0,1,37,38c.52,0,1,0,1.56,0,.88,0,1.77.07,2.65.08a2,2,0,0,0,.49,0,1.78,1.78,0,0,1,.61-.05c.42,0,.85,0,1.27,0s1.14.23,1.14.91a1,1,0,0,1-.14.55v1a.54.54,0,0,0,0,.22,1.52,1.52,0,0,1,.1.57v2.41c0,.71-.74.88-1.3.91s-.91,0-1.36,0a.71.71,0,0,1-.46-.15H40.14a1.29,1.29,0,0,1-.7.15,1.58,1.58,0,0,1-.38,0H39c-.19,0-.37,0-.56,0a2.64,2.64,0,0,1-1.19-.08,1.54,1.54,0,0,0-.19-.08Zm40.94,0H76.54a1,1,0,0,1-.31.13l-.26.07-.67-.56v-.24c0-.48,0-1-.05-1.44a5.42,5.42,0,0,1,.07-1.4,3.26,3.26,0,0,0,.1-1.28c0-.35-.13-.72-.13-1.06v-.42l.41-.1a15.06,15.06,0,0,1,2.23,0c2-.11,3.89-.07,5.85-.07a.89.89,0,0,1,.84.86v0l-.1,5.33-.41.09a5.48,5.48,0,0,1-1.22.09,4.09,4.09,0,0,0-.7,0c-.09,0-.15.11-.3.14-.34.09-.55-.05-.85-.07-.81-.07-2.19.29-2.9,0a.34.34,0,0,1-.12-.06ZM47.57,38.09a1.3,1.3,0,0,1,.59-.08l.8,0h18.4l3.46,0h2a7.92,7.92,0,0,1,1.29.1l.4.09v.42a1.5,1.5,0,0,0,0,.2,1.68,1.68,0,0,1,0,.45v1.28a1,1,0,0,1-.17.6.21.21,0,0,0-.06.1l-.12.43-.44,0a1.6,1.6,0,0,1-.48-.11.58.58,0,0,0-.19,0h-26c-.49,0-1.15.12-1.45-.38a1.41,1.41,0,0,1-.15-.76c0-.36,0-.73,0-1.09a2.22,2.22,0,0,1,0-.45.75.75,0,0,0,0-.2V38.1h2Zm26.94,5.35c.12.39-.11.64-.32,1l-.15.24-26.33-.14-.1,0a2.08,2.08,0,0,0-1,0c-.81,0-1.13-.47-1.13-1.22A.77.77,0,0,1,46,42.5a1.63,1.63,0,0,1,.62-.08,4.2,4.2,0,0,0,1.12-.06l.07,0h.07c8.65.07,17.3,0,25.94,0h.25l.52.61,0,.25a1.46,1.46,0,0,0,0,.22ZM42,45.29a2.87,2.87,0,0,1,1,0,.75.75,0,0,1,.45,1.24v0l-.47.55-.07,0a1,1,0,0,1-.63.22c-.12,0-.21,0-.33,0l-2,.12a7.57,7.57,0,0,1-1.26,0,2.49,2.49,0,0,0-.82.05l-.42.2L36.18,45.8l.54-.26a3.07,3.07,0,0,1,.32-.11c.13,0,.27-.1.39-.16l0,0a.55.55,0,0,1,.31,0,.6.6,0,0,1,.19.06h1.45a.86.86,0,0,1,.71.11l.08,0,.23,0L42,45.29Zm34.55.28a1,1,0,0,1,.39-.19,1,1,0,0,1,.3,0,3.38,3.38,0,0,0,.84,0,2.56,2.56,0,0,1,.69-.1h4c.68,0,.91.6.61,1.15a3.36,3.36,0,0,1-.39.52c-.64.81-1.13.43-2,.55a6.93,6.93,0,0,1-1.51,0l-1.44-.14c-.45-.05-.78.09-1.17-.3l0,0-.73-1.14.43-.29Zm-8.34,4.22v3.4a1.06,1.06,0,0,1-.24.86l-.29.44-4.18-2.68c-.2-.1-.43-.19-.64-.28l-1.07-.41c-.35-.13-.71-.26-1.07-.37a2.91,2.91,0,0,0-.58-.15,7.9,7.9,0,0,0-2.42.61l-1.95.86a10.33,10.33,0,0,0-1.17.66,10.47,10.47,0,0,0-1.11.77,7.94,7.94,0,0,1-.72.58.67.67,0,0,1-1.06-.41,5,5,0,0,1-.07-1.16c0-.74,0-1.49,0-2.23s0-1.52,0-2.28c0-.44,0-.89.05-1.33a6.09,6.09,0,0,1,.07-.85l.1-.4,8.74-.18h0a2.71,2.71,0,0,1,.58.12,12.07,12.07,0,0,0,2.39-.09h3.76c.72,0,.84.76.82,1.32s-.08.9-.08,1.34c0,.64.1,1.23.07,1.86Zm4.33-4.38h.58a6.9,6.9,0,0,0,1.2-.14l.31,0,.17.26c.27.4.57.8.85,1.2s.81,1.08.81,1.44V64.27a1.78,1.78,0,0,1-.09.48l-.09.41h-5.4c-.3,0-.59,0-.9,0-.51,0-1.05-.24-1.05-.84V49.85c0-.43.07-.85.07-1.27C69,47.72,69,46.87,69,46v-.29l.24-.16c.6-.4.82-.3,1.5-.3a5.78,5.78,0,0,1,1.38,0,4.31,4.31,0,0,0,.49.11ZM43.42,48.63a1,1,0,0,1,0-.47,8.1,8.1,0,0,1,1.66-2.65l.2-.31.36.09a5,5,0,0,0,1.59.12c.29,0,.64-.14.92-.14h1.7c.23,0,.35.06.54.07l.39,0,.09.37a1.78,1.78,0,0,1,.08.48V64.34a.8.8,0,0,1-.81.82h-6a.83.83,0,0,1-.82-.83,5.45,5.45,0,0,1,0-.7V49.14c0-.14.09-.36.11-.51Zm36.91-.3a.86.86,0,0,1,.66-.18c.26,0,.53,0,.79,0h.42l.1.41a.47.47,0,0,0,.06.15,1.07,1.07,0,0,1,.09.47V64.34a.8.8,0,0,1-.81.82l-2,0a10,10,0,0,1-2-.11L77.27,65V50.63c0-.36,0-.74,0-1.1s-.16-.7.18-1,1.35-.26,1.86-.19a6.92,6.92,0,0,0,1,0ZM37.39,63.8a1.58,1.58,0,0,1,0-.38c0-4.67-.08-9.34,0-14a1,1,0,0,1,0-.35.88.88,0,0,1,.25-.54,1,1,0,0,1,.77-.35H40a10.08,10.08,0,0,1,1.65.07,1.07,1.07,0,0,1,.52.17c.07,0,.09.09.16.14l.24.16V49c0,.32-.07.61-.07.93-.06,4.3,0,8.61,0,12.92,0,.4,0,.8,0,1.2s-.2,1.11-.84,1.11H38.23a.85.85,0,0,1-.87-.82,1.94,1.94,0,0,1,0-.54Zm0,3.37a1.18,1.18,0,0,1,0-.27,1,1,0,0,1,.21-.59,1.56,1.56,0,0,0,.16-.2l.16-.24h.29l.41,0,.17,0h0l3.56,0,.09.41A7.26,7.26,0,0,1,42.53,68v.42l-.41.1a5.35,5.35,0,0,1-.89.08q-.63,0-1.26,0c-.42,0-.83,0-1.25,0a5.26,5.26,0,0,1-.89-.08l-.35-.09-.06-.35a2.52,2.52,0,0,1-.05-1Zm14.33.37V58.45a4.82,4.82,0,0,1,.9-3A10.79,10.79,0,0,1,57,52.35h0l2-.72h0a4.91,4.91,0,0,0,.51-.15,1.62,1.62,0,0,1,.38-.09,4.29,4.29,0,0,1,1,.21,13.58,13.58,0,0,1,2.19.85,18.43,18.43,0,0,1,2.1,1.13,7.39,7.39,0,0,1,2.69,2.86,3.83,3.83,0,0,1,.36,1.67v9.74a.81.81,0,0,1-.82.81H52.51c-.62,0-.81-.58-.81-1.1Zm-5.54-1.63a1.67,1.67,0,0,1,.39,0,3.77,3.77,0,0,0,.82.05,17.91,17.91,0,0,1,3,0h.41l.1.41A7.86,7.86,0,0,1,51,68v.42l-.41.1a7.32,7.32,0,0,1-1.24.09c-.64,0-1.27,0-1.9,0-1.1,0-2.2,0-3.3,0a.81.81,0,0,1-.82-.81c0-.32,0-.64,0-1a1.09,1.09,0,0,1,.24-.71c.33-.36.85-.21,1.27-.21l1.3,0h0s0,0,0,0ZM69,67.83a5.08,5.08,0,0,1,.09-1.4l0-.25.23-.11a2.33,2.33,0,0,1,1.13-.19h4.65c.28,0,.52.08.77.08h.43l.09.41a6.11,6.11,0,0,1,.09,1.54.7.7,0,0,1-.75.74h-6a.81.81,0,0,1-.82-.81Zm9.59-1.92,2,0c.54,0,1.38-.05,1.73.45a2.93,2.93,0,0,1,.15,1.51.8.8,0,0,1-.81.81H78c-.53,0-.75-.41-.77-.88s0-.72,0-1.07C77.27,66,78,65.82,78.55,65.91Z"/></svg>