<svg xmlns="http://www.w3.org/2000/svg" width="182" height="182" viewBox="0 0 182 182">
  <g id="Orchids_Teacher" transform="translate(-1250 -741)">
    <rect id="Rectangle_1767" data-name="Rectangle 1767" width="182" height="182" transform="translate(1250 741)" fill="#fff" opacity="0"/>
    <g id="Orchids_Teacher-2" data-name="Orchids_Teacher" transform="translate(1287 758)">
      <g id="woman" transform="translate(0 0)">
        <g id="Group_4653" data-name="Group 4653" transform="translate(0 0)">
          <path id="Path_8405" data-name="Path 8405" d="M172.077,106.456a14.689,14.689,0,0,0-11.191-11.494h0c-.1-.029.844.208-22.446-5.566v-.79H161.21a6.416,6.416,0,0,0,6.409-6.409l-5.626-32.7a8.01,8.01,0,0,0,0-3.7V33.867a2.177,2.177,0,1,0-4.354,0v6.248a11.3,11.3,0,0,0-3.876-1.422,5.678,5.678,0,0,0-4.784-4.376A7.1,7.1,0,0,1,143.368,30a3.732,3.732,0,0,0-6.363-.582c-3.742,5.093-14.145,16.516-32.109,16.515-1.367,0-2.293-.065-2.616-.079A5.757,5.757,0,0,0,96.189,51.6v5a29.529,29.529,0,0,0,9.1,21.264,29.155,29.155,0,0,0,6.289,4.575v1.809H88.885A2.058,2.058,0,0,1,86.829,82.2l5.626-48.917C95.235,16.838,105.385,4.355,121,4.355h.151A37.1,37.1,0,0,1,137.616,8.4c2.79,1.54,4.514.316,7.27.316,6.726,0,12.116,6.916,12.762,13.136,0,.091.014.456.015,1.854a2.219,2.219,0,0,0,2.179,2.175,2.177,2.177,0,0,0,2.175-2.179c0-.387,0-1.9-.033-2.254-.875-8.659-8.262-17.086-17.1-17.086-3.451,0-3.989.875-5.167.226A41.78,41.78,0,0,0,121.179,0C103.107-.116,91.591,14.288,88.1,33.281L82.475,82.2a6.416,6.416,0,0,0,6.409,6.409h22.693v.79L89.219,94.938l-.088.024-1.633.482c-.049.015-.1.03-.145.048a14.446,14.446,0,0,0-9.413,10.965c-6.626,33.283-6.347,31.862-6.363,31.976-.8,5.645,2.028,10.161,8.826,10.161h35.919a2.177,2.177,0,1,0,0-4.354H95.752V133.834a2.177,2.177,0,1,0-4.354,0V144.24h-11c-2.892,0-4.571-.931-4.6-3.969-.012-1.482-.071-.037,6.406-32.963a10.2,10.2,0,0,1,6.6-7.711l1.51-.445,12.839-3.182c14.283,16.826,13.437,15.934,14.262,16.739,4.767,4.65,11.569,4.322,16.046-.936l13.445-15.792,12.79,3.17c.37.17,6.737,1.29,8.108,8.156,6.421,32.64,6.419,31.475,6.406,32.962-.022,2.975-1.632,3.971-4.6,3.971H158.7V133.834a2.177,2.177,0,1,0-4.354,0V144.24H114.1a2.177,2.177,0,1,0,0,4.354h55.512c5.378,0,8.9-2.959,8.953-8.29C178.586,137.815,178.438,139,172.077,106.456ZM153.906,43.185A5.463,5.463,0,0,1,157.64,46.4V48.9a5.462,5.462,0,0,1-3.734,3.218Zm0,13.8v-.4a11.278,11.278,0,0,0,3.734-1.4L163.266,82.2a2.057,2.057,0,0,1-2.055,2.055H138.44V82.57A28.82,28.82,0,0,0,153.906,56.984ZM108.294,74.719A25.156,25.156,0,0,1,100.543,56.6c.129-4.74-.314-5.314.443-6.026a1.374,1.374,0,0,1,1.033-.376,43.728,43.728,0,0,0,37.9-17.412,11.17,11.17,0,0,0,8.494,5.845,1.309,1.309,0,0,1,1.14,1.29V56.984C149.552,78.645,123.62,89.346,108.294,74.719Zm21.855,34.232c-3.033,3.563-7.279,3.553-10.3-.018l-4.542-5.361h19.427Zm8.287-9.733H111.613L107.872,94.8l6.406-1.588a2.2,2.2,0,0,0,1.653-2.135V84.343a28.835,28.835,0,0,0,18.154.062c.041,6.958-.093,6.8.121,7.413a2.177,2.177,0,0,0,1.532,1.395l6.448,1.6Z" transform="translate(-71.445 -0.001)" fill="#f1bc22"/>
        </g>
      </g>
      <path id="Path_8415" data-name="Path 8415" d="M-21427.811-9185.9h-7.656s-1.1-6.146-6.293-6.146-6.289,6.146-6.289,6.146-12.105.365-14.107,0" transform="translate(21507.301 9232.614)" fill="none"/>
    </g>
  </g>
</svg>
