<svg xmlns="http://www.w3.org/2000/svg" width="182" height="182" viewBox="0 0 182 182">
  <g id="Orchids_campus" transform="translate(-1656 -369)">
    <rect id="Rectangle_1766" data-name="Rectangle 1766" width="182" height="182" transform="translate(1656 369)" fill="#fff" opacity="0"/>
    <g id="Orchids_campus-2" data-name="Orchids_campus" transform="translate(1670 386)">
      <path id="Path_8390" data-name="Path 8390" d="M67.715,328H44v18.912H67.715ZM48.5,332.5h5.1v9.906H48.5Zm14.71,9.906h-5.1V332.5h5.1Z" transform="translate(-30.791 -231.938)" fill="#f1bc22"/>
      <path id="Path_8391" data-name="Path 8391" d="M44,426.912H67.715V408H44Zm19.212-4.5h-5.1V412.5h5.1ZM48.5,412.5h5.1v9.907H48.5Z" transform="translate(-30.791 -287.923)" fill="#f1bc22"/>
      <path id="Path_8392" data-name="Path 8392" d="M411.715,328H388v18.912h23.715ZM392.5,332.5h5.1v9.906h-5.1Zm14.71,9.906h-5.1V332.5h5.1Z" transform="translate(-271.525 -231.938)" fill="#f1bc22"/>
      <path id="Path_8393" data-name="Path 8393" d="M388,426.912h23.715V408H388Zm19.212-4.5h-5.1V412.5h5.1ZM392.5,412.5h5.1v9.907h-5.1Z" transform="translate(-271.525 -287.923)" fill="#f1bc22"/>
      <path id="Path_8394" data-name="Path 8394" d="M112.723,296v4.5H148.9v53.135H107.77V317.464h-4.5v36.173H93.36V334.125h4.8V320.016H55.236v14.109h4.8v19.513H4.5V324.669H0V358.14H153.4V296ZM88.857,353.638H78.951V334.125h9.906ZM59.739,324.519H93.66v5.1H59.739Zm4.8,9.606h9.906v19.513H64.542Z" transform="translate(0 -209.544)" fill="#f1bc22"/>
      <path id="Path_8395" data-name="Path 8395" d="M4.5,98.959H45.629V147.14h4.5V80.829L76.7,54.262l26.567,26.567v30.288h4.5V85.332l4.953,4.953L123.111,79.9l-44.16-44.16V26.912H98.163V8H74.448V35.736L30.288,79.9,40.676,90.285l4.953-4.953v9.124H0v23.866H4.5ZM78.951,12.5H93.66v9.906H78.951ZM36.655,79.9,76.7,39.853,116.744,79.9l-4.021,4.021L76.7,47.894,40.676,83.918Z" transform="translate(0 -8.001)" fill="#f1bc22"/>
      <path id="Path_8396" data-name="Path 8396" d="M215.5,328h4.8v4.5h-4.8Z" transform="translate(-150.808 -231.938)" fill="#f1bc22"/>
      <path id="Path_8397" data-name="Path 8397" d="M247.5,328h4.8v4.5h-4.8Z" transform="translate(-173.202 -231.938)" fill="#f1bc22"/>
      <path id="Path_8398" data-name="Path 8398" d="M279.5,328h4.8v4.5h-4.8Z" transform="translate(-195.596 -231.938)" fill="#f1bc22"/>
      <path id="Path_8399" data-name="Path 8399" d="M239.715,227.858a11.858,11.858,0,1,0-11.858,11.858A11.871,11.871,0,0,0,239.715,227.858Zm-11.858,7.355a7.355,7.355,0,1,1,7.355-7.355A7.363,7.363,0,0,1,227.858,235.213Z" transform="translate(-151.158 -153.56)" fill="#f1bc22"/>
    </g>
  </g>
</svg>
