<svg id="Layer_1" data-name="Layer 1" xmlns="http://www.w3.org/2000/svg" viewBox="0 0 120 70"><defs><style>.cls-1{fill:#f5aa08;fill-rule:evenodd;}</style></defs><path class="cls-1" d="M17,63.1h86.11c.48,0,.6.45.6.94v3c0,.45-.7.45-1,.45s-.21,0-.47,0H18c-1,0-.83.3-1.68-.26,0-.77.05-1.66,0-2.42,0-.27-.26-1.67.67-1.67ZM23.74,60V57.8c0-.4.27-.53.67-.53h21.3a.9.9,0,0,1,.49.18c.32.29.18,1.94.18,2.63,0,.19-.2.29-.36.38s-.19.12-.51.1l-20.84,0c-.46,0-.93,0-.93-.56Zm75-.07V48.69c0-.42.52-.67.94-.67a20.61,20.61,0,0,1,3.77.12.81.81,0,0,1,.25.55V60.08a.55.55,0,0,1-.12.28c-.08.1-.12.19-.28.19a22.91,22.91,0,0,1-4.28-.14.45.45,0,0,1-.28-.46ZM73.66,60V58.21c0-.61,0-.94.67-.94H95.57c1.06,0,.74,1.2.74,2.55,0,.56-.29.77-.81.74s-1.18,0-1.74,0H74.86c-.63,0-1.2.12-1.2-.53Zm0-5.83V36a1.63,1.63,0,0,1,.16-.64c.23-.47,1.14-.48,1.84-.57a22.88,22.88,0,0,1,2.69-.53c2-.09,3.78-.54,5.89-.54h1.81c1.32,0,2.34.24,3.49.33a23.87,23.87,0,0,1,3.46.43,9.72,9.72,0,0,0,1.59.35c1.61.25,1.72.14,1.72,2.17,0,2.48-.15,17,.06,17.43a6,6,0,0,1-.53.34c-.25.1-.47,0-.81,0H76.54a10.44,10.44,0,0,1-2.41,0,.48.48,0,0,1-.47-.53Zm-49.92.13V35.89c0-1,1-1,2-1.14s1.08-.4,2.67-.53a57.38,57.38,0,0,1,8-.54L43,34.4a11.49,11.49,0,0,0,1.29.33c.87.13,1.57.07,1.88.53a2.86,2.86,0,0,1,.3.57V54.25c0,.27-.57.54-.94.54H26.28c-.52,0-2.54.18-2.54-.47ZM18,48h2.43c.32,0,.27-.06.47.12a1,1,0,0,1,.25.43V60.08a.66.66,0,0,1-.16.31c-.24.28-1,.18-1.31.16a20.26,20.26,0,0,1-3-.06c-.75-.38-.4-1-.4-2.69V53.18c0-1.23-.06-2.32-.06-3.48,0-.74-.13-1.08.28-1.46S17.24,48,18,48Zm47.51-1.94,0,13c.23,1.73-.44,1.49-1.36,1.49H56c-.57,0-1.13.11-1.4-.14a.68.68,0,0,1-.19-.34,3,3,0,0,1,0-1c.08-.5,0-11.44,0-12.84a6.5,6.5,0,0,1,.23-2.85c.26-.47.29-.79.49-1.12a5.67,5.67,0,0,1,.36-.44,2.3,2.3,0,0,1,.36-.52c.24-.21.2-.09.43-.37a8.06,8.06,0,0,1,.86-.75,2.39,2.39,0,0,1,.56-.32,2.33,2.33,0,0,0,.51-.28c.58-.47.67-.24,1.12-.5s.06-.29,1-.29c.15,0,.34.21.46.28a2.41,2.41,0,0,0,.59.21c.55.18.57.41,1,.58.57.23.46.31.9.64a4.91,4.91,0,0,1,1.46,1.68,3.41,3.41,0,0,1,.77,2.38,7,7,0,0,1,0,1.47ZM98.78,44.6V36.16c0-.56.42-.74.94-.74h3c.5,0,1,0,1,.54v8.78a1.3,1.3,0,0,1-.33.73,17.36,17.36,0,0,1-2.39,0,4.32,4.32,0,0,0-1,0,.94.94,0,0,1-.83-.14.83.83,0,0,1-.39-.75Zm-82.48,0c0-1.28-.07-7.88.07-8.7.06-.33.41-.48.8-.48h3.55a.56.56,0,0,1,.47.54v8.58c0,.47-.13,1-.6,1H17.1a.63.63,0,0,1-.54-.33,1.14,1.14,0,0,1-.26-.61ZM48.86,32.74V60c0,.2.36.45.57.5a9.72,9.72,0,0,0,2.1,0c.27-.08.41-.31.42-.71,0-1.49,0-3,0-4.5,0-1.06-.06-10.7,0-11.24a2.59,2.59,0,0,1,.25-.88,4.1,4.1,0,0,0,.27-.88,1.77,1.77,0,0,1,.32-.82,1.23,1.23,0,0,0,.22-.31c.07-.13.13-.27.2-.41A11.61,11.61,0,0,1,54.79,39l1.28-1c.37-.18.4-.32.67-.48s.55-.18.81-.32.31-.31.72-.42a3.85,3.85,0,0,0,.87-.27c1.35-.67,1.41-.09,2.72.24.68.17.42.25,1.39.69a3.06,3.06,0,0,1,.59.41c.23.16.45.22.65.37a5.54,5.54,0,0,0,.54.46l1.52,1.56a7.49,7.49,0,0,1,.77,1.31c.43,1.28.33,0,.67,2.41.05.37,0,.67,0,1,.21,2.58.06,9,.06,12.2a23.06,23.06,0,0,0,.06,3c.26.48,1.85.32,2.56.32.22,0,.4-.29.4-.53V32.54a.43.43,0,0,0-.13-.27c-.07-.11-.11-.2-.27-.2h-21c-.2,0-.81.19-.81.67Zm24.8-4c0-1.06,1.89-1,3.26-1.29.18,0,.4-.12.57-.17.48-.14,3.84-.4,4.8-.49a31.89,31.89,0,0,1,4.17-.13c.94,0,1.86.19,2.75.26.48,0,1,.12,1.4.14a21.17,21.17,0,0,1,3.85.65,12.38,12.38,0,0,1,1.26.2,1.28,1.28,0,0,1,.59.9v2.95a.47.47,0,0,1-.19.41c-.35.31-.68.13-1.5,0l-2.2-.48c-1.16-.16-2.4-.21-3.63-.33a28.24,28.24,0,0,0-6.57-.08c-.47,0-.77.05-1.22.11-.94.13-2.81.15-3.73.36a15.85,15.85,0,0,1-3.41.61c-.07-.27-.2-.22-.2-.54V28.79Zm-49.92,0c0-.49.46-.76.86-.87s1-.14,1.46-.22a7.19,7.19,0,0,0,1.34-.34,17.52,17.52,0,0,1,2.28-.26,41.7,41.7,0,0,1,7.12-.39l3,.32a26.13,26.13,0,0,1,3,.34,25.24,25.24,0,0,0,2.78.57,1.12,1.12,0,0,1,.76.92v2.95c0,.47-.39.65-.92.52s-.94-.11-1.4-.21l-1.28-.33c-.86-.2-3.36-.27-4.41-.41a10.16,10.16,0,0,0-1.43-.18l-1.48-.07c-.61,0-1,.08-1.54.07a5.5,5.5,0,0,0-1.49.12c-1.45.18-3.07.23-4.4.36-.84.08-1.3.39-2.68.54-.38,0-.93.18-1.35.19-.12-.19-.26-.23-.26-.54V28.79Zm25.12-8.24a1,1,0,0,1,.88-.81c.35,0,.33.1.72.06a6.5,6.5,0,0,1,.75-.06H70.64c.24,0,.47.42.47.67v8.25a1.26,1.26,0,0,1-.27.87c-2.43,0-6.6-.09-9,0-.22,0-.22,0-.52,0H58.91c-.25,0-.21,0-.39,0-2.51-.06-4.39,0-6.78,0-.81,0-1.14,0-1.88,0a.67.67,0,0,1-.44-.08.94.94,0,0,1-.56-.92v-8Zm24.8-.07c0-.93,1.09-.74,2.14-.74.25,0,.6.52.6.81v3.62c0,1.56-1.37.81-2.48,1.34a1.87,1.87,0,0,1-.26-.67V20.48ZM46.38,24.43c0,.29.12.36,0,.58-.41.68-1,.3-1.46.24-1.11-.13-1.31-.12-1.33-1.48,0-.54.07-.8.07-1.35,0-2-.26-2.56.82-2.66.27,0,.25,0,.58,0,.17,0,1.34-.38,1.35.87V23a4,4,0,0,1,.06.66l-.06.81Zm2.48-9c0-.25.55-.54.81-.54h20.9a.5.5,0,0,1,.54.54c0,.46.13,1.94-.47,1.94h-21a.71.71,0,0,1-.56-.31c-.41-.43-.2-.82-.21-1.15l0-.48Zm-8.64,4.42a3.31,3.31,0,0,0,.47-.07,1.52,1.52,0,0,1,.4.81v2.88c0,1.36-.24,1.21-2.33,1a33.08,33.08,0,0,0-3.43-.25,27.54,27.54,0,0,0-2.86.15c-.25,0-.63,0-.93.08-.8.11-2.69.19-3.71.31-.61.08-1,.29-1.63.38a9,9,0,0,0-2.49.53c-.66.23-1.22.2-1.63.38s-.28.27-.5.5c-.45.44-.39.57-.39,1.62l0,4.46-.24.29c-.3.16-4.4.07-5,.07s-1.37-.07-1.69.32A2.35,2.35,0,0,0,13.88,35l-.06,32.24c-.7.46-.85.26-1.28.26H2a2.68,2.68,0,0,0-1.33.22c-.65.54-.92,1.27-.2,1.85.2.17.33.48.72.48H118.62A1.32,1.32,0,0,0,120,68.34a2.43,2.43,0,0,0-.14-.2c-.32-.5-.22-.52-1-.65s-9.28,0-10.15,0c-2.9,0-2.41.56-2.41-2.74V39.11c0-1.68.06-3.53-.07-5.09a.6.6,0,0,0-.17-.43,1.34,1.34,0,0,0-.17-.17c-.43-.49-.28-.48-1.13-.48H99.66c-1.17-.09-.88-.76-.88-1.74V27.38c0-1.63-1.55-1.5-2.15-1.67a7.45,7.45,0,0,0-2.09-.53c-.4-.05-.7-.09-1.1-.17s-.57-.2-1-.27l-4.67-.42a23.55,23.55,0,0,0-4.6-.08l-3.43.32c-.81,0-.87-.38-.87-1v-3c0-1.2,1.82-.44,2.4-1.29a1.47,1.47,0,0,0,.15-1c-.21-.74-.17-.68-.93-.89a1.82,1.82,0,0,0-.61-.06h-5c-1.71,0-1-.47-1.2-3.75a1.3,1.3,0,0,0-1.28-1.27H48a3.51,3.51,0,0,0-1,.16c-.25.12-.36.46-.48.73-.26.56,0,1.55-.12,2.23s.2,1.27-.41,1.79c-.24.2-.58.11-1.1.11H41.36a5.22,5.22,0,0,0-2.18.17C37.8,18.31,38.73,19.81,40.22,19.81Z"/><path class="cls-1" d="M83.77,40v4.49a1.23,1.23,0,0,0,1.35,1.27c.64,0,.68-.34.95-.71a2.65,2.65,0,0,0,.25-1.5,36,36,0,0,0-.09-4.33,1.66,1.66,0,0,0-1.38-1c-.16,0-.26.17-.41.27C83.93,38.77,83.77,38.8,83.77,40Z"/><path class="cls-1" d="M89.47,40.11v4a2.25,2.25,0,0,0,.28,1.13,1.26,1.26,0,0,0,1.55.37c.29-.12.62-.88.64-1a30.71,30.71,0,0,0,0-4.41,1.7,1.7,0,0,0-.38-1.53c-.86-.85-1.07-.54-1.46-.29C89.53,38.82,89.47,39,89.47,40.11Z"/><path class="cls-1" d="M39.55,40.11v4c0,.55.13,1.29.61,1.47,1,.4,1.32,0,1.62-.51s.32-.37.32-1.42V39.78a1.67,1.67,0,0,0-1.41-1.6,2.43,2.43,0,0,0-.93.61A2.76,2.76,0,0,0,39.55,40.11Z"/><path class="cls-1" d="M33.85,39.91v4.63a1.22,1.22,0,0,0,1.08,1.2c1,0,.78-.1,1.17-.64.12-.17.17-.14.22-.31s.12-3.63.07-4.06c-.11-1,.07-.95-.11-1.57a1.79,1.79,0,0,0-1.42-1l-.78.56A2,2,0,0,0,33.85,39.91Z"/><path class="cls-1" d="M29.3,45.74a.91.91,0,0,0,.94-.4c.13-.17.4-.46.4-.74V39.51c0-1-.44-.58-.81-1.27-.89,0-.31-.33-1.38.43-.55.39-.29,2.32-.29,2.92V44.2C28.15,45,28.39,45.74,29.3,45.74Z"/><path class="cls-1" d="M78.08,39.65v4.89a1.21,1.21,0,0,0,1.34,1.2,1.36,1.36,0,0,0,1.14-1.2c0-.26,0-.54,0-.81a30.9,30.9,0,0,1,0-3.2,3.6,3.6,0,0,0-.08-1.43c-.1-.27-.81-1.1-1.45-.9a2.48,2.48,0,0,0-.46.34C78.24,38.8,78.08,38.84,78.08,39.65Z"/><path class="cls-1" d="M56.37,26a1.28,1.28,0,0,0,1.92,1.12l.37-.23c.4-.38.25-3,.25-3.7A1.28,1.28,0,0,0,57.84,22h-.53a1.49,1.49,0,0,0-.94,1.27Z"/><path class="cls-1" d="M68.5,25.91a12.19,12.19,0,0,0-.07-1.28c-.06-.8.28-1.48-.24-2.17a1,1,0,0,0-.77-.5,1.37,1.37,0,0,0-1.21.38c-.42.51-.26,2.81-.26,3.7a1.28,1.28,0,0,0,2.26.86A1.76,1.76,0,0,0,68.5,25.91Z"/><path class="cls-1" d="M51.68,25.91A1.71,1.71,0,0,0,52,27a1.55,1.55,0,0,0,.94.36c.89-.1.93-.47,1.09-.91a13.11,13.11,0,0,0,.14-3.22,4.13,4.13,0,0,0-.39-.95,1.32,1.32,0,0,0-1.77,0C51.5,23,51.68,24.85,51.68,25.91Z"/><path class="cls-1" d="M61.19,26c0,.24.17,1,.51,1.16a1.32,1.32,0,0,0,1.22.1.72.72,0,0,0,.51-.37,6.45,6.45,0,0,0,.18-2.23c0-1.1.26-2.82-1.25-2.71-.68.05-.8.24-1,.64a1.67,1.67,0,0,0-.21.59Z"/><path class="cls-1" d="M65.41,35.22A1.45,1.45,0,0,0,66,36.68a1.67,1.67,0,0,0,1.52.55l.75-.45c.35-.23.3-.42.51-.77a.93.93,0,0,0,0-.94c-.27-.81-.42-.84-.82-1-.12-.06-.3-.2-.37-.23s-.52-.09-.52-.09C66.63,33.68,65.41,34.58,65.41,35.22Z"/><path class="cls-1" d="M51.21,35.36a1.43,1.43,0,0,0,.51,1.29c.44.32,1.19.86,1.84.46.15-.09.07-.12.46-.35a.66.66,0,0,0,.39-.41c.25-.66.3-1.8-.41-2.18-.91-.48-.9-.68-1.73-.23A1.63,1.63,0,0,0,51.21,35.36Z"/></svg>