<svg id="Layer_1" data-name="Layer 1" xmlns="http://www.w3.org/2000/svg" viewBox="0 0 120 70"><defs><style>.cls-1{fill:#f5aa08;fill-rule:evenodd;}</style></defs><path class="cls-1" d="M17.06,17.57a.45.45,0,0,0-.18,0,.54.54,0,0,0-.18,0l-.1,2.9-.31.18A9.52,9.52,0,0,0,14,22.46,5.59,5.59,0,0,0,12.76,25a9.48,9.48,0,0,0-.22,1.51c0,.53-.06,1.05-.07,1.55,0,.83,0,1.66,0,2.49,0,.58,0,1.16,0,1.75V33l-.69,0h-.88a3.34,3.34,0,0,0-.81.13l-.1,0v0a3.36,3.36,0,0,0,.05.67l0,.26a6.19,6.19,0,0,1,0,.86,5.31,5.31,0,0,1-.11.87l0,.13c-.28.6-.34.61-.66.67a2.32,2.32,0,0,0-.3.08,4.13,4.13,0,0,1-.53.11.54.54,0,0,0,0,.2.45.45,0,0,0,0,.19l1.57.31q0,15.69,0,31.38l-.65,0c-.49,0-1,0-1.49,0l-3.21,0H1.79A7.39,7.39,0,0,0,.66,69L.57,69a.17.17,0,0,0-.06.11.23.23,0,0,0,0,.14.5.5,0,0,0,.08.14c.12.14.7.1,1.08.08H2c13-.12,26-.08,38.94,0,6.24,0,12.48,0,19.26,0s12.92,0,19,0c13.06,0,26.13-.06,39.19,0a3.37,3.37,0,0,0,.9-.12c.13,0,.24-.1.25-.15a.12.12,0,0,0,0-.08.53.53,0,0,0-.25-.16,5.3,5.3,0,0,0-1.3-.11h-1.33l-1.25,0h-.72l-2,0h-.1a18.32,18.32,0,0,1-2-.05l-.61-.06q0-15.72,0-31.43l.58-.09.26,0a2.92,2.92,0,0,0,.69-.13s0,0,0,0a.58.58,0,0,0,0-.15.49.49,0,0,0,0-.15l-.07,0a3,3,0,0,0-.62-.12l-.33-.06-.54-.1V36c0-.26,0-.53,0-.82A10.5,10.5,0,0,0,109.9,33a8.77,8.77,0,0,0-1.15-.09l-.52,0-.55,0-.08-.55a16.94,16.94,0,0,1-.08-2.76v-.22a28.84,28.84,0,0,0,0-2.94,7.89,7.89,0,0,0-.74-2.9,5.55,5.55,0,0,0-2-2.18,4.88,4.88,0,0,1-1.08-.9,1.56,1.56,0,0,1-.37-1.44l.08-.3a1.13,1.13,0,0,0-.1-1,.41.41,0,0,0-.09-.12l0,0,0,0a.35.35,0,0,0-.12.1l0,.06c-.22.23-.17,1.14-.14,1.75,0,.17,0,.32,0,.44v.28l-.2.2a7.22,7.22,0,0,1-1.05.85c-.29.22-.59.43-.86.67a6.23,6.23,0,0,0-1,1.23A6.61,6.61,0,0,0,99,24.59a12.49,12.49,0,0,0-.31,4.26,17,17,0,0,1-.11,3.5l-.09.54-.86,0a7.2,7.2,0,0,0-1.32.11,10.17,10.17,0,0,0-.1,2.1c0,.31,0,.6,0,.87v.6l-.61,0a3.9,3.9,0,0,0-.9.22l-.19.07s.09.07.21.12a3.36,3.36,0,0,0,.88.21l.63,0,0,5.84-15.75-.1,0-.65c0-.67,0-1.45,0-2.28a18.59,18.59,0,0,0-.4-5.61,6.12,6.12,0,0,0-.65-1.39,4.85,4.85,0,0,0-1-1.14c-.35-.29-.72-.54-1.1-.8s-.73-.49-1.08-.77l-.25-.2v-.83a6.5,6.5,0,0,0-.09-1.74c-.11-.1-.18-.14-.23-.14a.39.39,0,0,0-.19.13l0,3-.44.16a3.59,3.59,0,0,0-1.42,1.07,6,6,0,0,1-1,.92l-.55.37-.38-.53c-.11-.16-.23-.31-.34-.46s-.24-.29-.37-.43l-.17-.18-.23-.24a1.72,1.72,0,0,1-.36-1.23V30c0-.54-.05-1.21,0-1.88a11.89,11.89,0,0,1,.13-1.88l.09-.54.68,0a3.2,3.2,0,0,0,.88-.11s0,0,0,0a.61.61,0,0,0,0-.22.24.24,0,0,0,0-.12.39.39,0,0,0-.13,0,3.48,3.48,0,0,0-.67-.06h-.42l-.53,0L70,24.49a14.51,14.51,0,0,0-2.68-6.25,9,9,0,0,0-4.61-3.35l-.48-.14,0-.72a7.2,7.2,0,0,0-.29-2.38,5.44,5.44,0,0,0-1.13-1.28L60.4,10l-.08-.16V9.63c0-.32,0-.71,0-1.12a10,10,0,0,0-.13-2.44c-.19-.05-.3-.05-.34,0a1.18,1.18,0,0,0-.11.67c0,.24,0,.53,0,.83A5,5,0,0,1,59.54,10a2.77,2.77,0,0,1-.7.81,2.53,2.53,0,0,0-.72.88,4.36,4.36,0,0,0-.31,1.68,8,8,0,0,1-.07.83l-.05.37-.34.16c-2.28,1.07-3.42,1.61-4.88,3.67a15.61,15.61,0,0,0-1.64,3A13.22,13.22,0,0,0,50,24.51l-.07.59h-1a1.83,1.83,0,0,0-.78.09.71.71,0,0,0,0,.2.15.15,0,0,1,0,.08,3.44,3.44,0,0,0,1,.21l.65.08.06.53a28.67,28.67,0,0,1,.06,3.47V30a3,3,0,0,1-1.14,2.25c-.32.34-.63.63-1,.95l-.46-.48a14.31,14.31,0,0,0-1.17-1.09c-.39-.33-.79-.64-1.26-1l-.26-.2v-.33c0-.2,0-.43,0-.68a7.08,7.08,0,0,0-.06-1.64s0-.1,0-.13l0,0a.47.47,0,0,0-.2,0l-.15,0L44,30.3l-.55.36c-1.7,1.12-2.8,1.85-3.51,3.92a7.66,7.66,0,0,0-.33,1.81c-.05.66-.05,1.33-.05,1.9s0,.91,0,1.37c0,1,0,1.91,0,2.84l0,.64H23.79v-.67c0-.81,0-1.61,0-2.42l0-.75a5,5,0,0,1,.09-1.3,1,1,0,0,1,.37-.55,1.2,1.2,0,0,1,.59-.21l.21,0,.33,0a1.62,1.62,0,0,0,0-.19.36.36,0,0,0,0-.15s0,0,0,0L25,36.77c-.53-.12-1-.24-1.21-1v-.16c0-.18,0-.38,0-.61a4.14,4.14,0,0,0-.18-2,3.9,3.9,0,0,0-.91-.08,6.81,6.81,0,0,1-.78,0l-.52-.08-.05-.52a24,24,0,0,1,0-3.06,21.76,21.76,0,0,0-.08-3.33,6.75,6.75,0,0,0-1.16-3.09,7.75,7.75,0,0,0-2.52-2.18l-.32-.18-.19-2.85ZM16.89,17a1.36,1.36,0,0,1,.51.14l.14.06.19,2.89.09.05a8.17,8.17,0,0,1,2.68,2.32,7.09,7.09,0,0,1,1.24,3.31,21.72,21.72,0,0,1,.09,3.42,22.93,22.93,0,0,0,0,3v.14l.14,0a5.48,5.48,0,0,0,.7,0,3.63,3.63,0,0,1,1.14.13l.12.08a4,4,0,0,1,.33,2.44c0,.23,0,.43,0,.59v0c.09.42.46.5.83.59l.37.09a.47.47,0,0,1,.35.29.85.85,0,0,1,0,.36,2.71,2.71,0,0,1-.1.43l0,.14-.15,0c-.19,0-.35.06-.52.08l-.2,0a.9.9,0,0,0-.37.12.52.52,0,0,0-.18.29,5.19,5.19,0,0,0-.07,1.15l0,.75c0,.81,0,1.62,0,2.43v.17H39v-.17c.06-.92,0-1.86,0-2.8,0-.46,0-.92,0-1.38s0-1.27.05-1.94a8.26,8.26,0,0,1,.36-1.93c.76-2.23,1.92-3,3.71-4.18L43.5,30l.13-2.76.16-.06a2.34,2.34,0,0,1,.4-.1.89.89,0,0,1,.43,0,.53.53,0,0,1,.3.25.87.87,0,0,1,.1.25,6.84,6.84,0,0,1,.08,1.79c0,.24,0,.47,0,.65v.09l.07.05c.47.36.89.67,1.28,1a15.36,15.36,0,0,1,1.21,1.13l.12.13.59-.59a2.59,2.59,0,0,0,1-1.92v-.2a27.62,27.62,0,0,0-.06-3.41V26.2l-.26,0a3.27,3.27,0,0,1-1.23-.31.55.55,0,0,1-.17-.48,2,2,0,0,1,0-.43l0-.13.12,0a2.21,2.21,0,0,1,1.11-.17h.53l0-.15a13.23,13.23,0,0,1,.88-3.24,15.44,15.44,0,0,1,1.69-3.11c1.53-2.18,2.72-2.73,5.08-3.84l.09,0,0-.1c0-.26,0-.53.06-.8a4.87,4.87,0,0,1,.35-1.86,3,3,0,0,1,.85-1,2.5,2.5,0,0,0,.59-.67,4.81,4.81,0,0,0,.16-2.16c0-.3,0-.6,0-.86a1.49,1.49,0,0,1,.24-1c.21-.22.51-.24,1-.09l.12,0,0,.12a9.53,9.53,0,0,1,.19,2.73c0,.4,0,.78,0,1.09v.07l.34.33a5.82,5.82,0,0,1,1.23,1.43A7.5,7.5,0,0,1,62.73,14v.35l.13,0a9.55,9.55,0,0,1,4.87,3.53,15.19,15.19,0,0,1,2.78,6.47l0,.14h.52a4.81,4.81,0,0,1,.78.07.67.67,0,0,1,.36.17.63.63,0,0,1,.19.38,1.14,1.14,0,0,1,0,.37.49.49,0,0,1-.31.43,3.06,3.06,0,0,1-1.06.14h-.27l0,.15a12,12,0,0,0-.12,1.79c0,.66,0,1.33,0,1.86v.14a1.36,1.36,0,0,0,.24.92l.2.22.19.19.39.46.35.47.1.14.15-.09a5.84,5.84,0,0,0,.93-.85,4,4,0,0,1,1.61-1.2l.11,0,0-2.89.08-.08a1,1,0,0,1,.58-.33.88.88,0,0,1,.65.33l.07.1a6.25,6.25,0,0,1,.13,2c0,.17,0,.31,0,.5V30l.07.05a11.49,11.49,0,0,0,1,.75,11.42,11.42,0,0,1,1.14.83,5.37,5.37,0,0,1,1.1,1.25,6.92,6.92,0,0,1,.71,1.5A19.16,19.16,0,0,1,81,40.13c0,.82,0,1.6,0,2.26v.17l14.77.08,0-4.86h-.17a4.38,4.38,0,0,1-1-.24c-.28-.12-.5-.3-.52-.56s.2-.44.49-.57a5.37,5.37,0,0,1,1.06-.25h.16V36c0-.25,0-.54,0-.85a9.62,9.62,0,0,1,.15-2.37l0-.14.13,0a6.46,6.46,0,0,1,1.59-.16l.44,0,0-.14a16.55,16.55,0,0,0,.1-3.39,12.62,12.62,0,0,1,.34-4.44,7.08,7.08,0,0,1,.72-1.58,6.71,6.71,0,0,1,1.13-1.33,10.75,10.75,0,0,1,.9-.7,10.14,10.14,0,0,0,1-.8l0-.06v-.07c0-.09,0-.24,0-.41,0-.7-.09-1.75.28-2.13h0a.82.82,0,0,1,.28-.25.71.71,0,0,1,.32-.07.65.65,0,0,1,.31.13.91.91,0,0,1,.22.28,1.47,1.47,0,0,1,.14,1.37l-.07.29a1.09,1.09,0,0,0,.26,1,4.28,4.28,0,0,0,1,.8,6.08,6.08,0,0,1,2.13,2.38,8.42,8.42,0,0,1,.79,3.08,30,30,0,0,1,0,3v.21a17,17,0,0,0,.08,2.68l0,.15h.14l.5,0a8,8,0,0,1,1.4.14l.15,0,0,.15a10,10,0,0,1,.14,2.4c0,.28,0,.55,0,.8v.14l.14,0,.31,0a3.34,3.34,0,0,1,.74.16.55.55,0,0,1,.32.27.83.83,0,0,1,.08.36,1,1,0,0,1,0,.35.52.52,0,0,1-.31.31,3.31,3.31,0,0,1-.82.16l-.4,0,0,30.55h.16a17.16,17.16,0,0,0,1.9.05h.11l1.95,0h.72l1.26,0h1.34a6.26,6.26,0,0,1,1.45.13,1.1,1.1,0,0,1,.47.32.61.61,0,0,1,.15.52.79.79,0,0,1-.58.5,3.24,3.24,0,0,1-1.06.14c-13.06-.09-26.13-.06-39.19,0l-19,0c-6.06,0-12.66,0-19.26,0-13,0-26-.08-38.93,0H1.71c-.48,0-1.22.07-1.49-.27a.87.87,0,0,1-.17-.27A.83.83,0,0,1,0,69a.67.67,0,0,1,.23-.37.68.68,0,0,1,.25-.14h0a6.89,6.89,0,0,1,1.27-.08H4.71l3.21,0c.49,0,1,0,1.47,0h.17V37.9L8.1,37.62l0-.14A1.31,1.31,0,0,1,8,37a1.42,1.42,0,0,1,.13-.51l.06-.13.27,0a2.38,2.38,0,0,0,.45-.09,3.75,3.75,0,0,1,.37-.09c.11,0,.12,0,.29-.39l0,0a4.27,4.27,0,0,0,.1-.78,5.29,5.29,0,0,0,0-.79l0-.24a3.69,3.69,0,0,1-.06-.79.55.55,0,0,1,.16-.34A.7.7,0,0,1,10,32.6a3.61,3.61,0,0,1,1-.16H12v-.18c0-.58,0-1.17,0-1.75,0-.83,0-1.66,0-2.5,0-.52,0-1.06.07-1.58a10.37,10.37,0,0,1,.23-1.58,6.11,6.11,0,0,1,1.38-2.72A9.61,9.61,0,0,1,16,20.23l.09-.05.11-3,.16-.06a1.38,1.38,0,0,1,.51-.12ZM58.4,13.89A3.61,3.61,0,0,1,58.54,12a2.39,2.39,0,0,1,1.13-1.25l.36-.2.34.23a2.69,2.69,0,0,1,1.12,1.32,4.51,4.51,0,0,1,.19,1.71v.66H58.49l-.09-.57Zm.6-1.71a2,2,0,0,1,.9-1l.1,0,.09.06A2.23,2.23,0,0,1,61,12.28a3.88,3.88,0,0,1,.16,1.52V14H58.92l0-.15A3.26,3.26,0,0,1,59,12.18ZM50.6,24.32a14.37,14.37,0,0,1,1.26-4.07,10.29,10.29,0,0,1,2.28-3.05,8.67,8.67,0,0,1,2.8-1.69,8.4,8.4,0,0,1,3.2-.51,8.87,8.87,0,0,1,3.14.71A9.32,9.32,0,0,1,66,17.53a10.66,10.66,0,0,1,2.2,3,12.83,12.83,0,0,1,1.18,3.8l.12.78H50.47l.13-.78Zm1.71-3.85a9.72,9.72,0,0,1,2.17-2.9A8.09,8.09,0,0,1,57.11,16a7.83,7.83,0,0,1,3-.48,8.09,8.09,0,0,1,3,.67,9.08,9.08,0,0,1,2.62,1.72,10.08,10.08,0,0,1,2.09,2.86,12.32,12.32,0,0,1,1.14,3.65l0,.2H51.06l0-.2a13.81,13.81,0,0,1,1.22-3.93ZM13.15,25.85a6.17,6.17,0,0,1,.52-1.78,6.94,6.94,0,0,1,1-1.61A5.39,5.39,0,0,1,16,21.39a2,2,0,0,1,1.2-.3,2.77,2.77,0,0,1,1.15.63A8.44,8.44,0,0,1,19.55,23a8.05,8.05,0,0,1,.74,1.32,7,7,0,0,1,.41,1.46l.14.79-7.79,0,.1-.77Zm1-1.57a6.44,6.44,0,0,1,1-1.49,4.92,4.92,0,0,1,1.12-1,1.42,1.42,0,0,1,.88-.23,2.2,2.2,0,0,1,.9.52,7.31,7.31,0,0,1,1.15,1.21,6.15,6.15,0,0,1,1.07,2.58l0,.2-6.62,0,0-.21a5.64,5.64,0,0,1,.48-1.63Zm85.2,1.56a6.13,6.13,0,0,1,1.08-2.71,6.84,6.84,0,0,1,2.26-2l.27-.15.28.1a5,5,0,0,1,2.39,1.76,6.71,6.71,0,0,1,1.29,3l.13.78H99.22l.11-.78Zm1.48-2.42a6.46,6.46,0,0,1,2.11-1.86l.07,0,.07,0a4.62,4.62,0,0,1,2.16,1.59,6.28,6.28,0,0,1,1.19,2.77l0,.2H99.8l0-.21a5.65,5.65,0,0,1,1-2.49ZM13.29,27.14h7.53l-.13,5.8-3.34,0-.08-.57a6,6,0,0,1-.05-1,7.48,7.48,0,0,0,0-.82,1,1,0,0,0-.09-.37S17,30,16.92,30a.21.21,0,0,0-.19.08,1,1,0,0,0-.09.36,5.6,5.6,0,0,0,0,1.16c0,.19,0,.39,0,.58v.67l-3.6,0v-5.8Zm7,.49-.11,4.8-2.42,0,0-.15a5.94,5.94,0,0,1,0-.95,6.62,6.62,0,0,0,0-.89,1.3,1.3,0,0,0-.15-.57.77.77,0,0,0-1.23,0,1.47,1.47,0,0,0-.17.56,6.51,6.51,0,0,0,0,1.25c0,.2,0,.39,0,.56v.18l-2.6,0v-4.8Zm83,2.52-.36,0a7.62,7.62,0,0,0-.1,1.3c0,.29,0,.57,0,.82l-.06.61H99.24l0-5.76,7.79,0v5.74l-3.64,0V31.7a7.26,7.26,0,0,0-.08-1.55Zm-.58-.46-.17,0,0,.16a6.42,6.42,0,0,0-.16,1.61c0,.27,0,.54,0,.77v.16H99.74l0-4.76,6.79,0v4.74l-2.64,0v-.72a7.12,7.12,0,0,0-.14-1.89l0-.21-1,.08ZM55.61,25.64l4.13,0,0,4.89-4.45-.2,0-4.67Zm3.63.48,0,3.87-3.45-.16,0-3.69,3.38,0Zm1.35-.49h4.09l0,4.85-4.44-.15.06-4.71Zm3.6.51,0,3.84-3.43-.12.06-3.73Zm1.37-.52,4.08,0,0,4.85-4.46-.08.1-4.8Zm3.58.53,0,3.84-3.44-.06.08-3.8,3.34,0ZM54.86,26l-.12,4.08-.36.18a2.09,2.09,0,0,1-1.34.25l-.46,0-.52,0a5.15,5.15,0,0,1-1.23,0l-.56-.1.07-4.55.41-.17A4.65,4.65,0,0,1,52,25.46a9.66,9.66,0,0,1,1.62,0l.09,0,1.18.37V26Zm-.61,3.77-.09.05a1.8,1.8,0,0,1-1.09.19l-.49,0-.54,0a4.69,4.69,0,0,1-1.12,0l-.15,0,.06-3.79.11-.05A3.82,3.82,0,0,1,52,26a8.61,8.61,0,0,1,1.53,0h0l.8.26-.1,3.59Zm-5.55,4.1a3.06,3.06,0,0,1,1.07-2.14A3.75,3.75,0,0,1,52.21,31H67.72a4.07,4.07,0,0,1,2.54.74,3,3,0,0,1,1.07,2.15l.07.73-8.48,0a2.53,2.53,0,0,1-1.9-1,4.76,4.76,0,0,0-.63-.56.87.87,0,0,0-.27-.14.58.58,0,0,0-.28,0,2.6,2.6,0,0,0-.81.59,9.11,9.11,0,0,0-.71.82l-.2.26H48.63l.07-.74Zm1.38-1.75a3.32,3.32,0,0,1,2.13-.66H67.72a3.62,3.62,0,0,1,2.23.63,2.46,2.46,0,0,1,.88,1.8l0,.2H62.92a2.16,2.16,0,0,1-1.54-.86,7,7,0,0,0-.7-.62,1.18,1.18,0,0,0-.47-.22,1.07,1.07,0,0,0-.55.06,3.12,3.12,0,0,0-1,.71,8.64,8.64,0,0,0-.75.86l-.06.07H49.18l0-.19a2.55,2.55,0,0,1,.88-1.8Zm-9.84,3.67a6,6,0,0,1,.43-1.58,7,7,0,0,1,.82-1.42,6.46,6.46,0,0,1,1.3-1.17,3,3,0,0,1,1.27-.55,2,2,0,0,1,1.18.37,5.78,5.78,0,0,1,1.21,1.13,7.41,7.41,0,0,1,1,1.56A6.2,6.2,0,0,1,48,35.82l.12.78h-8l.11-.78Zm.89-1.39a6.31,6.31,0,0,1,.77-1.32,5.3,5.3,0,0,1,1.18-1,2.39,2.39,0,0,1,1-.47,1.53,1.53,0,0,1,.88.3,5.45,5.45,0,0,1,1.1,1A7.26,7.26,0,0,1,47,34.39a5.53,5.53,0,0,1,.48,1.51l0,.2H40.7l0-.21a5.83,5.83,0,0,1,.4-1.46Zm30.92,1.35A6.58,6.58,0,0,1,73.27,33a5.73,5.73,0,0,1,2.32-1.86l.26-.11.26.1a6,6,0,0,1,3.68,4.75l.11.78-8,0,.12-.78Zm1.62-2.54a5.26,5.26,0,0,1,2.11-1.7l.07,0,.07,0a5.47,5.47,0,0,1,2.26,1.71,5.68,5.68,0,0,1,1.11,2.64l0,.21-6.81,0,0-.21a6,6,0,0,1,1.12-2.62Zm-62.83.2,12.42.09v3.15l-12.67-.06V33.45ZM22.76,34v2.16l-11.67,0V34L22.76,34Zm74.29-.58h12.4l0,3.25-12.64,0V33.45Zm11.9.49,0,2.25-11.64,0V34Zm-50.82,4v-.13c0-1.69,0-3.15,1.75-4.06l.48-.25.35.41c1.18,1.39,1.19,2.11,1.21,3.77v.91l-3.8,0v-.68Zm.5-.13c0-1.53,0-2.85,1.48-3.61l.13-.07.09.11a4.22,4.22,0,0,1,1.09,3.44v.41l-2.8,0v-.31ZM48.9,35.18l8.79,0,0,.72c0,.44,0,.84,0,1.26v.26a2.81,2.81,0,0,1,0,.57,1.08,1.08,0,0,1-.33.57,1.68,1.68,0,0,1-1.18.27l-.54,0c-.41,0-.83,0-1.24,0l-1.49,0a33.39,33.39,0,0,1-3.47-.06l-.62-.05V35.18Zm8.25.53v.19c0,.43,0,.86,0,1.29v.26a2.25,2.25,0,0,1,0,.46.59.59,0,0,1-.17.31,1.25,1.25,0,0,1-.83.15l-.54,0c-.42,0-.83,0-1.26,0l-1.5,0a32.48,32.48,0,0,1-3.42-.06h-.16V35.68l8,0Zm5.49-.54h8.77l0,3.66-9-.06-.09-3.6Zm8.27.5,0,2.65-8,0-.07-2.61Zm-22,3.67H71.42c0,1.35,0,2.47-.08,3.8l-22.71,0V39.34Zm22.05.5v1.9l-.06.9-21.75,0V39.84ZM10.83,37.19l12.47.07,0,10.19-12.74-.07q0-5.1.05-10.19Zm12,.57,0,9.19L11,46.88l.05-9.19,11.72.07Zm1.3,5.93,15.46,0,0,3.67H23.77l.09-3.69Zm14.95.53,0,2.67H24.29l.06-2.69,14.7,0Zm1.07,1.37V37.13h7.95l0,10.25-7.88,0a17.62,17.62,0,0,1,0-1.78Zm.51-8h6.95l0,9.25-6.9,0,0-.88c.17-2.66,0-5.66,0-8.36Zm31.56-.51h7.72c0,3.41.16,6.88-.1,10.27H72c0-3.43,0-6.85,0-10.28Zm7.22.5V46l-.07.9H72.47l0-9.27Zm1.32,6.08,15.52,0,0,3.67-15.77-.1,0-3.59Zm15,.52,0,2.67L81,46.79l0-2.59,14.77,0Zm1.34-7h12.35c0,3.38,0,6.77,0,10.15l-12.62,0,.06-10.12Zm11.85.5,0,9.15-11.61,0,0-9.12ZM54.39,43.69l11.57,0-.06,8-.44.16-.75-.9a6.36,6.36,0,0,0-3.51-2.17,5.41,5.41,0,0,0-3.84.59,6,6,0,0,0-.59.39c-.19.15-.37.3-.55.47l0,0a5.12,5.12,0,0,1-1.15.83l-1,.47.08-7.86Zm11.07.53L65.4,51l-.31-.38a6.85,6.85,0,0,0-3.78-2.34,5.94,5.94,0,0,0-4.19.65,4.31,4.31,0,0,0-.65.43c-.19.14-.39.31-.58.48l0,0a4.78,4.78,0,0,1-1,.76l-.25.12.07-6.56,10.82,0Zm-54.61,3.7L23.26,48l0,8.45h-6l0-.64a7.87,7.87,0,0,1,0-1,9.91,9.91,0,0,0,0-1.09,1.78,1.78,0,0,0-.1-.48.23.23,0,0,0-.22-.14.21.21,0,0,0-.21.13,1.7,1.7,0,0,0-.1.48,8.52,8.52,0,0,0,0,1.13c0,.32,0,.63,0,.95l0,.65-6-.06,0-8.46Zm11.91.56,0,7.45h-5v-.16a7.22,7.22,0,0,1,0-.93,8.84,8.84,0,0,0,0-1.15,1.85,1.85,0,0,0-.14-.65.67.67,0,0,0-.66-.43.68.68,0,0,0-.67.42,1.8,1.8,0,0,0-.14.64,8,8,0,0,0,0,1.2c0,.31,0,.61,0,.91v.17l-5,0,0-7.47,11.66.06Zm1.31-.56,15.49,0,0,8.48-5.24,0L34.14,56a6.83,6.83,0,0,0-1.22-2.14,1.65,1.65,0,0,0-1.18-.72,2,2,0,0,0-1.19.8,6.26,6.26,0,0,0-1.14,2l-.14.49H23.78l0-8.51Zm15,.53,0,7.48H34.66l0-.12A7.57,7.57,0,0,0,33.3,53.5a2.11,2.11,0,0,0-1.58-.89,2.42,2.42,0,0,0-1.55,1,6.8,6.8,0,0,0-1.24,2.22l0,.13H24.28l0-7.51,14.74,0Zm5.11,4.68-.18,0a.53.53,0,0,0-.2,0s0,0,0,0a.83.83,0,0,0,0,.15,4.28,4.28,0,0,0,0,1v.17c0,.46,0,.92,0,1.37l0,.64-3.54,0c0-2.84,0-5.67,0-8.51l7.93,0,0,8.52-3.75-.15,0-.63c0-.23,0-.49,0-.76a10.54,10.54,0,0,0-.09-1.8ZM44,52.61a.89.89,0,0,0-.44.07.53.53,0,0,0-.27.28,1,1,0,0,0-.08.27,4.68,4.68,0,0,0,0,1.06v.17c0,.44,0,.88,0,1.32V56l-2.58,0,0-7.5,6.94,0,0,7.51-2.78-.11v-.17c0-.22,0-.47,0-.73a9.37,9.37,0,0,0-.14-2.08l0-.15-.15,0c-.13,0-.27-.05-.41-.06Zm28.23-4.69h7.68l0,8.55-3.51-.06,0-.63c0-.33,0-.65,0-1a6.86,6.86,0,0,0,0-1.11,1.4,1.4,0,0,0-.09-.47.21.21,0,0,0-.21-.13.24.24,0,0,0-.22.14,1.46,1.46,0,0,0-.09.48,8.06,8.06,0,0,0,0,1.1c0,.32,0,.65,0,1l0,.64-3.75,0,0-8.53Zm7.18.49,0,7.54-2.54-.05v-.16c0-.3,0-.61,0-.92a7.49,7.49,0,0,0,0-1.16,2,2,0,0,0-.14-.64.73.73,0,0,0-1.33,0,2.1,2.1,0,0,0-.14.64,9.15,9.15,0,0,0,0,1.17c0,.31,0,.62,0,.92v.17l-2.77,0,0-7.53Zm1.29-.49,15.54,0,0,8.48h-5.4l-.12-.52a5.75,5.75,0,0,0-1.17-2.07,1.69,1.69,0,0,0-1.23-.73,1.49,1.49,0,0,0-.8.42,4.45,4.45,0,0,0-.67.8c-.1.15-.21.32-.31.49l-.28.52-.13.25c-.08.17-.17.35-.27.52l-.2.33-5.2-.12,0-8.41Zm15,.53,0,7.48h-4.5l0-.14a6.3,6.3,0,0,0-1.28-2.29,2.14,2.14,0,0,0-1.64-.89,2,2,0,0,0-1.1.55,4.6,4.6,0,0,0-.74.89c-.12.17-.23.35-.33.52s-.2.36-.29.54l-.13.26c-.09.16-.17.33-.26.48l0,.09L81,55.84l0-7.42,14.78,0Zm7.19,4.69a9.23,9.23,0,0,0-.1,1.85v.78l0,.66h-6l0-8.5h12.63l0,8.53h-6l0-.62a10.09,10.09,0,0,1,0-1.1,6.44,6.44,0,0,0,0-1.34.61.61,0,0,0-.05-.18s0-.06,0-.06a.5.5,0,0,0-.19,0l-.16,0Zm-.6,1.86v.93h-5l0-7.5H109l0,7.53h-5v-.16a9.19,9.19,0,0,1,0-1.05,6.8,6.8,0,0,0,0-1.44,1.15,1.15,0,0,0-.08-.29.58.58,0,0,0-.27-.31.89.89,0,0,0-.44-.07,2.57,2.57,0,0,0-.4.06l-.15,0,0,.15a9.12,9.12,0,0,0-.14,2.13Zm-72.14.47a4.83,4.83,0,0,1,.39-.79,3.5,3.5,0,0,1,.58-.68l.3-.29.39.14c1,.33,1.13.74,1.48,1.58l.4,1c-1.45,0-2.49,0-3.94,0l.4-.91ZM31,55a3,3,0,0,1,.51-.59l.08-.07.1,0c.74.26.89.6,1.18,1.3l.12.28L31.7,56l-1.15,0,.11-.24A4.42,4.42,0,0,1,31,55Zm55.76.65a2.55,2.55,0,0,1,.47-1,2.45,2.45,0,0,1,.88-.67l.43-.21.57.57A2.6,2.6,0,0,1,90,55.53l.31.9-3.73,0,.23-.85Zm.86-.7a2.05,2.05,0,0,1,.7-.53l.12-.06.33.33a2.2,2.2,0,0,1,.71,1.06l.08.23-2.38,0,.06-.23a2.31,2.31,0,0,1,.38-.82Zm-70.5,7.2-.18,0a.33.33,0,0,0-.2,0s0,0,0,0a.84.84,0,0,0,0,.17,6.67,6.67,0,0,0-.06,1.52c0,.36,0,.71,0,1l0,.64h-6V57H23.23l0,8.4-6,.06-.12-3.37Zm-.1-.54a1,1,0,0,0-.46,0,.57.57,0,0,0-.3.29,1.52,1.52,0,0,0-.09.28,7.22,7.22,0,0,0-.07,1.64c0,.34,0,.68,0,1v.17h-5V57.52H22.74l0,7.4-5,0-.11-3.23-.17-.06L17,61.56Zm12,3.91H23.83c0-2.83,0-5.66,0-8.49H39.53v8.47l-5.21,0L34.17,65A7.49,7.49,0,0,0,33,62.77a1.58,1.58,0,0,0-1.27-.63,1.88,1.88,0,0,0-1.2.76A6.51,6.51,0,0,0,29.39,65l-.16.47ZM24.33,65l0-7.49H39v7.47l-4.36,0,0-.11a7.57,7.57,0,0,0-1.32-2.42,2,2,0,0,0-1.68-.8,2.32,2.32,0,0,0-1.55.94,7.28,7.28,0,0,0-1.18,2.27l0,.12Zm19.06.51-3.26,0V57L48,57v8.48l-3.75,0,0-.65c0-.31,0-.62,0-.93a9.43,9.43,0,0,0,0-1.19,1.78,1.78,0,0,0-.1-.48.18.18,0,0,0-.2-.11.21.21,0,0,0-.19.16,1.46,1.46,0,0,0-.08.48,8.49,8.49,0,0,0,0,1,8.86,8.86,0,0,1,0,1.15l-.05.62ZM40.63,65V57.49l6.91,0V65l-2.77,0v-.17c0-.3,0-.6,0-.9a10.59,10.59,0,0,0,0-1.26,1.76,1.76,0,0,0-.15-.64.64.64,0,0,0-.69-.4.7.7,0,0,0-.62.47,2.09,2.09,0,0,0-.11.63,9.37,9.37,0,0,0,0,1.06,10.07,10.07,0,0,1,0,1.1l0,.16-2.53,0Zm35.63-2.87-.21,0h-.16s0,0,0,0a1.15,1.15,0,0,0-.06.17,7,7,0,0,0-.06,1.48,9.05,9.05,0,0,1,0,1.05l0,.62-3.68,0V57h7.88v8.51l-3.52,0-.11-3.37Zm-.15-.53a.86.86,0,0,0-.4,0,.55.55,0,0,0-.3.3,1.11,1.11,0,0,0-.1.29,7.39,7.39,0,0,0-.07,1.59,8.42,8.42,0,0,1,0,1v.16l-2.71,0V57.46h6.88V65l-2.53,0-.11-3.24-.17-.06a2.46,2.46,0,0,0-.47-.1ZM80.72,57l15.54,0,0,8.47H90.89L90.74,65a7.23,7.23,0,0,0-1.24-2.22,1.54,1.54,0,0,0-1.17-.69,1.9,1.9,0,0,0-1.21.8A7.34,7.34,0,0,0,86,65l-.16.47-5.35-.12c0-2.8,0-5.6,0-8.4Zm15,.52,0,7.47H91.26l0-.12a8,8,0,0,0-1.34-2.39,2,2,0,0,0-1.6-.87,2.37,2.37,0,0,0-1.54,1,7.86,7.86,0,0,0-1.25,2.3l0,.12-4.5-.1,0-7.4,14.78,0Zm6.82,7.89-5.75.1V57l12.59,0,0,8.52h-5.93l-.07-.61a9.45,9.45,0,0,1,0-1.19,8.36,8.36,0,0,0,0-1,1.59,1.59,0,0,0-.07-.46.23.23,0,0,0-.19-.15.17.17,0,0,0-.2.12,1.7,1.7,0,0,0-.1.48,8.8,8.8,0,0,0,0,1.15c0,.31,0,.63,0,.94l0,.64ZM97.32,65V57.49l11.59,0,0,7.51h-5l0-.16a8.38,8.38,0,0,1,0-1.12,9.35,9.35,0,0,0,0-1.06,1.92,1.92,0,0,0-.11-.61.71.71,0,0,0-1.31-.06,2.1,2.1,0,0,0-.14.65,9.93,9.93,0,0,0,0,1.22c0,.3,0,.6,0,.9v.17l-5,.08ZM32,62.89a2.71,2.71,0,0,1,.91.68,2.83,2.83,0,0,1,.51,1l.27.87-3.81,0,.26-.88a2.77,2.77,0,0,1,.45-.91,6.14,6.14,0,0,1,.67-.69l.34-.3.4.19Zm.53,1a2.35,2.35,0,0,1,.41.84L33,65l-2.46,0,.07-.24A2.39,2.39,0,0,1,31,64a4.41,4.41,0,0,1,.61-.62l.08-.07.11.05a1.92,1.92,0,0,1,.74.54ZM48.84,43.72l4.68,0,0,21.71-4.92.07q0-10.88,0-21.75ZM53,44.2l0,20.71L49.13,65l0-20.75,3.93,0ZM65.65,65.44l-11.47,0-.06-.61c-.15-1.62-.15-3.36-.15-5v-.07c0-.48,0-1,0-1.43l0-1.44c0-.35,0-.72,0-1.07s0-.73.08-1.08a6.75,6.75,0,0,1,2-3.93,5.11,5.11,0,0,1,7.6-.07,6.87,6.87,0,0,1,2.14,3.88c0,.36.08.73.1,1.09s0,.72,0,1.08l0,1.44v1.43c0,.84,0,1.7,0,2.55S66,64,65.93,64.81l0,.63Zm-11-.47v-.16c-.15-1.59-.15-3.32-.15-4.93v-.07c0-.48,0-1,0-1.43s0-.94,0-1.42,0-.7,0-1.07,0-.7.08-1a6.25,6.25,0,0,1,1.89-3.62,4.62,4.62,0,0,1,6.91-.07,6.35,6.35,0,0,1,2,3.59c0,.34.08.69.1,1s0,.72,0,1.07l0,1.42v1.43c0,.83,0,1.68,0,2.54s-.05,1.69-.11,2.53v.16L54.63,65ZM66.74,43.72l4.63,0q0,10.91.07,21.8l-4.91,0q0-10.86,0-21.74Zm4.13.47L70.94,65H67l0-20.76,3.88,0ZM88.8,62.93a3,3,0,0,1,.77.72,2.66,2.66,0,0,1,.44,1l.21.85-1.63,0c-.71,0-1.42,0-2.13,0l.26-.86a2.54,2.54,0,0,1,.49-1,3.53,3.53,0,0,1,.83-.66l.38-.26.38.26Zm.37,1a2.21,2.21,0,0,1,.35.82l.06.22H88.23l-1.1,0,.07-.22a2,2,0,0,1,.39-.81,3.39,3.39,0,0,1,.72-.58l.1-.06.1.06a2.8,2.8,0,0,1,.66.6ZM11,66.25a1,1,0,0,1,.21-.09l.18,0,.16,0,.13,0C20.56,64.54,49,66,60,66c5.43,0,10.88,0,16.32,0,10.81,0,21.63.08,32.45,0h.77l-.36,2.93q-49.29-.06-98.59,0l0-2.52.38-.15Zm.36.39a.18.18,0,0,1,.09,0c6.27-1.46,39.52-.12,48.55-.12,5.43,0,10.88,0,16.32,0,10.81,0,21.63.08,32.45,0h.2l-.24,1.93H11.07l0-1.68.12,0Z"/><path class="cls-1" d="M17.3,17.4a.82.82,0,0,0-.84,0l-.11,2.93-.2.12a7,7,0,0,0-3.64,4.46A15.55,15.55,0,0,0,12.22,28c0,1.41,0,2.82,0,4.24v.43h-.43a6.32,6.32,0,0,0-1.79.16c-.16.06-.24.1-.26.27a5.41,5.41,0,0,0,.09,1,4.8,4.8,0,0,1-.07,1.65v0l0,0c-.31.66-.26.43-.81.61a3.71,3.71,0,0,1-.63.12,1,1,0,0,0,0,.84l1.51.3V68.63l-.41,0c-.61,0-1.24,0-1.85,0l-2.84,0c-.9,0-1.81,0-2.72,0a9.18,9.18,0,0,0-1.4.07.49.49,0,0,0-.18.84c.24.29,1.19.16,1.54.16,19.4-.18,38.8,0,58.2,0s38.8-.14,58.2,0c.3,0,1.3,0,1.39-.46.06-.25-.25-.48-.45-.54a6.32,6.32,0,0,0-1.45-.12c-.84,0-1.68,0-2.52,0l-2.67.05a17.2,17.2,0,0,1-2-.05l-.39,0,0-31,.37-.05a4.65,4.65,0,0,0,1-.18c.19-.07.21-.21.2-.41s0-.33-.24-.41a6.67,6.67,0,0,0-1-.19l-.33-.07V36a15.84,15.84,0,0,0-.14-3.15,11.66,11.66,0,0,0-1.86-.15l-.34,0-.05-.34a17.94,17.94,0,0,1-.08-2.84,26.21,26.21,0,0,0,0-3.07,6.46,6.46,0,0,0-2.81-5.27c-.72-.48-1.58-1.09-1.35-2.07.16-.65.31-.81,0-1.49-.18-.35-.48-.35-.72-.05v0h0c-.37.39-.19,1.84-.19,2.37v.18l-.12.12c-.56.56-1.31,1-1.9,1.52a6.15,6.15,0,0,0-1.78,2.8c-.79,2.41,0,5.28-.44,7.79l0,.35H98a8.05,8.05,0,0,0-1.82.16A15.32,15.32,0,0,0,96,36v.38l-.38,0c-.21,0-1.34.2-1.32.56s1.06.54,1.32.56l.4,0,0,5.35-15.26-.08,0-.41c-.08-2.27.31-5.9-.39-8a5.61,5.61,0,0,0-1.73-2.64c-.68-.58-1.49-1-2.18-1.57l-.16-.13v-.2a9,9,0,0,0-.11-2.38c-.39-.37-.55-.32-.89,0l0,2.95-.28.1c-1.14.42-1.52,1.37-2.48,2l-.35.24-.24-.34a10.26,10.26,0,0,0-.72-.91l-.4-.41a1.74,1.74,0,0,1-.3-1.22,20.85,20.85,0,0,1,.09-3.71l0-.34h.35a3.65,3.65,0,0,0,1.1-.13c.21-.1.17-.32.13-.52a.4.4,0,0,0-.36-.36,10.55,10.55,0,0,0-1.13-.07l-.34,0,0-.33c-.67-4-3.34-8.63-7.47-9.8l-.31-.09v-.31a8.11,8.11,0,0,0-.33-2.7A7.64,7.64,0,0,0,60.69,9.9l-.12-.11V9.62a16.77,16.77,0,0,0-.18-3.75c-.75-.24-.89,0-.9.86s.25,2.33-.16,3.14-1.06.88-1.43,1.69a8.75,8.75,0,0,0-.4,2.59l0,.23-.21.1c-2.32,1.09-3.49,1.64-5,3.76a14.6,14.6,0,0,0-2.53,6.24l-.05.37h-.38a2.88,2.88,0,0,0-1.38.14c0,.24-.1.57,0,.67a4.09,4.09,0,0,0,1.22.27l.34.05,0,.33a31.38,31.38,0,0,1,.06,3.63c0,1.13-.59,1.57-1.32,2.35h0l-.52.5-.29-.31A19,19,0,0,0,45,30.39l-.17-.13v-.21a12.42,12.42,0,0,0-.06-2.37c0-.13-.09-.29-.23-.33a1.2,1.2,0,0,0-.68.09l-.12,2.72-.19.12c-1.89,1.25-3.09,2-3.87,4.22a13,13,0,0,0-.39,3.79c0,1.39.09,2.81,0,4.2l0,.4H24v-.42c0-1,0-2,0-3a5.19,5.19,0,0,1,.07-1.37.79.79,0,0,1,.75-.59c.26,0,.48,0,.71-.09a1.14,1.14,0,0,0,.07-.64c0-.08-.12-.11-.19-.13-.55-.17-1.2-.14-1.37-.87v-.09c0-.76.25-2.23-.25-2.87a10.66,10.66,0,0,0-1.8-.17l-.33,0,0-.33c-.21-2.12.16-4.27-.12-6.4a6.94,6.94,0,0,0-3.81-5.45l-.2-.11L17.3,17.4Zm41.35-3.55A2.55,2.55,0,0,1,59.78,11l.23-.12.22.15c1.1.74,1.24,1.52,1.2,2.81v.42H58.7l-.05-.36ZM50.84,24.36a11.85,11.85,0,0,1,3.47-7,8.27,8.27,0,0,1,5.82-2.13,8.91,8.91,0,0,1,5.74,2.46,11.44,11.44,0,0,1,3.3,6.65l.08.49H50.76l.08-.49ZM13.4,25.88a6.36,6.36,0,0,1,1.5-3.26c.49-.55,1.42-1.39,2.22-1.28a5.11,5.11,0,0,1,2.22,1.84,6,6,0,0,1,1.11,2.67l.09.5-7.21,0,.07-.49Zm86.18,0a6.1,6.1,0,0,1,3.22-4.53l.16-.1.18.06a5.74,5.74,0,0,1,3.51,4.56l.09.49H99.51l.07-.49ZM13.29,27.39h7.28l-.12,5.3-2.88,0-.06-.36c-.09-.61,0-1.24-.06-1.85,0-.37-.11-.66-.53-.66s-.48.31-.53.66a13.07,13.07,0,0,0,0,1.77v.42l-3.1,0v-5.3Zm90.2,2.49-.75.06a14.15,14.15,0,0,0-.18,2.33l0,.39h-3l0-5.26,7.29,0v5.24l-3.14,0v-.43a8.86,8.86,0,0,0-.13-2.37Zm-47.87-4,3.87,0,0,4.38-4-.18,0-4.18Zm5,0h3.84l0,4.34-3.93-.13.06-4.22Zm5,0,3.84,0,0,4.34-4-.07.08-4.3ZM54.61,26,54.5,30l-.23.11a2.82,2.82,0,0,1-1.69.2,8.05,8.05,0,0,1-1.7,0l-.36-.06L50.59,26l.26-.11a7.65,7.65,0,0,1,2.71-.21h0l1,.31ZM49,33.94c.17-1.82,1.52-2.69,3.26-2.69H67.72c1.79,0,3.19.75,3.36,2.66l0,.47H62.92c-1.15,0-1.6-1-2.38-1.52a.74.74,0,0,0-.79-.13,4.94,4.94,0,0,0-1.63,1.49l-.13.16H48.91l0-.46Zm-8.47,1.93A6.14,6.14,0,0,1,41.69,33a4.86,4.86,0,0,1,2.38-1.62c.82-.05,1.72.83,2.19,1.41a6.65,6.65,0,0,1,1.46,3.09l.08.49H40.41l.07-.49Zm31.82,0a6,6,0,0,1,3.38-4.51l.17-.07.16.07a5.74,5.74,0,0,1,3.53,4.54l.07.5-7.39,0,.08-.49ZM10.84,33.7,23,33.79v2.65l-12.17-.06V33.7Zm86.21,0H109.2l0,2.75L97,36.42V33.7ZM58.38,37.94c0-1.67-.05-3.1,1.62-4l.3-.15.22.26c1.17,1.37,1.13,2.07,1.15,3.83v.43l-3.3,0v-.43ZM48.9,35.43l8.52,0,0,.46c0,.52,0,1-.06,1.54a1.25,1.25,0,0,1-.29.95,1.52,1.52,0,0,1-1,.21c-.6,0-1.18,0-1.78,0-1.64,0-3.31.1-4.94,0l-.39,0V35.43Zm13.74,0h8.52l0,3.15-8.46,0-.08-3.1ZM48.87,39.59h22.3v2.17l-.08,1.13-22.22,0V39.59Zm-38-2.15,12.22.07,0,9.69-12.24-.07.05-9.69Zm13.27,6.5,15.2,0,0,3.17H24l.07-3.19Zm16.27,1.67V37.38h7.45l0,9.75-7.39,0,0-1.13,0-.38Zm31.82-8.24h7.47V46l-.09,1.13H72.22l0-8.73V37.37ZM80.73,44,96,44l0,3.17L80.7,47l0-3.09Zm16.36-6.46h12.1l0,9.65L97,47.11l0-9.62Zm-42.7,6.45,11.32,0-.06,7.72-.75-.9a6.05,6.05,0,0,0-7.66-1.64,7.38,7.38,0,0,0-1.19.89,4.71,4.71,0,0,1-1.12.81l-.62.3.08-7.21ZM10.85,48.17,23,48.23l0,8h-5.5l0-.4c0-.69.07-1.38,0-2.07,0-.37-.09-.84-.55-.85s-.53.46-.57.83c-.06.7,0,1.41,0,2.1l0,.41-5.51,0,0-8Zm13.22,0,15.24,0,0,8H34.47l-.09-.29c-.31-.95-1.47-3.1-2.65-3s-2.28,2.06-2.56,3l-.09.31H24l0-8Zm20.31,4.75a1.4,1.4,0,0,0-.7,0,.51.51,0,0,0-.21.38,5.45,5.45,0,0,0,0,1.07c0,.48,0,1,0,1.45l0,.4-3.06,0,0-8,7.44,0,0,8-3.27-.13v-.4a16,16,0,0,0-.13-2.76Zm27.87-4.75h7.43l0,8-3-.05,0-.4c0-.68.08-1.38,0-2.07,0-.37-.09-.84-.56-.83s-.52.47-.55.85c-.07.69,0,1.39,0,2.08l0,.4-3.26,0,0-8Zm8.47,0L96,48.2l0,8H91L91,55.86c-.24-1-1.51-3.1-2.66-3-.69.07-1.29.79-1.65,1.33a8.32,8.32,0,0,0-.61,1c-.13.24-.25.51-.39.75l-.13.21-4.81-.11,0-7.92Zm22,4.76a14.17,14.17,0,0,0-.14,2.83l0,.42H97l0-8H109.2l0,8h-5.47l0-.39c-.06-.78.09-1.75,0-2.47,0-.14-.08-.34-.22-.41a1,1,0,0,0-.67,0Zm-72.3,2.64a3.24,3.24,0,0,1,.91-1.39l.19-.18.25.09c.86.29,1,.68,1.35,1.48l.24.57-1.47,0h-.2l-1.52-.06.25-.57ZM87,55.66a2.13,2.13,0,0,1,1.21-1.52L88.5,54l.21.22a2.84,2.84,0,0,1,1,1.38l.2.57-3,0,.14-.54ZM17.37,61.91a1.32,1.32,0,0,0-.71-.09c-.15.06-.2.26-.23.39a18.2,18.2,0,0,0-.07,2.58l0,.4H10.85V57.27H23l0,7.9-5.52.06-.12-3.31Zm11.68,3.31h-5l0-8H39.28v8l-4.79,0-.1-.29c-.37-1-1.32-3.17-2.74-3s-2.17,2-2.51,3l-.1.29Zm14.34,0-3,0v-8l7.41,0v8l-3.26,0,0-.4c0-.71.08-1.44,0-2.14,0-.38-.1-.86-.57-.82s-.48.52-.5.87c-.06.71,0,1.44,0,2.16l0,.39ZM76.5,61.9a1.18,1.18,0,0,0-.7-.07c-.15.06-.21.26-.24.4a21.59,21.59,0,0,0-.08,2.57l0,.39-3.19,0v-8h7.38v8l-3,0L76.5,61.9Zm4.22-4.68,15.28,0,0,8h-4.9l-.09-.3c-.3-.93-1.48-3.19-2.68-3.08s-2.23,2.09-2.57,3.11l-.1.3-4.93-.11,0-7.91Zm21.84,7.92-5.49.09v-8l12.09,0,0,8h-5.46l0-.38c-.07-.73,0-1.46,0-2.19,0-.35-.06-.81-.5-.84s-.52.45-.56.82c-.07.7,0,1.41,0,2.11l0,.4Zm-70.68-2a2.21,2.21,0,0,1,1.29,1.53l.17.55-3.14,0,.17-.56a2.93,2.93,0,0,1,1.05-1.48l.21-.19.25.12ZM48.84,44l4.43,0,0,21.21-4.42.07,0-21.26ZM65.65,65.19l-11.24,0,0-.39c-.15-1.63-.15-3.38-.15-5,0-1,0-1.91,0-2.86,0-.7,0-1.44.12-2.14.3-2.63,2.85-5.39,5.59-5.43s5.34,2.75,5.69,5.33c.09.69.12,1.44.14,2.14,0,.95,0,1.91,0,2.86,0,1.68,0,3.41-.14,5.08l0,.4ZM66.74,44l4.38,0,.07,21.29-4.41,0,0-21.24ZM88.65,63.14a2.37,2.37,0,0,1,1.12,1.56l.13.54-1.31,0h-.37l-1.42,0,.16-.53a2.27,2.27,0,0,1,1.22-1.53l.24-.16.23.17ZM11.08,66.48a.62.62,0,0,1,.34-.11l.09,0,.18,0,.19,0H60c16.25,0,32.51.19,48.77,0h.49l-.31,2.43H10.81l0-2.1Z"/><path class="cls-1" d="M102.76,41.2a1.23,1.23,0,0,0-.87,1,1.26,1.26,0,0,0,.06.51,1.24,1.24,0,0,0,1.62.74,1,1,0,0,0,.74-1,1.51,1.51,0,0,0-.07-.56,1.35,1.35,0,0,0-.28-.48,1,1,0,0,0-1.2-.23Zm-1.37.94a1.74,1.74,0,0,1,1.19-1.41,1.51,1.51,0,0,1,1.75.36,1.81,1.81,0,0,1,.38.66,1.94,1.94,0,0,1,.1.76,1.5,1.5,0,0,1-1.1,1.41,1.75,1.75,0,0,1-2.23-1.05A1.84,1.84,0,0,1,101.39,42.14Z"/><path class="cls-1" d="M102.67,41a1.45,1.45,0,1,0,1,2.72C105.33,43.18,104.53,40.24,102.67,41Z"/><path class="cls-1" d="M16.59,41.16a1.1,1.1,0,0,0-.83,1,1.47,1.47,0,0,0,.05.55,1.38,1.38,0,0,0,.25.48,1.1,1.1,0,0,0,1.24.28,1.14,1.14,0,0,0,.79-1,1.37,1.37,0,0,0-.05-.53,1.26,1.26,0,0,0-.24-.46,1.1,1.1,0,0,0-1.21-.31Zm-1.32.92a1.57,1.57,0,0,1,1.19-1.41,1.61,1.61,0,0,1,1.73.48,1.78,1.78,0,0,1,.33.64,2,2,0,0,1,.07.73,1.64,1.64,0,0,1-1.13,1.41,1.56,1.56,0,0,1-1.78-.44,1.83,1.83,0,0,1-.35-.66A1.9,1.9,0,0,1,15.27,42.08Z"/><path class="cls-1" d="M16.52,40.91c-1.74.47-1.1,3.42.86,2.78A1.46,1.46,0,0,0,16.52,40.91Z"/><path class="cls-1" d="M75.34,42.11v.37a1.42,1.42,0,0,0,.46,1.23.43.43,0,0,0,.5,0,1.42,1.42,0,0,0,.45-1.23v-.37a1.58,1.58,0,0,0-.45-1.31.49.49,0,0,0-.25-.08.43.43,0,0,0-.25.09,1.54,1.54,0,0,0-.46,1.3Zm-.5.37v-.37a2.07,2.07,0,0,1,.67-1.72,1,1,0,0,1,.54-.17,1,1,0,0,1,.53.17,2,2,0,0,1,.67,1.72v.37a1.92,1.92,0,0,1-.67,1.65,1,1,0,0,1-1.06,0A1.9,1.9,0,0,1,74.84,42.48Z"/><path class="cls-1" d="M75.09,42.11v.37c0,2.06,1.91,2.11,1.91,0v-.37C77,39.89,75.09,40,75.09,42.11Z"/><path class="cls-1" d="M43.3,41.93v.55a1.45,1.45,0,0,0,.44,1.23.49.49,0,0,0,.25.08.38.38,0,0,0,.24-.08,1.44,1.44,0,0,0,.44-1.23v-.55a1.23,1.23,0,0,0-.43-1.09.5.5,0,0,0-.51,0,1.23,1.23,0,0,0-.43,1.09Zm-.5.55v-.55a1.67,1.67,0,0,1,.67-1.51,1,1,0,0,1,1,0,1.67,1.67,0,0,1,.67,1.51v.55a1.91,1.91,0,0,1-.66,1.65.91.91,0,0,1-.52.16,1,1,0,0,1-.53-.16A1.94,1.94,0,0,1,42.8,42.48Z"/><path class="cls-1" d="M43.05,41.93v.55c0,2.07,1.87,2.09,1.87,0v-.55C44.92,40.05,43,40.05,43.05,41.93Z"/></svg>