<svg id="Layer_1" data-name="Layer 1" xmlns="http://www.w3.org/2000/svg" viewBox="0 0 120 70"><defs><style>.cls-1{fill:#f5aa08;stroke:#f5aa08;stroke-miterlimit:10;stroke-width:0.5px;fill-rule:evenodd;}</style></defs><path class="cls-1" d="M35.16,63.8l.92-11.6a5.91,5.91,0,0,1,1.48-3.64,13.65,13.65,0,0,1,3.53-2.8l0,0a54.19,54.19,0,0,0,12.34-8.52c3-2.91,4.82-5.8,5.52-8.6a.69.69,0,0,1,.86-.56.81.81,0,0,1,.49.65h1.41a.68.68,0,0,1,1.35.09,16.68,16.68,0,0,0,5.14,7.93A57.52,57.52,0,0,0,80.68,45l.06,0a19,19,0,0,1,3.57,2.54A5,5,0,0,1,86,51.11L87,63.88a.79.79,0,0,1-.63.89H64.09c-9.39.25-18.85,0-28.24-.07a.77.77,0,0,1-.69-.82V63.8Zm2.31-11.48-.85,10.75,20.78.13V53.52a.77.77,0,0,1,.7-.82h6a.77.77,0,0,1,.7.82v9.61H85.58l-1-11.93a3.41,3.41,0,0,0-1.15-2.33,17.7,17.7,0,0,0-3.31-2.33A59,59,0,0,1,67.38,38a19,19,0,0,1-5.28-7.66H60a21.39,21.39,0,0,1-5.58,8.14,55.92,55.92,0,0,1-12.66,8.74,12.34,12.34,0,0,0-3.16,2.49,4.23,4.23,0,0,0-1.08,2.58v0Zm26,10.82v-8.8H58.8v8.82Z"/><path class="cls-1" d="M59.88,7.8h2a.77.77,0,0,1,.7.82l.53,20.87a.76.76,0,0,1-.67.84H59.66a.77.77,0,0,1-.69-.82v-.08l.21-20.83a.77.77,0,0,1,.7-.81Zm1.33,1.64h-.65L60.37,28.7h1.34Z"/><path class="cls-1" d="M60.53,8.32a.88.88,0,0,1-.39,1.06.67.67,0,0,1-.91-.45v0a6.93,6.93,0,0,0-.3-.77c-.07-.16-.16-.35-.26-.54l0,0L58.35,7l-.3-.48a4.56,4.56,0,0,1-.25-.39h0c-.1-.16-.21-.35-.32-.57a5.7,5.7,0,0,1-.29-.72A3.7,3.7,0,0,1,57.05,4a3.29,3.29,0,0,1,.06-.88,4.29,4.29,0,0,1,.27-.86l0-.07a6.37,6.37,0,0,1,.41-.72,5.64,5.64,0,0,1,.55-.63A4,4,0,0,1,59,.4a2.73,2.73,0,0,1,.64-.27A2.72,2.72,0,0,1,60.28,0h.57a4.54,4.54,0,0,1,.57.06A3.41,3.41,0,0,1,62,.2a3.32,3.32,0,0,1,.53.27,4.69,4.69,0,0,1,.54.4,5.66,5.66,0,0,1,.49.49,4.78,4.78,0,0,1,.41.59,3,3,0,0,1,.3.69,4.53,4.53,0,0,1,.15.75,6.2,6.2,0,0,1,0,.75,7,7,0,0,1-.08.79,5.06,5.06,0,0,1-.17.72l0,0a4,4,0,0,1-.27.59c-.11.19-.21.34-.31.48l-.23.31L63,7.45c-.07.11-.15.23-.22.36a3.5,3.5,0,0,0-.17.32h0c-.05.11-.08.22-.11.3s-.06.18-.07.24a.53.53,0,0,0,0,.12,1.07,1.07,0,0,1-.09.27.8.8,0,0,1-.34.32h0a.5.5,0,0,1-.26.06A.77.77,0,0,1,61,8.62a.9.9,0,0,1,.07-.37l0-.06a2.89,2.89,0,0,1,.1-.35c.05-.14.11-.31.18-.47s.16-.33.24-.47a4.66,4.66,0,0,1,.3-.47c.1-.14.21-.3.33-.45l.2-.28a2.82,2.82,0,0,0,.21-.31,1.8,1.8,0,0,0,.14-.31V5a2.27,2.27,0,0,0,.1-.43A3.69,3.69,0,0,0,63,4.06a2.66,2.66,0,0,0,0-.49,1.59,1.59,0,0,0-.07-.38,1.64,1.64,0,0,0-.14-.33,2.46,2.46,0,0,0-.25-.34,3.51,3.51,0,0,0-.33-.34c-.13-.1-.25-.2-.36-.27a1.53,1.53,0,0,0-.29-.14,2.13,2.13,0,0,0-.32-.08,3.15,3.15,0,0,0-.43-.05,2.84,2.84,0,0,0-.41,0h0a2.28,2.28,0,0,0-.39.06h0a1.89,1.89,0,0,0-.36.16h0a2,2,0,0,0-.4.29,2.66,2.66,0,0,0-.34.4,3,3,0,0,0-.25.43l0,0a2.62,2.62,0,0,0-.15.48,1.44,1.44,0,0,0,0,.41h0a1.34,1.34,0,0,0,.07.39,4,4,0,0,0,.17.44c.08.14.16.29.25.43l.22.36c.1.15.2.3.34.54s.22.38.33.59l0,.05c.11.21.22.43.31.62A7.54,7.54,0,0,1,60.53,8.32Z"/><path class="cls-1" d="M55.37,37.17a.83.83,0,0,1,0-1.64h11.4a.83.83,0,0,1,0,1.64Z"/><path class="cls-1" d="M54.57,38a.83.83,0,0,1,0-1.64H67.66a.83.83,0,0,1,0,1.64Z"/><path class="cls-1" d="M53.69,38.89a.83.83,0,0,1,0-1.64H68.6a.83.83,0,0,1,0,1.64Z"/><path class="cls-1" d="M56.21,63.26H67.69a.23.23,0,0,1,.23.24v1a.23.23,0,0,1-.23.23H56.21a.23.23,0,0,1-.23-.23v-1a.23.23,0,0,1,.23-.24Zm11.24.47h-11v.52h11Z"/><path class="cls-1" d="M55.26,65.25H68.64v-.53H55.26v.53Zm13.61.46H55a.23.23,0,0,1-.24-.23v-1a.24.24,0,0,1,.24-.24H68.87a.24.24,0,0,1,.24.24v1A.23.23,0,0,1,68.87,65.71Z"/><path class="cls-1" d="M53.6,65.24H70.3a.23.23,0,0,1,.23.24v1a.23.23,0,0,1-.23.24H53.6a.24.24,0,0,1-.24-.24v-1a.24.24,0,0,1,.24-.24Zm16.46.48H53.84v.52H70.06Z"/><path class="cls-1" d="M52.11,67.23H71.79v-.52H52.11v.52ZM72,67.7H51.88a.24.24,0,0,1-.24-.24v-1a.23.23,0,0,1,.24-.23H72a.23.23,0,0,1,.24.23v1A.24.24,0,0,1,72,67.7Z"/><path class="cls-1" d="M49.8,67.23H74.1a.23.23,0,0,1,.24.23v1a.24.24,0,0,1-.24.24H49.8a.24.24,0,0,1-.24-.24v-1a.23.23,0,0,1,.24-.23Zm24.07.47H50v.52H73.87Z"/><path class="cls-1" d="M47.52,69.21H76.37v-.52H47.52v.52Zm29.09.47H47.29a.23.23,0,0,1-.23-.23v-1a.23.23,0,0,1,.23-.23H76.61a.23.23,0,0,1,.23.23v1A.23.23,0,0,1,76.61,69.68Z"/><path class="cls-1" d="M35.75,63.76l50.67-.27a.49.49,0,0,1,.41.23l3.39,5.57a.46.46,0,0,1-.17.64.42.42,0,0,1-.24.07H30.19a.48.48,0,0,1-.48-.47.49.49,0,0,1,.17-.36l5.52-5.28a.47.47,0,0,1,.35-.13Zm50.4.66-50.22.27-4.57,4.37H89Z"/></svg>