<svg xmlns="http://www.w3.org/2000/svg" width="182" height="182" viewBox="0 0 182 182">
  <g id="Orchids_primary" transform="translate(-2243 952)">
    <path id="Orchids_primary-2" data-name="Orchids_primary" d="M16.637,0a9.149,9.149,0,0,0-9.1,9.968H7.5V91.3a8.386,8.386,0,0,0,8.376,8.376H82.26V0ZM10.823,91.3V16.61a8.262,8.262,0,0,0,4.984,1.665V96.35A5.055,5.055,0,0,1,10.823,91.3Zm68.114,5.054H19.129V18.275h4.984V60.142a2.464,2.464,0,0,0,1.826,2.4,2.592,2.592,0,0,0,.678.093c.025,0,.048-.008.073-.01.075,0,.146-.02.221-.028a2.388,2.388,0,0,0,.5-.11,2.132,2.132,0,0,0,.229-.093,2.39,2.39,0,0,0,.437-.264c.06-.045.121-.083.176-.133a2.434,2.434,0,0,0,.485-.575l7.006-11.676,7.006,11.677a2.442,2.442,0,0,0,2.575,1.141c.075-.013.148,0,.223-.023a2.469,2.469,0,0,0,1.826-2.4V18.275H78.935V96.357Zm-34.655-80.6,0,.012-.228.455v.07l-.166.382.166.253V57.133L35.742,43.289,27.436,57.133V17.005l2.688-5.376H46.345Zm4.117-.8,3.323-6.645H28.07l-3.323,6.645H16.989a6.065,6.065,0,0,1-6.135-5.217,5.748,5.748,0,0,1,1.474-4.487,5.819,5.819,0,0,1,4.309-1.925h62.3V4.984H70.63a1.661,1.661,0,0,0,0,3.323h8.307V9.968H72.292a1.661,1.661,0,1,0,0,3.323h6.645v1.661Z" transform="translate(2289.5 -911)" fill="#222439"/>
    <rect id="Rectangle_1770" data-name="Rectangle 1770" width="182" height="182" transform="translate(2243 -952)" fill="#fff" opacity="0"/>
  </g>
</svg>
