<svg xmlns="http://www.w3.org/2000/svg" width="182" height="182" viewBox="0 0 182 182">
  <g id="Orchids_Students" transform="translate(-1656 -741)">
    <rect id="Rectangle_1768" data-name="Rectangle 1768" width="182" height="182" transform="translate(1656 741)" fill="#fff" opacity="0"/>
    <g id="Orchids_Students-2" data-name="Orchids_Students" transform="translate(1676 777)">
      <g id="student" transform="translate(30.748)">
        <g id="Group_4654" data-name="Group 4654" transform="translate(0)">
          <path id="Path_8410" data-name="Path 8410" d="M144.949,72.653V61.2l-4.832,1.88-.014-.032-.115-.209a12.438,12.438,0,0,0-8.219-5.5l-11.628-2.116v-.918a17.752,17.752,0,0,0,8.525-11.926,7.1,7.1,0,0,0,5.651-6.941v-17.5a11.113,11.113,0,0,0-7.939-10.662l-.886-.886A21.82,21.82,0,0,0,88.244,21.819V35.44A7.1,7.1,0,0,0,93.9,42.381a17.753,17.753,0,0,0,8.525,11.926v.918L90.794,57.339a12.443,12.443,0,0,0-8.215,5.5l-.106.259L77.612,61.2V72.653A5.323,5.323,0,0,0,72.3,77.969v7.088a5.323,5.323,0,0,0,5.316,5.316V96.9L111.28,110l33.668-13.1V90.373a5.323,5.323,0,0,0,5.316-5.316V77.969A5.323,5.323,0,0,0,144.949,72.653ZM123.461,59.432l7.673,1.395a8.877,8.877,0,0,1,5.594,3.572l-17.144,6.666Zm-17.346-3.5a17.654,17.654,0,0,0,10.331,0l-5.165,3.874Zm2.468,6.28-3.617,3.615-2.346-7.037,1.129-.2Zm10.228-3.624,1.129.2-2.346,7.037-3.617-3.615ZM129,38.492v-6.1a3.513,3.513,0,0,1,0,6.1Zm-35.44,0a3.513,3.513,0,0,1,0-6.1Zm0-11.912V28.6a7.028,7.028,0,0,0-1.772.734V21.819A18.275,18.275,0,0,1,122.986,8.9l1.563,1.565.477.117a7.573,7.573,0,0,1,5.747,7.359v11.4A6.964,6.964,0,0,0,129,28.6V26.58h-5.619a15.413,15.413,0,0,1-12.271-6.133L109.7,18.565l-3.521,3.523A15.246,15.246,0,0,1,95.332,26.58Zm3.544,12.4V30.043a18.756,18.756,0,0,0,11.582-5.449l.689-.689a18.982,18.982,0,0,0,14.006,6.22h2.075v8.86a14.176,14.176,0,1,1-28.352,0ZM91.427,60.826,99.1,59.432l3.877,11.633L85.829,64.4A8.876,8.876,0,0,1,91.427,60.826ZM75.84,85.057V77.969A1.774,1.774,0,0,1,77.612,76.2a5.316,5.316,0,0,1,0,10.632A1.774,1.774,0,0,1,75.84,85.057ZM109.508,105.5,81.156,94.479V89.622a8.842,8.842,0,0,0,0-16.218V66.384l28.352,11.026Zm-5.261-33.941,7.033-7.035,7.033,7.033L111.28,74.3ZM141.4,94.477,113.052,105.5V77.409L141.4,66.384V73.4a8.842,8.842,0,0,0,0,16.218Zm5.316-9.42a1.774,1.774,0,0,1-1.772,1.772,5.316,5.316,0,0,1,0-10.632,1.774,1.774,0,0,1,1.772,1.772Z" transform="translate(-72.296 0)" fill="#f1bc22"/>
        </g>
      </g>
      <g id="Group_4667" data-name="Group 4667" transform="translate(0 19.653)">
        <path id="Path_8416" data-name="Path 8416" d="M-21471.328-8865.713v29.976l-4.658-3.536s-1.863-1.584-1.771-6.423,0-18.991,0-18.991-.277-20.016,21.135-20.2c7.447-.185,19.084,6.424,19.361,20.2.188,2.6,0,20.105,0,20.105a7,7,0,0,1-2.7,5.309c-.93.93-3.816,3.536-3.816,3.536v-29.976" transform="translate(21477.762 8884.895)" fill="none" stroke="#f1bc22" stroke-linecap="round" stroke-width="3"/>
        <path id="Path_8417" data-name="Path 8417" d="M-21463.434-8835.186s14.242-5.586,27.367,0" transform="translate(21469.768 8858.556)" fill="none" stroke="#f1bc22" stroke-width="3"/>
        <path id="Path_8418" data-name="Path 8418" d="M-21463.434-8799.221s13.125,16.385,27.459,0" transform="translate(21469.768 8837.114)" fill="none" stroke="#f1bc22" stroke-width="3"/>
        <path id="Path_8419" data-name="Path 8419" d="M-21439.1-8802.4a4.643,4.643,0,0,0,5.51,0" transform="translate(21456.197 8838.887)" fill="none" stroke="#f1bc22" stroke-linecap="round" stroke-width="3"/>
        <path id="Path_8420" data-name="Path 8420" d="M-21456.156-8828.151a1.789,1.789,0,0,0,1.531,1.661,1.655,1.655,0,0,0,1.7-1.824c-.2-.686-.395-1.955-2.9-1.793-1.043.228-1.27,1.108-2.932.881a.957.957,0,0,0-1.076.912C-21459.775-8827.925-21458.7-8826.521-21456.156-8828.151Z" transform="translate(21467.764 8855.135)" fill="#f1bc22"/>
        <path id="Path_8421" data-name="Path 8421" d="M-21456.326-8828.151a1.826,1.826,0,0,1-1.664,1.661,1.728,1.728,0,0,1-1.844-1.824c.213-.686.43-1.955,3.154-1.793,1.137.228,1.381,1.108,3.189.881.426-.065,1.207.261,1.168.912C-21452.393-8827.925-21453.562-8826.521-21456.326-8828.151Z" transform="translate(21484.857 8855.135)" fill="#f1bc22"/>
      </g>
      <g id="Group_4668" data-name="Group 4668" transform="translate(97.099 19.653)">
        <path id="Path_8422" data-name="Path 8422" d="M-21034.678-8871.88a14.605,14.605,0,0,0-2.115,7.746v10.335s1.176,14.321,17.262,15.262c6.219.233,15.379-3.992,17.141-15.262.117-3.172,0-10.335,0-10.335a13.976,13.976,0,0,0-2.115-7.746c-1.408.47-4.93,1.878-5.982-2.819-.711,3.173-4.348,5.636-6.225-.469-.822,3.17-3.762,6.341-6.107,0-.82,2.935-3.754,6.1-6.342,0C-21029.631-8872.7-21030.334-8869.767-21034.678-8871.88Z" transform="translate(21041.723 8887.687)" fill="none" stroke="#f1bc22" stroke-linecap="round" stroke-linejoin="round" stroke-width="3"/>
        <path id="Path_8423" data-name="Path 8423" d="M-21043.346-8848.777a7.925,7.925,0,0,0-3.41,1.758,4.715,4.715,0,0,0-1.514,3.906c.27,2.887,2.3,4.756,4.924,4.543" transform="translate(21048.279 8872.618)" fill="none" stroke="#f1bc22" stroke-width="3"/>
        <path id="Path_8424" data-name="Path 8424" d="M-21048.281-8848.777a7.472,7.472,0,0,1,3.268,1.758,4.839,4.839,0,0,1,1.445,3.906c-.252,2.887-2.2,4.756-4.713,4.543" transform="translate(21087.965 8872.618)" fill="none" stroke="#f1bc22" stroke-width="3"/>
        <path id="Path_8425" data-name="Path 8425" d="M-21042.738-8879.051s-3.141-23.357,19.434-25.256c5.6-.54,22.668,4.811,20.41,25.256" transform="translate(21045.201 8904.343)" fill="none" stroke="#f1bc22" stroke-width="3"/>
        <g id="Group_4655" data-name="Group 4655" transform="translate(16.682 36.943)">
          <path id="Path_8411" data-name="Path 8411" d="M321.812,268.579a1.3,1.3,0,0,0-1.8-.364,9.486,9.486,0,0,1-6.951,0,1.3,1.3,0,0,0-1.441,2.169,11.588,11.588,0,0,0,9.833,0A1.3,1.3,0,0,0,321.812,268.579Z" transform="translate(-311.034 -267.998)" fill="#f1bc22"/>
        </g>
        <g id="Group_4657" data-name="Group 4657" transform="translate(9.763 23.428)">
          <path id="Path_8412" data-name="Path 8412" d="M274.6,180.517a8.241,8.241,0,0,0-8.469,0,1.3,1.3,0,1,0,1.648,2.016,6.028,6.028,0,0,1,5.173,0,1.3,1.3,0,0,0,1.648-2.016Z" transform="translate(-265.649 -179.346)" fill="#f1bc22"/>
        </g>
        <g id="Group_4659" data-name="Group 4659" transform="translate(12.585 27.432)">
          <ellipse id="Ellipse_176" data-name="Ellipse 176" cx="1.89" cy="1.89" rx="1.89" ry="1.89" fill="#f1bc22"/>
        </g>
        <g id="Group_4661" data-name="Group 4661" transform="translate(25.172 23.428)">
          <path id="Path_8413" data-name="Path 8413" d="M375.675,180.518a8.242,8.242,0,0,0-8.469,0,1.3,1.3,0,0,0,1.648,2.016,6.027,6.027,0,0,1,5.173,0,1.3,1.3,0,0,0,1.648-2.017Z" transform="translate(-366.728 -179.347)" fill="#f1bc22"/>
        </g>
        <g id="Group_4663" data-name="Group 4663" transform="translate(27.995 27.432)">
          <ellipse id="Ellipse_177" data-name="Ellipse 177" cx="1.89" cy="1.89" rx="1.89" ry="1.89" fill="#f1bc22"/>
        </g>
      </g>
    </g>
  </g>
</svg>
