<svg xmlns="http://www.w3.org/2000/svg" width="182" height="182" viewBox="0 0 182 182">
  <g id="Orchids_early_program" transform="translate(-2021 698)">
    <g id="Orchids_early_program-2" data-name="Orchids_early_program" transform="translate(2061.874 -657)">
      <g id="Group_4530" data-name="Group 4530" transform="translate(0.126)">
        <g id="Group_4529" data-name="Group 4529">
          <path id="Path_7141" data-name="Path 7141" d="M96.459,7.408H52.876V2.925a2.925,2.925,0,1,0-5.85,0V7.408H3.585A3.463,3.463,0,0,0,.126,10.867v9.041a3.463,3.463,0,0,0,3.459,3.459H5.359V69.4a8.785,8.785,0,0,0,8.775,8.775H47.026v5.783L38.084,95.083a2.925,2.925,0,1,0,4.56,3.665l7.306-9.091,7.306,9.091a2.925,2.925,0,1,0,4.56-3.665L52.876,83.958V78.174H85.768A8.784,8.784,0,0,0,94.542,69.4V23.367h1.916a3.463,3.463,0,0,0,3.459-3.459V10.867A3.462,3.462,0,0,0,96.459,7.408ZM88.692,69.4a2.928,2.928,0,0,1-2.924,2.924H14.134A2.928,2.928,0,0,1,11.21,69.4V23.367H88.692V69.4Zm5.375-51.883H5.976V13.258H94.068Z" transform="translate(-0.126)" fill="#222439"/>
        </g>
      </g>
      <g id="Group_4532" data-name="Group 4532" transform="translate(19.983 33.731)">
        <g id="Group_4531" data-name="Group 4531">
          <path id="Path_7142" data-name="Path 7142" d="M119.608,193.158l-5.7-18.6a1.966,1.966,0,0,0-1.113-1.174,5.05,5.05,0,0,0-3.993,0,1.965,1.965,0,0,0-1.113,1.174l-5.671,18.6a1.662,1.662,0,0,0-.061.335,1.638,1.638,0,0,0,.991,1.372,4.019,4.019,0,0,0,2.058.579q1.31,0,1.555-.884l1.036-3.811h6.432l1.036,3.811q.244.885,1.555.884a4.022,4.022,0,0,0,2.058-.579,1.35,1.35,0,0,0,.93-1.707Zm-11.036-6.066,2.225-8.17,2.225,8.17Z" transform="translate(-101.957 -172.977)" fill="#222439"/>
        </g>
      </g>
      <g id="Group_4534" data-name="Group 4534" transform="translate(43.61 43.664)">
        <g id="Group_4533" data-name="Group 4533">
          <path id="Path_7143" data-name="Path 7143" d="M237.295,235.791a4.955,4.955,0,0,0-2.347-1.661q2.591-1.127,2.591-4.786,0-5.426-6.1-5.427h-6.249a2.706,2.706,0,0,0-1.463.381,1.207,1.207,0,0,0-.61,1.082v19.389a1.24,1.24,0,0,0,.564,1.006,2.438,2.438,0,0,0,1.509.427h6.768a6.236,6.236,0,0,0,4.466-1.57q1.661-1.57,1.661-4.984v-.64A5.422,5.422,0,0,0,237.295,235.791Zm-9.451-7.728h3.2a1.483,1.483,0,0,1,1.28.64,2.5,2.5,0,0,1,.457,1.494,2.434,2.434,0,0,1-.457,1.479,1.5,1.5,0,0,1-1.28.625h-3.2Zm5.487,11.188q0,2.8-2.439,2.8h-3.048v-6.1h3.049q2.438,0,2.439,2.8v.488Z" transform="translate(-223.119 -223.917)" fill="#222439"/>
        </g>
      </g>
      <g id="Group_4536" data-name="Group 4536" transform="translate(63.001 30.013)">
        <g id="Group_4535" data-name="Group 4535">
          <path id="Path_7144" data-name="Path 7144" d="M336.975,168.225a2.863,2.863,0,0,0-1.86-.472q-2.225,0-2.347,1.433a9.889,9.889,0,0,1-.137,1.006,5.113,5.113,0,0,1-.32.93,1.624,1.624,0,0,1-.808.838,3.236,3.236,0,0,1-1.418.274q-2.774,0-2.774-3.049v-8.079q0-3.048,2.744-3.049,2.621,0,2.713,2.744.092,1.433,2.378,1.433a2.8,2.8,0,0,0,1.829-.473,2.293,2.293,0,0,0,.549-1.783,5.262,5.262,0,0,0-2.149-4.451,8.91,8.91,0,0,0-5.5-1.616,7.843,7.843,0,0,0-5.289,1.738q-2.028,1.737-2.027,5.457v8.079q0,3.721,2.028,5.457a7.843,7.843,0,0,0,5.289,1.738,8.574,8.574,0,0,0,5.5-1.707,5.634,5.634,0,0,0,2.149-4.664A2.3,2.3,0,0,0,336.975,168.225Z" transform="translate(-322.556 -153.911)" fill="#222439"/>
        </g>
      </g>
    </g>
    <rect id="Rectangle_1769" data-name="Rectangle 1769" width="182" height="182" transform="translate(2021 -698)" fill="#fff" opacity="0"/>
  </g>
</svg>
