<svg id="Layer_1" data-name="Layer 1" xmlns="http://www.w3.org/2000/svg" viewBox="0 0 120 70"><defs><style>.cls-1{fill:#f5aa08;}</style></defs><path class="cls-1" d="M29.22,63.84H50.76v3.08H29.22Zm24.62,0H66.16v3.08H53.84Zm15.4,0H90.78v3.08H69.24Zm-40-6.15h3.07v3.07H29.22Zm6.15,0h3.08v3.07H35.37Zm6.16,0h3.08v3.07H41.53Zm6.16,0h3.07v3.07H47.69Zm21.55,0h3.07v3.07H69.24Zm6.15,0h3.08v3.07H75.39Zm6.16,0h3.08v3.07H81.55Zm6.16,0h3.07v3.07H87.71ZM20,51.53h6.16V66.92H20Zm9.24,0H50.76v3.08H29.22Zm40,0H90.78v3.08H69.24Zm24.62,6.16V51.53H100V66.92H93.86ZM29.22,45.37h3.07v3.08H29.22Zm58.49,0h3.07v3.08H87.71ZM53.84,57.69V31.92H66.16V60.76H53.84Zm0-31.93V19.61H66.16v9.23H53.84Zm3.08-15.39h6.16v6.16H56.92ZM58.46,0V7.29H53.84v9.24H50.76V48.45H35.37V42.29H26.14v6.16H20V42.29H16.9V66.92H10.74V70h98.52V66.92H103.1V42.29H100v6.16H93.86V42.29H84.63v6.16H69.24V16.53H66.16V7.29H61.54V0Z"/><rect class="cls-1" x="19.98" y="39.22" width="6.16" height="3.08"/><rect class="cls-1" x="56.92" y="44.24" width="6.16" height="3.08"/><rect class="cls-1" x="93.86" y="39.22" width="6.16" height="3.08"/><rect class="cls-1" x="55.89" y="51.53" width="3.08" height="6.16"/><rect class="cls-1" x="61.03" y="51.53" width="3.08" height="6.16"/><rect class="cls-1" x="55.89" y="35" width="3.08" height="6.16"/><rect class="cls-1" x="61.03" y="35" width="3.08" height="6.16"/><path class="cls-1" d="M60,25.76a1.54,1.54,0,1,0-1.54-1.53A1.53,1.53,0,0,0,60,25.76"/></svg>