<svg id="Layer_1" data-name="Layer 1" xmlns="http://www.w3.org/2000/svg" viewBox="0 0 120 70"><defs><style>.cls-1{fill:#f5aa08;fill-rule:evenodd;}</style></defs><path class="cls-1" d="M69.41,68v.26c0,.1,0-.13,0-.13h.27l.49,0h.17l.22,0h.14v-.18c0-.12,0-.24,0-.34-.31,0-.78,0-1.15,0H69.2c-.17,0,.2.07.2.14V68Zm-.77-.84a.57.57,0,0,1,.23-.33.46.46,0,0,1-.17-.17l-.06-.1a.59.59,0,0,1-.22.33.74.74,0,0,1,.17.18l0,.09Zm2.66-.34.07,0,.08.17v-.31a.44.44,0,0,1-.15.12Zm.21,1.71a.86.86,0,0,0,.1.16l.16.22h.61c.35,0,.52,0,.61-.25.09.24.32.3.57.3h.18c.34,0,.91,0,1.52,0a10.18,10.18,0,0,0,2.48-.09c5.17,0,10.35.08,15.52.08v.23h-38c-.82,0-1.65,0-2.47,0s-1.72,0-2.58,0H26.74v-.23h1.41c.38,0,.56-.14.64-.36l.18.32h3.85l.23,0h.21c.32,0,.54-.07.65-.33l.06.28.31,0c.83.07,2.92.06,4.31.05h1a.87.87,0,0,0,.81-.22.64.64,0,0,0,.08-.14c.08.3.26.31.56.32h0c.47,0,1.58,0,2.48,0h1.33a1.7,1.7,0,0,0,.26,0,.63.63,0,0,0,.64-.35c.12.41.43.39.74.36h0c.58,0,1.81,0,2.75,0h.78l.39,0,.17,0H51l0-.18v.07l.27.06a1.58,1.58,0,0,0,1,0l.37-.08,0-.3c0-.09,0-.16,0-.22a1.92,1.92,0,0,0,0-.22c0-.34-.08-.47-.39-.53a.73.73,0,0,0,.33-.32.66.66,0,0,0,.07-.32c0-.21,0-.34,0-.45,0-.59,0-.91-.33-1.07.28-.13.34-.4.34-1V64c0-.16,0-.36,0-.68,0-.1,0-.2,0-.3s0-.18,0-.18a1.75,1.75,0,0,1,.4,0h.47l.09-.39v0a1.33,1.33,0,0,0,.22.2c-.31.11-.39.45-.39.79,0,.13,0,.26,0,.36v.08c0,.15,0,.27,0,.38v.29c0,.37.07.63.35.73a.69.69,0,0,0-.33.6v.43a2.94,2.94,0,0,0,.05.8c.07.22.16.32.27.35a.77.77,0,0,0-.22.22.68.68,0,0,0-.1.4,2,2,0,0,0,0,.22,1.19,1.19,0,0,0,0,.22h0a.64.64,0,0,0,.35.34.59.59,0,0,0,.35,0,.59.59,0,0,0,.29-.17,1.4,1.4,0,0,0,.12-.18.21.21,0,0,0,.06.1c.14.22.36.3.74.3a.66.66,0,0,0,.47-.17.65.65,0,0,0,.16-.21c.08.32.26.39.58.39h.48c.46,0,.65-.11.74-.34l.07.31h1.6l.13-.19a1.18,1.18,0,0,0,.11-.19l.2.38h.41l.16,0a.87.87,0,0,0,.35,0h0a.44.44,0,0,0,.4,0l.26.09.09-.4.08.12c.19.23.38.22.74.21H63a1.8,1.8,0,0,1,.3,0c.27,0,.27,0,.56-.16l.16-.11a.67.67,0,0,0,.15.14.94.94,0,0,0,.6.15h.65c.44,0,.74-.07.85-.37l0,0,.07.33c.49,0,1-.05,1.52,0H68a.62.62,0,0,0,.63-.31c.11.27.38.33.81.33h.76l.3,0h.18l.3,0a.36.36,0,0,0,.21,0,.6.6,0,0,0,.3-.36ZM67,68v.1h.68a.79.79,0,0,1,.22,0V68c0-.15,0-.26,0-.34H67c0,.11,0,.23,0,.36Zm-.76-.79a.44.44,0,0,1,.06-.16l.09-.2-.05,0,0,0v0l-.31.07a.6.6,0,0,1,.25.33Zm1.68.3c-.05-.07,0,0,0,0v0Zm-3.23.35v.25h.06l.65,0s.07.23.07.13v-.46c0-.07.39-.15.21-.15H64.6c-.07,0,.07,0,.07.22Zm-.73-.72a.68.68,0,0,1,.21-.2l.09-.05-.32-.07a.51.51,0,0,1-.2.14.4.4,0,0,1,.22.18Zm.68,1h0s0,0,0,0ZM60.71,68v.09h.13s0,0,0,0a1.11,1.11,0,0,1,.25,0v-.17a.39.39,0,0,1,0-.13l-.29,0c-.12,0-.12,0-.12.2Zm-.79-.68a.36.36,0,0,1,.29-.28.58.58,0,0,1-.2-.21v0a.6.6,0,0,1-.14.21.79.79,0,0,1-.15.12.6.6,0,0,1,.21.18ZM61.64,67a.33.33,0,0,1,.13.11l.06.08,0-.13.22-.11a.4.4,0,0,1-.15-.1l-.07-.09,0,.21-.17,0Zm-.48.66c-.06-.06,0,0,0,0a.08.08,0,0,0,0,0Zm-6.64-.22h0a1,1,0,0,1,.28.16.4.4,0,0,1,.23-.23l-.11-.09-.08-.09-.1.23-.22,0ZM29,62.89h0l-.17-.26v.3l.16,0Zm.78.74a1.21,1.21,0,0,0-.27,0c0,1.48,0,2.95,0,4.43h3.64v-.73c0-1.13,0-3,0-3.75h-.92c-.31,0-.63,0-.92,0-.51,0-1,0-1.53,0Zm2.28-.87h.33l0-.05a.42.42,0,0,1-.11-.15.86.86,0,0,1-.07.1.81.81,0,0,1-.1.09Zm1.73.13.09,0,0,.12a.57.57,0,0,1,.15-.16Zm21.78,5.26s0,0,0,0h0Zm.44-.88a1,1,0,0,1,.15.14.71.71,0,0,1,.1.14l0-.08.07-.32h0l-.1,0,0-.11a.75.75,0,0,1-.26.27Zm-14.7-.88V68c0,.07-.32.06-.19.06h0c.47,0,1.56,0,2.44,0h1.06a1.31,1.31,0,0,1,.28,0l.14,0h0V63.51H41.29c-.1,0,.1.07.1.14v1.94c0,.14,0,.26,0,.37a2.63,2.63,0,0,0,0,.43ZM40.63,63a.56.56,0,0,1,.14-.2l-.32,0a.69.69,0,0,1,.18.16Zm1.72-.32h.16a.62.62,0,0,1-.12-.19l0,.19Zm3.26.09a.5.5,0,0,1,.14.15v-.31a.45.45,0,0,1-.14.16Zm6.33,5.31H52V68c0-.14,0,0-.09.06Zm-.79-.42a.38.38,0,0,1,.2-.15.64.64,0,0,1-.2-.16v.31Zm7.64.39h.47v-.19s0,0-.09,0l-.28,0-.1,0v.14Zm-.74-.63a.53.53,0,0,1,.12-.14.28.28,0,0,1,.11-.08.6.6,0,0,1-.22-.18.52.52,0,0,1-.32.21,1.62,1.62,0,0,1,.24.14l.07.05Zm-.84.65h.11V68H57c-.09.1-.25.12-.14.12h.37Zm5.75,0h.23v-.32s.26,0,.15,0h-.2c-.15,0-.33,0-.55,0,0,.31,0,.41,0,.44s0-.08.08-.08ZM51.81,66.41v.38h.24v-.4c0-.21.17-.28.09-.3h-.27c-.07,0-.07,0-.07.31Zm-.66-1a.47.47,0,0,1,.19-.07l-.08,0-.11-.11v.23Zm3.41-.13h0a.55.55,0,0,1,.23.2l.07-.31h.05a.35.35,0,0,1-.11-.13l-.06.09a.9.9,0,0,1-.19.15Zm1,.64a2.8,2.8,0,0,0,0,.41c.1-.37.4-.46.2-.46l-.2,0Zm.51-.83a.31.31,0,0,1,.19.21.45.45,0,0,1,.22-.21.6.6,0,0,1-.21-.25,1,1,0,0,1-.18.23l0,0Zm6.51,1.11h.77c.1,0-.13,0-.13,0v-.63h-.63v.66Zm0-.83v0ZM61.85,65a.6.6,0,0,1,.18-.24.46.46,0,0,1-.17-.17.53.53,0,0,1-.21.21h.16l0,.19Zm1.88-.23.25,0v.1l.11-.12.11-.07a.65.65,0,0,1-.21-.16v.14l-.26.06Zm-3,1.08v.44l.39,0c0-.1,0-.22,0-.34v-.31l-.41,0v.22Zm0-.35v0c0-.06,0-.09,0,0ZM60,65.14a.48.48,0,0,1,.2-.25.43.43,0,0,1-.18-.23l-.21.3a.81.81,0,0,1,.19.18Zm9.46.74v.18h1.47c.11,0-.12,0-.12-.06l0-.64H69.16c-.19,0,.24.07.24.15v.37Zm-.76-1a.53.53,0,0,1,.21-.29l-.18-.09,0-.17a.52.52,0,0,1-.06.13.76.76,0,0,1-.14.16l.08.11,0,0a.69.69,0,0,1,.11.13Zm2.63-.26a.39.39,0,0,1,.1.08.27.27,0,0,1,.07.08v-.28a.52.52,0,0,1-.17.12ZM67,66.13H68.1c.17,0-.2-.13-.2-.27v-.45h-.07l-.47,0H67c0,.2,0,.44,0,.65v.06Zm-.75-1.24,0-.12.14-.06a.76.76,0,0,1-.16-.23h0a.58.58,0,0,1-.25.24l.25.18Zm-1.56.92v.31a1.91,1.91,0,0,0,.48,0h.3v-.71h-.82s0,.11,0,.39Zm-5.86.61h.39c.06,0,0,0,.06,0s0,0,0-.09a1.28,1.28,0,0,0,0-.21c0-.17,0-.27,0-.44,0,0,0,0-.07,0a2.43,2.43,0,0,0-.44.06v.48c0,.23-.05.29,0,.32s0-.1.1-.1Zm-.7-1.3A.59.59,0,0,1,58.3,65l-.12-.07a.64.64,0,0,1-.14-.15.52.52,0,0,1-.17.19l-.12.07.36.09ZM39.82,66.8v-.29a5.37,5.37,0,0,1,0-.61c0-.16,0-.32,0-.53V63.55H34.65v4.53c1,0,2.72,0,3.93,0H39.7c.09,0,.11.06.14,0s0-.89,0-1.35Zm-4.23-4.08h.19a.56.56,0,0,1-.1-.15.38.38,0,0,1-.09.15Zm3.26,0h0v0l0,0Zm18.46,3.57c0-.12,0-.27,0-.41v-.09h-.21s-.06-.4-.06-.21v.31c0,.2,0,.41,0,.59l.39,0h0c.08,0-.09,0-.1-.16Zm-.26-2h.25v-1.1a2.19,2.19,0,0,1-.28,0v.66a4.27,4.27,0,0,0,0,.56c.06.13,0-.13,0-.14Zm-.8-1.49,0-.08.07-.3-.06-.09a.47.47,0,0,1-.22.24.7.7,0,0,1,.17.22Zm1.59-.4a.73.73,0,0,1,.16.18l.12-.08.21-.13,0,0a.57.57,0,0,1-.24-.19.46.46,0,0,1-.21.24ZM57.3,63c0-.07,0,0,0,0v0Zm-1.77,1.35s-.1,0-.05,0h.08s0,0,0,0Zm-.71-1.59,0-.21H55a.4.4,0,0,1-.17-.17.84.84,0,0,1-.26.21.37.37,0,0,1,.26.18Zm14.6,0v1.13h.34l.38,0h.61v-.14c0-.3,0-.67,0-1l-.77,0h-.56Zm-.8-.44a.46.46,0,0,1,.21-.29l-.15-.22L68.4,62l.12.18.1.14ZM71.37,62h.08v0l-.08,0Zm-11.44.51a.5.5,0,0,1,.27-.25.44.44,0,0,1-.14-.13l0,0a1.06,1.06,0,0,1-.15.14.9.9,0,0,1-.22.1l.23.14,0,0Zm.79.5,0,0c0,.19,0,.37,0,.56a2.28,2.28,0,0,1,0,.31c0,.23-.35.29-.2.29l.12,0a2.47,2.47,0,0,1,.47-.06V63.5a3.38,3.38,0,0,0,0-.69c0-.1,0,.12-.11.15a1.36,1.36,0,0,1-.27,0Zm.93-.84a.58.58,0,0,1,.18.22.43.43,0,0,1,.19-.25l-.09-.07a.38.38,0,0,1-.09-.13.64.64,0,0,1-.1.13.43.43,0,0,1-.09.1ZM59.26,64.1c0-.32,0-.67,0-1h-.46v.1c0,.16,0,.32,0,.5s0,.29,0,.42-.19,0-.1.11,0-.05.14-.06l.44,0V64.1Zm6.11-1.26c-.23,0-.49,0-.71,0v.43c0,.3-.06.72,0,.75l.46-.06h.12a.83.83,0,0,1,.22,0,.45.45,0,0,0,.16,0s-.1,0-.1,0a5.14,5.14,0,0,1,0-.78v-.23s.46-.09.25-.09Zm.64-.75a.44.44,0,0,1,.18.2.32.32,0,0,1,.17-.22.57.57,0,0,1-.13-.19.56.56,0,0,1-.22.21ZM64,62.24l.06-.13.12,0a.45.45,0,0,1-.18-.18.63.63,0,0,1-.23.2h.2l0,.12Zm-.76.65h-.57c0,.07,0,.12,0,.18a.62.62,0,0,0,0,.15c0,.25,0,.52,0,.76h.58l0-.81s0-.08,0-.1a.82.82,0,0,1,0-.18Zm4.7.5v-.61h0l-.34,0a3.65,3.65,0,0,1-.63,0h-.1c-.2,0,.21,0,.21.09,0,.34,0,.61,0,.81V64h.66c.2,0,.2.14.25.08s0-.23,0-.64ZM56,59.93a.52.52,0,0,1,.24.23.49.49,0,0,1,.25-.24.42.42,0,0,1-.25-.22l-.06.08a.65.65,0,0,1-.18.15Zm-1.23.4.06-.29h0l0-.2a.67.67,0,0,1-.22.25l0,0,.07,0a.85.85,0,0,1,.19.19Zm-12.26-.86.14-.1-.14,0-.12-.25-.13.29-.15,0,.15,0,.08.18v0l.17-.12Zm2.54.63H43.19V61a4.34,4.34,0,0,1,0,.57v0a.25.25,0,0,0,0,.09v.09a.47.47,0,0,1,0,.25h.21l1.3,0a2.37,2.37,0,0,1,.41,0c0-.17,0-.46,0-.89v-1Zm.5-.76a.52.52,0,0,1,.19.14V59.3l-.19,0Zm-.52,2.82v0c0,.07,0,.12,0,0ZM43.12,62h0Zm17.8-.54.18,0v-1.1h-.28s-.11-.15-.11-.07v1.21Zm-1-1.62a.47.47,0,0,1,.26-.26.91.91,0,0,1-.21-.18.74.74,0,0,1-.26.22l0,0a.52.52,0,0,1,.26.19Zm1.7-.37h.2v.13a.5.5,0,0,1,.17-.2.52.52,0,0,1-.18-.18.66.66,0,0,1-.2.24Zm7.75,1v.77l.21,0h1.11c0-.23,0-.57,0-.9s0-.38,0-.51a2.39,2.39,0,0,1-.46,0,2.7,2.7,0,0,0-.76.05l-.13,0v.58Zm-.76-1.09a.38.38,0,0,1,.2-.25.48.48,0,0,1-.2-.2.47.47,0,0,1-.25.23l.09,0a.51.51,0,0,1,.16.17Zm2.67-.38.12.14v-.28a.86.86,0,0,1-.13.14ZM71,61.31s-.05,0-.07,0h0l.06,0ZM64.67,60.1v1.23h.08a4.51,4.51,0,0,1,.64,0h.08v-.2c0-.15,0-.29,0-.44v-.14c0-.43.43-.52.22-.52l-.12,0-.18,0a1.91,1.91,0,0,1-.47,0Zm-.73-.45.07-.08a.76.76,0,0,1,.22-.18.5.5,0,0,1-.28-.24l-.13.27h-.14a.62.62,0,0,1,.26.22Zm2-.41a.38.38,0,0,1,.2.21l.22-.16c-.08,0-.14-.13-.19-.3a.7.7,0,0,1-.23.25Zm.31,2.07h0Zm-12.49-1,.07-.07h-.07v.07Zm-22.3,1.36v-.59a.57.57,0,0,0,0-.14,1.18,1.18,0,0,1,0-.22c0-.11,0-.2,0-.29v-.19h-2c0,.09,0,.2,0,.33a7.59,7.59,0,0,0,0,1.23l0,.32h.37l.75,0h.55c.24,0,.29.1.33,0s0-.14,0-.47Zm-2.68-2.07a1.06,1.06,0,0,1,.24-.12l-.06,0a.65.65,0,0,1-.18-.15v.3ZM32,59.44a.5.5,0,0,1,.3.23.52.52,0,0,1,.23-.21l0,0a.37.37,0,0,1-.25-.25.76.76,0,0,1-.18.18.35.35,0,0,1-.12.07ZM57,60.68v1.06l.19,0c.05,0,.08,0,.08,0V60.48s0,.15,0,.16l-.22,0Zm.8-.83A.53.53,0,0,1,58,60a.67.67,0,0,1,.26-.24l-.16-.23a.51.51,0,0,1-.26.3Zm1.4,1.28c0-.07,0-.17,0-.3s0-.1,0-.18,0-.12,0-.2h-.11c-.17,0-.39-.25-.39-.13v1.31l.18,0,.29,0a.92.92,0,0,1,0-.16.93.93,0,0,0,0-.29Zm3.73.28c.13,0,.25.21.26.13a1.57,1.57,0,0,1,0-.44v-.41l0-.53a1,1,0,0,0-.19,0,2.33,2.33,0,0,1-.41,0V61.4Zm-30,.65h1.89a1.55,1.55,0,0,1,0-.21c0-.09,0-.29,0-.52s0-.82,0-1v-.15H33v1.88Zm2.37-2.65a.45.45,0,0,1,.3.22.68.68,0,0,1,.26-.19.52.52,0,0,1-.19-.14h0l-.14-.09-.09.11-.13.1Zm6,2.59.23,0c0-.11,0-.22,0-.34a3.22,3.22,0,0,1,0-.62c0-.14,0-.46,0-.73v-.11c-.39,0-1,0-1.52,0H39.7v1.87a2.93,2.93,0,0,0,.67,0l.51,0a1.47,1.47,0,0,1,.33,0,.38.38,0,0,0,.19,0ZM39,59.6l.15-.08a1.24,1.24,0,0,1,.2-.1.43.43,0,0,1-.12-.05.61.61,0,0,1-.22-.2.48.48,0,0,1-.35.26l.32.07,0,.1Zm-.9.58h-.17l-.54,0a4.54,4.54,0,0,1-.91,0v.09a.72.72,0,0,1,0,.17s0,.07,0,.14l0,1.47h1.75V62c0-.3,0-.88,0-1.36,0-.17,0-.32,0-.45h-.16Zm29.78,1.14h0V60.4c0-.15,0-.29,0-.41s.2,0,.11-.06a4.15,4.15,0,0,0-.47,0H67c0,.34,0,.65,0,.9v.5l.46,0Zm-.85.22v0Zm0,0v0s0,0,0,0Zm0,0v-.08s0,.07,0,.08Zm-12.1-3.88a.39.39,0,0,1,.08-.1h-.1s0,0,0,.09Zm1.09-.2a.51.51,0,0,1,.24.18l0,0,0-.26.2-.09a.43.43,0,0,1-.23-.23.61.61,0,0,1-.28.33l0,0Zm-12.81,1v.22a.48.48,0,0,1,.18,0h1.74c0-.34,0-.74,0-1.06a5,5,0,0,0,0-.94c0-.1,0,.11-.13.12l-.52,0-.71,0h-.07a.73.73,0,0,1-.28,0h-.13s0-.18-.06-.1,0,1.14,0,1.69Zm-.73-2.05v0a.68.68,0,0,1,.26-.27l-.09,0-.18-.09,0-.06v.06l-.27.13.1.07a.69.69,0,0,1,.2.23ZM45.6,56a.57.57,0,0,1,.16.18v-.26l0,0-.14,0Zm21.45,2.47.84,0v-.06c0-.08,0-.16,0-.27v-.95l-.39.07a2.46,2.46,0,0,1-.51,0v1.15Zm-.84-1.7a.43.43,0,0,1,.2-.22.43.43,0,0,1-.2-.2.47.47,0,0,1-.25.23h0a.76.76,0,0,1,.23.18Zm2.21-.23.27.17a.49.49,0,0,1,.18-.28l0,0a.61.61,0,0,1-.21-.28.51.51,0,0,1-.26.41Zm1,1.82v.07h.06a4.27,4.27,0,0,1,.8,0h.47V58c0-.3,0-.65,0-.93h-.34l-.74,0h-.24c-.08,0-.05-.07-.1,0s.06.76.08,1.25Zm2-2.06h0v0l0,0ZM29.53,58.63v.1a8.76,8.76,0,0,1,1.06,0h1c.07-.05-.07,0-.08,0a1.52,1.52,0,0,1,0-.32v-.09a.56.56,0,0,0,0-.12,6.8,6.8,0,0,1,0-1V56.8H29.92l-.34,0h-.07V58.4a.81.81,0,0,1,0,.2v0Zm-.7-2.55,0-.06H29l-.14-.14,0,0v.23Zm3.15,0a.4.4,0,0,1,.26.28.56.56,0,0,1,.11-.17.66.66,0,0,1,.16-.11.67.67,0,0,1-.31-.29l-.06.26-.16,0Zm25,3v.11l.28,0s0-.12,0-.42,0-.33,0-.54V58H57c0,.28,0,.69,0,1Zm.75-1.81a.47.47,0,0,1,.26.15.37.37,0,0,1,.16-.21L58.06,57a.71.71,0,0,1-.29.25Zm1.46,1.61,0-.76a.78.78,0,0,0,0-.09h0a.7.7,0,0,1,0-.16c-.44,0-.44.08-.44.3v0c0,.17,0,.29,0,.4a2.64,2.64,0,0,0,0,.28V59l.2,0a1.28,1.28,0,0,1,.27,0v-.09ZM59.64,57l.33.09,0,.09a.79.79,0,0,1,.23-.22A.4.4,0,0,1,60,56.8l-.15.1a1.19,1.19,0,0,1-.22.12Zm-.34.48s0,0,0,0h0l0,0Zm2.31-.65.13.1a.76.76,0,0,1,.11.14l.1-.18.07-.1a.41.41,0,0,1-.17-.21.72.72,0,0,1-.24.25Zm-.51,2V57.66h-.4a1,1,0,0,1,0,.19v.25c0,.26,0,.62,0,.78h0a2.62,2.62,0,0,0,.4,0Zm2.1-.66a1.27,1.27,0,0,1,0-.22c0-.09,0-.19,0-.3s.17-.15.15-.18l-.75.05a1.56,1.56,0,0,1,0,.36,1.42,1.42,0,0,1,0,.24,1,1,0,0,0,0,.19s0,0,0,0a.66.66,0,0,1,0,.26v.09l.57,0a.86.86,0,0,1,0-.17l0-.26v0Zm.52-1.45a.5.5,0,0,1,.14.1l.19-.13.14-.11a.7.7,0,0,1-.19-.16l0,0a.45.45,0,0,1-.25.34Zm1.75,1.88,0-1.12a1.49,1.49,0,0,1,0-.21h-.11l-.69,0v0c0,.37,0,1,0,1.27h.2a2.92,2.92,0,0,0,.61,0ZM38.92,56.26v0a.55.55,0,0,1,.31-.29L39,55.88l-.09-.06a.54.54,0,0,1-.15.15l-.09.06h.12l.11.23Zm-.72,2a12.65,12.65,0,0,0,0-1.37l-1.29-.06a3.48,3.48,0,0,1-.55,0v1.86h1c.37,0,.62,0,.78,0v-.45Zm.1.44h0Zm-2.71-2.4a.4.4,0,0,1,.26-.23,1.06,1.06,0,0,1-.19-.16l0-.06a.42.42,0,0,1-.24.25l.2.1,0,.1Zm6,2.29,0-.38v-.32a2.11,2.11,0,0,0,0-.26,2.78,2.78,0,0,1,0-.5V56.8H40.58l-.33,0-.18,0h-.3s-.07-.24-.07-.13v2h.4c.49,0,1.15,0,1.54,0v-.11Zm0-1.8h0s.05,0,0,0Zm-7.26.07H33.27a1.05,1.05,0,0,1-.32,0h0A.35.35,0,0,1,33,57,10.3,10.3,0,0,0,33,58.2a2.25,2.25,0,0,1,0,.45h1.81v-.22c0-.51,0-1.24,0-1.65h-.07l-.34,0Zm-1.51,0v0Zm0,0a0,0,0,0,0,0,0v0Zm0,0v0ZM57,55.36v1.15l.16,0h.13v-.35c0-.27,0-.55,0-.79Zm.67-.79.32.07v0a.48.48,0,0,1,.2-.17.36.36,0,0,1-.16-.14l-.12.08-.24.14Zm3,1.61h.41V55.5a3.77,3.77,0,0,0,0-.63c0-.12,0,.14-.09.15l-.17,0c-.06,0-.13-.36-.13-.17s0,.63,0,.89v.42Zm0,.16c0,.09,0,0,0-.05v.05ZM60,54.53a.53.53,0,0,1,.24-.2L60,54.27l0-.08a1.08,1.08,0,0,1-.25.17.5.5,0,0,1,.28.17Zm1.7-.32a.45.45,0,0,1,.15.18l0-.16.23-.11A.56.56,0,0,1,61.9,54l0-.08a.7.7,0,0,1-.15.3l0,0Zm3,.54v1.07a1.23,1.23,0,0,1,.29,0h.45s0,.38,0,.2v-.36c0-.31,0-.68,0-1h-.4c-.22,0-.39,0-.39.06Zm-.73-.49a.91.91,0,0,1,.18-.21.36.36,0,0,1-.15-.17l-.28.18a.58.58,0,0,1,.25.2ZM66,53.94l.14,0,0,.16.05-.24.12,0a.68.68,0,0,1-.16-.26,1.1,1.1,0,0,1-.13.23l-.06.1Zm-36.52-.68v2h.62l1.3,0c0-.44,0-1.18,0-1.71v-.27H29.59s-.08-.07-.08,0Zm-.68-.54a.49.49,0,0,1,.21-.16.46.46,0,0,1-.21-.18v.34ZM32,52.54l.11.15a.69.69,0,0,1,.11.13l.25-.22.09,0-.14-.08a.56.56,0,0,1-.18-.25.83.83,0,0,1-.07.13.46.46,0,0,1-.17.17ZM44.7,55.2h.38c0-.41,0-1.35,0-1.87v-.1H43.19s0-.14,0-.08v.48c0,.51,0,1.23,0,1.64h.23l.65,0a3.74,3.74,0,0,1,.67,0Zm-2.28-2.52a.54.54,0,0,1,.24-.21.45.45,0,0,1-.24-.21.47.47,0,0,1-.23.23l.06,0,.17.08v.06Zm3.2-.22.14.11V52.3a.56.56,0,0,1-.14.16Zm-10.78.86H33v.14c0,.6,0,1.35,0,1.83h.11l.47,0,.31,0,.28,0h.7v-2Zm.64-.83h0l.07.32v0a.77.77,0,0,1,.19-.23l.09-.06a.53.53,0,0,1-.26-.25l0,.15-.09,0ZM59,56.37a.88.88,0,0,0,.23-.07v-.69a2.81,2.81,0,0,1,0-.45.61.61,0,0,0,0-.18c0-.1,0,.16-.35.19s-.18.12-.17.64v.59a1,1,0,0,0,.24,0ZM70,54.5h-.6v.38c0,.22,0,.49,0,.7,0,0-.37,0-.24.05H70.3a1.17,1.17,0,0,0,.23,0l.2,0h0l0-1.14-.17,0a3.46,3.46,0,0,1-.59.06Zm1.33-.83a.53.53,0,0,1,.14.12v-.26l-.06.06-.08.08Zm-2.66.38.11-.17.09-.14a.67.67,0,0,1-.15-.14v.15l-.28.06a.53.53,0,0,1,.23.24ZM63.1,56c.09,0,.12,0,.12-.47a2.3,2.3,0,0,0,0-.28,2.61,2.61,0,0,1,0-.4l-.52,0h-.07V56a5.07,5.07,0,0,1,.52,0ZM67,55.63v.11l.69,0h.23c0-.18,0-.39,0-.58v-.3s0-.09,0-.16v-.1h-.11a2.59,2.59,0,0,0-.59.06.86.86,0,0,1-.22,0v.41a1.93,1.93,0,0,0,0,.25c0,.09,0,.22,0,.33ZM38.64,52.44a.69.69,0,0,1,.2.13,1.13,1.13,0,0,1,.1.13.44.44,0,0,1,.3-.24.57.57,0,0,1-.27-.21l-.16.1-.17.09Zm-.43,2.84V53.22l-.13,0a2.77,2.77,0,0,1-.48,0h-.83a4.5,4.5,0,0,0-.49,0c-.09.06.08,0,.09,0v1.56c0,.12,0,.24,0,.36a.08.08,0,0,1,0,.05ZM70.48,53a.79.79,0,0,1,.26,0l0-1.19h-.37a2.6,2.6,0,0,0-.4,0,3.75,3.75,0,0,1-.57,0V53h.14a4.26,4.26,0,0,0,.92-.06Zm-1.87-1.59a.46.46,0,0,1,.23-.36,1.36,1.36,0,0,1-.12-.12l-.06-.11v0a.68.68,0,0,1-.21.32.71.71,0,0,1,.17.24Zm2.7-.42a.37.37,0,0,1,.14.14v-.31a.85.85,0,0,1-.14.17Zm-3.68,2.14h.27l0-1.2h0a5.11,5.11,0,0,0-.64,0l-.2,0,0,1.2.25,0h.41Zm-1.41-1.65,0-.14.1,0-.07-.15v0l-.31.07a.58.58,0,0,1,.25.24Zm-24.6,2.22v-.41h-2c-.13,0,.12,0,.12,0v1.54c0,.19,0,.32,0,.41h1.73l.22,0c0-.39,0-1.13,0-1.61Zm20.23-2a.41.41,0,0,1,.17-.21.64.64,0,0,1-.17-.25.67.67,0,0,1-.27.26.54.54,0,0,1,.27.2Zm1.2.48a3,3,0,0,1-.46.07v.05c0,.11,0,.22,0,.32a7.44,7.44,0,0,1,0,.8c0,.09-.08,0,0,.1s0-.11.25-.12l.19,0h.17c0-.37,0-.83,0-1.22l-.13,0Zm.24,0h0Zm.41-.74a.48.48,0,0,1,.2.2.56.56,0,0,1,.24-.24L64,51a.57.57,0,0,1-.14.24l-.11.08Zm-2.77.88h-.25s0,.12,0,.22a2.06,2.06,0,0,1,0,.43,1.54,1.54,0,0,0,0,.46,1.12,1.12,0,0,1,0,.2h0l.26,0a.34.34,0,0,1,.14,0s0,.05,0,0,0-.74,0-1.23v-.12Zm-1-.4a.57.57,0,0,1,.08-.13l.15-.14h0a2,2,0,0,0-.18-.29.5.5,0,0,1-.31.37.58.58,0,0,1,.27.19Zm-1,.61h-.16v.18c0,.09,0,.14,0,.2a1.17,1.17,0,0,0,0,.38,4.68,4.68,0,0,1,0,.59v.13c0,.18,0-.23,0-.23l.2,0,.22,0v-.08a4.36,4.36,0,0,1,0-.55l0-.17a.2.2,0,0,0,0-.09h0a.65.65,0,0,1,0-.17v-.16l-.28,0Zm.37,1.18h0Zm-.58-1.41,0,0h0s-.05-.12,0-.06Zm-.62-.4,0,0h-.08s0,0,0,0ZM33,49.91v1.9h0c.48,0,1.38,0,1.8,0,0-.41,0-1.14,0-1.66v-.26Zm-.78-.44a.57.57,0,0,1,.29-.3l-.12-.09L32.21,49a.42.42,0,0,1-.2.23.49.49,0,0,1,.21.29Zm3.27-.39.07.28a.36.36,0,0,1,.07.1l.1-.14.12-.18a.7.7,0,0,1-.18-.2l-.05-.1v0a.72.72,0,0,1-.12.21Zm-6,2.4v.31h1.92v-2c0-.1,0,.12-.06.12h-.78a1.84,1.84,0,0,0-.28,0,1.81,1.81,0,0,1-.47.05h-.33c0,.37,0,1,0,1.49Zm-.68-2.14.17-.07L28.82,49v.3Zm14.33.51v2c0,.08,0-.09,0-.09h.53l.28,0,.28,0,.84,0c0-.31,0-1.25,0-1.76v-.14H43.15v0Zm-.72-.54a.67.67,0,0,1,.19-.22l-.09,0-.1-.21a.39.39,0,0,1-.24.26l.07.07.17.12Zm3.13-.22.09.07.12.13v-.38a.6.6,0,0,1-.21.18ZM65.08,53.2h.38V53a3.77,3.77,0,0,1,0-.6c0-.07,0-.12,0-.17a.15.15,0,0,0,0-.07v0a.84.84,0,0,1,0-.19h-.34c-.21,0-.45-.24-.45-.13v.83c0,.26,0,.46,0,.59h0a2,2,0,0,1,.34,0Zm-.4.23c0,.1,0,0,0,0v0Zm-25-1.88v.34c0,.15.07-.17.14-.17h1.78v0a3.47,3.47,0,0,1,0-.38h0a1.11,1.11,0,0,0,0-.19c0-.31,0-.61,0-.9l0-.4H39.84l-.15,0c0,.2,0,1.15,0,1.69ZM39,49.45v0a.73.73,0,0,1,.22-.24.54.54,0,0,1-.27-.25l-.09.1a.81.81,0,0,1-.14.12.49.49,0,0,1,.27.29Zm21.74.64v.67h.13a1.06,1.06,0,0,0,.26,0v-.25c0-.3,0-.67,0-1l-.29,0c-.13,0-.13,0-.12.53Zm.92-1.34.2,0,0,.11a.48.48,0,0,1,.13-.16l.09-.07a.55.55,0,0,1-.18-.24l0,.1-.09.18-.14,0Zm-1.56,2.58h0ZM67,50.2v.21h.15l.52,0h.21s0,.26,0,.13a4,4,0,0,0,0-.75v-.6H67v.46a1.85,1.85,0,0,0,0,.24c0,.1,0,.23,0,.35Zm-.76-1.51,0-.18.15-.08a.4.4,0,0,1-.17-.15.31.31,0,0,1-.18.19.69.69,0,0,1,.16.22Zm2.22-.29.18.25a.46.46,0,0,1,.24-.3.54.54,0,0,1-.22-.2l-.06.1a1,1,0,0,1-.14.15Zm1,.69v1.18h0c.13,0,.23,0,.34,0a1.85,1.85,0,0,0,.4,0,3.1,3.1,0,0,1,.56,0V48.87c0-.17-.06.22-.13.22s-.38,0-.49,0h-.07a1.89,1.89,0,0,1-.36,0h-.27Zm1.83-.72a.6.6,0,0,1,.2.14v-.3l-.13.12-.07,0Zm-.51,2v0c0,.06,0,.1,0,0ZM37.11,51.79a5,5,0,0,0,1.06-.06c0-.61,0-1.17,0-1.78l-1,0-.81,0v1.9h.05a5,5,0,0,1,.69,0Zm26.08-1.93c0-.15,0-.28,0-.36a1.39,1.39,0,0,1,0-.3.38.38,0,0,1,0-.08c0-.09-.1.15-.62.26l0,1.26.2,0h.28c.11,0,.15.08.18,0l-.05-.8Zm.5-1.31a.45.45,0,0,1,.26.19,1.46,1.46,0,0,0,.17-.24.49.49,0,0,1-.19-.1.47.47,0,0,1-.24.15Zm1.79.64a4.46,4.46,0,0,1-.82.09v1.18h.78v-1c0-.06,0-.14,0-.24s.37-.08.2-.08l-.19,0Zm-36-2.58v1.85H30l.26,0,.41,0c.27,0,.54,0,.81,0V46.61H29.51ZM28.82,46a.67.67,0,0,1,.25-.16.37.37,0,0,1-.14-.07l-.11-.08V46ZM32,45.81l.09.13h0a.55.55,0,0,1,.13.17.53.53,0,0,1,.23-.35.74.74,0,0,1-.13-.12l-.06-.07v.17l-.27.06Zm7.86,2.53h1.82V48c0-.49,0-1.16,0-1.56l-.41,0c-.24,0-.5,0-.75,0h-.84v1.87a.52.52,0,0,1,.18,0ZM38.94,46,39,46a.57.57,0,0,1,.26-.2l-.11-.07a.8.8,0,0,1-.18-.19.69.69,0,0,1-.39.29.55.55,0,0,1,.25.09.83.83,0,0,1,.12.16Zm.71.42v0Zm0,0h0s0,0,0,0Zm2.53-.8.21.1,0,.17a.52.52,0,0,1,.17-.19l.06,0a.58.58,0,0,1-.26-.29.4.4,0,0,1-.22.24Zm1,.76V48c0,.1,0,.22,0,.32.32,0,.82,0,1.21,0h.45a.37.37,0,0,1,.2,0h0v-1.9Zm2.41-.72.13.1.08.09c0-.13,0-.27,0-.4a.7.7,0,0,1-.21.21ZM67,46.42v1.25h0l.67,0c.18,0,.18.14.23.08s0-.23,0-.68v-.67ZM66.22,46a.54.54,0,0,1,.07-.13.58.58,0,0,1,.13-.14.51.51,0,0,1-.2-.27.63.63,0,0,1-.12.18l-.08.12a.45.45,0,0,1,.2.24Zm2.21-.28a1.07,1.07,0,0,1,.22.27.55.55,0,0,1,.21-.3l-.18-.08,0-.13a.52.52,0,0,1-.22.24Zm-5.85,1.85c0,.2-.36.39-.21.4a.86.86,0,0,1,.38-.08l.3,0h0c.13,0,.13,0,.13-.45v-.55c0-.14.23-.1.12-.15a4.41,4.41,0,0,0-.51,0l-.23,0v.34c0,.12,0,.27,0,.46Zm1.05-1.64,0,0a.77.77,0,0,1,.2.13.45.45,0,0,1,.29-.24l-.16,0L64,45.64a.93.93,0,0,1-.27.24l0,0Zm7.11.51H69.16c-.19,0,.24,0,.24.1s0,.24,0,.34v.21c0,.21,0,.37,0,.5s-.24,0-.13.07a4.61,4.61,0,0,0,.71,0h.76V46.42Zm.52-.73.06,0a.49.49,0,0,1,.13.12V45.6l-.19.09ZM38.21,48.42v-1a1.69,1.69,0,0,0,0-.25,2.46,2.46,0,0,1,0-.26,1.16,1.16,0,0,1,0-.17c0-.13.1-.28.07-.31s-.84.06-1.25.07h-.63v1.89Zm-2.6-2.33a.94.94,0,0,1,.12-.18l.08-.11a.32.32,0,0,1-.2-.19.4.4,0,0,1-.1.12l.06.26,0,.1Zm-.77,2.33V46.53H33s0,0,0-.09v0a5.09,5.09,0,0,0,0,.87c0,.32,0,.72,0,1.15Zm-1.85-2v0c0-.08,0,0,0,0Zm32.47.79v-.72l-.28.05a2.61,2.61,0,0,1-.39,0h-.12a1,1,0,0,1,0,.17v.63a.51.51,0,0,1,0,.18c0,.15-.28.17-.15.18h.37l.51,0c.08,0,.08,0,.07-.48Zm-35.95-4v1.84h.3c.5,0,1.19,0,1.62,0V43.21Zm-.69-.6a.48.48,0,0,1,.11-.09.55.55,0,0,1,.15-.08h0a.78.78,0,0,1-.24-.16v.34Zm3.08-.2a.42.42,0,0,1,.31.29.51.51,0,0,1,.23-.29l0,0a.05.05,0,0,0,0,0l-.31-.08a.79.79,0,0,1-.15.12ZM33,44v1.06h1.66l.2,0h0V43.09h-.1a11.15,11.15,0,0,0-1.45.07l-.34,0c0,.15,0,.41,0,.81Zm2.44-1.64a.41.41,0,0,1,.16.16.55.55,0,0,1,.08.15.68.68,0,0,1,.2-.24h0l-.08-.13-.06-.08a.61.61,0,0,1-.1-.14l0,.1a1.08,1.08,0,0,1-.17.19Zm34,1.37v1.21h1.33c0-.31,0-.74,0-1.08v-.13Zm-.76-.54a.49.49,0,0,1,.17-.18h0a.45.45,0,0,1-.22-.25.66.66,0,0,1-.25.2.4.4,0,0,1,.27.24Zm2.63-.2,0,0,.12.11v-.29a.61.61,0,0,1-.16.16ZM71,45s-.05,0-.07,0h0L71,45Zm-1.82,0h0Zm-26-1.89v1.86c.61,0,1.34,0,1.93,0,0-.3,0-1.24,0-1.77v-.12H43.15v0Zm-.74-.44a.83.83,0,0,1,.07-.13.61.61,0,0,1,.19-.17.4.4,0,0,1-.22-.22v.19l-.27.06a.56.56,0,0,1,.23.27Zm3.18-.32a.4.4,0,0,1,.12.1l.06.07v-.4l-.1.12-.08.11ZM45.08,45h0s0,0,0,0Zm20.25,0h.13v-1.1h-.78v1.14a3.26,3.26,0,0,0,.54,0ZM64,43.32l.12-.08h-.07s0-.06,0,0a.2.2,0,0,0,0,.11Zm2-.18.29.07.1-.11-.16-.28a.62.62,0,0,1-.23.32ZM37.92,45c.15,0,.29.23.29.13v-.06a.73.73,0,0,1,0-.28c0-.45,0-.9,0-1.36v-.34h-.9c-.4,0-.78,0-.94,0V45h1.55Zm.74-2.65a.58.58,0,0,1,.29.29.57.57,0,0,1,.31-.28.48.48,0,0,1-.31-.27.53.53,0,0,1-.29.26ZM67.88,45v-1.2h-.37a1.51,1.51,0,0,0-.37,0H67v.27c0,.15,0,.33,0,.49s0,.32,0,.44l.8,0Zm-.95-1.24s0,0,0,0,0-.08,0,0Zm-25.27.91v-.14a1.09,1.09,0,0,0,0-.18,6.57,6.57,0,0,1,0-.89,2.63,2.63,0,0,0,0-.38c0-.05,0,.08,0,.08a3.89,3.89,0,0,1-.69,0l-1,0c-.15,0-.26-.15-.26-.08v2h.07a16.9,16.9,0,0,0,2-.08c.06,0-.07-.1-.07-.31ZM67,41.56v.7h.41a3.91,3.91,0,0,0,.49,0c0-.44,0-.9,0-1.34h0a3.88,3.88,0,0,1-.9,0v.63Zm0-.76v0Zm-.69-.45.06-.08h-.06v.08Zm.69.5c0-.06,0-.12,0-.05v.05Zm1.47-.64a.6.6,0,0,1,.19.22.53.53,0,0,1,.18-.28.54.54,0,0,1-.17-.26,1.45,1.45,0,0,1-.12.19l-.08.13Zm.78.68c-.11,0,.16,0,.16.34v.1a2.17,2.17,0,0,0,0,.26,2.33,2.33,0,0,1,0,.52v.11h1.35V42c0-.35,0-.79,0-1.09a1.26,1.26,0,0,1-.28,0h-.14l-.71,0-.28,0Zm2.09-.7.14.07v-.1l-.14,0Zm-1.89-2v1.25h.14c.38,0,.86,0,1.19,0,0-.28,0-.69,0-1v-.22l-1.33,0Zm-.74-.56,0,0a.69.69,0,0,1,.11-.13c-.07,0-.09,0-.11,0a.65.65,0,0,0,0,.17Zm2.62-.18a.5.5,0,0,1,.15.14v-.17l-.15,0ZM41.64,41.58c0-.65,0-1.34,0-2-.39,0-1,0-1.52,0h-.4v2h.67c.42,0,.92,0,1.27,0v0ZM39,39.08a.74.74,0,0,1,.23-.2l.1-.05a.42.42,0,0,1-.18-.11.55.55,0,0,1-.14-.17.57.57,0,0,1-.3.29l.12.07a.55.55,0,0,1,.17.17Zm3.18-.25.15,0,.09.19.17-.12a.76.76,0,0,1,.19-.12l-.1-.06a.69.69,0,0,1-.22-.23v0a.59.59,0,0,1-.28.28Zm2.57,2.69.37,0c0-.61,0-1.35,0-1.94H43.15v1.61c0,.29-.3.34-.18.34h.08l.31,0Zm.88-2.7a.5.5,0,0,1,.19.11v-.26a.4.4,0,0,1-.19.15ZM32.22,39l.05,0,.17-.11a.55.55,0,0,1-.29-.27.62.62,0,0,1-.28.25.46.46,0,0,1,.29.21l.06-.05Zm1.65.62h-1c0,.11,0,.23,0,.37v.41c0,.39,0,.92,0,1.3l.2,0,.18,0,.48,0h1c.12,0,.06.21.12.11v-.48c0-.2,0-.45,0-.76a1.3,1.3,0,0,0,0-.23,1.76,1.76,0,0,1,0-.27c0-.15,0-.27,0-.37h.13a5.88,5.88,0,0,0-1.06,0Zm1.31-.76a.71.71,0,0,1,.36.21l.14-.1a.67.67,0,0,1,.18-.11l-.14-.1-.17-.12,0,.08-.18.09a.58.58,0,0,1-.17,0Zm-.28.79H35s0,0-.05,0Zm3.31,0H36.32a.28.28,0,0,1,0,.15,1.25,1.25,0,0,0,0,.19,2,2,0,0,1,0,.37V41.6c.38,0,.8,0,1.19,0h.56c.06,0,.09,0,.09,0v-2Zm-8.66,2.06,1.31,0,.17,0a1.2,1.2,0,0,1,.38,0h0c0-.23-.05-1-.06-1.47v-.26c0-.1,0-.21,0-.31v0H29.51v2.06ZM28.82,39l.11-.09a.56.56,0,0,1,.17-.09.9.9,0,0,1-.28-.16V39Zm14.33-2.91v2c.64,0,1.28,0,1.92,0v-2H43.15v0Zm-.77-.42a.55.55,0,0,1,.08-.15.81.81,0,0,1,.16-.16.44.44,0,0,1-.22-.31l-.12.26-.15,0a.68.68,0,0,1,.25.32Zm.75.33Zm2.53-.58,0,0,.09.1v-.19c0-.06,0,.06,0,.06Zm-2.57,2.65Zm-9.87-1.86-.36,0c-.06,0,.06,0,.06,0,0,.55,0,1.35,0,1.86h.29c.49,0,1.22,0,1.59,0,0-.41,0-1.14,0-1.66v-.22h-.22c-.3,0-.45,0-.59,0l-.56,0Zm2.05-.82a.41.41,0,0,1,.29.22l.09-.06,0,0,.16-.12a.67.67,0,0,1-.2-.12l-.11-.08a.51.51,0,0,1-.26.19Zm-3.13.25a.38.38,0,0,1,.28-.24.4.4,0,0,1-.26-.28.45.45,0,0,1-.07.21.55.55,0,0,1-.23.1.54.54,0,0,1,.28.21Zm7.56,2.43h1.93l0-1.18a3.35,3.35,0,0,0,0-.44,1.54,1.54,0,0,0,0-.38H40.35c-.25,0-.45,0-.61,0s0-.25,0-.13v2.1Zm-.8-2.44a.41.41,0,0,1,.25-.31.44.44,0,0,1-.19-.17l-.09.2-.19,0a.6.6,0,0,1,.2.19l0,0Zm-7.51.56H29.53a11.32,11.32,0,0,1,0,1.43c0,.14,0,.28,0,.39s-.25,0-.13,0a4.9,4.9,0,0,0,1,0h1V36.19Zm-2.55-.61.08-.07h0c-.05,0-.06-.22-.08-.12v.19Zm9.34.57H36.32c0,.07,0,.15,0,.25V37a4.37,4.37,0,0,1,0,.53.61.61,0,0,0,0,.14l0,.37H38.2v-.13a1.64,1.64,0,0,1,0-.22l0-.19a8.37,8.37,0,0,0,0-1.22.84.84,0,0,1,0-.16ZM32.49,32h0a1,1,0,0,1-.23-.1v.16l.19-.05Zm1.69.77c-.38,0-.86,0-1.2,0,0,.22,0,.46,0,.69V34a.88.88,0,0,1,0,.22h0a1,1,0,0,1,0,.2c0,.08,0,.15,0,.22.6,0,1.2,0,1.81,0V32.81h-.62ZM35.27,32a.46.46,0,0,1,.28.21.46.46,0,0,1,.16-.15l.15-.08-.09,0a.71.71,0,0,1-.22-.24.8.8,0,0,1-.13.19l-.15.11ZM33,34.25h0Zm7.93-1.44H39.69v1c0,.1,0,.29,0,.44v.25c0,.05,0,.07,0,.07h.45c.47,0,1.12,0,1.5,0v-.1l0-1.49a1.15,1.15,0,0,1,0-.19ZM42.17,32l.19.09V32a.67.67,0,0,1-.19.09ZM39,32.16a.44.44,0,0,1,.24-.14.53.53,0,0,1-.29-.24.45.45,0,0,1-.26.25l.12,0,.19.09Zm-2.33.61h-.38c0,.47,0,.92,0,1.39,0,.19,0,.32,0,.45h.32c.51,0,1.22,0,1.64,0,0-.38,0-1.23,0-1.76v-.08c-.37,0-1.08,0-1.55,0ZM32.31,28.3l.1-.07h-.13v.08l0,0Zm.78.6H33v0c0,.11,0,.23,0,.38v2c.37,0,1.11,0,1.58,0h.22V28.9Zm2.32-.67a.61.61,0,0,1,.15.17l.08-.17Zm6.25,2.92v-2a1.41,1.41,0,0,1,0-.21H40.05l-.17,0-.15,0h0c0,.47,0,1.4,0,2v.54c0,.18,0-.22,0-.22h1.21l.42,0a1.62,1.62,0,0,0,.31,0v-.14ZM39,28.36l0-.08.09-.05h-.24a.4.4,0,0,1,.13.13Zm3.36-.13.06.05v0s.39,0,.21,0Zm-4.1,2.61v-.67l0-1a1.93,1.93,0,0,1,0-.25H36.94l-.47,0H36.3v.22c0,.12,0,.24,0,.4a2.11,2.11,0,0,1,0,.3,1.12,1.12,0,0,0,0,.2v.55c0,.08,0,.2,0,.32s-.09.33-.05.35.55,0,.82,0h.1l.82,0h.25v-.4Zm0,.55v0c0,.05,0,.09,0,0ZM72.28,68v.09h.1c.09,0,0,0-.1-.09Zm-.71-40.39.05-.05a.55.55,0,0,1,.28-.15.7.7,0,0,1-.27-.2l-.06-.08v.48Zm1.28.06a.69.69,0,0,1,.11.13.47.47,0,0,1,.06-.15l-.17,0ZM51.27,31a.52.52,0,0,1-.11-.1V31c0,.3,0,1,0,1.58v.68L51.41,32a1.2,1.2,0,0,1,.12-.29l0-.08c0-.07.06-.17.1-.27l-.4-.3Zm.55-2c0,.1,0,.22,0,.34l1.19-2,0-.06c.22-.24.21-.33.2-.45a2,2,0,0,1,0-.34c0-.13,0-.25,0-.36v-.41l-.16.22L52,27.66,52,27.8a.54.54,0,0,0-.1.33c0,.16,0,.3,0,.43a1.48,1.48,0,0,0,0,.42ZM51,28.8c0-.11,0-.21,0-.32a2,2,0,0,0,0-.34V28l-.23.39a3.22,3.22,0,0,0-.26.53l-.07.15.49-.33,0,.09Zm2.81-4.71.21.4,0,.1V24.5a2.66,2.66,0,0,1,0-.28.6.6,0,0,0,0-.2,1.42,1.42,0,0,1,0-.24l-.25.31Zm.33,2.11,0,.38a1.33,1.33,0,0,0,0,.2,1.09,1.09,0,0,1,0,.47l.62-.8-.31.08a4,4,0,0,0-.24-.33Zm13.15-1.54s0,0,0,.06V25c0,.23-.08.27,0,.31s.11,0,.39,0h.25l.25,0,.26,0,.67,0c.16,0-.19-.06-.19-.12a3.25,3.25,0,0,0,0-.33v-.67l-.12,0-.47.1c-.24,0-.19,0-.21,0a.65.65,0,0,1-.23.14,1.27,1.27,0,0,1-.24.07.58.58,0,0,0-.21.07l-.08.07Zm-.68-.48a1.31,1.31,0,0,1,.27-.26.36.36,0,0,1-.27-.2v.46Zm2.76-.84a.49.49,0,0,1,.22.21v-.44a.55.55,0,0,1-.22.23Zm.25,2.39a.68.68,0,0,1-.14.23h.25a.55.55,0,0,1-.11-.23ZM66.72,26l-.08-.06,0-.05v.22c0,.1.06-.09.13-.11Zm5.56-1.51v.65c0,.53,0,1.51,0,1.53s0,0,.06,0l.14,0a1.09,1.09,0,0,1,.3.13l0-.06A.64.64,0,0,1,73,26.5h0s-.1,0-.08,0a.79.79,0,0,1,.17-.28s0,0,0-.05a2.32,2.32,0,0,0,0-.63.59.59,0,0,0-.07-.3,4.19,4.19,0,0,0-.48-.56,1.8,1.8,0,0,0-.39-.29v.12Zm-.75-1,.11,0,.2-.07h0a1,1,0,0,1-.3-.17v.28Zm1,.08a2.44,2.44,0,0,1,.64.42.73.73,0,0,1,0-.36c0-.16.07-.33.11-.5a5,5,0,0,0,.17-.92h-.17a1.22,1.22,0,0,1-.44-.05l0,.09A3.9,3.9,0,0,1,73,23v.25l-.23.12a1.41,1.41,0,0,1-.27.12Zm-1,2.58v-.25a.47.47,0,0,1-.13.15.71.71,0,0,1,.14.1Zm.11-5,.11-.19L72,21a1.78,1.78,0,0,0-.38-.25l0,0v.4Zm-5,.82.15-.12.19-.14-.14,0-.2-.29V22Zm.82.38s0,0-.15.15V23h0l.18,0a4.94,4.94,0,0,1,1.15-.27l.21,0a3.13,3.13,0,0,0,0-.35v-.47s0,0,0,0h0a1.14,1.14,0,0,1-.33.06s0,0-.21.1a.8.8,0,0,1-.35.13.65.65,0,0,0-.22.11.8.8,0,0,1-.35.14Zm1.64-.62-.07,0c.07,0,.14,0,.07,0Zm.27-.79a.57.57,0,0,1,.24.19V20.7a.79.79,0,0,1-.12.15.31.31,0,0,1-.11.09Zm-14.44,3.6v.59c.9-.78,2.05-1.93,3-2.6.07,0,.15-.1.15-.12V20.92l-.55.44-.1.09-.18.16c-.58.53-1.19,1.06-1.75,1.6a6.1,6.1,0,0,0-.55.57.37.37,0,0,0,0,.09,1.39,1.39,0,0,1,0,.47,1.36,1.36,0,0,0,0,.2Zm3.41-4.69a.59.59,0,0,1,.22,0h0a.48.48,0,0,1,.16.12v-.21a.55.55,0,0,1,0-.28c-.12.1-.27.21-.43.32Zm.54,2.43v.13a.84.84,0,0,1-.11.44l.06,0,0,0a1,1,0,0,1,.23-.19,1.2,1.2,0,0,0,.21-.13.42.42,0,0,1-.44-.17Zm6.93,3.81V20l-.46.2a5.64,5.64,0,0,1-.55.23,2.26,2.26,0,0,0-.33.13l-.3.13-.06,0a1.05,1.05,0,0,1-.22.14l-.14.05-.14.06-.62.31a2,2,0,0,1-.23.1l-.09,0-.06,0a.85.85,0,0,1-.21.14l-1.61.92-.13.07,0,0a5,5,0,0,0-.55.35,5.67,5.67,0,0,1-.54.37.18.18,0,0,0-.07.05,1.08,1.08,0,0,1-.15.13l-.57.35-1.16.91c-.26.21-.48.4-.55.47l-.06.08a1.66,1.66,0,0,1-.19.19c-.1.1-.25.21-.36.31a.47.47,0,0,0-.1.1l0,0a1.83,1.83,0,0,1-.2.21l-.15.18c-.1.1-.19.21-.3.3l-1.95,2.54,0,.07a1,1,0,0,1-.13.25l-.09.1-.41.75a3.52,3.52,0,0,0-.15.33l-.12.27a6,6,0,0,0-.22.56c0,.15-.1.29-.15.41l-.06.14a1.34,1.34,0,0,0-.06.12L51.84,34c-.07.64,0,18.73,0,27v3.6c.22,0,.25-.06.25-.25V64c0-.22,0-.49,0-.7a1.55,1.55,0,0,0,0-.22c-.05-.49-.1-.94.65-1.07l.3,0v-.19a1,1,0,0,1,0-.22v-.06a1.38,1.38,0,0,1,0-.25V60a.49.49,0,0,1,.17-.41h0l.13-.19h.79a.92.92,0,0,0,0-.28,2.11,2.11,0,0,1,0-.51,5.92,5.92,0,0,0,0-.83,1,1,0,0,1,.11-.7c.21-.3.51-.32,1.28-.38h.13a10.42,10.42,0,0,0,0-1.13,5.63,5.63,0,0,1,0-1.26l.06-.26,1.13-.21h.53v-.5c0-.53,0-1.07,0-1.57a.75.75,0,0,1,.43-.74,1.59,1.59,0,0,1,.67-.08,7.06,7.06,0,0,0,.93,0h-.1c0-.13,0-1.3,0-1.3a1.38,1.38,0,0,1,0-.25v0s0-.1,0-.15c-.05-.4-.08-.73.53-1l.19,0,.18,0h.24A.9.9,0,0,1,60.6,48L61,48h.17c0-.21,0-.57,0-.92a6.75,6.75,0,0,1,0-1.39l.06-.25.25-.06a4.28,4.28,0,0,1,.92-.11l.41,0,.21,0h.19a.76.76,0,0,1,0-.15.74.74,0,0,1,0-.24v-.94c0-.08,0-.2,0-.31a3.05,3.05,0,0,1,0-.43c.09-.71.17-.71.89-.7a6.5,6.5,0,0,0,.81,0,2.1,2.1,0,0,1,.44,0c.08,0,.13.06.13,0s0-1.07,0-1.78v-.9l.21-.14a1,1,0,0,1,.31-.15,1.37,1.37,0,0,1,.3,0h1.62v-.21c0-.4,0-.72,0-1a3.34,3.34,0,0,1,.06-1.05c.18-.5.45-.49,1.12-.49h.56c.38,0,.82,0,1.14,0V26.78h-4c-.51,0-1-.11-1-.71Zm-5.39,22ZM51.75,64.61h0ZM65.18,19.34l.42-.17a.47.47,0,0,1-.35-.19c0,.07,0,.13,0,.18s0,.13,0,.18Zm.95-.24.12,0,.22.05V19l-.06,0a1.39,1.39,0,0,1-.28.12Zm-6.61,1.7a4.85,4.85,0,0,1,0-.66v-.29l0,0,.2-.13a2.1,2.1,0,0,0,.22-.15l.17-.11a1.28,1.28,0,0,0,.28-.16c.29-.17.56-.36.84-.53a1.35,1.35,0,0,0,.41-.23l.05,0,.11,0a.61.61,0,0,0,.24-.15l.18-.08A2.57,2.57,0,0,0,62.6,18a2.78,2.78,0,0,1,.51-.28l.93-.47.36-.18,0,0v.78c0,.54,0,.86,0,1a1,1,0,0,0-.34.15L64,19.1a1.34,1.34,0,0,0-.43.19l-.2.08-.18.07a.6.6,0,0,0-.22.13h0l-.14,0c-.22.09-.47.23-.68.34a.59.59,0,0,0-.11.09h0a1.28,1.28,0,0,0-.21.07.56.56,0,0,0-.18.11l0,0-.13.07a1.37,1.37,0,0,0-.3.17.31.31,0,0,1-.1.05.93.93,0,0,0-.28.11.6.6,0,0,0-.16.14l-.17.08a.75.75,0,0,0-.21.15l-.13,0a2.18,2.18,0,0,0-.46.28l-.05,0c0-.2,0-.4,0-.6ZM64.92,16h.17l.07.3a1.77,1.77,0,0,1,.09-.43L65,16l-.08,0Zm6.55-2.83h0a1,1,0,0,1,.19-.17.48.48,0,0,1-.21-.07v.25Zm1-.32.08,0a.09.09,0,0,0-.08,0Zm-.21,1.29-.09-.25v2.93s0,0,0,.05a2.63,2.63,0,0,1,.07.78v2.51a3.1,3.1,0,0,1,.46.35,3.45,3.45,0,0,1,.26.28c0-.1,0-.2,0-.29,0-.35,0-.57,0-.75a4.09,4.09,0,0,0,0-1.1l0-1.21c0-.11,0-.22,0-.31s0-.2,0-.3l-.06-.21c0-.1,0-.21-.07-.33a2.13,2.13,0,0,1,0-.39,1,1,0,0,0-.08-.38,6.08,6.08,0,0,1-.18-.67l0-.23,0,0a1.05,1.05,0,0,1-.16-.45Zm-6.24,4c0-.15,0-.3,0-.45a13.15,13.15,0,0,1,0-1.44l.15,0a1.11,1.11,0,0,0,.29-.17l.06,0h.06a1,1,0,0,0,.33-.13l.75-.33a2.11,2.11,0,0,0,.34-.16l.1-.07.19-.05.67-.28c0,.22,0,.42,0,.57a1.43,1.43,0,0,0,0,.29,2.45,2.45,0,0,1,0,.27,2.35,2.35,0,0,1,0,.27l0,.24a4.28,4.28,0,0,0,0,.62,2.64,2.64,0,0,1,0,.42,9.65,9.65,0,0,0-.08,2v.49c0,.06,0,.09,0,.11s0,0-.06,0l-.2,0a2.53,2.53,0,0,0-.56.19l-.14.06a1.77,1.77,0,0,0-.48.18l-.15.06a3.59,3.59,0,0,0,0-.87,1.38,1.38,0,0,1,0-.3s0-.06,0-.09a1.21,1.21,0,0,0,0-.3V19a1.52,1.52,0,0,0,0-.33,1,1,0,0,0-.18-.38L66.94,18l-.25,0a1.81,1.81,0,0,0-.62.19l-.1,0v-.09Zm3.31-4.11.33,0v-.22l-.33.19Zm1.11,7.31c0-1.17,0-2.45,0-3.39,0-.07,0-.14,0-.22a4.19,4.19,0,0,0,0-.42V13.12a6,6,0,0,1,0-.61c0-.22,0-.43,0-.69v-.67a16.8,16.8,0,0,1,0-2.06v.17a17,17,0,0,0,0,2c.09.66.07,2.88.06,4.31v.94c0,.09,0,.12,0,.15a.77.77,0,0,0,0,.48c.09.32.06,3.77,0,5.52v.91a2.88,2.88,0,0,0,0,.33,2,2,0,0,1,0,.25,3,3,0,0,0,0,.42V25c0,.15.25.27.18.29a.87.87,0,0,0-.27,0l-.26,0h0V21.38Zm.08-20s0,0,0,0v0ZM69.11,6V4.42a2.68,2.68,0,0,1,0-.45l0-.14a3.72,3.72,0,0,0,0-.67c0-.15,0-.29,0-.44a1.52,1.52,0,0,1,.06-.36.49.49,0,0,0,0-.14V1.63a2.5,2.5,0,0,1,0-.33,1.5,1.5,0,0,0,0-.22,1.3,1.3,0,0,1,.09-.41,1.09,1.09,0,0,1,.53-.53A1.52,1.52,0,0,1,70.58,0a1.26,1.26,0,0,1,.55.12l.17.06c.7.24.66,1.24.63,2a3.9,3.9,0,0,0,0,.6l0,.11a3.09,3.09,0,0,1,.07.74,16,16,0,0,0,0,2.19c0,.43,0,.86,0,1.23V9.43c0,.23,0,.39,0,.55s0,.36,0,.59a1.76,1.76,0,0,1,0,.27,1.2,1.2,0,0,0,0,.19,4.61,4.61,0,0,1,0,.52v.12c0,.42-.54.52-.28.52,0,0,0,0,0,0l.29-.09c.89-.2.91-.15,1.27.78l.07.19L74.22,16l0,.1a.75.75,0,0,0,0,.26,5.25,5.25,0,0,1,.13.69c0,.15.07.69.09,1.23s0,1.08,0,1.23,0,.21,0,.3V20c0,.17,0,.31,0,.45a4.53,4.53,0,0,1,0,.73l-.07.53-.06.18a.64.64,0,0,0-.05.24,6.5,6.5,0,0,1-.19,1.13,4.46,4.46,0,0,0-.11.46,2,2,0,0,0,.14.16,1.49,1.49,0,0,1,.38.54.89.89,0,0,0,.08.17,1.24,1.24,0,0,1,.17.66v.25a2.16,2.16,0,0,1-.1,1l-.18.42a1.88,1.88,0,0,1-.16.29.41.41,0,0,0-.07.11,3.46,3.46,0,0,1-.25.37c-.09.12-.19.11-.19.18V68.09c.36,0,.93,0,1.51,0,.76,0,1.56,0,2,0V63.32h.83V68l13.35.08h2.66V70H55.23c-.84,0-1.68,0-2.51,0S51,70,50.18,70H25.91V68.09H28l0-.4V62.28c0-9.4,0-26.79,0-27,.12-.63.55-.59,1-.55h.14c.14,0,2.08,0,2.38,0,0,0,0-4,0-5.55v-.62l0-.33c0-.41.1-.84.62-.84H42.58c.53,0,.62.42.62.86v6.32H44.5l.31,0a.46.46,0,0,0,.16,0h0a.77.77,0,0,1,.29,0h.43c.62,0,.87,0,.9.74,0,.13,0,.27,0,.4v10.4c0,1.67,0,10,0,16,0,2.94,0,5.29,0,5.95.61,0,1.83,0,2.78,0h1V55.5q0-8.45,0-16.9l0-1v-.37c0-.23,0-.46,0-.68,0-.06,0-.12,0-.17a1.5,1.5,0,0,1,0-.35V36a.5.5,0,0,1-.14.08.71.71,0,0,1-.32.07.55.55,0,0,1-.37-.1.72.72,0,0,1-.34-.61l-.08-.51c0-.1,0-.21,0-.32a1.5,1.5,0,0,0,0-.22A11.49,11.49,0,0,1,49,32.48c0-.17,0-.34,0-.62a1,1,0,0,1,0-.27.93.93,0,0,0,0-.28A5.63,5.63,0,0,1,49.24,30a5,5,0,0,1,.38-1.14,3.26,3.26,0,0,0,.15-.32,3.32,3.32,0,0,1,.33-.65l.44-.77,0-.06.08-.09h0l0-.05.5-.83a8.93,8.93,0,0,1,.56-.85l2.43-3,0,0a9.23,9.23,0,0,0,.78-.77l.39-.4.52-.45c.25-.24.53-.45.8-.67s.61-.46.92-.68.49-.35.62-.46a1.4,1.4,0,0,1,.2-.16l.09,0a2.24,2.24,0,0,0,.41-.27l.23-.18,1-.57,0,0,.12-.09.15-.08.07,0,.5-.32a1.4,1.4,0,0,1,.3-.15l.13-.05a4.51,4.51,0,0,1,.81-.43l.07-.05a1,1,0,0,1,.34-.2,7.73,7.73,0,0,0,.93-.45c.29-.16.58-.32.85-.44l.2-.08.06,0a.19.19,0,0,0,.1-.05,1,1,0,0,1,.28-.15l1.25-.54.1-.06a1.11,1.11,0,0,1,.31-.15,1.21,1.21,0,0,0,.14,0,2.17,2.17,0,0,1,.35-.15l.22-.09.08,0,.85-.37.12,0,.07,0,.34-.19a4.07,4.07,0,0,1,0-.87,18.47,18.47,0,0,0,0-2.37V9.51c0-.19,0-.36,0-.53s0-.31,0-.44V8a12.87,12.87,0,0,1,.06-2ZM50.68,27s0,0,0,0Z"/><path class="cls-1" d="M69,68.24c0-.4-.09-1.1.2-1.1a12.86,12.86,0,0,1,1.88,0c.12.24.16,1.33-.08,1.33s-.27,0-.39,0-.2,0-.39,0c-.82,0-1.22.12-1.22-.27Zm-2.43,0a2.54,2.54,0,0,1,.08-1h1c.73,0,.67-.21.67,1,0,.4-.39.23-.61.25l-1,0c0-.14-.08-.13-.08-.27Zm-2.31-.12c0-1-.16-.9,1.41-.9.28,0,.2.7.2,1s-.46.27-1.14.27c-.33,0-.47-.06-.47-.39Zm-4,0c0-.71-.06-.76.51-.79.79,0,.7-.24.7.79a.32.32,0,0,1,0,.17c-.05.16,0,0-.08.12s-.16,0-.29,0-.12,0-.33,0l-.37,0a.65.65,0,0,1-.12-.31Zm-6.23-.08c0-.17,0-.2.19-.32.2.11.24.06.24.36s-.31.45-.4.24a1.14,1.14,0,0,1,0-.28Zm-25-4.78a2.69,2.69,0,0,1,1-.08l1.14,0c.55,0,1.22,0,1.77,0,.27,0,.24-.07.47,0,.09.42,0,4.15,0,4.9,0,.51-.29.35-.74.35H29.21a.71.71,0,0,1-.12-.51V63.3Zm26.53,5.21c-.46,0-.47-.14-.47-.55s.2-.24.45-.3.16-.07.25,0,.18.82-.23.82ZM40.89,68V66.39c0-.33.07-.53.08-.82V63.73c0-.35,0-.63.32-.63h4c.15,0,.19.19.19.35v4.67c0,.54-.43.36-.59.35s-.24,0-.35,0c-.8,0-2.74,0-3.41,0-.17,0-.24,0-.24-.48Zm11.49.43a1.37,1.37,0,0,1-.94,0s-.13-.55.2-.55c1,0,.79,0,.74.55Zm7.14,0H58.46c-.09-.36-.08,0-.08-.67,0-.21.08-.25.27-.27.34,0,1-.27,1,.32a.9.9,0,0,1-.15.62Zm-2.2,0c-.18,0,0,0-.12,0-.46,0-.59.23-.59-.65,0-.14,0-.13.08-.27.75,0,.71-.08,1.06.16,0,.54,0,.78-.43.78Zm6.27-.12c-.25.17-.12.08-.63.08-.82,0-.78.19-.78-.94a.59.59,0,0,1,0-.2.37.37,0,0,1,.32,0c.84.07,1.13-.21,1.06.49v.61ZM51.4,66.82c0-1.07-.1-1.13.47-1.13a1.74,1.74,0,0,1,.37,0c.33.08.22.41.22,1.19,0,.45-.79.36-.92.29s-.14-.17-.14-.33Zm3.06.2c-.45,0-.39.23-.39-1.14,0-.33.43-.39.43,0a6.39,6.39,0,0,1,0,1.18Zm.86,0a.16.16,0,0,1-.16-.16,7.31,7.31,0,0,1,0-1.33c.73-.06.75-.51.75,1,0,.39-.24.47-.63.47Zm8-.43h-1a.16.16,0,0,1-.16-.16c0-1.45-.1-1.37.51-1.33a5.23,5.23,0,0,1,.9,0,2.19,2.19,0,0,1,0,.27c0,.79.12,1.18-.27,1.18Zm-3.06-.28c0-1.21-.12-1.06.52-1.13a2.43,2.43,0,0,1,.66,0,5.54,5.54,0,0,1,0,1.41l-.95.12c-.16,0-.23-.22-.23-.4Zm8.7-.07c0-.48-.1-1.3.16-1.3h1.72a.24.24,0,0,1,.28.28c0,.84.12,1.25-.28,1.25H69.16c-.12,0-.16-.11-.16-.23Zm-.9.31H66.73a.16.16,0,0,1-.16-.16,7.31,7.31,0,0,1,0-1.33,1.89,1.89,0,0,1,.74,0c.34,0,.53,0,.83,0,0,.08.12.1.12.2,0,.42.1,1.37-.2,1.37Zm-3.84-.43c0-1.26-.15-1.1,1.33-1.1a.41.41,0,0,1,.28.12v1.33c-.14,0-.14.08-.28.08a4.07,4.07,0,0,1-1.29-.08,3.39,3.39,0,0,1,0-.35Zm-5.06.7c-1.06,0-.86.23-.86-1.21a.24.24,0,0,1,.2-.27c.43-.09,1.13-.28,1.13.35l0,.3a2.67,2.67,0,0,1,0,.36c0,.34-.12.47-.47.47Zm-19-.31a6.92,6.92,0,0,1-.09,1.91c-.15.17-.39.09-.7.09-1.14,0-4.09,0-5.13,0a1.2,1.2,0,0,1-.08-.35V63.37c0-.15.17-.23.35-.23H40c.16,0,.36,0,.36.2v2c0,.44-.08.71-.08,1.14Zm17.48-.63c0,.66.13,1-.27,1a1.89,1.89,0,0,1-.79,0,6.46,6.46,0,0,1,0-1.25c0-.25.52-.2.75-.2a1.2,1.2,0,0,1,.35.08c0,.1,0,.15,0,.2s0,.08,0,.23Zm-.31-1.17c-1,0-.79.27-.79-1.61,0-.14,0-.14.08-.27,1.18,0,1-.61,1,1.64,0,.13-.17.24-.31.24Zm-1.92.11c-.45,0-.32-.13-.32-1.64a.59.59,0,0,1,0-.2c.79-.06.75-.42.75,1.41,0,.31-.17.43-.47.43ZM69,64V62.63c0-.38.34-.27,1-.27l1.14,0a12.28,12.28,0,0,1,0,1.73c0,.26-.48.16-1,.16a3.21,3.21,0,0,1-1.1,0,.59.59,0,0,1,0-.2ZM54.26,63c.13,0,.24,0,.24.24v1.37a.24.24,0,0,1-.24.27c-.32,0-.19-.43-.19-1,0-.14-.15-.86.19-.86Zm6,0c0-.49.37-.36.64-.42.8-.19.61,0,.61,1.72,0,.18-.2.19-.39.19-.67,0-.82.38-.82-.63,0-.18,0-.31,0-.42V63Zm-.63.2,0,.9a.58.58,0,0,1-.15.51c-1.36,0-1.14.3-1.14-.86,0-.34,0-.58,0-.87.19-.12.22-.15.67-.15s.34-.1.66.12c0,.17,0,.15,0,.35Zm4.67-.71a8.19,8.19,0,0,1,1.41,0c.29,0,.1.84.19,1.47s-.49.45-.65.46-.83.13-1-.14a7.94,7.94,0,0,1,0-1.2c0-.3-.08-.3,0-.55Zm-2,0h1a2.19,2.19,0,0,1,.27,0c.09.36,0,.18,0,.39s0,.12,0,.28l0,1.17a5.75,5.75,0,0,1-1.25,0c-.24,0-.14-.43-.14-.51l0-.66a3.1,3.1,0,0,0,0-.42c0-.11,0-.33.14-.33Zm5.8-.11c.09.13.16.14.16.39,0,1.86.18,1.61-1.06,1.6-.83,0-.64.32-.67-1.41,0-.75,0-.42.87-.53a5.62,5.62,0,0,1,.7,0Zm-12.94-2c.94-.08.75-.28.75,1.6,0,.34-.3.28-.67.28-.2,0-.12-.48-.12-.86a5.54,5.54,0,0,1,0-1Zm-12.42-.55a.38.38,0,0,1,.27-.12h2.16a.24.24,0,0,1,.27.27c0,3,.18,2.43-.82,2.43l-1.31,0c-.3,0-.61.18-.61-.42,0-.18,0,0,0-.21a1,1,0,0,1,0-.25,4.32,4.32,0,0,0,0-.56V59.81Zm18.46,2.07c-.14,0-.05,0-.27,0l-.47,0c-.14,0-.2-.21-.2-.23V60.28c0-.51.58-.27.82-.36s.07-.06.36,0a2,2,0,0,1,0,.27v1.41a.29.29,0,0,1-.27.31ZM69,61.45c0-2.33-.1-1.82.46-1.93.71-.15.94,0,1.4-.09.16,0,.19-.06.24,0a10.86,10.86,0,0,1,0,2.22c-.24.11-.15,0-.35,0H69.63c-.24,0-.29,0-.51,0a.41.41,0,0,1-.12-.28Zm-4.74-.39V60c0-.1.12-.18.2-.22.23-.11.52,0,.84-.07.54-.09.57-.24.57.88,0,.18,0,.37,0,.55a.72.72,0,0,1,0,.21c0,.07.12.46-.29.46-.14,0-.08,0-.24,0-.72-.06-1.09.22-1.09-.35v-.32Zm-9.76.32c0,.67.08.77-.24.94a.35.35,0,0,1-.19-.32V60.75c0-.32.43-.46.43.08,0,.15,0,.18,0,.27s0,.12,0,.28Zm-22.58-.32c0,1.68.22,1.41-1.26,1.41-.52,0-.92,0-1.41,0-.24-.36-.12-.18-.13-.5a8.39,8.39,0,0,1,0-1.5c.07-.87-.56-.7,2.51-.7.43,0,.26.51.25.9,0,.12,0,.17,0,.35Zm24.69.79c0,.46.27.32.56.28s.53,0,.54-.4V60.4c-.1-.37-.54-.12-.8-.13-.1,0-.3,0-.3.16v1.42Zm3-1a4.56,4.56,0,0,1,0,.64c0,.5.38.42-.8.57-.24,0-.5,0-.5-.23V60.32c0-.34.82-.28,1.1-.28s.19.64.19.79Zm4,.7c0,.39-.79.28-1.29.28a.16.16,0,0,1-.16-.16c0-2.48-.13-1.67.72-1.87.19,0,.6-.07.7.1l0,.79c0,.15,0,.33,0,.47,0,.48,0,.13,0,.39Zm-28.5.94H32.74a.15.15,0,0,1-.16-.15V60c0-.15.2-.19.36-.19,2.64,0,2.35-.18,2.38.53,0,.32,0,1.34,0,1.61s.09.56-.18.56ZM42,62.39c-.26.07-.24,0-.53,0s-.3,0-.56,0a4.35,4.35,0,0,1-1.61,0v-2.5a.75.75,0,0,1,.39-.12,19.36,19.36,0,0,1,2.31,0,3.79,3.79,0,0,1,0,1.26,9.77,9.77,0,0,1,0,1.32Zm-4.11-2.62a1.65,1.65,0,0,1,.7.08,12,12,0,0,1,0,2.16c0,.1.15.46-.28.46H36.19c-.17,0-.19-.19-.17-.33l0-1.55a2.17,2.17,0,0,1,0-.32c0-.12-.14-.39.15-.48a.77.77,0,0,1,.31,0,10.87,10.87,0,0,0,1.39,0Zm30.42,1.8V60.4c0-1,.26-.87-1.18-.87a.66.66,0,0,0-.55.16c0,2.51-.26,2.07.86,2,.59,0,.5.09.87-.16ZM55.2,59.65a2.19,2.19,0,0,1,0-.27c0-1.89-.1-1.44.48-1.57.22-.05.31.08.31.35V59.3a.32.32,0,0,1-.26.33.83.83,0,0,1-.49,0Zm-12.46-1a15.35,15.35,0,0,1,0-2.18c.12-.21.46-.11.58-.1a1.8,1.8,0,0,0,.31,0l.7,0c1.35,0,1.1-.51,1.1,2.35a1.93,1.93,0,0,1,0,.27c-.48.12-.06.06-.47.06H43.32c-.22,0-.14.07-.5,0a.57.57,0,0,1-.08-.31Zm25.16.2-.86,0c-.56,0-.47.53-.47-1.74,0-.39.34-.16.84-.26s.61-.12.89.07v1.21c0,.47.13.75-.4.75Zm1.1-.2c0-.41-.08-1.82.1-1.94s.33,0,.57,0c.53,0,.92,0,1.45,0a12.24,12.24,0,0,1,0,1.73c0,.64-.86.3-1.64.39-.16,0-.52.13-.52-.12Zm-39.9.16,0-.24c0-.11,0-.08,0-.23V56.79a1.21,1.21,0,0,1,.07-.35c.3,0,.44,0,.75,0,2.16,0,1.92-.15,1.92.55a8.7,8.7,0,0,0,0,1.15.78.78,0,0,1,0,.3c0,.25.13.5-.06.64a16.74,16.74,0,0,1-2.26.1c-.23,0-.46,0-.46-.31Zm27.51.59a12.24,12.24,0,0,1,0-1.73,1.84,1.84,0,0,1,.83-.08c.35,0,.23.26.23.55,0,1,.15,1.34-.39,1.37-.2,0-.71.13-.71-.11Zm3.06-1.34,0,.77c0,.19.08.33-.1.44s-.32,0-.52.06l-.52.07c-.11-.17-.14-.13-.16-.55,0-.26,0-.42,0-.71,0-.63,0-.74,1.06-.74a.41.41,0,0,1,.19,0c.09.31,0,.14,0,.35s0,.12,0,.27Zm1.65-.9a.22.22,0,0,1,.19.2v1.49c0,.36-.25.39-.78.43a.4.4,0,0,1-.41-.18,7.59,7.59,0,0,1,0-1.27c0-.17-.06-.21,0-.35s.4-.24.63-.24.21-.08.39-.08Zm2.27.78c0,.11,0,.17,0,.26l0,.25c0,.31.1.27,0,.55l-1.16.1c-.31-.06-.18-.46-.18-.53s0-.09,0-.27,0-.27,0-.43c0-.41-.15-.41.08-.75l1.09-.08c.36.07.2.55.2.9Zm2.28-.47v1.23c-.13.42-.92.3-1.19.3,0,0-.32.1-.41-.13a18.3,18.3,0,0,1,0-1.83c.11-.07.07-.09.22-.13a5,5,0,0,1,1.3,0c.21.11.09.31.09.57ZM38.54,56.44a8.51,8.51,0,0,1,.06,2.16c0,.62.1.46-2.45.46-.09,0-.11-.06-.19-.12V56.67c0-.43.26-.23.94-.31l1.64.08Zm3.53,1.72,0,.4A.58.58,0,0,1,42,59a20,20,0,0,1-2.35,0c-.16,0-.35,0-.35-.19V56.63c0-.34.46-.28.78-.27s.27,0,.51,0h.86c.22,0,.38-.09.52,0s.08.3.09.51a3.67,3.67,0,0,0,0,.59,4.23,4.23,0,0,1,0,.64ZM33.45,56.4h1c.35,0,.51-.09.78,0a22.07,22.07,0,0,1,0,2.47.14.14,0,0,1-.16.15H32.74c-.22,0-.08-.4-.12-.82a6.38,6.38,0,0,1,0-1.75.48.48,0,0,1,.36-.07,3.94,3.94,0,0,0,.46,0Zm23.16.31V55.26a1.93,1.93,0,0,1,0-.27,2.34,2.34,0,0,1,.55-.05.84.84,0,0,1,.47.05,9.48,9.48,0,0,1,.06,1.62c0,.27-.22.29-.53.3s-.59.18-.59-.2Zm4.28-.12c-.77,0-.59.21-.59-1.72,0-.23.41-.22.64-.26.73-.12.57,0,.57,1.63,0,.31-.31.35-.62.35ZM64.26,56V54.75c0-.58.65-.47,1.37-.47a.59.59,0,0,1,.2,0,11.61,11.61,0,0,1,0,1.68c0,.3-.62.2-.91.2s-.36.07-.46.06a.26.26,0,0,1-.24-.29ZM29.1,55.46v-2.2c0-.51.55-.35,1.09-.35h1.53c.06.08.12.1.12.19a24.29,24.29,0,0,1,0,2.59c-.16,0-1.8,0-2.08,0s-.4.1-.55-.07a.39.39,0,0,1-.07-.16Zm16.34.11a11.92,11.92,0,0,1-1.36,0,3.52,3.52,0,0,1-1.3,0,22.12,22.12,0,0,1,0-2.47c0-.45.44-.31,1.09-.31l1.25,0s.4-.09.4.18,0,2.4,0,2.58ZM32.58,53l.13-.11h2.46c0,.13.08.13.08.27v2.28c0,.36-.38.21-1.1.23-.22,0-.35,0-.62,0l-.48,0s-.54.15-.5-.35,0-1.71,0-2.32Zm27.05,3.52a2.06,2.06,0,0,1-1.17.28.41.41,0,0,1-.12-.28c0-1.49-.17-1.71.52-1.79,1.11-.13.77.15.77.85v.94Zm9.49-2.47H70c.58,0,1.18-.28,1.18.16,0,1.95.12,1.68-.38,1.74a3,3,0,0,1-.48.06H69.16c-.23,0-.21-1.26-.2-1.53a.7.7,0,0,1,.16-.43ZM63.63,55.5c0,1.16-.19.8-1,.9-.57.07-.44.19-.44-1.69a.65.65,0,0,1,0-.2,6.46,6.46,0,0,1,1.2-.1c.23.05.2.26.18.42s0,.41,0,.67Zm3.1.66c-.26,0-.16-.4-.16-.86a5.2,5.2,0,0,1,0-1.06c.4-.1.25,0,.53,0a3.73,3.73,0,0,1,1-.06c.31,0,.19.51.2.67s0,.68,0,1-.23.3-.63.31l-.94,0ZM38.35,52.79a.26.26,0,0,1,.27.27V55.5c0,.12-.14.19-.27.19h-2.2a.32.32,0,0,1-.18-.1c-.12-.15,0-.4,0-.72V53.54c0-.68-.14-.67.86-.67h.78c.32,0,.48-.08.75-.08ZM71,53.38a1.88,1.88,0,0,0-.41,0,6.34,6.34,0,0,1-1.39.06c-.12,0-.16-.12-.16-.24V51.69c0-.53.26-.27,1-.34a5.43,5.43,0,0,1,.7,0c.65,0,.51-.33.51,1.84,0,.1-.14.2-.2.2Zm-2.66,0c-.61.14-.09,0-.63.07h-.43c-.82,0-.67.4-.67-1.73a.53.53,0,0,1,0-.19,3.68,3.68,0,0,1,1.26-.13c.23,0,.3-.05.39.13s0,1.25,0,1.61a2.11,2.11,0,0,1,0,.23ZM42,53.22c0,.29,0,2.23,0,2.39-.29.14-.31,0-.62,0h-1.5c-.39,0-.41.05-.66-.12,0-.19,0-.25,0-.7V53.34c0-.3,0-.5.27-.51h2.36c.13.06,0,0,0,0s0,0,.05.07,0,.18,0,.3Zm20.15-1.14c0-.47.31-.31.39-.31.47,0,1-.39,1,.31v1.18c0,.15,0,.19,0,.35-.28.19-.2.09-.58.12-1.17.09-.76.14-.87-1.14,0-.15,0-.35,0-.51Zm-1.45-.27c.31,0,.78-.07.78.16a7.05,7.05,0,0,1-.08,1.91c-.16.14-.39.06-.46.06a1.68,1.68,0,0,1-.67,0c-.09-.36,0-.18,0-.39a2.24,2.24,0,0,1,0-.72c0-.28-.07-.7.07-.87a.45.45,0,0,1,.37-.14Zm-2.27.24c.59,0,1.21-.22,1.21.23,0,.18,0,.12,0,.27a2,2,0,0,1,0,.31,6.39,6.39,0,0,0,0,.68c0,.22.06.37-.16.46a2.68,2.68,0,0,1-.61.1c-.71.09-.41-.09-.51-.85a2.3,2.3,0,0,1,0-.66c0-.38-.15-.21.08-.54ZM32.58,52v-2.2c0-.26.17-.28.43-.27h2.16c0,.16.08.07.08.19a22.12,22.12,0,0,1,0,2.47,10.41,10.41,0,0,1-2.34.06c-.2,0-.29,0-.29-.25Zm-3.48,0a21.31,21.31,0,0,1,0-2.28,1.58,1.58,0,0,1,.71-.07c.34,0,.44-.08.75-.08.84,0,1.25-.13,1.25.27V52c0,.12,0,.23-.16.23H29.29c-.13,0-.19-.14-.19-.27Zm13.64-.12v-2c0-.18,0-.43.19-.43h2.28a.2.2,0,0,1,.17.06.27.27,0,0,1,.1.17,20.52,20.52,0,0,1,0,2.39c-.12.19-.26.1-.36.1l-.81,0c-.27,0-.38,0-.59,0-.5,0-.94.13-.94-.31Zm23,1.8h-.67a1.51,1.51,0,0,0-.3,0c-.65.12-.52.18-.52-1.82,0-.37,1-.27,1.37-.27s.27.19.25.32,0,.12,0,.27a1.48,1.48,0,0,1,0,.31c-.05.6.11.82-.12,1.17ZM39.29,51.89a15.16,15.16,0,0,1,.05-2.27.61.61,0,0,1,.5-.2h2c.09,0,.11.06.19.12,0,.52.06,1,0,1.61,0,.21,0,.29,0,.54s.06.41-.13.46-.39,0-.53,0c-.38,0-.76,0-1.14,0s-.94.08-.94-.23Zm21-1c0-1.63-.17-1.75.51-1.77a2.5,2.5,0,0,1,.67,0,12.32,12.32,0,0,1,0,1.73c0,.4-.93.3-1,.29s-.05,0-.15-.09a.39.39,0,0,1-.07-.16Zm6.31-.08a2.78,2.78,0,0,1,0-1,5.2,5.2,0,0,1,0-1.06,9.92,9.92,0,0,1,1.57,0,.41.41,0,0,1,.12.28c0,2,.13,1.77-.67,1.76-.36,0-.63,0-1,0Zm2.59-.12a1.7,1.7,0,0,0,.28,0,6.79,6.79,0,0,0,.77,0c1-.16.91.44.91-1.8,0-.3-1-.17-1.14-.16a2.12,2.12,0,0,1-.39,0c-.27,0-.63-.08-.63.18v1.57c0,.13.07.27.2.27ZM38.58,52c-.46.3-1.65.14-2.1.2-.14,0-.52.06-.52-.2V49.89a.49.49,0,0,1,.15-.39c.77,0,1.4,0,2.16,0,0,0,.33-.13.35.27l0,.71V52Zm25-2.51c0,.34.12,1.29-.06,1.46s-.5,0-.72.07c-.79.06-.63.3-.63-1.77,0-.2.09-.24.27-.27,1.52-.26,1.14,0,1.14.51Zm.79-.63a8.34,8.34,0,0,0,1.29-.12c.29,0,.19.72.2.86v1.18c-.44.1-.07.08-.71.08h-.39c-.18,0-.19,0-.39,0-.13-.19-.13-.16-.12-.47V49.27c0-.28,0-.2.13-.4ZM29.1,48.6V46.4c0-.28.5-.2.51-.2h1.6c.24,0,.29,0,.51,0,.06.08.12.1.12.19V48.6c0,.3-.19.23-.47.23h-.75c-.28,0-.42,0-.66,0h-.75a.42.42,0,0,1-.11-.27Zm12.42.15H39.84c-.07,0-.59.27-.59-.23v-2c0-.34.06-.46.39-.47s.58,0,.86,0a6.29,6.29,0,0,1,1.53,0,20.69,20.69,0,0,1,0,2.39c0,.43-.23.31-.55.31ZM42.74,48V46.32c0-.23.16-.31.39-.31h2.12a.3.3,0,0,1,.23.23V48.4c0,.48-.43.33-.47.33s-.08,0-.23,0a14,14,0,0,1-2,0,2,2,0,0,1-.08-.74Zm23.83,0V46.28c0-.13.07-.27.2-.27H68.1c.13,0,.2.14.2.27,0,2.24.25,1.79-1.3,1.81-.2,0-.43,0-.43-.16Zm-4.19.43c-.31,0-.2-1.15-.2-1.57a1.43,1.43,0,0,1,.08-.43c1.47-.12,1.37-.25,1.37.63,0,1.14.08,1.16-.47,1.25l-.39,0c-.26,0-.22.08-.39.08ZM69.16,46h1.72c.14,0,.28.07.28.19v1.65c0,.13-.14.2-.28.2-2.3,0-1.87.21-1.88-1,0-.27-.1-1.06.16-1.06ZM38.62,47.46V48.6a.3.3,0,0,1-.23.23h-2.2c-.16,0-.23-.21-.23-.39v-2a.49.49,0,0,1,.15-.39c.19,0,.24,0,.67,0a11,11,0,0,1,1.75,0c.16.15,0,.66,0,.78s0,.28,0,.51Zm-3.45-1.37a1.2,1.2,0,0,1,.08.35v2.08c0,.14,0,.31-.16.31H32.86a.41.41,0,0,1-.28-.12c0-2.87-.22-2.58.63-2.58h1.33c.42,0,.45,0,.63,0Zm30.38,0c.17,0,.32,0,.32.35,0,1.66.14,1.67-.48,1.69-1.14,0-1.22.18-1.14-.61a.4.4,0,0,0,0-.16l0-.61c0-.34-.16-.57.35-.59a2.79,2.79,0,0,0,.5,0,2,2,0,0,1,.44-.06ZM29.1,45.3V43c0-.13.14-.2.27-.2h2.31c.22,0,.16.29.16.51v2.12a22.85,22.85,0,0,1-2.51,0c-.12,0-.23,0-.23-.16Zm3.45-.15c0-2.81-.17-2.31.7-2.4a12.53,12.53,0,0,1,1.84-.07c.12,0,.16.11.16.23V45.3c0,.24-.34.14-.44.14s-.08,0-.23,0H32.82c-.19,0-.27-.13-.27-.31Zm36.45,0V43.46c0-.12.12-.16.24-.16h1.68c.12,0,.24,0,.24.16a12.35,12.35,0,0,1,0,1.84c-.24.12-.15,0-.35,0h-1.3c-.26,0-.16.09-.43,0a.58.58,0,0,1,0-.19ZM42.74,45V43.07c0-.23.07-.43.31-.43h2.24a.21.21,0,0,1,.19.19,20.65,20.65,0,0,1,0,2.4c-.11.21-.35.12-.47.11h-1.8c-.11,0-.43.13-.43-.39Zm23,.51c-.15,0-.19-.05-.35,0a3.77,3.77,0,0,1-1.06,0,2.09,2.09,0,0,1,0-.82v-.94c.31-.21.23-.16.78-.16h.47c.35,0,.15,0,.36,0v1.53c0,.28-.05.22-.16.39Zm-27.09-.31c0,.39-.83.27-1.41.27C36,45.42,36,45.57,36,45V43c0-.28.2-.36.44-.33s1.94,0,2.08,0a.3.3,0,0,1,.14.29c0,.61,0,1.22,0,1.81,0,.15,0,.16,0,.31ZM68.3,43.46v1.69c0,.33-.49.2-.52.2l-.88,0c-.49,0-.33-.56-.33-1.35s-.1-.62.52-.7c.23,0,.47,0,.7,0s.51-.12.51.12Zm-26.23,1.1c0,.5,0,.76-.31.78a17,17,0,0,1-2.16.08c-.14,0-.31-.11-.31-.23V43c0-.45.71-.31,1.45-.31a6,6,0,0,0,.85,0c.78-.11.37.61.48,1.55,0,.1,0,.21,0,.31Zm24.58-1.81a.37.37,0,0,1-.08-.23c0-2.73-.23-1.83,1.25-2,.23,0,.42,0,.47.21v1.49c0,.15.09.3-.24.43a6.58,6.58,0,0,1-1.09,0,3,3,0,0,1-.32.07ZM69,41.23c0-1,.15-.73.67-.72l.7,0a3.17,3.17,0,0,0,.42,0,.5.5,0,0,1,.37.06,12.35,12.35,0,0,1,0,1.84c0,.12,0,.24-.16.24H69.2c-.32,0-.16-.51-.23-1a3,3,0,0,1,0-.42Zm0-1.69V38c0-.12,0-.23.16-.23l1.58,0c.06,0,.42-.12.42.25a12.63,12.63,0,0,1,0,1.76,14,14,0,0,1-2,0c-.14,0-.16-.17-.16-.31Zm-27,.2,0,1.86c0,.13,0,.22,0,.37a14.92,14.92,0,0,1-2.23,0c-.22,0-.51.06-.51-.31V39.38c0-.15.19-.19.35-.19a20,20,0,0,1,2.35,0c.13.26,0,.21,0,.51ZM45.32,42c-.23,0-.35,0-.62,0H43.36c-.45,0-.63.27-.61-.74V39.31a.38.38,0,0,1,.27-.12h2.24c.33,0,.25.22.23.47v2c0,.17-.08.16-.16.28ZM32.47,39.31a.38.38,0,0,1,.27-.12c2.91,0,2.44-.17,2.47.78,0,.21,0,.27,0,.51,0,1.85.23,1.53-1,1.53-.35,0-.6,0-.94,0a3.06,3.06,0,0,1-.47,0c-.25,0-.23-.08-.39-.12a14,14,0,0,0,0-2c0-.27,0-.46,0-.66Zm3.41,0a.38.38,0,0,1,.27-.12h2.2c.13,0,.27.07.27.19v2.24c0,.52-.41.39-1.06.39H36.47c-.16,0-.2,0-.36,0-.13-.2-.16-.12-.16-.47V40.32c0-.22-.08-.39-.08-.58s0-.06,0-.2,0-.08,0-.23Zm-5,2.78-1.31,0c-.18,0-.45,0-.45-.18V39.38c0-.12.14-.19.27-.19h2.2c.35,0,.23.25.23.74A13.74,13.74,0,0,1,31.75,42a.45.45,0,0,1-.4.07,2.82,2.82,0,0,0-.49,0Zm11.88-4v-2c0-.31,0-.43.35-.43h2.16a.3.3,0,0,1,.23.24v2.31c0,.32-.32.26-.54.26H43.25c-.36,0-.51,0-.51-.39Zm-9.88-2.31.38,0a7.51,7.51,0,0,1,1.5,0c.2,0,.47-.06.47.15a22.07,22.07,0,0,1,0,2.47,11.23,11.23,0,0,1-2.35.08c-.43,0-.32-.39-.32-.47V36.29c0-.38,0-.51.35-.51Zm8.94,2.7H39.6c-.18,0-.31-.08-.31-.27V36c0-.43.3-.22,1-.3H41.8c.38,0,.28,1.12.26,1.28l0,1.18c0,.19,0,.36-.24.36Zm-12.35-2.7h2c.14,0,.31,0,.31.15v2.36c0,.17-.25.19-.43.19-2.65,0-2.24.18-2.24-.86V36.29a1,1,0,0,1,0-.28c0-.2.16-.23.36-.23Zm6.43.12c.11-.08.13-.16.31-.16h2.2c.15,0,.21.19.22.31s0,.05,0,.23a7.12,7.12,0,0,1,0,1.46c0,.16.18.74-.28.74H36.19a.38.38,0,0,1-.27-.12c0-.36-.05-.51-.05-.66a5.2,5.2,0,0,0,.05-.67V36.4c0-.23,0-.28,0-.5Zm-3.3-3.45a13.7,13.7,0,0,1,2,0c.22,0,.59-.07.59.15v2.28c0,.24-.41.19-.67.19l-1.68,0c-.4,0-.28-.25-.28-.63,0-.09,0-.15,0-.2s0-.08,0-.23c0-.48,0-1.11,0-1.56Zm6.86,0c3.15,0,2.63-.18,2.63.58l0,1.51A1.11,1.11,0,0,1,42,35a18.68,18.68,0,0,1-2.27,0c-.56,0-.43-.22-.43-1.17V33c0-.22-.1-.58.15-.58Zm-3.17,0a11.23,11.23,0,0,1,2.35.08,20.8,20.8,0,0,1,0,2.54,22.12,22.12,0,0,1-2.47,0,.38.38,0,0,1-.27-.12c0-.24,0-.44,0-.74v-.78l0-.69c0-.29.11-.33.41-.33Zm-3.72-3.73c.15-.1.16-.15.54-.15h1.69c.18,0,.43,0,.43.19v2.71a.29.29,0,0,1-.31.31c-.41,0-1.82,0-2.16,0s-.16-.18-.16-.35v-2c0-.28,0-.39,0-.67Zm9.52.47v2c0,.3.14.5-.28.55a8.51,8.51,0,0,1-.86,0H40c-.27,0-.74.07-.74-.19a27.6,27.6,0,0,1,0-2.91.86.86,0,0,1,.55,0c.09,0,.12,0,.27,0,2.29,0,1.92-.08,1.92.62Zm-3.45,1.06c0,1.72.14,1.45-.63,1.49l-.82,0A4.31,4.31,0,0,1,36,31.62c-.2-.14-.12-.56-.12-1v-.55c0-.23,0-.28,0-.5a2.4,2.4,0,0,1,0-1c.37,0,.59,0,1,0,2,0,1.64-.11,1.64.66l0,1ZM72,68.47a.38.38,0,0,1-.12-.27V27.94c0-.26.6-.2.74,0s.05.28.05.53V37.7c0,10-.05,20.15,0,30.18,0,.73-.06.59-.67.59ZM51.52,30.68c-.24-.17-.05-1.14-.11-1.65a6.88,6.88,0,0,1,0-.9,1,1,0,0,1,.25-.69l1.1-1.72a7.47,7.47,0,0,1,.84-1,2.3,2.3,0,0,1,.08,1,7.14,7.14,0,0,1,0,.83c0,.4.14.51-.31,1l-1.53,2.56c-.08.16-.09.29-.15.39s-.11,0-.17.18Zm15.33-6a.51.51,0,0,1,.27-.47,1.53,1.53,0,0,1,.52-.18c.23-.1,0-.09.53-.18s1-.32,1.07,0c0,.13,0,.55,0,.71,0,.34.12,1.13-.2,1.13l-.67,0c-.15,0-.28,0-.51,0-1.14,0-1,.1-1-1Zm5,.08a2.59,2.59,0,0,0-.08-1c.26-.1.28,0,.52.11A3.17,3.17,0,0,1,73.48,25a1.92,1.92,0,0,1,.09,1.28c0,.19-.15.21-.21.38-.15.38-.09.15-.23.36s-.11.26-.33.26-.24-.1-.46-.16-.31,0-.4-.15a9.6,9.6,0,0,1-.08-2.12Zm-.08-3.13a.43.43,0,0,1,.08-.24c.24.05.23.09.32.27a1.64,1.64,0,0,1,.19.4,6,6,0,0,1,.2.94c-.2.1-.23.08-.45,0-.44-.22-.34,0-.34-1.34Zm-4.93.78a.3.3,0,0,1,.15-.28c.5-.38.23-.13.54-.32s.33-.09.59-.24c.43-.24.29-.09.62-.2.12,0,.15-.1.29-.1.32,0,.24.54.24,1s0,.7-.31.75a6.51,6.51,0,0,0-1.33.28,2.22,2.22,0,0,1-.41.1c-.17,0-.28.15-.34,0a4.73,4.73,0,0,1,0-.93ZM54.46,24.8a2.69,2.69,0,0,1,0-.52,2.33,2.33,0,0,0,0-.5c0-.24.58-.77.77-1l0,0,1.66-1.52c.13-.1.17-.17.29-.26l.92-.72c.11-.07.3-.06.3.1v2c0,.28-.25.4-.42.53l-3,2.63c-.25.25-.28.44-.46.49s-.08-.07-.08-.16V24.8Zm11.72-4.74v-.51a.59.59,0,0,0-.2,0,8.9,8.9,0,0,0-1.33.51,4.93,4.93,0,0,0-.67.27c-.19.07-.15.1-.3.16l-.31.13-.63.31c-.12.07-.23.08-.33.14s-.15.12-.26.18l-1.62.92a.55.55,0,0,1-.15.08c-.4.21-.73.52-1.11.74-.14.07-.15.12-.26.21l-.56.34c-.34.26-1.56,1.2-1.78,1.44a2.5,2.5,0,0,1-.22.24l-.26.22a2.61,2.61,0,0,0-.24.22l-.21.23a5.22,5.22,0,0,1-.46.48l-2,2.59c-.08.13-.08.21-.16.32s-.06.05-.1.13l-.4.73a5.56,5.56,0,0,0-.3.65c-.15.3-.27.72-.38,1a1.72,1.72,0,0,0-.14.33L51.43,34c-.09.64,0,27.67,0,30.78,0,.12.2.27.35.27.91,0,.71-.2.71-1.72,0-.38-.18-.8.29-.89a4.1,4.1,0,0,1,.61,0,2.69,2.69,0,0,0,0-.59c0-.14,0-.18,0-.27s0-.12,0-.27V60c0-.09.06-.11.12-.19a3.18,3.18,0,0,0,.71,0,.28.28,0,0,0,.21-.15c.16-.32,0-.61,0-1,.12-1.47-.41-1.42,1.06-1.53a.5.5,0,0,0,.26-.05c.41-.22,0-2,.21-2.65l.86-.16c.47,0,.54.06.86-.16,0-.74,0-1.58,0-2.31,0-.43.26-.43.71-.43l.82,0h.15c.22,0,.23-.19.26-.41l0-1.3c0-.16,0-.18,0-.28,0-.31-.15-.57.26-.73a1,1,0,0,1,.26-.06h.24c.13,0,.1,0,.24-.07a7.84,7.84,0,0,0,.82-.08c.18-.38-.06-2,.07-2.59a11.57,11.57,0,0,1,1.31-.14,3.93,3.93,0,0,0,.6-.1c.24-.15.13-.3.13-.5s0,0,0-.23v-.92c0-.23-.05-.52,0-.72.06-.51.12-.26,1.32-.36.42,0,.83.2.94-.28,0-.23,0-2.06,0-2.55.21-.14.16-.12.5-.12h1.81c.16-.24.12-.24.12-.62,0-2.12-.24-2.12.74-2.12a11.84,11.84,0,0,0,2.08,0,2.19,2.19,0,0,0,0-.27V26.6c0-.3-.19-.23-.47-.23H67.28c-.4,0-1.1.13-1.1-.28v-6Zm-7.06,1.41c0-.5,0-.87,0-1.34,0-.06,0-.12,0-.18v-.11a.26.26,0,0,1,.06-.22,1.59,1.59,0,0,1,.38-.29,4.37,4.37,0,0,1,.42-.28,1,1,0,0,0,.23-.13.82.82,0,0,1,.2-.12l.62-.39c.14-.1.07,0,.42-.25a1,1,0,0,1,.23-.12c.21-.09.05-.08.44-.23.17-.07.51-.33.86-.47l.91-.46a6.11,6.11,0,0,1,.91-.43c0,.14.08.13.08.28,0,3.2.09,2.24-.54,2.64-.37.24-.14,0-.58.28-.14.08-.29.11-.42.17s-.08.06-.19.12a1,1,0,0,1-.21.07l-.59.3c-.1.06,0,.06-.17.11a2.25,2.25,0,0,0-.24.08.86.86,0,0,0-.16.1c-.15.1-.25.12-.4.23s-.26.09-.41.18,0,0-.35.24c-.21.11,0,.06-.38.21s-1,.77-1.08.51a1.21,1.21,0,0,1,0-.5Zm12.59-7.88v3.25a3.57,3.57,0,0,1,.07.83v2.74a2.71,2.71,0,0,1,1,.94c.18.31,0,.39.44.39,0-.16.11-.77.11-1.21a9.25,9.25,0,0,0,0-1.91l0-1.2c0-.24,0-.41-.07-.64s-.09-.36-.13-.54a3,3,0,0,0-.13-.85,8.58,8.58,0,0,1-.21-.84c-.06-.24-.12-.11-.18-.49l-.27-.76c-.19-.18-.63.16-.63.29Zm-6,5.17c-.23,0-.14-.37-.15-.56s0-.14,0-.22a8.84,8.84,0,0,1,.08-2c.11-.15.17-.1.35-.16s.2-.14.32-.19.2,0,.37-.14l.71-.31a3.73,3.73,0,0,0,.35-.16c.21-.13,0-.06.35-.15l.72-.3c.44-.24.09-.15.52-.12,0,.38,0,.84,0,1.1s0,.34,0,.55a4.33,4.33,0,0,1,0,.55c0,.38,0,.82,0,1.08a12.48,12.48,0,0,0-.07,2.29c0,.16,0,.37-.1.49s-.31.09-.46.13a4.09,4.09,0,0,0-.67.23,3.2,3.2,0,0,0-.62.25l-.43.11a.74.74,0,0,1-.11-.54,5.09,5.09,0,0,0,0-1.14c0-.13,0-.2,0-.39,0-.54.05-.45-.15-.75-.38,0-.65.31-1,.31ZM70,22.92c0-1.42,0-3.56,0-4.94,0-.22,0-.35,0-.63V13.12c0-.47.08-.83.08-1.29,0-.83-.06-2.06,0-2.79s0-1.84.05-2.74c0-.24,0-.38,0-.67V4.22c0-.26,0-.38,0-.67a7.39,7.39,0,0,1,.07-1.33c0-.52-.12-.9.24-1.14.26.07.32.09.31.63a14.18,14.18,0,0,0,0,1.73c0,.2,0,.2,0,.35s0,.15,0,.31V6.43c.15,1.24,0,4,.07,4.79s.06,4.21.06,5.31c0,.31-.07.19,0,.52s.06,5.74.06,6.54c0,.25,0,.32,0,.58,0,.6.13,1.53-.24,1.53-.19,0,0,0-.22,0-.49,0-.72.15-.72-.29V22.92Zm-.47-18.5V6a18.9,18.9,0,0,0,0,2.5c0,.34,0,.6,0,1a27.32,27.32,0,0,1,0,3,5.54,5.54,0,0,0,0,1l-.55.31a.78.78,0,0,1-.23.08l-.85.37c-.18.12-.42.15-.6.26a.79.79,0,0,1-.23.09c-.18.06-.22.13-.39.2l-1.25.54c-.19.06-.15.12-.39.2l-.23.09c-.56.24-1.26.71-1.8.9-.2.08-.21.15-.36.23l-.2.08-.57.32c-.13.09-.31.12-.43.21l-.53.33-.2.1c-.08.05-.09.07-.16.12l-1,.57a3.85,3.85,0,0,1-.7.47l-.07,0,0,0-.08.07c-.32.28-1.08.76-1.55,1.16l-.65.52-.14.14-.51.43c-.36.36-.85.91-1.19,1.19l-2.43,2.95c-.24.31-.49.75-.71,1.1l-.32.54c-.06.14,0,.08-.13.18l-.44.77a8.71,8.71,0,0,0-.48,1,6.31,6.31,0,0,0-.5,2.2,4.27,4.27,0,0,1-.08.55,16.27,16.27,0,0,0,.05,2.42c0,.16,0,.35,0,.55l.08.51c0,.58.65.31.68.08l-.1-.58a21.28,21.28,0,0,1,0-3.57l.28-1.36c.09-.17.15-.42.31-.52,0,.23.1.18,0,.49s0,.66,0,1.05,0,1.68,0,2.18c0,.21,0,.3,0,.44l0,1.09a4.21,4.21,0,0,1,0,.46c0,.19,0,.25,0,.44s0,.26,0,.47,0,.31,0,.51,0,.71,0,1.06l0,1c0,8.41,0,16.83,0,25.24V68a1.27,1.27,0,0,1,0,.47c-.18,0-.31,0-.55,0-.89,0-2.8,0-3.57,0-.17,0-.35.06-.39-.16s0-19.57,0-22.22c0-.11,0-.21,0-.31V35.93c0-.19,0-.4,0-.59,0-.5-.28-.28-.95-.34-.15,0-.12,0-.24,0s-.29,0-.5,0H43.33c-.37,0-.56.17-.56-.35v-6c0-.28.08-.82-.2-.82H32.07c-.28,0-.19.56-.19.74,0,.64.08,6.32-.08,6.47a15.44,15.44,0,0,1-2.67.08c-.26,0-.63-.13-.69.2s0,28.45,0,32.38c0,.38.1.82-.28.82H26.32v1.06H48.89c1.26,0,2.6,0,3.85,0s2.48,0,3.72,0H93.68V68.51H91.43l-13.77-.08c-.5.24-3,0-4,.08-.15,0-.36,0-.36-.16V27.9c0-.11.41-.57.49-.73s.15-.22.21-.37l.19-.44a2.83,2.83,0,0,0,.05-1.09c0-.33-.12-.42-.22-.68s-.61-.55-.53-.93a9.91,9.91,0,0,0,.28-1.52,2.25,2.25,0,0,1,.12-.51l.07-.48c.06-.38,0-.78.06-1.16,0-.14,0-.32,0-.53A22.17,22.17,0,0,0,74,17.14l-.08-.51a1.39,1.39,0,0,1-.1-.53l-.74-2.9c-.32-.79-.28-.85-.87-.71s-.54.4-.54-.82a3.54,3.54,0,0,0,0-.57,3.21,3.21,0,0,1,0-.53c0-.42,0-.7,0-1.14V7.08c0-1.15-.13-2.32,0-3.46a3.18,3.18,0,0,0-.09-.74c-.09-.51.23-2.1-.36-2.31L71,.5c-.46-.21-1.24,0-1.25.58,0,.25,0,.32,0,.55v.59c0,.26-.08.25-.08.51a9,9,0,0,1,0,1.16,2.86,2.86,0,0,0-.06.53Zm8.15,64"/><path class="cls-1" d="M76.93,68.43,77,26a.72.72,0,0,1,.38-.65l7.14-3.95a.75.75,0,0,1,1,.29l0,0a.58.58,0,0,1,0,.14v0a.5.5,0,0,1,0,.12v3.6L92,31.92a.63.63,0,0,1,.16.24,1.05,1.05,0,0,1,.06.24V68.51A.71.71,0,0,1,92,69l0,0a.76.76,0,0,1-.49.18l-13.77-.08a.71.71,0,0,1-.52-.22l0,0a.66.66,0,0,1-.18-.49Zm7.81-46.24,0,0,0,0v-.06Zm-6.31,4.24,0,41.27,12.29.07v-35l-6.35-6.29a.69.69,0,0,1-.18-.24l0,0a.92.92,0,0,1,0-.28V23.29Z"/><path class="cls-1" d="M77.34,68.43l0-42.44a.34.34,0,0,1,.17-.29h0l7.14-3.95a.34.34,0,0,1,.45.13.47.47,0,0,1,0,.16h0v3.73l6.5,6.44a.35.35,0,0,1,.09.23h0V68.51a.33.33,0,0,1-.33.33h0l-13.74-.07a.32.32,0,0,1-.32-.33ZM78,26.18l0,41.93,13.11.07V32.58l-6.48-6.42a.33.33,0,0,1-.12-.25V22.59Z"/><path class="cls-1" d="M78.84,58.51H90.32a.64.64,0,0,1,.46.19.67.67,0,0,1,.2.47v4.48a.67.67,0,0,1-.2.47.64.64,0,0,1-.46.19H78.84a.64.64,0,0,1-.46-.19.67.67,0,0,1-.2-.47V59.17a.67.67,0,0,1,.2-.47.64.64,0,0,1,.46-.19Zm10.82,1.32H79.5V63H89.66Z"/><path class="cls-1" d="M78.84,58.92H90.32a.25.25,0,0,1,.24.25v4.48a.25.25,0,0,1-.24.25H78.84a.25.25,0,0,1-.24-.25V59.17a.25.25,0,0,1,.24-.25Zm11.23.49h-11v4h11Z"/><path class="cls-1" d="M78.84,49.53H90.32a.69.69,0,0,1,.46.19.67.67,0,0,1,.2.47v4.48a.67.67,0,0,1-.2.47.64.64,0,0,1-.46.19H78.84a.64.64,0,0,1-.46-.19.67.67,0,0,1-.2-.47V50.19a.67.67,0,0,1,.2-.47.69.69,0,0,1,.46-.19Zm10.82,1.32H79.5V54H89.66Z"/><path class="cls-1" d="M78.84,50H90.32a.24.24,0,0,1,.24.24v4.48a.25.25,0,0,1-.24.25H78.84a.25.25,0,0,1-.24-.25V50.19a.24.24,0,0,1,.24-.24Zm11.23.49h-11v4h11Z"/><path class="cls-1" d="M78.84,40.72H90.32a.69.69,0,0,1,.46.19.67.67,0,0,1,.2.47v4.48a.66.66,0,0,1-.2.47.64.64,0,0,1-.46.19H78.84a.64.64,0,0,1-.46-.19.66.66,0,0,1-.2-.47V41.38a.67.67,0,0,1,.2-.47.69.69,0,0,1,.46-.19ZM89.66,42H79.5V45.2H89.66Z"/><path class="cls-1" d="M78.84,41.14H90.32a.24.24,0,0,1,.24.24v4.48a.25.25,0,0,1-.24.25H78.84a.25.25,0,0,1-.24-.25V41.38a.24.24,0,0,1,.24-.24Zm11.23.49h-11v4h11Z"/><path class="cls-1" d="M78.84,32.05H90.32a.68.68,0,0,1,.66.66V37.2a.65.65,0,0,1-.2.46l0,0a.63.63,0,0,1-.42.16H78.84a.68.68,0,0,1-.66-.66V32.71a.68.68,0,0,1,.66-.66Zm10.82,1.32H79.5v3.17H89.66Z"/><path class="cls-1" d="M78.84,32.47H90.32a.24.24,0,0,1,.24.24V37.2a.24.24,0,0,1-.24.24H78.84a.24.24,0,0,1-.24-.24V32.71a.24.24,0,0,1,.24-.24ZM90.07,33h-11v4h11Z"/></svg>