<svg version="1.2" xmlns="http://www.w3.org/2000/svg" viewBox="0 0 402 321" width="402" height="321">
	<title>Indore Icon-01-01-svg</title>
	<style>
		.s0 { fill: none;stroke: #eca60c;stroke-width: 4.5 } 
	</style>
	<g id="Layer_1">
	</g>
	<g id="Layer_3">
		<g id="Layer">
			<g id="Layer">
				<path id="Layer" class="s0" d="m5.8 313.1q195.6 0.1 391.3 0.3"/>
				<path id="Layer" class="s0" d="m39.2 313.3q0.2-139.1 0.5-278.2 17.6 0.1 35.1 0.2 0.1 139 0.2 278"/>
				<path id="Layer" class="s0" d="m83.1 162.4h7.8v17.8h-7.8z"/>
				<path id="Layer" class="s0" d="m96.6 161.7h13.1v19.2h-13.1z"/>
				<path id="Layer" class="s0" d="m114.9 162.4h7.8v17.8h-7.8z"/>
				<path id="Layer" class="s0" d="m82.9 77.4h7.8v17.8h-7.8z"/>
				<path id="Layer" class="s0" d="m96.4 76.7h13.2v19.2h-13.2z"/>
				<path id="Layer" class="s0" d="m114.7 77.4h7.9v17.8h-7.9z"/>
				<path id="Layer" class="s0" d="m82.6 244.2h7.9v17.8l-7.9-0.1z"/>
				<path id="Layer" class="s0" d="m96.2 243.5h13.1v19.2h-13.1z"/>
				<path id="Layer" class="s0" d="m114.5 244.2h7.8v17.8l-7.8-0.1z"/>
				<path id="Layer" class="s0" d="m29.5 266.8q54.2 0 108.5 0"/>
				<path id="Layer" class="s0" d="m42.5 278q45 0.2 89.9 0.4"/>
				<path id="Layer" class="s0" d="m42.9 289.9q43.8 0.1 87.7 0.2"/>
				<path id="Layer" class="s0" d="m42.3 301.9q44-0.2 88.1-0.4"/>
				<path id="Layer" class="s0" d="m57.4 266.8q-0.1 5.6-0.2 11.2"/>
				<path id="Layer" class="s0" d="m91.6 266.8q-0.1 5.7-0.2 11.4"/>
				<path id="Layer" class="s0" d="m109.7 266.8q0 5.7 0 11.5"/>
				<path id="Layer" class="s0" d="m126.3 266.8q-0.1 5.8-0.2 11.5"/>
				<path id="Layer" class="s0" d="m47.5 278q0 6-0.1 11.9"/>
				<path id="Layer" class="s0" d="m65.3 278.1q-0.2 5.9-0.4 11.9"/>
				<path id="Layer" class="s0" d="m81.9 278.1q0 6 0 11.9"/>
				<path id="Layer" class="s0" d="m99.4 278.2q0.1 5.9 0.2 11.8"/>
				<path id="Layer" class="s0" d="m116.9 278.3q0 5.9 0 11.8"/>
				<path id="Layer" class="s0" d="m57.2 289.9q0 6-0.2 11.9"/>
				<path id="Layer" class="s0" d="m92.3 290q-0.1 5.8-0.2 11.6"/>
				<path id="Layer" class="s0" d="m108.7 290.1q0.2 5.7 0.4 11.5"/>
				<path id="Layer" class="s0" d="m126.3 290.1q0 6.2 0 12.3"/>
				<path id="Layer" class="s0" d="m47.9 301.8q-0.1 5.7-0.2 11.5"/>
				<path id="Layer" class="s0" d="m65.8 301.8q-0.1 5.7-0.2 11.5"/>
				<path id="Layer" class="s0" d="m83.2 301.7q-0.1 5.8-0.2 11.6"/>
				<path id="Layer" class="s0" d="m100.1 301.6q0.1 5.8 0.2 11.7"/>
				<path id="Layer" class="s0" d="m118.1 301.5q-0.2 5.9-0.4 11.8"/>
				<path id="Layer" class="s0" d="m52.1 247.6c0.9-2.3 3.2-3.7 5.5-3.5 2.1 0.2 3.9 1.6 4.7 3.7q0 5.4 0 10.9-5.2 0-10.3 0 0.1-5.6 0.1-11.1z"/>
				<path id="Layer" class="s0" d="m39.3 236q154.2 0 308.4 0"/>
				<path id="Layer" class="s0" d="m39.3 226.9q46.4 0.1 92.7 0.2"/>
				<path id="Layer" class="s0" d="m131.5 64.2q-0.1 124.5-0.2 249.1"/>
				<path id="Layer" class="s0" d="m52.4 210.6c0.9-2.3 3.2-3.6 5.5-3.5 2.1 0.2 3.9 1.6 4.7 3.7q0 5.4 0 10.9-5.2 0-10.3 0 0-5.5 0.1-11.1z"/>
				<path id="Layer" class="s0" d="m52 169.1c0.9-2.3 3.2-3.6 5.5-3.5 2.1 0.2 3.9 1.6 4.7 3.7q0 5.4 0 10.9-5.1 0-10.3 0 0.1-5.5 0.1-11.1z"/>
				<path id="Layer" class="s0" d="m44.8 184.9q12.7-0.1 25.3-0.2"/>
				<path id="Layer" class="s0" d="m52.4 137.4c0.9-2.4 3.2-3.9 5.5-3.7 2.1 0.2 3.9 1.7 4.7 3.9q0 5.9 0 11.8-5.2 0-10.3 0 0-6 0.1-12z"/>
				<path id="Layer" class="s0" d="m29.3 150q164.5-0.5 329-0.9"/>
				<path id="Layer" class="s0" d="m28.1 193.1q165.3-0.4 330.6-0.7"/>
				<path id="Layer" class="s0" d="m50.5 129.7c0.4-0.4 3-3.1 7.1-2.8 3.3 0.2 5.4 2.3 5.9 2.8"/>
				<path id="Layer" class="s0" d="m50.9 86.7c0.2-0.2 2.8-3.6 7-3.2 3.3 0.3 5.1 2.7 5.4 3.1"/>
				<path id="Layer" class="s0" d="m50.9 43.5c0.3-0.3 2.6-2.7 6.3-2.6 3.7 0.1 5.8 2.5 6.2 2.9"/>
				<path id="Layer" class="s0" d="m29.1 63.9q164.8-0.1 329.6-0.2"/>
				<path id="Layer" class="s0" d="m52 94.9c0.9-2.4 3.1-3.9 5.5-3.7 2 0.2 3.9 1.7 4.6 3.9q0 5.9 0 11.8-5.1 0-10.3 0 0.1-5.9 0.2-12z"/>
				<path id="Layer" class="s0" d="m28.9 106.9q163.7-0.4 327.5-0.7"/>
				<path id="Layer" class="s0" d="m52 51.8c0.9-2.4 3.2-3.9 5.5-3.7 2.1 0.2 3.9 1.7 4.7 3.9q0 5.9 0 11.8-5.1 0-10.3 0 0.1-6 0.1-12z"/>
				<path id="Layer" class="s0" d="m325 51.4c0.9-2.5 3.2-4 5.5-3.8 2.1 0.2 3.9 1.8 4.7 4q0 5.9 0 11.8-5.2 0-10.3 0 0.1-6 0.1-12z"/>
				<path id="Layer" class="s0" d="m39.5 34.6q-2.1-2.7-4.2-5.4 21.5-0.4 43.1-0.7-1.6 3.1-3.1 6.2"/>
				<path id="Layer" class="s0" d="m52.1 16.5c0.9-2.5 3.1-4 5.5-3.8 2.1 0.2 3.9 1.8 4.6 4q0 5.9 0 11.8-5.1 0-10.2 0 0-6 0.1-12z"/>
				<path id="Layer" class="s0" d="m74.8 59q46.5 0.1 93.1 0.2"/>
				<path id="Layer" class="s0" d="m98.1 47.2c0.9-2.5 3.2-4 5.5-3.8 2.1 0.2 3.9 1.8 4.7 4q0 5.9 0 11.8-5.1 0-10.3 0 0.1-6 0.1-12z"/>
				<path id="Layer" class="s0" d="m149.5 47.5c0.9-2.4 3.1-3.9 5.5-3.7 2.1 0.2 3.9 1.7 4.6 3.9q0 5.9 0 11.8-5.1 0-10.2 0 0-6 0.1-12z"/>
				<path id="Layer" class="s0" d="m82.5 124.8c0.9-2.4 3.2-3.6 5.1-3 1.4 0.4 2.4 1.6 2.7 3.1q0.1 5.6 0.3 11.2-4 0-8 0 0-5.6-0.1-11.3z"/>
				<path id="Layer" class="s0" d="m115.2 125.3c0.8-2.3 3.2-3.6 5.1-3 1.3 0.4 2.3 1.6 2.7 3.1q0.1 5.6 0.2 11.2-3.9 0-7.9 0-0.1-5.6-0.1-11.3z"/>
				<path id="Layer" class="s0" d="m98.2 125.3c1-2.3 3.7-3.6 5.9-3 1.5 0.4 2.7 1.6 3.1 3.1q0.1 5.6 0.2 11.2-4.5 0-9.1 0-0.1-5.6-0.1-11.3z"/>
				<path id="Layer" class="s0" d="m82.4 209.9c0.8-2.4 3.2-3.6 5.1-3 1.3 0.3 2.3 1.5 2.7 3q0.1 5.6 0.2 11.2-4 0.1-8 0.1 0-5.7 0-11.3z"/>
				<path id="Layer" class="s0" d="m115 210.4c0.9-2.4 3.3-3.6 5.2-3 1.3 0.3 2.3 1.5 2.7 3q0.1 5.6 0.2 11.2-4 0.1-8 0.1 0-5.7-0.1-11.3z"/>
				<path id="Layer" class="s0" d="m98.1 210.4c0.9-2.4 3.6-3.6 5.8-3 1.6 0.3 2.7 1.5 3.2 3q0.1 5.6 0.2 11.2-4.6 0.1-9.2 0.1 0-5.7 0-11.3z"/>
				<path id="Layer" class="s0" d="m144.2 80.1c1.3-4.4 5.4-7.5 10-7.5 4.6 0 8.7 3 10.1 7.3q-0.2 10.3-0.4 20.7-10-0.1-20.1-0.2 0.2-10.2 0.4-20.3z"/>
				<path id="Layer" class="s0" d="m223.3 80.2c1.4-4.4 5.5-7.5 10.1-7.5 4.6 0 8.6 3 10.1 7.3q-0.2 10.3-0.4 20.7-10.1-0.1-20.1-0.2 0.1-10.2 0.3-20.3z"/>
				<path id="Layer" class="s0" d="m174.1 83.5c1.1-3.4 3.8-5.5 6.7-5.2 2.5 0.3 4.8 2.4 5.7 5.5q0 8.2 0 16.4-6.3 0.1-12.6 0.1 0.1-8.4 0.2-16.8z"/>
				<path id="Layer" class="s0" d="m187.5 83.5c1.1-3.4 3.9-5.5 6.7-5.2 2.6 0.3 4.8 2.4 5.7 5.5q0 8.2 0 16.4-6.3 0.1-12.5 0.1 0-8.4 0.1-16.8z"/>
				<path id="Layer" class="s0" d="m200 83.5c1.1-3.4 3.9-5.5 6.7-5.2 2.6 0.3 4.8 2.4 5.7 5.5q0 8.2 0 16.4-6.2 0.1-12.5 0.1 0-8.4 0.1-16.8z"/>
				<path id="Layer" class="s0" d="m143.2 164.6c1.4-4.4 5.4-7.4 10.1-7.4 4.5-0.1 8.6 2.9 10 7.2q-0.2 10.4-0.3 20.7-10.1-0.1-20.2-0.2 0.2-10.1 0.4-20.3z"/>
				<path id="Layer" class="s0" d="m222.4 164.7c1.3-4.4 5.4-7.4 10-7.5 4.6 0 8.7 3 10.1 7.3q-0.2 10.4-0.4 20.7-10.1-0.1-20.1-0.2 0.2-10.1 0.4-20.3z"/>
				<path id="Layer" class="s0" d="m173.1 168c1.1-3.4 3.8-5.5 6.7-5.2 2.5 0.3 4.8 2.4 5.7 5.5q0 8.2 0 16.5-6.3 0-12.6 0 0.1-8.4 0.2-16.8z"/>
				<path id="Layer" class="s0" d="m186.5 168c1.1-3.4 3.9-5.5 6.7-5.2 2.6 0.3 4.8 2.4 5.7 5.5q0 8.2 0 16.5-6.2 0-12.5 0 0-8.4 0.1-16.8z"/>
				<path id="Layer" class="s0" d="m199 168c1.2-3.4 3.9-5.5 6.8-5.2 2.5 0.3 4.7 2.4 5.6 5.5q0 8.2 0 16.5-6.2 0-12.5 0 0.1-8.4 0.1-16.8z"/>
				<path id="Layer" class="s0" d="m147.7 119.2h12.3v18h-12.3z"/>
				<path id="Layer" class="s0" d="m175.2 119.2h10.3v18.4h-10.3z"/>
				<path id="Layer" class="s0" d="m201.6 118.5h10.8v18.8l-10.8-0.1z"/>
				<path id="Layer" class="s0" d="m185.5 114h16.1v27.8h-16.1z"/>
				<path id="Layer" class="s0" d="m227.7 119.6h10.9v17h-10.9z"/>
				<path id="Layer" class="s0" d="m144.1 202.7h98.4v26.2h-98.4z"/>
				<path id="Layer" class="s0" d="m163 202.7q0.1 13.1 0.2 26.2"/>
				<path id="Layer" class="s0" d="m223.9 203.3q0.2 13 0.5 26.1"/>
				<path id="Layer" class="s0" d="m230.4 210.5q0.1 5.4 0.1 10.9"/>
				<path id="Layer" class="s0" d="m236.6 210q0.1 5.4 0.2 10.8"/>
				<path id="Layer" class="s0" d="m150.6 210.6q0.1 5.6 0.2 11.3"/>
				<path id="Layer" class="s0" d="m157.6 210q0.1 5.9 0.2 11.8"/>
				<path id="Layer" class="s0" d="m172.6 209.4c1.1 0.1 2 0.8 2.5 1.9q0 5.5 0.1 11.1-2.9 0-5.8 0.1 0-5.5 0.1-11.1c0.5-1.3 1.8-2.2 3.1-2z"/>
				<path id="Layer" class="s0" d="m178.4 209.4c1.1 0.2 2 0.9 2.5 1.9q0 5.6 0 11.1-2.8 0.1-5.7 0.1 0-5.5 0.1-11c0.5-1.4 1.8-2.2 3.1-2.1z"/>
				<path id="Layer" class="s0" d="m184.8 209.4c1 0.2 1.9 0.9 2.4 1.9q0 5.6 0.1 11.1-2.9 0.1-5.8 0.1 0-5.5 0.1-11c0.5-1.4 1.8-2.2 3.1-2.1z"/>
				<path id="Layer" class="s0" d="m190.8 209.5c1 0.1 1.9 0.9 2.4 1.9q0 5.5 0.1 11.1-2.9 0-5.8 0.1 0-5.5 0.1-11c0.5-1.4 1.8-2.2 3.1-2.1z"/>
				<path id="Layer" class="s0" d="m197 209.6c1.1 0.1 2 0.8 2.4 1.8q0.1 5.6 0.1 11.1-2.9 0.1-5.7 0.1 0-5.5 0-11c0.6-1.3 1.9-2.2 3.2-2z"/>
				<path id="Layer" class="s0" d="m202.8 209.6c1 0.1 2 0.8 2.4 1.9q0.1 5.5 0.1 11.1-2.9 0-5.8 0.1 0.1-5.5 0.1-11.1c0.5-1.3 1.8-2.2 3.2-2z"/>
				<path id="Layer" class="s0" d="m208.7 209.6c1 0.2 1.9 0.9 2.4 1.9q0 5.6 0.1 11.1-2.9 0.1-5.8 0.1 0-5.5 0.1-11c0.5-1.4 1.8-2.2 3.2-2.1z"/>
				<path id="Layer" class="s0" d="m214.7 209.6c1 0.1 1.9 0.8 2.4 1.8q0 5.6 0.1 11.1-2.9 0.1-5.8 0.1 0-5.5 0.1-11c0.5-1.4 1.8-2.2 3.2-2z"/>
				<path id="Layer" class="s0" d="m144.4 243.5h19.3l-0.1 24.1h-19.2z"/>
				<path id="Layer" class="s0" d="m150.8 250.4q0.1 5.3 0.2 10.6"/>
				<path id="Layer" class="s0" d="m157.3 250q0 5.7 0 11.5"/>
				<path id="Layer" class="s0" d="m155.3 278.4q0 4.8 0 9.7"/>
				<path id="Layer" class="s0" d="m230.3 250.5q0 5.7-0.1 11.3"/>
				<path id="Layer" class="s0" d="m236.4 250.2q-0.1 5.6-0.1 11.3"/>
				<path id="Layer" class="s0" d="m232.1 278.4q-0.1 5.1-0.1 10.2"/>
				<path id="Layer" class="s0" d="m223.7 244.1h18.9v23.7h-18.9z"/>
				<path id="Layer" class="s0" d="m311.6 313.1q0.1-139 0.2-278 17.5-0.1 35.1-0.2 0.3 139.1 0.5 278.1"/>
				<path id="Layer" class="s0" d="m295.7 162.2h7.8v17.8h-7.8z"/>
				<path id="Layer" class="s0" d="m276.9 161.5h13.1v19.2h-13.1z"/>
				<path id="Layer" class="s0" d="m263.9 162.2h7.8v17.8h-7.8z"/>
				<path id="Layer" class="s0" d="m295.9 77.2h7.8v17.8h-7.8z"/>
				<path id="Layer" class="s0" d="m277 76.5h13.2v19.2h-13.2z"/>
				<path id="Layer" class="s0" d="m264 77.2h7.8v17.8h-7.8z"/>
				<path id="Layer" class="s0" d="m296.1 244h7.8v17.7h-7.8z"/>
				<path id="Layer" class="s0" d="m277.3 243.3h13.1v19.1h-13.1z"/>
				<path id="Layer" class="s0" d="m264.3 244h7.8v17.7h-7.8z"/>
				<path id="Layer" class="s0" d="m357.1 266.6q-54.2 0-108.5 0"/>
				<path id="Layer" class="s0" d="m344.1 277.8q-45 0.2-89.9 0.3"/>
				<path id="Layer" class="s0" d="m343.7 289.7q-43.8 0.1-87.6 0.2"/>
				<path id="Layer" class="s0" d="m344.3 301.7q-44-0.2-88.1-0.4"/>
				<path id="Layer" class="s0" d="m329.2 266.6q0.1 5.6 0.2 11.2"/>
				<path id="Layer" class="s0" d="m295 266.6q0.1 5.7 0.2 11.4"/>
				<path id="Layer" class="s0" d="m339.1 277.8q0 6 0.1 11.9"/>
				<path id="Layer" class="s0" d="m321.3 277.9q0.2 5.9 0.4 11.9"/>
				<path id="Layer" class="s0" d="m304.7 277.9q0 6 0 11.9"/>
				<path id="Layer" class="s0" d="m287.2 278q-0.1 5.9-0.2 11.8"/>
				<path id="Layer" class="s0" d="m329.4 289.8q0 5.9 0.1 11.8"/>
				<path id="Layer" class="s0" d="m294.3 289.8q0.1 5.8 0.2 11.6"/>
				<path id="Layer" class="s0" d="m277.9 289.9q-0.2 5.7-0.4 11.5"/>
				<path id="Layer" class="s0" d="m338.7 301.6q0.1 5.7 0.2 11.4"/>
				<path id="Layer" class="s0" d="m320.8 301.6q0.1 5.7 0.2 11.5"/>
				<path id="Layer" class="s0" d="m303.4 301.5q0.1 5.8 0.2 11.6"/>
				<path id="Layer" class="s0" d="m286.4 301.4q0 5.8-0.1 11.7"/>
				<path id="Layer" class="s0" d="m334.6 258.5q-5.2 0-10.3 0 0-5.5 0-10.9c0.8-2.1 2.6-3.5 4.7-3.7 2.3-0.2 4.6 1.2 5.5 3.5q0 5.5 0.1 11.1z"/>
				<path id="Layer" class="s0" d="m347.3 226.7q-46.4 0.1-92.8 0.2"/>
				<path id="Layer" class="s0" d="m334.3 221.5q-5.1 0-10.3 0 0-5.5 0-10.9c0.8-2.1 2.6-3.5 4.7-3.7 2.3-0.1 4.6 1.2 5.5 3.5q0.1 5.6 0.1 11.1z"/>
				<path id="Layer" class="s0" d="m334.7 180q-5.2 0-10.3 0 0-5.5 0-10.9c0.8-2.1 2.6-3.5 4.7-3.7 2.3-0.1 4.6 1.2 5.5 3.5q0 5.5 0.1 11.1z"/>
				<path id="Layer" class="s0" d="m341.8 184.7q-12.7-0.1-25.3-0.2"/>
				<path id="Layer" class="s0" d="m334.3 149.2q-5.1 0-10.3 0 0-5.9 0-11.8c0.8-2.2 2.6-3.7 4.7-3.9 2.3-0.2 4.6 1.3 5.5 3.7q0.1 6 0.1 12z"/>
				<path id="Layer" class="s0" d="m323.1 129.5c0.5-0.5 2.6-2.6 5.9-2.8 4.1-0.3 6.7 2.4 7.1 2.8"/>
				<path id="Layer" class="s0" d="m323.3 86.4c0.3-0.4 2.1-2.8 5.4-3.1 4.2-0.4 6.8 3 7 3.2"/>
				<path id="Layer" class="s0" d="m323.2 43.6c0.4-0.4 2.5-2.9 6.2-2.9 3.7-0.1 6 2.2 6.3 2.6"/>
				<path id="Layer" class="s0" d="m334.7 106.7q-5.1 0-10.2 0 0-5.9 0-11.8c0.7-2.2 2.6-3.7 4.6-3.9 2.4-0.2 4.6 1.3 5.5 3.7q0.1 6 0.1 12z"/>
				<path id="Layer" class="s0" d="m334.7 63.6q-5.2 0-10.3 0 0-5.9 0-11.8c0.8-2.2 2.6-3.7 4.7-3.9 2.3-0.2 4.6 1.3 5.5 3.7q0 6 0.1 12z"/>
				<path id="Layer" class="s0" d="m311.3 34.5q-1.5-3.1-3.1-6.2 21.6 0.3 43.1 0.7-2.1 2.7-4.2 5.4"/>
				<path id="Layer" class="s0" d="m334.6 28.3q-5.1 0-10.3 0 0-5.9 0-11.8c0.8-2.2 2.6-3.8 4.7-4 2.3-0.2 4.6 1.3 5.5 3.8q0.1 6 0.1 12z"/>
				<path id="Layer" class="s0" d="m311.8 58.8q-45.8 0.1-91.6 0.2"/>
				<path id="Layer" class="s0" d="m288.6 59q-5.2 0-10.3 0 0-5.9 0-11.8c0.7-2.2 2.6-3.8 4.7-4 2.3-0.2 4.5 1.3 5.5 3.8q0 6 0.1 12z"/>
				<path id="Layer" class="s0" d="m304 135.9q-4 0-8-0.1 0.1-5.5 0.2-11.1c0.4-1.5 1.4-2.7 2.8-3.1 1.9-0.6 4.2 0.6 5.1 3q-0.1 5.7-0.1 11.3z"/>
				<path id="Layer" class="s0" d="m271.3 136.4q-4 0-7.9 0 0.1-5.6 0.2-11.2c0.3-1.5 1.4-2.7 2.7-3.1 1.9-0.6 4.3 0.7 5.1 3q0 5.7-0.1 11.3z"/>
				<path id="Layer" class="s0" d="m288.3 136.4q-4.6 0-9.1 0 0.1-5.6 0.2-11.2c0.4-1.5 1.6-2.7 3.1-3.1 2.2-0.6 4.9 0.7 5.9 3q0 5.7-0.1 11.3z"/>
				<path id="Layer" class="s0" d="m304.1 221q-4 0-7.9-0.1 0.1-5.6 0.2-11.2c0.3-1.5 1.4-2.7 2.7-3.1 1.9-0.5 4.3 0.7 5.1 3.1q0 5.6-0.1 11.3z"/>
				<path id="Layer" class="s0" d="m271.5 221.5q-4 0-8-0.1 0.1-5.6 0.2-11.2c0.4-1.5 1.4-2.7 2.7-3 2-0.6 4.3 0.6 5.2 3q-0.1 5.6-0.1 11.3z"/>
				<path id="Layer" class="s0" d="m288.5 221.5q-4.6 0-9.2-0.1 0.1-5.6 0.2-11.2c0.4-1.5 1.6-2.7 3.2-3 2.2-0.6 4.8 0.6 5.8 3q0 5.6 0 11.3z"/>
				<path id="Layer" class="s0" d="m170.8 313.3q0.1-16.8 0.2-33.6c0.1-0.5 0.6-2.8 2.6-4.3 1.9-1.5 3.9-1.4 4.5-1.4-4-5.7-4.6-12.9-1.7-18.8 5.1-9.9 17.3-9.5 18-9.5 7.4 0.4 15.7 5.2 17.9 13.4 2 7.6-2.1 13.9-2.9 15 0.9 0.3 2.5 0.8 4.2 2 1.8 1.4 2.7 3.1 3.1 3.9q0.1 16.7 0.2 33.3"/>
				<path id="Layer" class="s0" d="m256.3 64.2q-0.1 124.5-0.2 249.1"/>
				<path id="Layer" class="s0" d="m181.7 45.2h5.7v11.6h-5.7z"/>
				<path id="Layer" class="s0" d="m188 40.3h10.9v20h-10.9z"/>
				<path id="Layer" class="s0" d="m199.9 44.4h6.3v13h-6.3z"/>
				<path id="Layer" class="s0" d="m228.2 46.7c0.9-2.4 3.1-3.9 5.5-3.7 2.1 0.2 3.9 1.7 4.6 3.9q0.1 5.9 0 11.8-5.1 0-10.2 0 0-6 0.1-12z"/>
				<path id="Layer" class="s0" d="m172.5 15.9c0.9-2.5 3.2-4.1 5.5-3.9 2.1 0.2 3.9 1.8 4.7 4.2q0 6.2 0 12.4-5.2 0-10.3 0 0-6.3 0.1-12.7z"/>
				<path id="Layer" class="s0" d="m205.3 15.9c0.9-2.5 3.2-4.1 5.5-3.9 2.1 0.2 3.9 1.8 4.7 4.2q0 6.2 0 12.4-5.2 0-10.3 0 0.1-6.3 0.1-12.7z"/>
				<path id="Layer" class="s0" d="m188.1 11.5c1-3.5 3.5-5.7 6.1-5.4 2.3 0.3 4.3 2.5 5.1 5.6q0 8.5 0 17-5.7 0-11.4 0 0.1-8.6 0.2-17.2z"/>
				<path id="Layer" class="s0" d="m168.1 63.8q0-14.3 0-28.7-2.6-3.2-5.2-6.3 30.5 0 61 0-1.6 2.9-3.2 5.7 0 14.5-0.1 28.9"/>
				<path id="Layer" class="s0" d="m167.6 34.6q26.6 0 53.1-0.1"/>
			</g>
		</g>
	</g>
</svg>