<?xml version="1.0" encoding="utf-8"?>
<!-- Generator: Adobe Illustrator 26.5.0, SVG Export Plug-In . SVG Version: 6.00 Build 0)  -->
<svg version="1.1" id="Layer_1" xmlns="http://www.w3.org/2000/svg" xmlns:xlink="http://www.w3.org/1999/xlink" x="0px" y="0px"
	 viewBox="0 0 500 303" style="enable-background:new 0 0 500 303;" xml:space="preserve">
<style type="text/css">
	.st0{fill:none;stroke:#ECA60C;stroke-width:6;stroke-miterlimit:10;}
</style>
<path class="st0" d="M2.06,279.19c166.67,1.4,333.33,2.8,500,4.2"/>
<path class="st0" d="M234.84,226.67c-4.62-17.65-9.24-35.29-13.87-52.94c-2.52-18.91-5.04-37.82-7.56-56.72
	c-7.42-1.96-14.85-3.92-22.27-5.88c-51.31,2.91-89.01,5.43-100.42,6.3c-3.64,0.28-11.06,0.88-20.59,2.94
	c-4.82,1.04-8.74,2.15-11.34,2.94c-1.64,3.1-3.24,6.6-4.62,10.5c-4.67,13.18-4.9,25.21-4.2,33.61c-2.79,3.76-6.19,8.95-9.24,15.55
	c-1.37,2.95-4.2,9.16-5.88,17.23c-1.95,9.35-1.35,16.29-0.42,26.89c1.4,16.04,4.79,27.85,5.88,31.51
	c2.92,9.74,6.43,17.92,9.66,24.37"/>
<path class="st0" d="M81.06,274.57c0.1-2.48,0.52-6.1,2.1-10.08c3.35-8.44,10.37-14.58,28.57-23.11
	c22.35-10.48,22.92-6.46,53.78-18.07c5.61-2.11,14.22-5.49,25.63-5.04c6.75,0.26,12.44,1.79,15.13,2.52
	c8.18,2.24,14.56,5.43,18.91,7.98"/>
<path class="st0" d="M192.4,276.25c0.23-1.83,0.86-6.84,1.68-13.45c1.54-12.38,1.86-15.24,3.78-18.49
	c3.08-5.22,8.07-7.71,12.61-9.66c18.17-7.83,36.07-10.03,42.44-10.92c10.3-1.44,25.05-4.28,42.86-10.5c2.52,3.5,5.04,7,7.56,10.5
	c4.2-2.94,8.4-5.88,12.61-8.82c4.06,3.36,8.12,6.72,12.18,10.08c-0.56,18.35-1.12,36.69-1.68,55.04"/>
<path class="st0" d="M55.46,130.43c-0.01-9.66-0.02-19.31-0.03-28.97c-1.43-1.88-3.35-4.1-5.88-6.3c-2.89-2.51-5.7-4.26-7.98-5.46
	c3.85-0.21,7.7-0.42,11.55-0.63c50.7-2.52,101.4-5.04,152.1-7.56"/>
<path class="st0" d="M169.29,47.89c-8.82-5.74-17.65-11.48-26.47-17.23c-31.77,1.93-63.53,3.85-95.3,5.78
	c2.52,1.76,5.04,3.52,7.56,5.28c0.13,1.26,0.26,2.52,0.39,3.78c0.5,0.53,1,1.05,1.5,1.58c-0.31,10.71-0.61,21.41-0.92,32.12
	c-0.98,3.29-1.96,6.58-2.94,9.87"/>
<path class="st0" d="M142.4,36.13c0,1.68,0,3.36,0,5.04c1.05,1.75,2.1,3.5,3.15,5.25c4.06,0.35,8.12,0.7,12.18,1.05
	c-0.07,3.5-0.14,7-0.21,10.5c0.98-0.14,1.96-0.28,2.94-0.42c0.07,1.47,0.14,2.94,0.21,4.41c2.52,0,5.04,0,7.56,0
	c0.35-4.69,0.7-9.38,1.05-14.08c14.64-0.91,29.27-1.82,43.91-2.73c0.35,9.94,0.7,19.89,1.05,29.83c2.1,1.19,4.2,2.38,6.3,3.57
	c-0.07-3.43-0.14-6.86-0.21-10.29c7.28,0,14.57,0,21.85,0c5.32,4.55,10.64,9.1,15.97,13.66c0.14,4.2,0.28,8.4,0.42,12.61"/>
<path class="st0" d="M58.94,35.18c-0.25-1.62-0.5-4.96,1.42-7.88c1.7-2.59,4.27-3.61,5.99-4.25c12.2-4.57,20.96-5.67,20.96-5.67
	c8.49-1.06,15.29-1.33,19.22-1.42c5.89-0.14,13.73-0.09,23,0.63c0.89,0.11,2.59,0.44,4.1,1.73c0.52,0.44,1.2,1.15,1.89,2.52
	c1.79,3.53,1.8,7.78,1.73,9.61"/>
<path class="st0" d="M131.34,17.01c14.47,10.18,28.94,20.36,43.41,30.54"/>
<path class="st0" d="M217.93,101.04c0.39-1.99,2.06-3.42,3.94-3.47c1.56-0.04,3.04,0.89,3.77,2.37c1.17-2.43,3.62-3.75,5.84-3.31
	c2.05,0.41,3.12,2.17,3.32,2.51c0.68-2.61,3.26-4.25,5.82-3.77c2.41,0.45,4.18,2.66,4.1,5.2c0.11-2.84,2.37-4.85,4.57-4.73
	c1.6,0.09,3.09,1.31,3.73,3.05c0.96-1.8,2.87-2.82,4.77-2.58c2.38,0.31,3.49,2.45,3.58,2.62c1.05-2.3,3.28-3.71,5.56-3.57
	c2.36,0.15,3.78,1.9,4.02,2.21c0.88-2,3.02-3.14,5.12-2.76c2,0.37,3.55,2.04,3.78,4.1c0.03-2.49,1.87-4.53,4.1-4.81
	c2.56-0.31,5.11,1.76,5.28,4.65c-0.41-2.74,1.58-5.15,3.94-5.36c2.49-0.22,4.96,2.04,4.81,4.96c-0.07-2.4,1.86-4.35,4.1-4.36
	c2.04,0,3.86,1.61,4.1,3.78c-0.09-2.46,1.91-4.49,4.25-4.46c2.21,0.02,4.1,1.86,4.18,4.18c-0.13-2.76,2.09-5.1,4.81-5.12
	c2.74-0.02,5.02,2.33,4.88,5.12c0.14-3.28,2.99-5.51,5.57-5.12c2.03,0.31,3.77,2.23,3.99,4.67c-0.14-2.47,1.67-4.58,3.91-4.83
	c2.47-0.28,4.89,1.75,4.96,4.49c-0.32-2.81,1.93-5.17,4.41-5.12c2.37,0.05,4.47,2.28,4.25,4.96c-0.12-3.6,2.92-6.16,5.62-5.8
	c2.26,0.3,4.27,2.65,4.2,5.57c-0.39-3.31,2.2-5.81,4.52-5.67c1.98,0.12,3.97,2.19,3.99,4.94c-0.23-2.7,1.9-5.04,4.52-5.09
	c2.55-0.05,4.74,2.08,4.73,4.73c-0.52-3.37,1.47-6.13,3.47-6.46c2.2-0.36,5.33,2.08,5.36,5.99c-0.17-2.79,1.94-5.17,4.57-5.36
	c2.43-0.17,4.71,1.58,5.2,4.1c-0.1-2.71,2.15-4.86,4.57-4.73c2.16,0.11,4.03,2.01,4.1,4.41c0.17-2.38,1.99-4.29,4.25-4.57
	c2.06-0.25,4.09,0.9,5,2.85c0.06-0.15,0.98-2.33,3.04-2.69c1.99-0.35,4.24,1.12,4.88,3.62c7.25,0.05,14.5,0.11,21.74,0.16
	c6.25,2.63,12.5,5.25,18.75,7.88c-0.37,2.73-0.74,5.46-1.1,8.19c1.6,0.72,3.56,1.96,4.57,4.1c0.89,1.9,0.67,3.71,0.63,4.1
	c-0.37,4.02,2.56,47.95,7.41,115.02c-2.23-2.7-6.53-7.11-13.24-9.45c-4.14-1.45-7.67-1.58-9.77-1.58c-17.77,0-35.61,7.25-35.61,7.25
	c-10.76,4.37-26.24,9.51-47.58,13.24"/>
<path class="st0" d="M430.64,97.26c0.23,42.09,0.46,84.19,0.69,126.28"/>
<path class="st0" d="M220.45,132.55c70.12-1.99,140.23-3.99,210.35-5.98"/>
<path class="st0" d="M304.9,222.63c0-12.06,0-24.13,0-36.19c-1.27-5.69-3.69-9.12-5.36-11.03c-1.23-1.4-3.54-3.68-16.21-9.83
	c-3.64-1.77-6.67-3.14-8.69-4.04c-1.34,1-3.49,2.52-6.3,4.1c-6.85,3.84-10.4,3.98-14.18,6.3c-3.01,1.85-6.85,5.5-9.45,13.55
	c0.12,13.13,0.24,26.26,0.37,39.39"/>
<rect x="339.09" y="170.37" class="st0" width="15.13" height="29.31"/>
<rect x="332.74" y="104.82" class="st0" width="10.82" height="15.13"/>
<rect x="288.62" y="106.92" class="st0" width="10.19" height="15.13"/>
<rect x="245.26" y="109.31" class="st0" width="9.22" height="12.37"/>
<rect x="94.95" y="51.09" class="st0" width="5.91" height="10.79"/>
<rect x="118.9" y="44.4" class="st0" width="3.78" height="5.91"/>
<rect x="117.95" y="70.55" class="st0" width="5.44" height="7.17"/>
<rect x="71.23" y="47.55" class="st0" width="6.14" height="7.48"/>
<rect x="70.05" y="73.55" class="st0" width="4.96" height="7.25"/>
<path class="st0" d="M214.04,84.76c4.1,3.47,8.19,6.93,12.29,10.4"/>
<path class="st0" d="M209.1,83.29c-0.04,10.22-0.07,20.45-0.1,30.67"/>
<path class="st0" d="M177.48,86.34"/>
<path class="st0" d="M179.16,85.07c0.21,8.12,0.42,16.25,0.63,24.37"/>
<path class="st0" d="M174.44,85.39c-0.04,8.33-0.07,16.67-0.1,25"/>
<path class="st0" d="M140.3,86.65c-0.1,8.44-0.21,16.88-0.31,25.32"/>
<path class="st0" d="M135.68,87.81c-0.28,8.33-0.56,16.67-0.84,25"/>
<path class="st0" d="M111.88,89.54c-0.05,8.46-0.1,16.91-0.16,25.37"/>
<path class="st0" d="M108.1,89.7c-0.58,8.61-1.16,17.23-1.73,25.84"/>
<path class="st0" d="M84.78,91.9c0.01,8.69,0.03,17.38,0.04,26.07"/>
<path class="st0" d="M79.74,92.06c-0.26,8.56-0.53,17.12-0.79,25.68"/>
<path class="st0" d="M473.02,229.24c12.83,12.37,17.65,28.51,12.23,40.29c-1.19,2.59-3.7,6.77-9.24,10.5"/>
</svg>
