<?xml version="1.0" encoding="utf-8"?>
<!-- Generator: Adobe Illustrator 26.5.0, SVG Export Plug-In . SVG Version: 6.00 Build 0)  -->
<svg version="1.1" id="Layer_1" xmlns="http://www.w3.org/2000/svg" xmlns:xlink="http://www.w3.org/1999/xlink" x="0px" y="0px"
	 viewBox="0 0 500 284" style="enable-background:new 0 0 500 284;" xml:space="preserve">
<style type="text/css">
	.st0{fill:none;stroke:#ECA60C;stroke-width:4;stroke-miterlimit:10;}
</style>
<g>
	<polyline class="st0" points="406.64,269.68 406.36,70.99 401.45,70.99 401.45,67.9 406.22,67.9 406.22,56.4 425.85,56.4 
		425.85,43.28 452.65,43.28 452.65,56.19 471.3,56.19 471.3,67.62 474.95,67.62 474.95,71.2 471.37,71.2 471.44,169.88 
		492.49,169.67 492.49,269.7 7.5,269.58 7.5,119.47 28.08,119.47 27.98,77.39 30.97,77.39 31.07,66.14 108.5,66.14 108.69,268.28 	
		"/>
	<line class="st0" x1="7.5" y1="220.76" x2="108.64" y2="220.76"/>
	<line class="st0" x1="7.5" y1="216.83" x2="108.64" y2="216.83"/>
	<line class="st0" x1="176.58" y1="71.41" x2="337.62" y2="70.29"/>
	<path class="st0" d="M176.58,114.05V46.02c0,0,2.03-5.14,6.49-4.81c0,0,2.7-3.88,3.09-6.13c0,0,1.16,4.12,2.95,6.13
		c0,0,4.03,0.47,5.01,3.55"/>
	<polyline class="st0" points="194.68,114.05 194.12,41.2 228.58,41.2 228.58,70.85 	"/>
	<line class="st0" x1="108.55" y1="114.05" x2="406.42" y2="114.05"/>
	<line class="st0" x1="406.42" y1="117.98" x2="108.55" y2="117.98"/>
	<line class="st0" x1="108.55" y1="162.03" x2="406.42" y2="162.03"/>
	<line class="st0" x1="108.55" y1="165.39" x2="406.42" y2="165.39"/>
	<line class="st0" x1="108.55" y1="210" x2="406.55" y2="210"/>
	<path class="st0" d="M125.61,117.98v3.83c0,0,0.47,1.96,3.09,2.62v37.59"/>
	<path class="st0" d="M136.66,117.98v3.83c0,0-0.47,1.96-3.09,2.62v37.59"/>
	<g>
		<path class="st0" d="M125.61,165.39v3.83c0,0,0.47,1.96,3.09,2.62v37.59"/>
		<path class="st0" d="M136.66,165.39v3.83c0,0-0.47,1.96-3.09,2.62v37.59"/>
	</g>
	<g>
		<path class="st0" d="M108.59,165.39v3.83c0,0,0.47,1.96,3.09,2.62v37.59"/>
		<path class="st0" d="M119.63,165.39v3.83c0,0-0.47,1.96-3.09,2.62v37.59"/>
	</g>
	<path class="st0" d="M155.96,165.39v3.83c0,0,0.47,1.96,3.09,2.62v37.59"/>
	<path class="st0" d="M167,165.39v3.83c0,0-0.47,1.96-3.09,2.62v37.59"/>
	<g>
		<path class="st0" d="M173.05,165.39v3.83c0,0,0.47,1.96,3.09,2.62v37.59"/>
		<path class="st0" d="M184.1,165.39v3.83c0,0-0.47,1.96-3.09,2.62v37.59"/>
	</g>
	<g>
		<path class="st0" d="M190.04,165.39v3.83c0,0,0.47,1.96,3.09,2.62v37.59"/>
		<path class="st0" d="M201.08,165.39v3.83c0,0-0.47,1.96-3.09,2.62v37.59"/>
	</g>
	<g>
		<path class="st0" d="M220.32,165.39v3.83c0,0,0.47,1.96,3.09,2.62v37.59"/>
		<path class="st0" d="M231.36,165.39v3.83c0,0-0.47,1.96-3.09,2.62v37.59"/>
	</g>
	<g>
		<path class="st0" d="M237.28,165.39v3.83c0,0,0.47,1.96,3.09,2.62v37.59"/>
		<path class="st0" d="M248.32,165.39v3.83c0,0-0.47,1.96-3.09,2.62v37.59"/>
	</g>
	<g>
		<path class="st0" d="M267.01,165.39v3.83c0,0,0.47,1.96,3.09,2.62v37.59"/>
		<path class="st0" d="M278.05,165.39v3.83c0,0-0.47,1.96-3.09,2.62v37.59"/>
	</g>
	<g>
		<path class="st0" d="M284.21,165.39v3.83c0,0,0.47,1.96,3.09,2.62v37.59"/>
		<path class="st0" d="M295.26,165.39v3.83c0,0-0.47,1.96-3.09,2.62v37.59"/>
	</g>
	<g>
		<path class="st0" d="M314.14,165.39v3.83c0,0,0.47,1.96,3.09,2.62v37.59"/>
		<path class="st0" d="M325.18,165.39v3.83c0,0-0.47,1.96-3.09,2.62v37.59"/>
	</g>
	<g>
		<path class="st0" d="M331.25,165.39v3.83c0,0,0.47,1.96,3.09,2.62v37.59"/>
		<path class="st0" d="M342.3,165.39v3.83c0,0-0.47,1.96-3.09,2.62v37.59"/>
	</g>
	<g>
		<path class="st0" d="M348.55,165.39v3.83c0,0,0.47,1.96,3.09,2.62v37.59"/>
		<path class="st0" d="M359.6,165.39v3.83c0,0-0.47,1.96-3.09,2.62v37.59"/>
	</g>
	<g>
		<path class="st0" d="M378.67,165.39v3.83c0,0,0.47,1.96,3.09,2.62v37.59"/>
		<path class="st0" d="M389.71,165.39v3.83c0,0-0.47,1.96-3.09,2.62v37.59"/>
	</g>
	<g>
		<path class="st0" d="M395.37,165.39v3.83c0,0,0.47,1.96,3.09,2.62v37.59"/>
		<path class="st0" d="M406.42,165.39v3.83c0,0-0.47,1.96-3.09,2.62v37.59"/>
	</g>
	<path class="st0" d="M108.59,117.98v3.83c0,0,0.47,1.96,3.09,2.62v37.59"/>
	<path class="st0" d="M119.63,117.98v3.83c0,0-0.47,1.96-3.09,2.62v37.59"/>
	<path class="st0" d="M155.96,117.98v3.83c0,0,0.47,1.96,3.09,2.62v37.59"/>
	<path class="st0" d="M167,117.98v3.83c0,0-0.47,1.96-3.09,2.62v37.59"/>
	<path class="st0" d="M173.05,117.98v3.83c0,0,0.47,1.96,3.09,2.62v37.59"/>
	<path class="st0" d="M184.1,117.98v3.83c0,0-0.47,1.96-3.09,2.62v37.59"/>
	<path class="st0" d="M190.04,117.98v3.83c0,0,0.47,1.96,3.09,2.62v37.59"/>
	<path class="st0" d="M201.08,117.98v3.83c0,0-0.47,1.96-3.09,2.62v37.59"/>
	<path class="st0" d="M219.88,117.98v3.83c0,0,0.47,1.96,3.09,2.62v37.59"/>
	<path class="st0" d="M230.93,117.98v3.83c0,0-0.47,1.96-3.09,2.62v37.59"/>
	<path class="st0" d="M237.28,117.98v3.83c0,0,0.47,1.96,3.09,2.62v37.59"/>
	<path class="st0" d="M248.32,117.98v3.83c0,0-0.47,1.96-3.09,2.62v37.59"/>
	<path class="st0" d="M267.01,117.98v3.83c0,0,0.47,1.96,3.09,2.62v37.59"/>
	<path class="st0" d="M278.05,117.98v3.83c0,0-0.47,1.96-3.09,2.62v37.59"/>
	<path class="st0" d="M284.21,117.98v3.83c0,0,0.47,1.96,3.09,2.62v37.59"/>
	<path class="st0" d="M295.26,117.98v3.83c0,0-0.47,1.96-3.09,2.62v37.59"/>
	<path class="st0" d="M314.14,117.98v3.83c0,0,0.47,1.96,3.09,2.62v37.59"/>
	<path class="st0" d="M325.18,117.98v3.83c0,0-0.47,1.96-3.09,2.62v37.59"/>
	<path class="st0" d="M331.25,117.98v3.83c0,0,0.47,1.96,3.09,2.62v37.59"/>
	<path class="st0" d="M342.3,117.98v3.83c0,0-0.47,1.96-3.09,2.62v37.59"/>
	<path class="st0" d="M348.55,117.98v3.83c0,0,0.47,1.96,3.09,2.62v37.59"/>
	<path class="st0" d="M359.6,117.98v3.83c0,0-0.47,1.96-3.09,2.62v37.59"/>
	<path class="st0" d="M378.67,117.98v3.83c0,0,0.47,1.96,3.09,2.62v37.59"/>
	<path class="st0" d="M389.71,117.98v3.83c0,0-0.47,1.96-3.09,2.62v37.59"/>
	<path class="st0" d="M395.37,117.98v3.83c0,0,0.47,1.96,3.09,2.62v37.59"/>
	<path class="st0" d="M406.42,117.98v3.83c0,0-0.47,1.96-3.09,2.62v37.59"/>
	<line class="st0" x1="425.85" y1="56.4" x2="453" y2="56.4"/>
	<line class="st0" x1="406.22" y1="67.9" x2="471.3" y2="67.9"/>
	<line class="st0" x1="415.26" y1="56.4" x2="415.26" y2="67.9"/>
	<line class="st0" x1="424.8" y1="56.4" x2="424.8" y2="67.9"/>
	<line class="st0" x1="434.34" y1="56.4" x2="434.34" y2="67.9"/>
	<line class="st0" x1="443.88" y1="56.4" x2="443.88" y2="67.9"/>
	<line class="st0" x1="453.42" y1="56.4" x2="453.42" y2="67.9"/>
	<line class="st0" x1="462.96" y1="56.4" x2="462.96" y2="67.9"/>
	<line class="st0" x1="406.42" y1="93.01" x2="471.39" y2="93.01"/>
	<line class="st0" x1="406.42" y1="97.29" x2="471.39" y2="97.29"/>
	<rect x="415.54" y="100.94" class="st0" width="7.96" height="7.96"/>
	<rect x="433.5" y="100.94" class="st0" width="7.96" height="7.96"/>
	<rect x="453.21" y="100.94" class="st0" width="7.96" height="7.96"/>
	<rect x="415.54" y="119.82" class="st0" width="7.96" height="7.96"/>
	<rect x="433.5" y="119.82" class="st0" width="7.96" height="7.96"/>
	<rect x="453.21" y="119.82" class="st0" width="7.96" height="7.96"/>
	<rect x="415.54" y="137.69" class="st0" width="7.96" height="7.96"/>
	<rect x="433.5" y="137.69" class="st0" width="7.96" height="7.96"/>
	<rect x="453.21" y="137.69" class="st0" width="7.96" height="7.96"/>
	<rect x="415.54" y="157.59" class="st0" width="7.96" height="7.96"/>
	<rect x="433.5" y="157.59" class="st0" width="7.96" height="7.96"/>
	<rect x="453.21" y="157.59" class="st0" width="7.96" height="7.96"/>
	<polyline class="st0" points="441,269.69 441,245.77 479.16,245.77 479.16,269.7 	"/>
	<polyline class="st0" points="413.93,269.7 413.93,248.72 428.38,248.72 428.38,269.7 	"/>
	<polyline class="st0" points="406.42,223.75 437.48,223.75 437.48,237.78 492.49,237.78 	"/>
	<polygon class="st0" points="425.01,216.45 410,216.45 410,206.57 410,186.16 425.01,186.16 	"/>
	<path class="st0" d="M410,185.97c-0.28,0,0.43-2.27,0.49-2.39c0.41-0.82,1.03-1.51,1.75-2.06c0.5-0.39,1.05-0.71,1.63-0.98
		c0.6-0.28,1.33-0.41,1.8-0.9c1.3-1.35,2.66-4.01,2.48-5.92c0.18,1.83,0.49,4.64,1.88,5.97c0.54,0.52,1.3,0.72,1.93,1.11
		c0.58,0.37,1.14,0.8,1.63,1.28c1.1,1.07,1.83,2.51,1.44,4.07C425.01,186.16,410.02,185.97,410,185.97z"/>
	<polygon class="st0" points="30.9,206.68 15.9,206.68 15.9,196.79 15.9,176.38 30.9,176.38 	"/>
	<line class="st0" x1="30.9" y1="196.72" x2="15.9" y2="196.72"/>
	<path class="st0" d="M15.9,176.19c-0.28,0,0.43-2.27,0.49-2.39c0.41-0.82,1.03-1.51,1.75-2.06c0.5-0.39,1.05-0.71,1.63-0.98
		c0.6-0.28,1.33-0.41,1.8-0.9c1.3-1.35,2.66-4.01,2.48-5.92c0.18,1.83,0.49,4.64,1.88,5.97c0.54,0.52,1.3,0.72,1.93,1.11
		c0.58,0.37,1.14,0.8,1.63,1.28c1.1,1.07,1.83,2.51,1.44,4.07C30.9,176.38,15.91,176.19,15.9,176.19z"/>
	<polygon class="st0" points="49.98,206.68 34.97,206.68 34.97,196.79 34.97,176.38 49.98,176.38 	"/>
	<line class="st0" x1="49.98" y1="196.72" x2="34.97" y2="196.72"/>
	<path class="st0" d="M34.97,176.19c-0.28,0,0.43-2.27,0.49-2.39c0.41-0.82,1.03-1.51,1.75-2.06c0.5-0.39,1.05-0.71,1.63-0.98
		c0.6-0.28,1.33-0.41,1.8-0.9c1.3-1.35,2.66-4.01,2.48-5.92c0.18,1.83,0.49,4.64,1.88,5.97c0.54,0.52,1.3,0.72,1.93,1.11
		c0.58,0.37,1.14,0.8,1.63,1.28c1.1,1.07,1.83,2.51,1.44,4.07C49.98,176.38,34.99,176.19,34.97,176.19z"/>
	<polygon class="st0" points="67.87,206.68 52.86,206.68 52.86,196.79 52.86,176.38 67.87,176.38 	"/>
	<line class="st0" x1="67.87" y1="196.72" x2="52.86" y2="196.72"/>
	<line class="st0" x1="52.86" y1="178.48" x2="67.87" y2="178.48"/>
	<path class="st0" d="M52.86,176.19c-0.28,0,0.43-2.27,0.49-2.39c0.41-0.82,1.03-1.51,1.75-2.06c0.5-0.39,1.05-0.71,1.63-0.98
		c0.6-0.28,1.33-0.41,1.8-0.9c1.3-1.35,2.66-4.01,2.48-5.92c0.18,1.83,0.49,4.64,1.88,5.97c0.54,0.52,1.3,0.72,1.93,1.11
		c0.58,0.37,1.14,0.8,1.63,1.28c1.1,1.07,1.83,2.51,1.44,4.07C67.87,176.38,52.87,176.19,52.86,176.19z"/>
	<polygon class="st0" points="86.66,206.68 71.66,206.68 71.66,196.79 71.66,176.38 86.66,176.38 	"/>
	<line class="st0" x1="86.66" y1="196.72" x2="71.66" y2="196.72"/>
	<line class="st0" x1="71.66" y1="178.48" x2="86.66" y2="178.48"/>
	<path class="st0" d="M71.66,176.19c-0.28,0,0.43-2.27,0.49-2.39c0.41-0.82,1.03-1.51,1.75-2.06c0.5-0.39,1.05-0.71,1.63-0.98
		c0.6-0.28,1.33-0.41,1.8-0.9c1.3-1.35,2.66-4.01,2.48-5.92c0.18,1.83,0.49,4.64,1.88,5.97c0.54,0.52,1.3,0.72,1.93,1.11
		c0.58,0.37,1.14,0.8,1.63,1.28c1.1,1.07,1.83,2.51,1.44,4.07C86.66,176.38,71.67,176.19,71.66,176.19z"/>
	<polygon class="st0" points="105.07,206.68 90.06,206.68 90.06,196.79 90.06,176.38 105.07,176.38 	"/>
	<line class="st0" x1="105.07" y1="196.72" x2="90.06" y2="196.72"/>
	<line class="st0" x1="90.06" y1="178.48" x2="105.07" y2="178.48"/>
	<path class="st0" d="M90.06,176.19c-0.28,0,0.43-2.27,0.49-2.39c0.41-0.82,1.03-1.51,1.75-2.06c0.5-0.39,1.05-0.71,1.63-0.98
		c0.6-0.28,1.33-0.41,1.8-0.9c1.3-1.35,2.66-4.01,2.48-5.92c0.18,1.83,0.49,4.64,1.88,5.97c0.54,0.52,1.3,0.72,1.93,1.11
		c0.58,0.37,1.14,0.8,1.63,1.28c1.1,1.07,1.83,2.51,1.44,4.07C105.07,176.38,90.07,176.19,90.06,176.19z"/>
	<polygon class="st0" points="444.96,216.45 429.95,216.45 429.95,206.57 429.95,186.16 444.96,186.16 	"/>
	<path class="st0" d="M429.95,185.97c-0.28,0,0.43-2.27,0.49-2.39c0.41-0.82,1.03-1.51,1.75-2.06c0.5-0.39,1.05-0.71,1.63-0.98
		c0.6-0.28,1.33-0.41,1.8-0.9c1.3-1.35,2.66-4.01,2.48-5.92c0.18,1.83,0.49,4.64,1.88,5.97c0.54,0.52,1.3,0.72,1.93,1.11
		c0.58,0.37,1.14,0.8,1.63,1.28c1.1,1.07,1.83,2.51,1.44,4.07C444.96,186.16,429.97,185.97,429.95,185.97z"/>
	<polygon class="st0" points="464.92,216.45 449.91,216.45 449.91,206.57 449.91,186.16 464.92,186.16 	"/>
	<path class="st0" d="M449.91,185.97c-0.28,0,0.43-2.27,0.49-2.39c0.41-0.82,1.03-1.51,1.75-2.06c0.5-0.39,1.05-0.71,1.63-0.98
		c0.6-0.28,1.33-0.41,1.8-0.9c1.3-1.35,2.66-4.01,2.48-5.92c0.18,1.83,0.49,4.64,1.88,5.97c0.54,0.52,1.3,0.72,1.93,1.11
		c0.58,0.37,1.14,0.8,1.63,1.28c1.1,1.07,1.83,2.51,1.44,4.07C464.92,186.16,449.92,185.97,449.91,185.97z"/>
	<polygon class="st0" points="484.87,216.45 469.86,216.45 469.86,206.57 469.86,186.16 484.87,186.16 	"/>
	<path class="st0" d="M469.86,185.97c-0.28,0,0.43-2.27,0.49-2.39c0.41-0.82,1.03-1.51,1.75-2.06c0.5-0.39,1.05-0.71,1.63-0.98
		c0.6-0.28,1.33-0.41,1.8-0.9c1.3-1.35,2.66-4.01,2.48-5.92c0.18,1.83,0.49,4.64,1.88,5.97c0.54,0.52,1.3,0.72,1.93,1.11
		c0.58,0.37,1.14,0.8,1.63,1.28c1.1,1.07,1.83,2.51,1.44,4.07C484.87,186.16,469.87,185.97,469.86,185.97z"/>
	<rect x="37.85" y="132.99" class="st0" width="3.37" height="5.82"/>
	<rect x="53.21" y="132.99" class="st0" width="3.37" height="5.82"/>
	<rect x="67.97" y="132.99" class="st0" width="3.37" height="5.82"/>
	<rect x="83.3" y="132.99" class="st0" width="3.37" height="5.82"/>
	<rect x="98.45" y="132.99" class="st0" width="3.37" height="5.82"/>
	<rect x="37.85" y="152.21" class="st0" width="3.37" height="5.82"/>
	<rect x="53.21" y="152.21" class="st0" width="3.37" height="5.82"/>
	<rect x="67.97" y="152.21" class="st0" width="3.37" height="5.82"/>
	<rect x="83.3" y="152.21" class="st0" width="3.37" height="5.82"/>
	<rect x="98.45" y="152.21" class="st0" width="3.37" height="5.82"/>
	<line class="st0" x1="30.97" y1="77.39" x2="108.51" y2="77.39"/>
	<line class="st0" x1="27.99" y1="80.57" x2="108.51" y2="80.57"/>
	<line class="st0" x1="41.45" y1="66.14" x2="41.45" y2="77.39"/>
	<line class="st0" x1="52.76" y1="66.14" x2="52.76" y2="77.39"/>
	<line class="st0" x1="64.08" y1="66.14" x2="64.08" y2="77.39"/>
	<line class="st0" x1="75.4" y1="66.14" x2="75.4" y2="77.39"/>
	<line class="st0" x1="86.71" y1="66.14" x2="86.71" y2="77.39"/>
	<line class="st0" x1="98.03" y1="66.14" x2="98.03" y2="77.39"/>
	<rect x="36.31" y="88.24" class="st0" width="3.51" height="3.51"/>
	<rect x="51.46" y="88.24" class="st0" width="3.51" height="3.51"/>
	<rect x="66.5" y="88.24" class="st0" width="3.51" height="3.51"/>
	<rect x="81.54" y="88.24" class="st0" width="3.51" height="3.51"/>
	<rect x="96.69" y="88.24" class="st0" width="3.51" height="3.51"/>
	<rect x="36.31" y="102.85" class="st0" width="3.51" height="3.51"/>
	<rect x="51.46" y="102.85" class="st0" width="3.51" height="3.51"/>
	<rect x="66.5" y="102.85" class="st0" width="3.51" height="3.51"/>
	<rect x="81.54" y="102.85" class="st0" width="3.51" height="3.51"/>
	<rect x="96.69" y="102.85" class="st0" width="3.51" height="3.51"/>
	<polyline class="st0" points="35.28,268.92 35.28,230.3 62.21,230.3 62.21,269.6 	"/>
	<polyline class="st0" points="71.19,269.6 71.19,239.27 100.46,239.27 100.46,269.6 	"/>
	<polyline class="st0" points="154.24,269.6 154.24,223.66 127.16,223.66 127.16,269.7 	"/>
	<path class="st0" d="M127.16,223.66c0,0-1.64-5.28,7.62-7.72c0,0,4.35-2.1,5.94-5.94c0,0,2.95,5.38,7.86,6.83
		c0,0,5.94,1.22,5.66,6.83"/>
	<polyline class="st0" points="222.32,269.6 222.32,223.66 195.24,223.66 195.24,269.7 	"/>
	<path class="st0" d="M195.24,223.66c0,0-1.64-5.28,7.62-7.72c0,0,4.35-2.1,5.94-5.94c0,0,2.95,5.38,7.86,6.83
		c0,0,5.94,1.22,5.66,6.83"/>
	<polyline class="st0" points="271.6,269.6 271.6,223.66 244.52,223.66 244.52,269.7 	"/>
	<path class="st0" d="M244.52,223.66c0,0-1.64-5.28,7.62-7.72c0,0,4.35-2.1,5.94-5.94c0,0,2.95,5.38,7.86,6.83
		c0,0,5.94,1.22,5.66,6.83"/>
	<polyline class="st0" points="320.51,269.6 320.51,223.66 293.43,223.66 293.43,269.7 	"/>
	<path class="st0" d="M293.43,223.66c0,0-1.64-5.28,7.62-7.72c0,0,4.35-2.1,5.94-5.94c0,0,2.95,5.38,7.86,6.83
		c0,0,5.94,1.22,5.66,6.83"/>
	<polyline class="st0" points="388.16,269.6 388.16,223.66 361.08,223.66 361.08,269.7 	"/>
	<line class="st0" x1="361.08" y1="252.37" x2="388.16" y2="252.37"/>
	<path class="st0" d="M361.08,223.66c0,0-1.64-5.28,7.62-7.72c0,0,4.35-2.1,5.94-5.94c0,0,2.95,5.38,7.86,6.83
		c0,0,5.94,1.22,5.66,6.83"/>
	<polyline class="st0" points="157.5,269.6 157.5,223.66 173.05,223.66 173.05,269.7 	"/>
	<path class="st0" d="M157.5,223.66c0,0-1.02-5.05,4.73-7.34c0,0,0.84-0.23,3.23-6.08c0,0,1.54,5.28,4.06,6.59
		c0,0,4.53,1.87,3.53,7.01"/>
	<polyline class="st0" points="323.44,269.6 323.44,223.66 338.99,223.66 338.99,269.7 	"/>
	<line class="st0" x1="323.44" y1="252.37" x2="338.99" y2="252.37"/>
	<path class="st0" d="M323.44,223.66c0,0-1.02-5.05,4.73-7.34c0,0,0.84-0.23,3.23-6.08c0,0,1.54,5.28,4.06,6.59
		c0,0,4.53,1.87,3.53,7.01"/>
	<polyline class="st0" points="342.29,269.6 342.29,223.66 357.83,223.66 357.83,269.7 	"/>
	<line class="st0" x1="342.29" y1="252.37" x2="357.83" y2="252.37"/>
	<path class="st0" d="M342.29,223.66c0,0-1.02-5.05,4.73-7.34c0,0,0.84-0.23,3.23-6.08c0,0,1.54,5.28,4.06,6.59
		c0,0,4.53,1.87,3.53,7.01"/>
	<polyline class="st0" points="391.24,269.6 391.24,223.66 406.79,223.66 406.79,269.7 	"/>
	<line class="st0" x1="391.24" y1="252.37" x2="406.79" y2="252.37"/>
	<path class="st0" d="M391.24,223.66c0,0-1.02-5.05,4.73-7.34c0,0,0.84-0.23,3.23-6.08c0,0,1.54,5.28,4.06,6.59
		c0,0,4.53,1.87,3.53,7.01"/>
	<polyline class="st0" points="274.65,269.6 274.65,223.66 290.2,223.66 290.2,269.7 	"/>
	<path class="st0" d="M274.65,223.66c0,0-1.02-5.05,4.73-7.34c0,0,0.84-0.23,3.23-6.08c0,0,1.54,5.28,4.06,6.59
		c0,0,4.53,1.87,3.53,7.01"/>
	<polyline class="st0" points="225.44,269.6 225.44,223.66 240.99,223.66 240.99,269.7 	"/>
	<path class="st0" d="M225.44,223.66c0,0-1.02-5.05,4.73-7.34c0,0,0.84-0.23,3.23-6.08c0,0,1.54,5.28,4.06,6.59
		c0,0,4.53,1.87,3.53,7.01"/>
	<g>
		<polyline class="st0" points="176.35,269.6 176.35,223.66 191.9,223.66 191.9,269.7 		"/>
		<path class="st0" d="M176.35,223.66c0,0-1.02-5.05,4.73-7.34c0,0,0.84-0.23,3.23-6.08c0,0,1.54,5.28,4.06,6.59
			c0,0,4.53,1.87,3.53,7.01"/>
	</g>
	<g>
		<polyline class="st0" points="108.73,269.6 108.73,223.66 124.28,223.66 124.28,269.7 		"/>
		<path class="st0" d="M108.73,223.66c0,0-1.02-5.05,4.73-7.34c0,0,0.84-0.23,3.23-6.08c0,0,1.54,5.28,4.06,6.59
			c0,0,4.53,1.87,3.53,7.01"/>
	</g>
	<polyline class="st0" points="34.2,66.14 34.2,53.03 60.36,53.03 60.36,66.14 	"/>
	<path class="st0" d="M37.61,52.61c0,0-3.09-6.13,1.78-9.33c0,0,6.64-1.61,7.2-6.38c-0.09,0.8,1.24,2.36,1.68,2.91
		c1.65,2.09,3.73,3.15,6.22,3.94c1.38,0.44,2.27,2.18,2.62,3.52c0.54,2.09-0.21,4.13-1.54,5.77"/>
	<polyline class="st0" points="43.41,66.14 43.41,59.06 49.68,59.06 49.68,66.14 	"/>
	<path class="st0" d="M51.46,66.14v-7.36c0,0,0.56-2.34,2.81-2.24c0,0,2.06,0.09,2.34,2.52v7.08"/>
	<path class="st0" d="M36.65,66.14v-7.36c0,0,0.56-2.34,2.81-2.24c0,0,2.06,0.09,2.34,2.52v7.08"/>
	<polyline class="st0" points="436.21,56.29 436.21,49.21 442.48,49.21 442.48,56.29 	"/>
	<path class="st0" d="M444.26,56.29v-7.36c0,0,0.56-2.34,2.81-2.24c0,0,2.06,0.09,2.34,2.52v7.08"/>
	<path class="st0" d="M429.45,56.29v-7.36c0,0,0.56-2.34,2.81-2.24c0,0,2.06,0.09,2.34,2.52v7.08"/>
	<polyline class="st0" points="429.36,93.01 429.36,78.77 446.83,78.77 446.83,93.01 	"/>
	<path class="st0" d="M452.65,93.01V78.07c0,0,1.33-4.28,6.66-3.72c0,0,3.72-0.28,5.75,3.44v15.22"/>
	<path class="st0" d="M411.09,93.01V78.07c0,0,1.33-4.28,6.66-3.72c0,0,3.72-0.28,5.75,3.44v15.22"/>
	<line class="st0" x1="199.54" y1="70.85" x2="199.54" y2="41.2"/>
	<line class="st0" x1="224.65" y1="70.85" x2="224.65" y2="41.2"/>
	<line class="st0" x1="199.54" y1="44.2" x2="223.9" y2="44.2"/>
	<path class="st0" d="M228.58,41.2c0,0,0-9.33,0-9.35c0-1.19,0.89-1.96,1.89-2.44c0.67-0.32,1.06-0.76,1.66-1.27
		c0.8-0.69,1.22-1.68,1.46-2.63c0.26-1.07,0.62-2.55,0.88-3.61c-0.08,0.31,0.46,1.85,0.58,2.2c0.28,0.79,0.55,1.58,0.9,2.34
		c0.33,0.71,0.72,1.43,1.27,2c0.55,0.56,1.36,0.67,1.88,1.2c0.58,0.59,1.94,1.8,2.22,2.58v39.21"/>
	<line class="st0" x1="228.58" y1="36.06" x2="240.36" y2="36.06"/>
	<path class="st0" d="M430.76,42.93c0,0-3.16-5.75,1.26-8.98c0,0,6.25-2.1,7.93-6.52c0,0,1.4,5.12,7.57,6.52c0,0,5.4,2.31,1.4,9.33"
		/>
	<line class="st0" x1="337.62" y1="48.31" x2="337.62" y2="114.05"/>
	<polyline class="st0" points="337.62,58.12 355.58,58.12 355.58,114.05 	"/>
	<polyline class="st0" points="355.58,85.89 391.27,85.89 391.27,114.05 	"/>
	<path class="st0" d="M322.94,114.05V88.33c0,0,0.39-5.33,6.46-5.42c0,0,4.11-0.65,6.16,5.52v25.25"/>
	<path class="st0" d="M179.04,114.05V88.33c0,0,0.39-5.33,6.46-5.42c0,0,4.11-0.65,6.16,5.52v25.25"/>
	<path class="st0" d="M226.51,114.59V82.26c0,0,0.39-5.33,6.46-5.42c0,0,4.11-0.65,6.16,5.52v31.87"/>
	<path class="st0" d="M275.86,114.59V82.26c0,0,0.39-5.33,6.46-5.42c0,0,4.11-0.65,6.16,5.52v31.87"/>
	<path class="st0" d="M340.83,114.05V94.97c0,0-0.03-4.86,6.33-5.7c0,0,4.21-0.56,5.99,5.7v19.08"/>
	<line class="st0" x1="337.91" y1="79.91" x2="355.49" y2="79.91"/>
	<path class="st0" d="M360.06,114.05V99.97c0,0,0.71-4.34,7.74-5.56c0,0,3.76-2.1,4.7-4.23h1.73c0,0,1.29,3.39,6.42,4.79
		c0,0,4.66,1.54,5.13,5.96v13.12"/>
	<path class="st0" d="M161.33,114.05V94.97c0,0-0.03-4.86,6.33-5.7c0,0,4.21-0.56,5.99,5.7v19.08"/>
	<path class="st0" d="M355.49,82.16c0,0,1.64-3.83,10.87-4.53c0,0,3.68-0.61,7.06-5.47c0,0,2.9,3.93,8.33,5.47
		c0,0,9.95,3.11,9.51,8.26"/>
	<path class="st0" d="M391.27,84.13c0,0,1.34-2.91,4.8-3.05l1.92-5.09l1.92,5.19c0,0,5.7,0.07,6.3,8.09h-14.95"/>
	<polyline class="st0" points="158.18,86.24 123.02,86.24 123.02,114.4 	"/>
	<path class="st0" d="M153.75,114.4v-14.08c0,0-0.7-4.34-7.62-5.56c0,0-3.7-2.1-4.62-4.23h-1.7c0,0-1.27,3.39-6.32,4.79
		c0,0-4.59,1.54-5.05,5.96v13.12"/>
	<path class="st0" d="M158.25,82.51c0,0-1.61-3.83-10.7-4.53c0,0-3.63-0.61-6.96-5.47c0,0-2.86,3.93-8.2,5.47
		c0,0-9.8,3.11-9.37,8.26"/>
	<path class="st0" d="M123.02,84.48c0,0-1.32-2.91-4.73-3.05l-1.89-5.09l-1.89,5.19c0,0-5.61,0.07-6.21,8.09h14.72"/>
	<polyline class="st0" points="176.58,58.12 158.25,58.12 158.25,114.05 	"/>
	<path class="st0" d="M158.25,58.12c0,0-0.42-6.07,5.73-6.63c0,0,4.23-4.35,4.56-7.29c0,0,0.77,6.03,5.1,7.29
		c0,0,2.94,0.77,2.94,3.33"/>
	<path class="st0" d="M194.12,41.2c0,0,3.51-15.25,17.6-14.12c0,0,11.57-0.14,16.86,11.92"/>
	<path class="st0" d="M320.04,41.2c-3.09-14.84-15.37-14.78-15.37-14.78c-14.1-1.12-17.6,14.12-17.6,14.12v30.09"/>
	<path class="st0" d="M198,114.05l0.89-31.06c0,0,0.98-6.01,6.45-5.36c0,0,3.76-2.76,5.1-6.46c0,0,1.49,4.82,5.98,6.46
		c0,0,5.33,1.74,5.26,5.26v31.16"/>
	<path class="st0" d="M291.71,114.05l0.89-31.06c0,0,0.98-6.01,6.45-5.36c0,0,3.76-2.76,5.1-6.46c0,0,1.49,4.82,5.98,6.46
		c0,0,5.33,1.74,5.26,5.26v31.16"/>
	<path class="st0" d="M243.21,114.05V82.89c0,0,1.31-5.16,7.25-6.08l5.69-5.64h1.93c0,0,2.84,5.94,8.92,6.46
		c0,0,3.84,2.21,3.98,5.36v31.41"/>
	<path class="st0" d="M320.04,114.05V41.2h-32.97v-5.15h-13.13V30.5c-3.93-14.93-15.37-14.12-15.37-14.12
		c-14.1-1.12-18.2,14.6-18.2,14.6l33.57-0.48"/>
	<line class="st0" x1="290.49" y1="41.2" x2="290.49" y2="70.29"/>
	<line class="st0" x1="315.39" y1="41.2" x2="315.39" y2="70.29"/>
	<line class="st0" x1="290.49" y1="44.2" x2="315.39" y2="44.2"/>
	<line class="st0" x1="273.93" y1="36.06" x2="273.93" y2="70.85"/>
	<line class="st0" x1="244.9" y1="30.51" x2="244.9" y2="71.17"/>
	<line class="st0" x1="269.31" y1="30.51" x2="269.31" y2="70.85"/>
	<line class="st0" x1="244.9" y1="34.11" x2="269.31" y2="34.11"/>
	<line class="st0" x1="176.58" y1="48.5" x2="194.12" y2="48.5"/>
	<path class="st0" d="M337.6,53.45c0,0,0.96-2.47,5.17-2.78c0,0,2.6-2.17,3.83-6.48c0,0,0.75,5.24,5.33,7.29
		c0,0,4.21,1.66,3.65,6.63"/>
	<path class="st0" d="M319.66,44.2c0,0,1.87-3.18,6.45-3.46c0,0,1.98-3.21,2.56-5.13c0.06-0.22,0.36-0.22,0.44-0.01
		c0.57,1.58,1.97,4.91,3.74,5.62c0,0,6.03,1.22,4.75,7.3h-17.53"/>
	<line class="st0" x1="406.36" y1="70.99" x2="471.37" y2="70.99"/>
	<path class="st0" d="M273.93,32.13c0,0,0.56-2.67,4.25-3.65l2.22-6.1l1.74,5.47c0,0,3.3,0.98,4.49,3.79"/>
	<path class="st0" d="M287.06,36.06l-0.44-11.36c0,0-0.14-2.25,1.12-2.31c0,0,0.98-0.42,1.4,2.46v9.89"/>
	<path class="st0" d="M320.1,42.91l-0.44-11.36c0,0-0.14-2.25,1.12-2.31c0,0,0.98-0.42,1.4,2.46v9.89"/>
	<path class="st0" d="M193.96,42.28l0.44-11.36c0,0,0.14-2.25-1.12-2.31c0,0-0.98-0.42-1.4,2.46v11.08"/>
	<line class="st0" x1="289.15" y1="27.26" x2="286.73" y2="27.26"/>
	<path class="st0" d="M228.58,39V24.69c0,0,0.14-2.25-1.12-2.31c0,0-0.98-0.42-1.4,2.46v9.89"/>
	<line class="st0" x1="226.05" y1="27.26" x2="228.49" y2="27.26"/>
	<line class="st0" x1="194.12" y1="32.69" x2="191.86" y2="32.69"/>
</g>
</svg>
